G75*
%MOIN*%
%OFA0B0*%
%FSLAX25Y25*%
%IPPOS*%
%LPD*%
%AMOC8*
5,1,8,0,0,1.08239X$1,22.5*
%
%ADD10R,0.04737X0.05131*%
%ADD11R,0.05131X0.04737*%
%ADD12R,0.03280X0.04068*%
%ADD13R,0.04737X0.07887*%
%ADD14R,0.03162X0.09461*%
%ADD15R,0.03950X0.03950*%
%ADD16R,0.06312X0.04737*%
%ADD17C,0.07400*%
%ADD18R,0.04737X0.04343*%
%ADD19R,0.05131X0.04343*%
%ADD20C,0.06343*%
%ADD21R,0.06312X0.02178*%
%ADD22R,0.08280X0.07887*%
%ADD23R,0.10800X0.05800*%
%ADD24R,0.06300X0.06300*%
D10*
X0015146Y0023769D03*
X0021839Y0023769D03*
X0075225Y0071682D03*
X0081918Y0071682D03*
X0044871Y0072706D03*
X0044871Y0079398D03*
D11*
X0058532Y0077745D03*
X0058532Y0071052D03*
X0068099Y0068887D03*
X0068099Y0062194D03*
X0065698Y0046839D03*
X0072391Y0046839D03*
X0074989Y0040580D03*
X0074989Y0033887D03*
X0066446Y0034083D03*
X0066446Y0040776D03*
X0070698Y0025816D03*
X0070698Y0019123D03*
D12*
X0074320Y0056249D03*
X0065265Y0056249D03*
D13*
X0033335Y0065343D03*
X0022312Y0065343D03*
D14*
X0045402Y0060028D03*
X0050402Y0060028D03*
X0055402Y0060028D03*
X0060402Y0060028D03*
X0060402Y0039556D03*
X0055402Y0039556D03*
X0050402Y0039556D03*
X0045402Y0039556D03*
D15*
X0017312Y0016406D03*
X0023217Y0016406D03*
X0075619Y0019517D03*
X0081524Y0019517D03*
D16*
X0088020Y0018532D03*
X0096682Y0014792D03*
X0096682Y0022272D03*
X0107154Y0022233D03*
X0115816Y0018493D03*
X0107154Y0014753D03*
D17*
X0061839Y0022509D03*
X0046091Y0022509D03*
D18*
X0037430Y0015422D03*
X0030737Y0015422D03*
D19*
X0034083Y0028414D03*
D20*
X0099831Y0035265D03*
X0099831Y0060855D03*
D21*
X0024280Y0053178D03*
X0024280Y0050619D03*
X0024280Y0048060D03*
X0024280Y0045501D03*
X0024280Y0042942D03*
D22*
X0013847Y0032312D03*
X0013847Y0063808D03*
D23*
X0036249Y0056918D03*
X0036249Y0042154D03*
D24*
X0036843Y0079556D03*
X0023843Y0079556D03*
M02*
