G75*
%MOIN*%
%OFA0B0*%
%FSLAX25Y25*%
%IPPOS*%
%LPD*%
%AMOC8*
5,1,8,0,0,1.08239X$1,22.5*
%
%ADD10R,0.04800X0.08800*%
%ADD11R,0.14173X0.08661*%
%ADD12R,0.05512X0.04724*%
%ADD13R,0.04331X0.03937*%
%ADD14R,0.03937X0.04331*%
%ADD15C,0.01200*%
%ADD16C,0.00800*%
%ADD17C,0.02800*%
%ADD18C,0.02978*%
%ADD19C,0.00787*%
D10*
X0169211Y0169182D03*
X0178311Y0169182D03*
X0187411Y0169182D03*
D11*
X0178311Y0193583D03*
D12*
X0169059Y0118587D03*
X0169059Y0106776D03*
X0169059Y0093587D03*
X0169059Y0081776D03*
X0169059Y0068587D03*
X0169059Y0056776D03*
X0169059Y0043587D03*
X0169059Y0031776D03*
X0191933Y0031776D03*
X0191933Y0043587D03*
X0191933Y0054807D03*
X0191933Y0066618D03*
X0191933Y0081776D03*
X0191933Y0093587D03*
X0191933Y0106776D03*
X0191933Y0118587D03*
X0144217Y0118587D03*
X0144217Y0106776D03*
X0144217Y0093587D03*
X0144217Y0081776D03*
X0144217Y0068587D03*
X0144217Y0056776D03*
X0144217Y0043587D03*
X0144217Y0031776D03*
X0119374Y0031776D03*
X0119374Y0043587D03*
X0119374Y0056776D03*
X0119374Y0068587D03*
X0119374Y0081776D03*
X0119374Y0093587D03*
X0119374Y0106776D03*
X0119374Y0118587D03*
X0092563Y0118587D03*
X0092563Y0106776D03*
X0092563Y0093587D03*
X0092563Y0081776D03*
X0092563Y0068587D03*
X0092563Y0056776D03*
X0092563Y0043587D03*
X0092563Y0031776D03*
X0065752Y0031776D03*
X0065752Y0043587D03*
X0065752Y0056776D03*
X0065752Y0068587D03*
X0065752Y0081776D03*
X0065752Y0093587D03*
X0065752Y0106776D03*
X0065752Y0118587D03*
X0040909Y0118587D03*
X0040909Y0106776D03*
X0040909Y0093587D03*
X0040909Y0081776D03*
X0040909Y0068587D03*
X0040909Y0056776D03*
X0040909Y0043587D03*
X0040909Y0031776D03*
X0018035Y0031776D03*
X0018035Y0043587D03*
X0018035Y0056776D03*
X0018035Y0068587D03*
X0018035Y0081776D03*
X0018035Y0093587D03*
X0018035Y0106776D03*
X0018035Y0118587D03*
D13*
X0169965Y0153508D03*
X0176657Y0153508D03*
X0176657Y0160043D03*
X0169965Y0160043D03*
X0188154Y0158980D03*
X0194846Y0158980D03*
D14*
X0195476Y0176382D03*
X0195476Y0183075D03*
D15*
X0189965Y0183075D01*
X0187602Y0180713D01*
X0187602Y0180284D01*
X0187602Y0168665D01*
X0185870Y0166933D01*
X0185870Y0167641D01*
X0187411Y0169182D01*
X0195476Y0165949D02*
X0195476Y0176382D01*
X0178311Y0174807D02*
X0178311Y0169182D01*
X0178311Y0161697D01*
X0176657Y0160043D01*
X0176657Y0153508D01*
X0169965Y0153508D02*
X0169965Y0160043D01*
X0169211Y0160797D01*
X0169211Y0169182D01*
X0161005Y0169182D01*
X0157944Y0172243D01*
X0136684Y0172243D01*
X0135897Y0171456D01*
X0150201Y0185629D02*
X0150201Y0192585D01*
X0146921Y0195865D01*
X0146133Y0195865D01*
X0178311Y0193583D02*
X0178311Y0174807D01*
X0105976Y0184054D02*
X0105188Y0183267D01*
X0105188Y0183929D01*
X0105909Y0184650D01*
X0105976Y0184054D02*
X0105976Y0192715D01*
X0102039Y0196652D01*
X0085503Y0196652D01*
X0059218Y0164965D02*
X0037996Y0164965D01*
X0037012Y0165949D01*
X0037012Y0197820D01*
D16*
X0077858Y0174807D02*
X0178311Y0174807D01*
X0183300Y0180284D02*
X0187602Y0180284D01*
X0187411Y0169182D02*
X0185700Y0166684D01*
X0188100Y0164284D01*
X0188100Y0159484D01*
X0188154Y0158980D01*
X0194846Y0158980D02*
X0195300Y0158684D01*
X0195300Y0154684D01*
X0194846Y0158980D02*
X0195300Y0159484D01*
X0195300Y0165884D01*
X0195476Y0165949D01*
X0176776Y0154138D02*
X0176657Y0153508D01*
X0176776Y0154138D02*
X0197937Y0132976D01*
X0197937Y0105909D01*
X0197691Y0105663D01*
X0197937Y0105417D01*
X0197937Y0030614D01*
X0194000Y0026677D01*
X0121165Y0026677D01*
X0121904Y0022002D02*
X0121657Y0021756D01*
X0041441Y0021756D01*
X0032091Y0031106D01*
X0025693Y0031106D01*
X0023232Y0034059D02*
X0031598Y0034059D01*
X0037504Y0028154D01*
X0047839Y0028154D01*
X0059157Y0039472D01*
X0065752Y0043587D02*
X0066047Y0043409D01*
X0091146Y0043409D01*
X0092563Y0043587D01*
X0092130Y0043409D01*
X0091146Y0043409D01*
X0091146Y0036520D01*
X0092622Y0034059D02*
X0096559Y0037996D01*
X0096559Y0052760D01*
X0092622Y0056697D01*
X0092563Y0056776D01*
X0093114Y0056697D01*
X0099020Y0062602D01*
X0099020Y0069000D01*
X0092622Y0075398D01*
X0092622Y0081303D01*
X0092563Y0081776D01*
X0092622Y0081303D02*
X0099020Y0087701D01*
X0099020Y0094098D01*
X0092622Y0100496D01*
X0092622Y0105417D01*
X0092563Y0106776D01*
X0092622Y0106402D01*
X0092622Y0105417D01*
X0098035Y0110831D01*
X0098035Y0148232D01*
X0095083Y0149217D02*
X0097051Y0151185D01*
X0103449Y0151185D01*
X0119197Y0135437D01*
X0119197Y0118705D01*
X0119374Y0118587D01*
X0119689Y0118705D01*
X0143803Y0118705D01*
X0144217Y0118587D01*
X0144295Y0118705D01*
X0168902Y0118705D01*
X0169059Y0118587D01*
X0169886Y0118213D01*
X0191539Y0118213D01*
X0191933Y0118587D01*
X0194000Y0122150D02*
X0195476Y0122150D01*
X0195969Y0121657D01*
X0195969Y0110831D01*
X0192031Y0106894D01*
X0191933Y0106776D01*
X0191539Y0106402D01*
X0188587Y0103449D01*
X0188587Y0100988D01*
X0192031Y0097543D01*
X0194984Y0097543D01*
X0195969Y0096559D01*
X0195969Y0085732D01*
X0192031Y0081795D01*
X0191933Y0081776D01*
X0192031Y0081303D01*
X0192031Y0073429D01*
X0195969Y0069492D01*
X0195969Y0051283D01*
X0195722Y0051037D01*
X0195969Y0050791D01*
X0195969Y0040457D01*
X0192031Y0036520D01*
X0192031Y0032091D01*
X0191933Y0031776D01*
X0191933Y0043587D02*
X0191539Y0043902D01*
X0169394Y0043902D01*
X0169059Y0043587D01*
X0168902Y0043902D01*
X0144295Y0043902D01*
X0144217Y0043587D01*
X0143803Y0043902D01*
X0119689Y0043902D01*
X0119374Y0043587D01*
X0119197Y0043409D01*
X0119197Y0042425D01*
X0115752Y0038980D01*
X0115260Y0036028D02*
X0114768Y0036028D01*
X0112799Y0037996D01*
X0112799Y0050299D01*
X0113045Y0050545D01*
X0112799Y0050791D01*
X0112799Y0069000D01*
X0119197Y0075398D01*
X0119197Y0081303D01*
X0119374Y0081776D01*
X0119689Y0081795D01*
X0119689Y0083764D01*
X0126579Y0090654D01*
X0119689Y0093606D02*
X0119374Y0093587D01*
X0119197Y0093114D01*
X0112799Y0093114D01*
X0104433Y0084748D01*
X0100004Y0084748D01*
X0096067Y0088685D02*
X0092622Y0092130D01*
X0092622Y0093114D01*
X0092563Y0093587D01*
X0092130Y0093606D01*
X0066047Y0093606D01*
X0065752Y0093587D01*
X0065555Y0093606D01*
X0040949Y0093606D01*
X0040909Y0093587D01*
X0040457Y0093606D01*
X0018311Y0093606D01*
X0018035Y0093587D01*
X0015850Y0097543D02*
X0014866Y0097543D01*
X0013882Y0096559D01*
X0013882Y0090654D01*
X0018803Y0085732D01*
X0021264Y0085732D01*
X0022248Y0084748D01*
X0022248Y0078843D01*
X0015850Y0072445D01*
X0014866Y0072445D01*
X0013882Y0071461D01*
X0013882Y0047839D01*
X0017819Y0043902D01*
X0018035Y0043587D01*
X0018311Y0043409D01*
X0040457Y0043409D01*
X0040909Y0043587D01*
X0040949Y0043902D01*
X0065555Y0043902D01*
X0065752Y0043587D01*
X0074413Y0040457D02*
X0066047Y0032091D01*
X0065752Y0031776D01*
X0065555Y0026677D02*
X0094591Y0026677D01*
X0100988Y0033075D01*
X0092622Y0034059D02*
X0092622Y0032091D01*
X0092563Y0031776D01*
X0110831Y0033075D02*
X0110831Y0059650D01*
X0105909Y0064571D01*
X0102957Y0066539D02*
X0106402Y0069000D01*
X0106402Y0074413D01*
X0119197Y0068508D02*
X0119374Y0068587D01*
X0119689Y0068508D01*
X0143803Y0068508D01*
X0144217Y0068587D01*
X0144295Y0068508D01*
X0168902Y0068508D01*
X0169059Y0068587D01*
X0169394Y0068508D01*
X0170870Y0067031D01*
X0191539Y0067031D01*
X0191933Y0066618D01*
X0191933Y0054807D02*
X0192031Y0054728D01*
X0195722Y0051037D01*
X0168902Y0048331D02*
X0168902Y0056697D01*
X0169059Y0056776D01*
X0159059Y0071461D02*
X0168902Y0081303D01*
X0169059Y0081776D01*
X0168902Y0081795D01*
X0160043Y0090654D01*
X0154138Y0090654D02*
X0144295Y0080811D01*
X0144217Y0081776D01*
X0144295Y0081303D01*
X0144295Y0080811D01*
X0144295Y0073429D01*
X0144217Y0056776D02*
X0144295Y0056697D01*
X0144295Y0048331D01*
X0144295Y0038980D02*
X0144295Y0032091D01*
X0144217Y0031776D01*
X0129039Y0019787D02*
X0124118Y0019787D01*
X0121904Y0022002D01*
X0110831Y0033075D01*
X0115260Y0036028D02*
X0119197Y0032091D01*
X0119374Y0031776D01*
X0113045Y0050545D02*
X0119197Y0056697D01*
X0119374Y0056776D01*
X0115752Y0063587D02*
X0119197Y0067031D01*
X0119197Y0068508D01*
X0096067Y0063587D02*
X0091146Y0068508D01*
X0092563Y0068587D01*
X0092130Y0068508D01*
X0091146Y0068508D01*
X0066047Y0068508D01*
X0065752Y0068587D01*
X0065555Y0068508D01*
X0040949Y0068508D01*
X0040909Y0068587D01*
X0040457Y0068508D01*
X0018803Y0068508D01*
X0018035Y0068587D01*
X0018311Y0068508D01*
X0029630Y0079827D01*
X0030614Y0071461D02*
X0040457Y0081303D01*
X0040909Y0081776D01*
X0060142Y0087209D02*
X0065555Y0081795D01*
X0065752Y0081776D01*
X0066047Y0081303D01*
X0075890Y0071461D01*
X0065063Y0064571D02*
X0050299Y0064571D01*
X0047839Y0062602D02*
X0049807Y0060634D01*
X0080909Y0060634D01*
X0075890Y0046362D02*
X0065555Y0056697D01*
X0065752Y0056776D01*
X0047839Y0062602D02*
X0037996Y0062602D01*
X0040457Y0056697D02*
X0040909Y0056776D01*
X0039965Y0056205D01*
X0030614Y0065555D01*
X0039965Y0056205D02*
X0040457Y0056697D01*
X0039965Y0056205D02*
X0034551Y0050791D01*
X0034551Y0046362D01*
X0034551Y0040457D02*
X0040457Y0034551D01*
X0040457Y0032091D01*
X0040909Y0031776D01*
X0035043Y0024217D02*
X0042917Y0016343D01*
X0150201Y0016343D01*
X0169059Y0031776D02*
X0168902Y0032091D01*
X0168902Y0038980D01*
X0178744Y0081795D02*
X0178744Y0083764D01*
X0178498Y0084010D01*
X0187602Y0093114D01*
X0191539Y0093114D01*
X0191933Y0093587D01*
X0183665Y0093606D02*
X0176776Y0093606D01*
X0167425Y0102957D01*
X0165949Y0102957D01*
X0155122Y0113783D01*
X0116736Y0113783D01*
X0113783Y0116736D01*
X0106894Y0116736D01*
X0102465Y0117228D02*
X0102465Y0148232D01*
X0095083Y0149217D02*
X0095083Y0123626D01*
X0092622Y0121165D01*
X0092622Y0118705D01*
X0092563Y0118587D01*
X0092130Y0118705D01*
X0066047Y0118705D01*
X0065752Y0118587D01*
X0065555Y0118705D01*
X0040949Y0118705D01*
X0040909Y0118587D01*
X0040457Y0118705D01*
X0018311Y0118705D01*
X0018035Y0118587D01*
X0014866Y0114768D02*
X0013882Y0115752D01*
X0013882Y0121657D01*
X0042917Y0150693D01*
X0036520Y0149709D02*
X0036520Y0146756D01*
X0011913Y0122150D01*
X0011913Y0112799D01*
X0017819Y0106894D01*
X0018035Y0106776D01*
X0017819Y0106402D01*
X0017819Y0102957D01*
X0011913Y0097051D01*
X0011913Y0075890D01*
X0012159Y0075644D01*
X0011913Y0075398D01*
X0011913Y0042425D01*
X0017819Y0036520D01*
X0017819Y0035043D01*
X0023232Y0040457D01*
X0023232Y0046362D02*
X0018311Y0051283D01*
X0018311Y0056697D01*
X0018035Y0056776D01*
X0012159Y0075644D02*
X0017819Y0081303D01*
X0018035Y0081776D01*
X0015850Y0097543D02*
X0022248Y0103941D01*
X0022248Y0104433D01*
X0025201Y0107386D01*
X0029630Y0106894D02*
X0021756Y0114768D01*
X0014866Y0114768D01*
X0025201Y0123626D02*
X0026677Y0123626D01*
X0077858Y0174807D01*
X0088685Y0123134D02*
X0030122Y0123134D01*
X0046854Y0115752D02*
X0056697Y0115752D01*
X0065555Y0106894D01*
X0065752Y0106776D01*
X0065555Y0106402D01*
X0073429Y0096559D02*
X0090654Y0113783D01*
X0102465Y0117228D02*
X0112799Y0106894D01*
X0118213Y0106894D01*
X0119374Y0106776D01*
X0119197Y0106894D01*
X0118213Y0106894D01*
X0126579Y0098528D01*
X0119689Y0093606D02*
X0143803Y0093606D01*
X0144217Y0093587D01*
X0144295Y0093606D01*
X0168902Y0093606D01*
X0169059Y0093587D01*
X0169394Y0093114D01*
X0178498Y0084010D01*
X0166933Y0099512D02*
X0156106Y0110339D01*
X0113291Y0110339D01*
X0144217Y0106776D02*
X0144295Y0106402D01*
X0154138Y0096559D01*
X0168902Y0106894D02*
X0169059Y0106776D01*
X0168902Y0106894D02*
X0160043Y0115752D01*
X0169059Y0118587D02*
X0169394Y0118213D01*
X0177760Y0109846D01*
X0178744Y0109846D01*
X0191539Y0101972D02*
X0194000Y0101972D01*
X0197691Y0105663D01*
X0194000Y0122150D02*
X0167917Y0148232D01*
X0165555Y0148232D01*
X0169925Y0149742D02*
X0169925Y0153468D01*
X0169965Y0153508D01*
X0169925Y0149742D02*
X0172740Y0148134D01*
X0060142Y0090654D02*
X0060142Y0087209D01*
X0056205Y0096559D02*
X0053744Y0099020D01*
X0053744Y0112799D01*
X0040909Y0106776D02*
X0040457Y0106894D01*
X0035535Y0106894D01*
X0045870Y0096559D01*
X0035535Y0106894D02*
X0029630Y0106894D01*
X0017819Y0035043D02*
X0017819Y0032091D01*
X0018035Y0031776D01*
D17*
X0035043Y0024217D03*
X0025693Y0031106D03*
X0023232Y0034059D03*
X0023232Y0040457D03*
X0023232Y0046362D03*
X0034551Y0046362D03*
X0034551Y0040457D03*
X0059157Y0039472D03*
X0074413Y0040457D03*
X0075890Y0046362D03*
X0085634Y0046362D03*
X0091146Y0036520D03*
X0115752Y0038980D03*
X0121165Y0026677D03*
X0129039Y0019787D03*
X0150201Y0016343D03*
X0144295Y0038980D03*
X0144295Y0048331D03*
X0168902Y0048331D03*
X0168902Y0038980D03*
X0159059Y0071461D03*
X0144295Y0073429D03*
X0154138Y0090654D03*
X0160043Y0090654D03*
X0154138Y0096559D03*
X0166933Y0099512D03*
X0178744Y0109846D03*
X0191539Y0101972D03*
X0183665Y0093606D03*
X0178744Y0081795D03*
X0160043Y0115752D03*
X0126579Y0098528D03*
X0126579Y0090654D03*
X0106402Y0074413D03*
X0105909Y0064571D03*
X0096067Y0063587D03*
X0080909Y0060634D03*
X0075890Y0071461D03*
X0096067Y0088685D03*
X0100004Y0084748D03*
X0073429Y0096559D03*
X0060831Y0098528D03*
X0056205Y0096559D03*
X0060142Y0090654D03*
X0045870Y0096559D03*
X0053744Y0112799D03*
X0046854Y0115752D03*
X0030122Y0123134D03*
X0025201Y0123626D03*
X0025201Y0107386D03*
X0029630Y0079827D03*
X0030614Y0071461D03*
X0030614Y0065555D03*
X0037996Y0062602D03*
X0050299Y0064571D03*
X0065555Y0026677D03*
X0115752Y0063587D03*
X0113291Y0110339D03*
X0106894Y0116736D03*
X0090654Y0113783D03*
X0088685Y0123134D03*
X0098035Y0148232D03*
X0102465Y0148232D03*
X0135897Y0171456D03*
X0165555Y0148232D03*
X0172740Y0148134D03*
X0195300Y0154684D03*
X0183300Y0180284D03*
X0059218Y0164965D03*
X0042917Y0150693D03*
X0036520Y0149709D03*
X0037012Y0197820D03*
D18*
X0085503Y0196652D03*
X0105909Y0184650D03*
X0146133Y0195865D03*
X0150201Y0185629D03*
X0091539Y0127957D03*
X0070476Y0126579D03*
X0059256Y0082287D03*
X0060043Y0072051D03*
X0083518Y0064325D03*
X0100004Y0054728D03*
X0100004Y0041933D03*
X0152071Y0083961D03*
X0162406Y0080713D03*
D19*
X0161520Y0083961D01*
X0152071Y0083961D01*
X0102957Y0066539D02*
X0102957Y0035043D01*
X0100988Y0033075D01*
X0100004Y0041933D02*
X0100004Y0054728D01*
X0085634Y0046362D02*
X0085634Y0063390D01*
X0085093Y0063931D01*
X0083518Y0064325D01*
X0067770Y0064325D01*
X0067524Y0064571D01*
X0065063Y0064571D01*
X0060043Y0072051D02*
X0059256Y0072839D01*
X0059256Y0082287D01*
X0060831Y0098528D02*
X0063980Y0105319D01*
X0065555Y0106894D01*
X0070476Y0126579D02*
X0071854Y0127957D01*
X0091539Y0127957D01*
M02*
