%
M48
M72
T01C0.01181
T02C0.01200
T03C0.01378
%
T01
X70398Y86539
T02
X18823Y41657
X53469Y69610
X46776Y80634
X62917Y99531
X69217Y95594
X69217Y92445
X73154Y88902
X84965Y88508
X88114Y87327
X85752Y93626
X78272Y101894
X68823Y114689
X68429Y120791
X89689Y122366
X109374Y122366
X96382Y100319
X100319Y87720
X99531Y82996
X95988Y85358
X102287Y71579
X103469Y67248
X100713Y64098
X96776Y60949
X94020Y56224
X89689Y55437
X82996Y55437
X77484Y55043
X72760Y54650
X67642Y55437
X76697Y36146
X86539Y22760
X110161Y40083
X116067Y47169
X126303Y43232
X136146Y87327
X72760Y77091
X34177Y118429
X24335Y110161
X13705Y77878
X58587Y13311
T03
X65280Y87327
X91657Y91264
M30
