G75*
%MOIN*%
%OFA0B0*%
%FSLAX25Y25*%
%IPPOS*%
%LPD*%
%AMOC8*
5,1,8,0,0,1.08239X$1,22.5*
%
%ADD10R,0.04337X0.04731*%
%ADD11R,0.06699X0.07498*%
%ADD12R,0.03000X0.08400*%
%ADD13R,0.02762X0.09061*%
%ADD14R,0.10400X0.20400*%
%ADD15R,0.04731X0.04337*%
%ADD16R,0.05912X0.05912*%
%ADD17R,0.09200X0.05200*%
%ADD18R,0.09061X0.14573*%
%ADD19R,0.02762X0.05124*%
%ADD20R,0.05912X0.01778*%
%ADD21R,0.07880X0.07487*%
%ADD22R,0.07880X0.07880*%
%ADD23R,0.02800X0.09100*%
%ADD24C,0.02978*%
D10*
X0022563Y0062130D03*
X0029256Y0062130D03*
X0029256Y0070398D03*
X0022563Y0070398D03*
X0015673Y0069807D03*
X0015673Y0063114D03*
X0039295Y0063508D03*
X0039295Y0070201D03*
X0047957Y0069020D03*
X0047957Y0075713D03*
X0016854Y0087130D03*
X0016854Y0093823D03*
X0045594Y0115476D03*
X0045594Y0122169D03*
X0102681Y0121776D03*
X0102681Y0115083D03*
X0090476Y0048941D03*
X0090476Y0042248D03*
X0098626Y0040516D03*
X0098626Y0033823D03*
D11*
X0078555Y0022248D03*
X0067358Y0022248D03*
D12*
X0039157Y0078455D03*
X0034157Y0078455D03*
X0029157Y0078455D03*
X0024157Y0078455D03*
X0024157Y0102655D03*
X0029157Y0102655D03*
X0034157Y0102655D03*
X0039157Y0102655D03*
D13*
X0051795Y0107602D03*
X0056795Y0107602D03*
X0061795Y0107602D03*
X0066795Y0107602D03*
X0066795Y0128075D03*
X0061795Y0128075D03*
X0056795Y0128075D03*
X0051795Y0128075D03*
D14*
X0026736Y0042366D03*
X0042957Y0041579D03*
D15*
X0043823Y0057799D03*
X0037130Y0057799D03*
X0073154Y0107996D03*
X0073154Y0114689D03*
X0073035Y0122839D03*
X0073035Y0129531D03*
D16*
X0080240Y0013311D03*
X0065280Y0013311D03*
D17*
X0081417Y0031770D03*
X0081417Y0040870D03*
X0081417Y0049970D03*
D18*
X0057016Y0040870D03*
D19*
X0055260Y0060161D03*
X0060260Y0060161D03*
X0065260Y0060161D03*
X0070260Y0060161D03*
X0075260Y0060161D03*
X0080260Y0060161D03*
X0085260Y0060161D03*
X0090260Y0060161D03*
X0090260Y0082209D03*
X0085260Y0082209D03*
X0080260Y0082209D03*
X0075260Y0082209D03*
X0070260Y0082209D03*
X0065260Y0082209D03*
X0060260Y0082209D03*
X0055260Y0082209D03*
D20*
X0119413Y0076303D03*
X0119413Y0073744D03*
X0119413Y0071185D03*
X0119413Y0068626D03*
X0119413Y0066067D03*
D21*
X0129846Y0055437D03*
X0129846Y0086933D03*
D22*
X0129846Y0076185D03*
X0129846Y0066185D03*
D23*
X0096402Y0108129D03*
X0091402Y0108129D03*
X0086402Y0108129D03*
X0081402Y0108129D03*
X0081402Y0128729D03*
X0086402Y0128729D03*
X0091402Y0128729D03*
X0096402Y0128729D03*
D24*
X0091657Y0091264D03*
X0065280Y0087327D03*
M02*
