G75*
%MOIN*%
%OFA0B0*%
%FSLAX25Y25*%
%IPPOS*%
%LPD*%
%AMOC8*
5,1,8,0,0,1.08239X$1,22.5*
%
%ADD10R,0.03150X0.03150*%
%ADD11R,0.04331X0.03937*%
%ADD12R,0.03150X0.03150*%
%ADD13R,0.03937X0.04331*%
%ADD14R,0.02362X0.04724*%
%ADD15C,0.02400*%
%ADD16C,0.01000*%
%ADD17C,0.00800*%
%ADD18C,0.02578*%
%ADD19C,0.02381*%
D10*
X0072760Y0026894D03*
X0072760Y0032799D03*
X0111146Y0071185D03*
X0117051Y0071185D03*
X0072760Y0109571D03*
X0072760Y0115476D03*
X0034374Y0071185D03*
X0028469Y0071185D03*
D11*
X0072760Y0017445D03*
X0072760Y0010752D03*
X0072760Y0124925D03*
X0072760Y0131618D03*
D12*
G36*
X0090529Y0110045D02*
X0087620Y0111250D01*
X0088825Y0114159D01*
X0091734Y0112954D01*
X0090529Y0110045D01*
G37*
G36*
X0088269Y0104589D02*
X0085360Y0105794D01*
X0086565Y0108703D01*
X0089474Y0107498D01*
X0088269Y0104589D01*
G37*
G36*
X0099885Y0096083D02*
X0097658Y0098310D01*
X0099885Y0100537D01*
X0102112Y0098310D01*
X0099885Y0096083D01*
G37*
G36*
X0104060Y0100259D02*
X0101833Y0102486D01*
X0104060Y0104713D01*
X0106287Y0102486D01*
X0104060Y0100259D01*
G37*
G36*
X0112825Y0086045D02*
X0111620Y0088954D01*
X0114529Y0090159D01*
X0115734Y0087250D01*
X0112825Y0086045D01*
G37*
G36*
X0107369Y0083785D02*
X0106164Y0086694D01*
X0109073Y0087899D01*
X0110278Y0084990D01*
X0107369Y0083785D01*
G37*
G36*
X0106164Y0055636D02*
X0107369Y0058545D01*
X0110278Y0057340D01*
X0109073Y0054431D01*
X0106164Y0055636D01*
G37*
G36*
X0111620Y0053376D02*
X0112825Y0056285D01*
X0115734Y0055080D01*
X0114529Y0052171D01*
X0111620Y0053376D01*
G37*
G36*
X0097658Y0044021D02*
X0099885Y0046248D01*
X0102112Y0044021D01*
X0099885Y0041794D01*
X0097658Y0044021D01*
G37*
G36*
X0101833Y0039845D02*
X0104060Y0042072D01*
X0106287Y0039845D01*
X0104060Y0037618D01*
X0101833Y0039845D01*
G37*
G36*
X0087620Y0031116D02*
X0090529Y0032321D01*
X0091734Y0029412D01*
X0088825Y0028207D01*
X0087620Y0031116D01*
G37*
G36*
X0085360Y0036572D02*
X0088269Y0037777D01*
X0089474Y0034868D01*
X0086565Y0033663D01*
X0085360Y0036572D01*
G37*
G36*
X0057211Y0037777D02*
X0060120Y0036572D01*
X0058915Y0033663D01*
X0056006Y0034868D01*
X0057211Y0037777D01*
G37*
G36*
X0054951Y0032321D02*
X0057860Y0031116D01*
X0056655Y0028207D01*
X0053746Y0029412D01*
X0054951Y0032321D01*
G37*
G36*
X0045596Y0045185D02*
X0047823Y0042958D01*
X0045596Y0040731D01*
X0043369Y0042958D01*
X0045596Y0045185D01*
G37*
G36*
X0041420Y0041009D02*
X0043647Y0038782D01*
X0041420Y0036555D01*
X0039193Y0038782D01*
X0041420Y0041009D01*
G37*
G36*
X0032691Y0056285D02*
X0033896Y0053376D01*
X0030987Y0052171D01*
X0029782Y0055080D01*
X0032691Y0056285D01*
G37*
G36*
X0038147Y0058545D02*
X0039352Y0055636D01*
X0036443Y0054431D01*
X0035238Y0057340D01*
X0038147Y0058545D01*
G37*
G36*
X0039352Y0086694D02*
X0038147Y0083785D01*
X0035238Y0084990D01*
X0036443Y0087899D01*
X0039352Y0086694D01*
G37*
G36*
X0033896Y0088954D02*
X0032691Y0086045D01*
X0029782Y0087250D01*
X0030987Y0090159D01*
X0033896Y0088954D01*
G37*
G36*
X0047823Y0098310D02*
X0045596Y0096083D01*
X0043369Y0098310D01*
X0045596Y0100537D01*
X0047823Y0098310D01*
G37*
G36*
X0043647Y0102486D02*
X0041420Y0100259D01*
X0039193Y0102486D01*
X0041420Y0104713D01*
X0043647Y0102486D01*
G37*
G36*
X0057860Y0111250D02*
X0054951Y0110045D01*
X0053746Y0112954D01*
X0056655Y0114159D01*
X0057860Y0111250D01*
G37*
G36*
X0060120Y0105794D02*
X0057211Y0104589D01*
X0056006Y0107498D01*
X0058915Y0108703D01*
X0060120Y0105794D01*
G37*
D13*
G36*
X0050943Y0118164D02*
X0049437Y0121799D01*
X0053437Y0123456D01*
X0054943Y0119821D01*
X0050943Y0118164D01*
G37*
G36*
X0048382Y0124347D02*
X0046876Y0127982D01*
X0050876Y0129639D01*
X0052382Y0126004D01*
X0048382Y0124347D01*
G37*
G36*
X0034593Y0106251D02*
X0031810Y0109034D01*
X0034871Y0112095D01*
X0037654Y0109312D01*
X0034593Y0106251D01*
G37*
G36*
X0029861Y0110984D02*
X0027078Y0113767D01*
X0030139Y0116828D01*
X0032922Y0114045D01*
X0029861Y0110984D01*
G37*
G36*
X0017901Y0091524D02*
X0014266Y0093030D01*
X0015923Y0097030D01*
X0019558Y0095524D01*
X0017901Y0091524D01*
G37*
G36*
X0024085Y0088962D02*
X0020450Y0090468D01*
X0022107Y0094468D01*
X0025742Y0092962D01*
X0024085Y0088962D01*
G37*
X0019020Y0071185D03*
X0012327Y0071185D03*
G36*
X0025742Y0049368D02*
X0022107Y0047862D01*
X0020450Y0051862D01*
X0024085Y0053368D01*
X0025742Y0049368D01*
G37*
G36*
X0019558Y0046807D02*
X0015923Y0045301D01*
X0014266Y0049301D01*
X0017901Y0050807D01*
X0019558Y0046807D01*
G37*
G36*
X0037654Y0033019D02*
X0034871Y0030236D01*
X0031810Y0033297D01*
X0034593Y0036080D01*
X0037654Y0033019D01*
G37*
G36*
X0032922Y0028286D02*
X0030139Y0025503D01*
X0027078Y0028564D01*
X0029861Y0031347D01*
X0032922Y0028286D01*
G37*
G36*
X0052382Y0016326D02*
X0050876Y0012691D01*
X0046876Y0014348D01*
X0048382Y0017983D01*
X0052382Y0016326D01*
G37*
G36*
X0054943Y0022510D02*
X0053437Y0018875D01*
X0049437Y0020532D01*
X0050943Y0024167D01*
X0054943Y0022510D01*
G37*
G36*
X0094569Y0024167D02*
X0096075Y0020532D01*
X0092075Y0018875D01*
X0090569Y0022510D01*
X0094569Y0024167D01*
G37*
G36*
X0097130Y0017983D02*
X0098636Y0014348D01*
X0094636Y0012691D01*
X0093130Y0016326D01*
X0097130Y0017983D01*
G37*
G36*
X0110887Y0036080D02*
X0113670Y0033297D01*
X0110609Y0030236D01*
X0107826Y0033019D01*
X0110887Y0036080D01*
G37*
G36*
X0115619Y0031347D02*
X0118402Y0028564D01*
X0115341Y0025503D01*
X0112558Y0028286D01*
X0115619Y0031347D01*
G37*
G36*
X0127579Y0050807D02*
X0131214Y0049301D01*
X0129557Y0045301D01*
X0125922Y0046807D01*
X0127579Y0050807D01*
G37*
G36*
X0121396Y0053368D02*
X0125031Y0051862D01*
X0123374Y0047862D01*
X0119739Y0049368D01*
X0121396Y0053368D01*
G37*
X0126500Y0071185D03*
X0133193Y0071185D03*
G36*
X0119739Y0092962D02*
X0123374Y0094468D01*
X0125031Y0090468D01*
X0121396Y0088962D01*
X0119739Y0092962D01*
G37*
G36*
X0125922Y0095524D02*
X0129557Y0097030D01*
X0131214Y0093030D01*
X0127579Y0091524D01*
X0125922Y0095524D01*
G37*
G36*
X0107826Y0109312D02*
X0110609Y0112095D01*
X0113670Y0109034D01*
X0110887Y0106251D01*
X0107826Y0109312D01*
G37*
G36*
X0112558Y0114045D02*
X0115341Y0116828D01*
X0118402Y0113767D01*
X0115619Y0110984D01*
X0112558Y0114045D01*
G37*
G36*
X0093130Y0126004D02*
X0094636Y0129639D01*
X0098636Y0127982D01*
X0097130Y0124347D01*
X0093130Y0126004D01*
G37*
G36*
X0090569Y0119821D02*
X0092075Y0123456D01*
X0096075Y0121799D01*
X0094569Y0118164D01*
X0090569Y0119821D01*
G37*
X0095988Y0075319D03*
X0095988Y0068626D03*
D14*
X0090260Y0060161D03*
X0085260Y0060161D03*
X0080260Y0060161D03*
X0075260Y0060161D03*
X0070260Y0060161D03*
X0065260Y0060161D03*
X0060260Y0060161D03*
X0055260Y0060161D03*
X0055260Y0082209D03*
X0060260Y0082209D03*
X0065260Y0082209D03*
X0070260Y0082209D03*
X0075260Y0082209D03*
X0080260Y0082209D03*
X0085260Y0082209D03*
X0090260Y0082209D03*
D15*
X0088114Y0087327D03*
X0084965Y0088508D03*
X0085752Y0093626D03*
X0078272Y0101894D03*
X0069217Y0095594D03*
X0069217Y0092445D03*
X0073154Y0088902D03*
X0072760Y0077091D03*
X0053469Y0069610D03*
X0046776Y0080634D03*
X0062917Y0099531D03*
X0068823Y0114689D03*
X0068429Y0120791D03*
X0089689Y0122366D03*
X0109374Y0122366D03*
X0096382Y0100319D03*
X0100319Y0087720D03*
X0099531Y0082996D03*
X0095988Y0085358D03*
X0102287Y0071579D03*
X0103469Y0067248D03*
X0100713Y0064098D03*
X0096776Y0060949D03*
X0094020Y0056224D03*
X0089689Y0055437D03*
X0082996Y0055437D03*
X0077484Y0055043D03*
X0072760Y0054650D03*
X0067642Y0055437D03*
X0076697Y0036146D03*
X0086539Y0022760D03*
X0110161Y0040083D03*
X0116067Y0047169D03*
X0126303Y0043232D03*
X0136146Y0087327D03*
X0058587Y0013311D03*
X0018823Y0041657D03*
X0013705Y0077878D03*
X0024335Y0110161D03*
X0034177Y0118429D03*
D16*
X0039990Y0023256D02*
X0025492Y0023256D01*
X0026002Y0022687D02*
X0019439Y0030012D01*
X0014012Y0038214D01*
X0009837Y0047119D01*
X0007004Y0056537D01*
X0005572Y0066268D01*
X0005572Y0076103D01*
X0007004Y0085833D01*
X0009837Y0095251D01*
X0014012Y0104156D01*
X0019439Y0112358D01*
X0026002Y0119683D01*
X0033561Y0125974D01*
X0041956Y0131098D01*
X0051008Y0134944D01*
X0060523Y0137432D01*
X0070299Y0138508D01*
X0080128Y0138149D01*
X0089799Y0136362D01*
X0099108Y0133187D01*
X0107854Y0128690D01*
X0115853Y0122967D01*
X0122933Y0116141D01*
X0128944Y0108356D01*
X0133758Y0099780D01*
X0137271Y0090594D01*
X0139410Y0080994D01*
X0140127Y0071185D01*
X0139410Y0061376D01*
X0137271Y0051776D01*
X0133758Y0042590D01*
X0128944Y0034014D01*
X0122933Y0026229D01*
X0115853Y0019403D01*
X0107854Y0013680D01*
X0099108Y0009183D01*
X0089799Y0006008D01*
X0080128Y0004222D01*
X0070299Y0003862D01*
X0060523Y0004938D01*
X0051008Y0007426D01*
X0041956Y0011272D01*
X0033561Y0016396D01*
X0026002Y0022687D01*
X0026517Y0022258D02*
X0041538Y0022258D01*
X0040837Y0022678D02*
X0045028Y0020165D01*
X0045047Y0020112D01*
X0045377Y0019956D01*
X0045691Y0019768D01*
X0045745Y0019782D01*
X0047304Y0019045D01*
X0047071Y0018741D01*
X0046428Y0017187D01*
X0049367Y0015970D01*
X0048996Y0015075D01*
X0049891Y0014705D01*
X0050262Y0015599D01*
X0053200Y0014382D01*
X0053844Y0015936D01*
X0053894Y0016315D01*
X0055515Y0015736D01*
X0055544Y0015687D01*
X0055898Y0015598D01*
X0056242Y0015475D01*
X0056293Y0015500D01*
X0061033Y0014312D01*
X0061066Y0014267D01*
X0061427Y0014213D01*
X0061782Y0014125D01*
X0061830Y0014154D01*
X0066664Y0013437D01*
X0066702Y0013395D01*
X0067066Y0013377D01*
X0067427Y0013323D01*
X0067473Y0013357D01*
X0069190Y0013273D01*
X0069094Y0012918D01*
X0069094Y0011236D01*
X0072276Y0011236D01*
X0072276Y0010268D01*
X0073244Y0010268D01*
X0073244Y0011236D01*
X0076425Y0011236D01*
X0076425Y0012918D01*
X0076333Y0013261D01*
X0078064Y0013340D01*
X0078109Y0013306D01*
X0078470Y0013358D01*
X0078835Y0013375D01*
X0078873Y0013417D01*
X0083728Y0014120D01*
X0083777Y0014091D01*
X0084131Y0014178D01*
X0084492Y0014230D01*
X0084526Y0014276D01*
X0089289Y0015451D01*
X0089340Y0015427D01*
X0089684Y0015549D01*
X0090039Y0015636D01*
X0090068Y0015685D01*
X0091628Y0016237D01*
X0091668Y0015936D01*
X0092311Y0014382D01*
X0095250Y0015599D01*
X0095621Y0014705D01*
X0092682Y0013487D01*
X0093326Y0011934D01*
X0093566Y0011620D01*
X0093879Y0011380D01*
X0094244Y0011229D01*
X0094636Y0011177D01*
X0095027Y0011229D01*
X0096763Y0011948D01*
X0095621Y0014705D01*
X0096516Y0015075D01*
X0097658Y0012318D01*
X0099393Y0013037D01*
X0099707Y0013278D01*
X0099947Y0013591D01*
X0100098Y0013956D01*
X0100150Y0014347D01*
X0100098Y0014739D01*
X0099455Y0016293D01*
X0096516Y0015075D01*
X0096145Y0015970D01*
X0099084Y0017187D01*
X0098440Y0018741D01*
X0098275Y0018957D01*
X0099887Y0019712D01*
X0099941Y0019698D01*
X0100255Y0019885D01*
X0100586Y0020040D01*
X0100605Y0020093D01*
X0104822Y0022601D01*
X0104877Y0022592D01*
X0105171Y0022809D01*
X0105485Y0022995D01*
X0105499Y0023050D01*
X0109450Y0025959D01*
X0109506Y0025956D01*
X0109777Y0026200D01*
X0110071Y0026417D01*
X0110080Y0026472D01*
X0111259Y0027534D01*
X0111357Y0027365D01*
X0112546Y0026176D01*
X0114796Y0028425D01*
X0115480Y0027740D01*
X0113231Y0025491D01*
X0114420Y0024302D01*
X0114762Y0024104D01*
X0115144Y0024002D01*
X0115539Y0024002D01*
X0115920Y0024104D01*
X0116262Y0024302D01*
X0117591Y0025630D01*
X0115480Y0027740D01*
X0116165Y0028425D01*
X0115481Y0029110D01*
X0117730Y0031359D01*
X0116541Y0032548D01*
X0116403Y0032628D01*
X0117610Y0033951D01*
X0117666Y0033959D01*
X0117884Y0034252D01*
X0118130Y0034521D01*
X0118128Y0034578D01*
X0121064Y0038508D01*
X0121119Y0038522D01*
X0121307Y0038834D01*
X0121526Y0039127D01*
X0121518Y0039182D01*
X0124054Y0043382D01*
X0124108Y0043401D01*
X0124265Y0043730D01*
X0124454Y0044043D01*
X0124440Y0044097D01*
X0125123Y0045528D01*
X0125164Y0045497D01*
X0126718Y0044853D01*
X0127935Y0047792D01*
X0128830Y0047421D01*
X0127613Y0044482D01*
X0129167Y0043839D01*
X0129558Y0043787D01*
X0129950Y0043839D01*
X0130315Y0043990D01*
X0130628Y0044230D01*
X0130868Y0044544D01*
X0131587Y0046279D01*
X0128830Y0047421D01*
X0129201Y0048316D01*
X0131958Y0047174D01*
X0132677Y0048910D01*
X0132728Y0049301D01*
X0132677Y0049693D01*
X0132526Y0050058D01*
X0132285Y0050371D01*
X0131972Y0050611D01*
X0130418Y0051255D01*
X0129201Y0048316D01*
X0128306Y0048687D01*
X0129523Y0051626D01*
X0127970Y0052269D01*
X0127950Y0052272D01*
X0128535Y0053888D01*
X0128584Y0053917D01*
X0128673Y0054271D01*
X0128798Y0054614D01*
X0128774Y0054665D01*
X0129982Y0059420D01*
X0130028Y0059454D01*
X0130082Y0059815D01*
X0130172Y0060169D01*
X0130143Y0060217D01*
X0130880Y0065067D01*
X0130922Y0065105D01*
X0130941Y0065470D01*
X0130996Y0065831D01*
X0130962Y0065876D01*
X0131049Y0067520D01*
X0132709Y0067520D01*
X0132709Y0070701D01*
X0133677Y0070701D01*
X0133677Y0071669D01*
X0136661Y0071669D01*
X0136661Y0073548D01*
X0136559Y0073929D01*
X0136362Y0074271D01*
X0136082Y0074551D01*
X0135740Y0074748D01*
X0135359Y0074850D01*
X0133677Y0074850D01*
X0133677Y0071669D01*
X0132709Y0071669D01*
X0132709Y0074850D01*
X0131074Y0074850D01*
X0130997Y0076528D01*
X0131031Y0076573D01*
X0130978Y0076934D01*
X0130962Y0077299D01*
X0130920Y0077337D01*
X0130211Y0082230D01*
X0130240Y0082279D01*
X0130153Y0082633D01*
X0130101Y0082994D01*
X0130055Y0083028D01*
X0128870Y0087829D01*
X0128895Y0087880D01*
X0128773Y0088224D01*
X0128685Y0088578D01*
X0128637Y0088607D01*
X0128103Y0090117D01*
X0129523Y0090705D01*
X0128306Y0093644D01*
X0129201Y0094015D01*
X0128830Y0094909D01*
X0127935Y0094539D01*
X0126718Y0097478D01*
X0125328Y0096902D01*
X0124580Y0098498D01*
X0124594Y0098552D01*
X0124407Y0098866D01*
X0124252Y0099197D01*
X0124199Y0099216D01*
X0121672Y0103466D01*
X0121680Y0103521D01*
X0121463Y0103815D01*
X0121277Y0104129D01*
X0121222Y0104143D01*
X0118290Y0108125D01*
X0118293Y0108181D01*
X0118049Y0108452D01*
X0117833Y0108746D01*
X0117777Y0108755D01*
X0116704Y0109946D01*
X0117730Y0110971D01*
X0115480Y0113221D01*
X0116165Y0113906D01*
X0115480Y0114591D01*
X0114796Y0113906D01*
X0112546Y0116155D01*
X0111544Y0115153D01*
X0110244Y0116340D01*
X0110235Y0116395D01*
X0109943Y0116614D01*
X0109673Y0116860D01*
X0109617Y0116857D01*
X0105655Y0119816D01*
X0105642Y0119871D01*
X0105330Y0120060D01*
X0105037Y0120278D01*
X0104981Y0120270D01*
X0100749Y0122827D01*
X0100730Y0122880D01*
X0100400Y0123037D01*
X0100088Y0123226D01*
X0100033Y0123212D01*
X0098573Y0123909D01*
X0099084Y0125143D01*
X0096145Y0126361D01*
X0096516Y0127255D01*
X0099455Y0126038D01*
X0100098Y0127592D01*
X0100150Y0127983D01*
X0100098Y0128375D01*
X0099947Y0128740D01*
X0099707Y0129053D01*
X0099393Y0129294D01*
X0097658Y0130012D01*
X0096516Y0127255D01*
X0095621Y0127626D01*
X0096763Y0130383D01*
X0095027Y0131102D01*
X0094636Y0131154D01*
X0094244Y0131102D01*
X0093879Y0130951D01*
X0093566Y0130710D01*
X0093326Y0130397D01*
X0092682Y0128843D01*
X0095621Y0127626D01*
X0095250Y0126731D01*
X0092311Y0127949D01*
X0091812Y0126743D01*
X0090171Y0127337D01*
X0090142Y0127386D01*
X0089788Y0127475D01*
X0089445Y0127600D01*
X0089394Y0127576D01*
X0084601Y0128793D01*
X0084568Y0128839D01*
X0084207Y0128894D01*
X0083853Y0128984D01*
X0083805Y0128955D01*
X0078916Y0129697D01*
X0078878Y0129739D01*
X0078514Y0129758D01*
X0078153Y0129813D01*
X0078107Y0129779D01*
X0076425Y0129868D01*
X0076425Y0131134D01*
X0073244Y0131134D01*
X0073244Y0132102D01*
X0076425Y0132102D01*
X0076425Y0133784D01*
X0076323Y0134166D01*
X0076125Y0134508D01*
X0075846Y0134787D01*
X0075504Y0134984D01*
X0075123Y0135087D01*
X0073244Y0135087D01*
X0073244Y0132102D01*
X0072276Y0132102D01*
X0072276Y0131134D01*
X0069094Y0131134D01*
X0069094Y0129855D01*
X0067429Y0129762D01*
X0067383Y0129795D01*
X0067023Y0129739D01*
X0066658Y0129719D01*
X0066621Y0129677D01*
X0061754Y0128921D01*
X0061705Y0128950D01*
X0061352Y0128858D01*
X0060991Y0128802D01*
X0060957Y0128757D01*
X0056188Y0127527D01*
X0056137Y0127551D01*
X0055794Y0127426D01*
X0055440Y0127335D01*
X0055412Y0127286D01*
X0053730Y0126671D01*
X0053200Y0127949D01*
X0050262Y0126731D01*
X0049891Y0127626D01*
X0052830Y0128843D01*
X0052186Y0130397D01*
X0051946Y0130710D01*
X0051632Y0130951D01*
X0051268Y0131102D01*
X0050876Y0131154D01*
X0050484Y0131102D01*
X0048749Y0130383D01*
X0049891Y0127626D01*
X0048996Y0127255D01*
X0049367Y0126361D01*
X0046428Y0125143D01*
X0046981Y0123808D01*
X0045599Y0123142D01*
X0045544Y0123156D01*
X0045232Y0122966D01*
X0044903Y0122808D01*
X0044885Y0122754D01*
X0040678Y0120193D01*
X0040622Y0120201D01*
X0040330Y0119982D01*
X0040018Y0119792D01*
X0040005Y0119737D01*
X0036069Y0116776D01*
X0036012Y0116778D01*
X0035744Y0116531D01*
X0035452Y0116312D01*
X0035444Y0116256D01*
X0034083Y0115006D01*
X0032934Y0116155D01*
X0030685Y0113906D01*
X0030000Y0114591D01*
X0032249Y0116840D01*
X0031060Y0118029D01*
X0030718Y0118227D01*
X0030336Y0118329D01*
X0029942Y0118329D01*
X0029560Y0118227D01*
X0029218Y0118029D01*
X0027890Y0116701D01*
X0030000Y0114591D01*
X0029315Y0113906D01*
X0027205Y0116016D01*
X0025876Y0114687D01*
X0025679Y0114345D01*
X0025577Y0113964D01*
X0025577Y0113569D01*
X0025679Y0113187D01*
X0025876Y0112845D01*
X0027066Y0111656D01*
X0029315Y0113906D01*
X0030000Y0113221D01*
X0027750Y0110971D01*
X0028940Y0109782D01*
X0028950Y0109776D01*
X0027964Y0108673D01*
X0027908Y0108664D01*
X0027693Y0108369D01*
X0027449Y0108097D01*
X0027452Y0108041D01*
X0024546Y0104065D01*
X0024491Y0104051D01*
X0024305Y0103736D01*
X0024090Y0103442D01*
X0024099Y0103386D01*
X0021595Y0099144D01*
X0021542Y0099125D01*
X0021389Y0098793D01*
X0021203Y0098479D01*
X0021217Y0098424D01*
X0020436Y0096742D01*
X0020316Y0096834D01*
X0018762Y0097478D01*
X0017545Y0094539D01*
X0016650Y0094909D01*
X0016279Y0094015D01*
X0013522Y0095157D01*
X0012804Y0093421D01*
X0012752Y0093029D01*
X0012804Y0092638D01*
X0012955Y0092273D01*
X0013195Y0091960D01*
X0013508Y0091719D01*
X0015062Y0091076D01*
X0016279Y0094015D01*
X0017174Y0093644D01*
X0015957Y0090705D01*
X0017511Y0090061D01*
X0017726Y0090033D01*
X0017208Y0088556D01*
X0017160Y0088526D01*
X0017074Y0088172D01*
X0016953Y0087827D01*
X0016978Y0087776D01*
X0015814Y0082990D01*
X0015769Y0082957D01*
X0015718Y0082595D01*
X0015631Y0082240D01*
X0015661Y0082192D01*
X0014971Y0077315D01*
X0014930Y0077277D01*
X0014914Y0076912D01*
X0014863Y0076551D01*
X0014897Y0076506D01*
X0014823Y0074762D01*
X0014493Y0074850D01*
X0012811Y0074850D01*
X0012811Y0071669D01*
X0011842Y0071669D01*
X0011842Y0070701D01*
X0008858Y0070701D01*
X0008858Y0068822D01*
X0008960Y0068441D01*
X0009158Y0068099D01*
X0009437Y0067819D01*
X0009779Y0067622D01*
X0010161Y0067520D01*
X0011842Y0067520D01*
X0011842Y0070701D01*
X0012811Y0070701D01*
X0012811Y0067520D01*
X0014493Y0067520D01*
X0014847Y0067615D01*
X0014932Y0065898D01*
X0014898Y0065853D01*
X0014952Y0065491D01*
X0014970Y0065127D01*
X0015011Y0065089D01*
X0015728Y0060255D01*
X0015699Y0060207D01*
X0015788Y0059853D01*
X0015842Y0059492D01*
X0015887Y0059458D01*
X0017074Y0054718D01*
X0017050Y0054667D01*
X0017173Y0054323D01*
X0017262Y0053969D01*
X0017310Y0053940D01*
X0017890Y0052319D01*
X0017511Y0052269D01*
X0015957Y0051626D01*
X0017174Y0048687D01*
X0016279Y0048316D01*
X0016650Y0047421D01*
X0017545Y0047792D01*
X0018762Y0044853D01*
X0020316Y0045497D01*
X0020620Y0045730D01*
X0021357Y0044170D01*
X0021343Y0044116D01*
X0021531Y0043803D01*
X0021687Y0043473D01*
X0021740Y0043454D01*
X0024252Y0039262D01*
X0024244Y0039206D01*
X0024462Y0038913D01*
X0024649Y0038600D01*
X0024704Y0038586D01*
X0027615Y0034661D01*
X0027612Y0034605D01*
X0027857Y0034335D01*
X0028075Y0034041D01*
X0028131Y0034033D01*
X0029294Y0032749D01*
X0029282Y0032746D01*
X0028940Y0032548D01*
X0027750Y0031359D01*
X0030000Y0029110D01*
X0029315Y0028425D01*
X0030000Y0027740D01*
X0030685Y0028425D01*
X0032934Y0026176D01*
X0034123Y0027365D01*
X0034321Y0027707D01*
X0034324Y0027719D01*
X0035608Y0026556D01*
X0035616Y0026500D01*
X0035909Y0026283D01*
X0036180Y0026037D01*
X0036236Y0026040D01*
X0040161Y0023129D01*
X0040175Y0023074D01*
X0040488Y0022887D01*
X0040781Y0022669D01*
X0040837Y0022678D01*
X0038644Y0024255D02*
X0030979Y0024255D01*
X0031060Y0024302D02*
X0032249Y0025491D01*
X0030000Y0027740D01*
X0027890Y0025630D01*
X0029218Y0024302D01*
X0029560Y0024104D01*
X0029942Y0024002D01*
X0030336Y0024002D01*
X0030718Y0024104D01*
X0031060Y0024302D01*
X0032012Y0025253D02*
X0037297Y0025253D01*
X0035943Y0026252D02*
X0033010Y0026252D01*
X0032858Y0026252D02*
X0031488Y0026252D01*
X0031859Y0027250D02*
X0030490Y0027250D01*
X0029510Y0027250D02*
X0028140Y0027250D01*
X0028511Y0026252D02*
X0022808Y0026252D01*
X0023702Y0025253D02*
X0028266Y0025253D01*
X0029299Y0024255D02*
X0024597Y0024255D01*
X0027205Y0026315D02*
X0025876Y0027643D01*
X0025679Y0027985D01*
X0025577Y0028367D01*
X0025577Y0028762D01*
X0025679Y0029143D01*
X0025876Y0029485D01*
X0027066Y0030674D01*
X0029315Y0028425D01*
X0027205Y0026315D01*
X0026269Y0027250D02*
X0021913Y0027250D01*
X0021018Y0028249D02*
X0025608Y0028249D01*
X0025739Y0029247D02*
X0020124Y0029247D01*
X0019284Y0030246D02*
X0026637Y0030246D01*
X0027494Y0030246D02*
X0028864Y0030246D01*
X0028493Y0029247D02*
X0029862Y0029247D01*
X0029491Y0028249D02*
X0029139Y0028249D01*
X0030508Y0028249D02*
X0030861Y0028249D01*
X0034009Y0027250D02*
X0034842Y0027250D01*
X0028634Y0032243D02*
X0017963Y0032243D01*
X0018623Y0031244D02*
X0027865Y0031244D01*
X0028848Y0033241D02*
X0017302Y0033241D01*
X0016641Y0034240D02*
X0027928Y0034240D01*
X0027187Y0035238D02*
X0015981Y0035238D01*
X0015320Y0036237D02*
X0026447Y0036237D01*
X0025706Y0037235D02*
X0014660Y0037235D01*
X0014003Y0038234D02*
X0024965Y0038234D01*
X0024248Y0039232D02*
X0013535Y0039232D01*
X0013067Y0040231D02*
X0023672Y0040231D01*
X0023073Y0041229D02*
X0012598Y0041229D01*
X0012130Y0042228D02*
X0022475Y0042228D01*
X0021876Y0043226D02*
X0011662Y0043226D01*
X0011194Y0044225D02*
X0014859Y0044225D01*
X0014852Y0044230D02*
X0015166Y0043990D01*
X0015531Y0043839D01*
X0015922Y0043787D01*
X0016314Y0043839D01*
X0017867Y0044482D01*
X0016650Y0047421D01*
X0013893Y0046279D01*
X0014612Y0044544D01*
X0014852Y0044230D01*
X0014330Y0045223D02*
X0010726Y0045223D01*
X0010258Y0046222D02*
X0013917Y0046222D01*
X0013522Y0047174D02*
X0016279Y0048316D01*
X0015062Y0051255D01*
X0013508Y0050611D01*
X0013195Y0050371D01*
X0012955Y0050058D01*
X0012804Y0049693D01*
X0012752Y0049301D01*
X0012804Y0048910D01*
X0013522Y0047174D01*
X0013503Y0047220D02*
X0009807Y0047220D01*
X0009507Y0048219D02*
X0013090Y0048219D01*
X0012763Y0049217D02*
X0009206Y0049217D01*
X0008906Y0050216D02*
X0013076Y0050216D01*
X0014964Y0051214D02*
X0008605Y0051214D01*
X0008305Y0052213D02*
X0017375Y0052213D01*
X0017571Y0053211D02*
X0008004Y0053211D01*
X0007704Y0054210D02*
X0017202Y0054210D01*
X0016951Y0055209D02*
X0007404Y0055209D01*
X0007103Y0056207D02*
X0016701Y0056207D01*
X0016451Y0057206D02*
X0006906Y0057206D01*
X0006759Y0058204D02*
X0016201Y0058204D01*
X0015951Y0059203D02*
X0006612Y0059203D01*
X0006465Y0060201D02*
X0015701Y0060201D01*
X0015588Y0061200D02*
X0006318Y0061200D01*
X0006171Y0062198D02*
X0015440Y0062198D01*
X0015292Y0063197D02*
X0006024Y0063197D01*
X0005877Y0064195D02*
X0015144Y0064195D01*
X0014966Y0065194D02*
X0005730Y0065194D01*
X0005583Y0066192D02*
X0014917Y0066192D01*
X0014868Y0067191D02*
X0005572Y0067191D01*
X0005572Y0068189D02*
X0009106Y0068189D01*
X0008858Y0069188D02*
X0005572Y0069188D01*
X0005572Y0070186D02*
X0008858Y0070186D01*
X0008858Y0071669D02*
X0011842Y0071669D01*
X0011842Y0074850D01*
X0010161Y0074850D01*
X0009779Y0074748D01*
X0009437Y0074551D01*
X0009158Y0074271D01*
X0008960Y0073929D01*
X0008858Y0073548D01*
X0008858Y0071669D01*
X0008858Y0072183D02*
X0005572Y0072183D01*
X0005572Y0071185D02*
X0011842Y0071185D01*
X0011842Y0072183D02*
X0012811Y0072183D01*
X0012811Y0073182D02*
X0011842Y0073182D01*
X0011842Y0074180D02*
X0012811Y0074180D01*
X0014841Y0075179D02*
X0005572Y0075179D01*
X0005583Y0076177D02*
X0014883Y0076177D01*
X0014926Y0077176D02*
X0005730Y0077176D01*
X0005877Y0078174D02*
X0015093Y0078174D01*
X0015234Y0079173D02*
X0006024Y0079173D01*
X0006171Y0080171D02*
X0015375Y0080171D01*
X0015516Y0081170D02*
X0006318Y0081170D01*
X0006465Y0082168D02*
X0015657Y0082168D01*
X0015857Y0083167D02*
X0006612Y0083167D01*
X0006758Y0084165D02*
X0016100Y0084165D01*
X0016342Y0085164D02*
X0006905Y0085164D01*
X0007103Y0086162D02*
X0016585Y0086162D01*
X0016828Y0087161D02*
X0007403Y0087161D01*
X0007704Y0088159D02*
X0017070Y0088159D01*
X0017419Y0089158D02*
X0008004Y0089158D01*
X0008305Y0090156D02*
X0017281Y0090156D01*
X0016143Y0091155D02*
X0015095Y0091155D01*
X0014871Y0091155D02*
X0008605Y0091155D01*
X0008905Y0092153D02*
X0013046Y0092153D01*
X0012768Y0093152D02*
X0009206Y0093152D01*
X0009506Y0094150D02*
X0013106Y0094150D01*
X0013519Y0095149D02*
X0009807Y0095149D01*
X0010258Y0096147D02*
X0013933Y0096147D01*
X0013893Y0096051D02*
X0016650Y0094909D01*
X0017867Y0097848D01*
X0016314Y0098492D01*
X0015922Y0098543D01*
X0015531Y0098492D01*
X0015166Y0098341D01*
X0014852Y0098100D01*
X0014612Y0097787D01*
X0013893Y0096051D01*
X0013541Y0095149D02*
X0016072Y0095149D01*
X0016749Y0095149D02*
X0017798Y0095149D01*
X0018211Y0096147D02*
X0017163Y0096147D01*
X0017577Y0097146D02*
X0018625Y0097146D01*
X0019563Y0097146D02*
X0020623Y0097146D01*
X0021087Y0098144D02*
X0017152Y0098144D01*
X0014910Y0098144D02*
X0011194Y0098144D01*
X0010726Y0097146D02*
X0014346Y0097146D01*
X0011662Y0099143D02*
X0021593Y0099143D01*
X0022184Y0100142D02*
X0012130Y0100142D01*
X0012598Y0101140D02*
X0022773Y0101140D01*
X0023363Y0102139D02*
X0013066Y0102139D01*
X0013534Y0103137D02*
X0023952Y0103137D01*
X0024597Y0104136D02*
X0014002Y0104136D01*
X0014659Y0105134D02*
X0025327Y0105134D01*
X0026057Y0106133D02*
X0015320Y0106133D01*
X0015980Y0107131D02*
X0026787Y0107131D01*
X0027478Y0108130D02*
X0016641Y0108130D01*
X0017301Y0109128D02*
X0028371Y0109128D01*
X0028595Y0110127D02*
X0017962Y0110127D01*
X0018623Y0111125D02*
X0027904Y0111125D01*
X0027533Y0112124D02*
X0028903Y0112124D01*
X0028531Y0113122D02*
X0029901Y0113122D01*
X0029530Y0114121D02*
X0029100Y0114121D01*
X0029471Y0115119D02*
X0028101Y0115119D01*
X0028473Y0116118D02*
X0022807Y0116118D01*
X0023702Y0117116D02*
X0028305Y0117116D01*
X0029366Y0118115D02*
X0024596Y0118115D01*
X0025491Y0119113D02*
X0039175Y0119113D01*
X0037848Y0118115D02*
X0030912Y0118115D01*
X0031973Y0117116D02*
X0036521Y0117116D01*
X0035293Y0116118D02*
X0032971Y0116118D01*
X0032897Y0116118D02*
X0031527Y0116118D01*
X0031898Y0115119D02*
X0030528Y0115119D01*
X0030470Y0114121D02*
X0030900Y0114121D01*
X0026598Y0112124D02*
X0019283Y0112124D01*
X0020123Y0113122D02*
X0025717Y0113122D01*
X0025619Y0114121D02*
X0021018Y0114121D01*
X0021912Y0115119D02*
X0026308Y0115119D01*
X0026517Y0120112D02*
X0040503Y0120112D01*
X0042184Y0121110D02*
X0027716Y0121110D01*
X0028916Y0122109D02*
X0043824Y0122109D01*
X0045464Y0123107D02*
X0030116Y0123107D01*
X0031316Y0124106D02*
X0046858Y0124106D01*
X0046444Y0125104D02*
X0032516Y0125104D01*
X0033772Y0126103D02*
X0046030Y0126103D01*
X0046057Y0126038D02*
X0048996Y0127255D01*
X0047854Y0130012D01*
X0046118Y0129294D01*
X0045805Y0129053D01*
X0045565Y0128740D01*
X0045414Y0128375D01*
X0045362Y0127983D01*
X0045414Y0127592D01*
X0046057Y0126038D01*
X0046214Y0126103D02*
X0048744Y0126103D01*
X0048624Y0127101D02*
X0049060Y0127101D01*
X0050108Y0127101D02*
X0051155Y0127101D01*
X0051035Y0128100D02*
X0058409Y0128100D01*
X0054906Y0127101D02*
X0053551Y0127101D01*
X0052724Y0129098D02*
X0062896Y0129098D01*
X0069094Y0130097D02*
X0052311Y0130097D01*
X0051284Y0131095D02*
X0069094Y0131095D01*
X0069094Y0132102D02*
X0072276Y0132102D01*
X0072276Y0135087D01*
X0070397Y0135087D01*
X0070016Y0134984D01*
X0069673Y0134787D01*
X0069394Y0134508D01*
X0069197Y0134166D01*
X0069094Y0133784D01*
X0069094Y0132102D01*
X0069094Y0133092D02*
X0046650Y0133092D01*
X0044300Y0132094D02*
X0072276Y0132094D01*
X0073244Y0132094D02*
X0101233Y0132094D01*
X0099291Y0133092D02*
X0076425Y0133092D01*
X0076343Y0134091D02*
X0096457Y0134091D01*
X0093530Y0135089D02*
X0051563Y0135089D01*
X0049000Y0134091D02*
X0069177Y0134091D01*
X0072276Y0134091D02*
X0073244Y0134091D01*
X0073244Y0133092D02*
X0072276Y0133092D01*
X0076425Y0131095D02*
X0094228Y0131095D01*
X0095043Y0131095D02*
X0103175Y0131095D01*
X0105117Y0130097D02*
X0096644Y0130097D01*
X0096231Y0129098D02*
X0097279Y0129098D01*
X0096865Y0128100D02*
X0095817Y0128100D01*
X0095404Y0127101D02*
X0094357Y0127101D01*
X0094477Y0128100D02*
X0087331Y0128100D01*
X0090823Y0127101D02*
X0091960Y0127101D01*
X0092788Y0129098D02*
X0082859Y0129098D01*
X0076425Y0130097D02*
X0093201Y0130097D01*
X0096452Y0127101D02*
X0096888Y0127101D01*
X0096767Y0126103D02*
X0099298Y0126103D01*
X0099481Y0126103D02*
X0111470Y0126103D01*
X0110074Y0127101D02*
X0099895Y0127101D01*
X0100134Y0128100D02*
X0108679Y0128100D01*
X0107059Y0129098D02*
X0099648Y0129098D01*
X0099068Y0125104D02*
X0112866Y0125104D01*
X0114261Y0124106D02*
X0098654Y0124106D01*
X0100284Y0123107D02*
X0115657Y0123107D01*
X0116743Y0122109D02*
X0101937Y0122109D01*
X0103591Y0121110D02*
X0117779Y0121110D01*
X0118815Y0120112D02*
X0105260Y0120112D01*
X0106597Y0119113D02*
X0119850Y0119113D01*
X0120886Y0118115D02*
X0116114Y0118115D01*
X0116262Y0118029D02*
X0115920Y0118227D01*
X0115539Y0118329D01*
X0115144Y0118329D01*
X0114762Y0118227D01*
X0114420Y0118029D01*
X0113231Y0116840D01*
X0115480Y0114591D01*
X0117591Y0116701D01*
X0116262Y0118029D01*
X0117175Y0117116D02*
X0121922Y0117116D01*
X0122951Y0116118D02*
X0117008Y0116118D01*
X0117379Y0115119D02*
X0116009Y0115119D01*
X0115950Y0114121D02*
X0116380Y0114121D01*
X0116165Y0113906D02*
X0118275Y0116016D01*
X0119604Y0114687D01*
X0119801Y0114345D01*
X0119904Y0113964D01*
X0119904Y0113569D01*
X0119801Y0113187D01*
X0119604Y0112845D01*
X0118415Y0111656D01*
X0116165Y0113906D01*
X0115579Y0113122D02*
X0116949Y0113122D01*
X0116578Y0112124D02*
X0117947Y0112124D01*
X0118882Y0112124D02*
X0126035Y0112124D01*
X0125264Y0113122D02*
X0119764Y0113122D01*
X0119862Y0114121D02*
X0124493Y0114121D01*
X0123722Y0115119D02*
X0119172Y0115119D01*
X0114952Y0115119D02*
X0113582Y0115119D01*
X0113953Y0116118D02*
X0112584Y0116118D01*
X0112509Y0116118D02*
X0110487Y0116118D01*
X0109270Y0117116D02*
X0113507Y0117116D01*
X0114569Y0118115D02*
X0107934Y0118115D01*
X0114581Y0114121D02*
X0115011Y0114121D01*
X0117576Y0111125D02*
X0126806Y0111125D01*
X0127577Y0110127D02*
X0116885Y0110127D01*
X0117441Y0109128D02*
X0128348Y0109128D01*
X0129072Y0108130D02*
X0118291Y0108130D01*
X0119022Y0107131D02*
X0129632Y0107131D01*
X0130192Y0106133D02*
X0119757Y0106133D01*
X0120492Y0105134D02*
X0130753Y0105134D01*
X0131313Y0104136D02*
X0121251Y0104136D01*
X0121867Y0103137D02*
X0131873Y0103137D01*
X0132434Y0102139D02*
X0122461Y0102139D01*
X0123055Y0101140D02*
X0132994Y0101140D01*
X0133555Y0100142D02*
X0123649Y0100142D01*
X0124277Y0099143D02*
X0134001Y0099143D01*
X0134383Y0098144D02*
X0130570Y0098144D01*
X0130628Y0098100D02*
X0130315Y0098341D01*
X0129950Y0098492D01*
X0129558Y0098543D01*
X0129167Y0098492D01*
X0127613Y0097848D01*
X0128830Y0094909D01*
X0131587Y0096051D01*
X0130868Y0097787D01*
X0130628Y0098100D01*
X0131134Y0097146D02*
X0134765Y0097146D01*
X0135147Y0096147D02*
X0131547Y0096147D01*
X0131958Y0095157D02*
X0129201Y0094015D01*
X0130418Y0091076D01*
X0131972Y0091719D01*
X0132285Y0091960D01*
X0132526Y0092273D01*
X0132677Y0092638D01*
X0132728Y0093029D01*
X0132677Y0093421D01*
X0131958Y0095157D01*
X0131961Y0095149D02*
X0135529Y0095149D01*
X0135911Y0094150D02*
X0132375Y0094150D01*
X0132712Y0093152D02*
X0136293Y0093152D01*
X0136675Y0092153D02*
X0132434Y0092153D01*
X0130609Y0091155D02*
X0137056Y0091155D01*
X0137369Y0090156D02*
X0128199Y0090156D01*
X0128442Y0089158D02*
X0137591Y0089158D01*
X0137813Y0088159D02*
X0128796Y0088159D01*
X0129035Y0087161D02*
X0138036Y0087161D01*
X0138258Y0086162D02*
X0129282Y0086162D01*
X0129528Y0085164D02*
X0138481Y0085164D01*
X0138703Y0084165D02*
X0129775Y0084165D01*
X0130021Y0083167D02*
X0138926Y0083167D01*
X0139148Y0082168D02*
X0130220Y0082168D01*
X0130365Y0081170D02*
X0139370Y0081170D01*
X0139470Y0080171D02*
X0130510Y0080171D01*
X0130654Y0079173D02*
X0139543Y0079173D01*
X0139616Y0078174D02*
X0130799Y0078174D01*
X0130967Y0077176D02*
X0139689Y0077176D01*
X0139762Y0076177D02*
X0131013Y0076177D01*
X0131059Y0075179D02*
X0139835Y0075179D01*
X0139908Y0074180D02*
X0136414Y0074180D01*
X0136661Y0073182D02*
X0139981Y0073182D01*
X0140054Y0072183D02*
X0136661Y0072183D01*
X0136661Y0070701D02*
X0133677Y0070701D01*
X0133677Y0067520D01*
X0135359Y0067520D01*
X0135740Y0067622D01*
X0136082Y0067819D01*
X0136362Y0068099D01*
X0136559Y0068441D01*
X0136661Y0068822D01*
X0136661Y0070701D01*
X0136661Y0070186D02*
X0140054Y0070186D01*
X0139981Y0069188D02*
X0136661Y0069188D01*
X0136414Y0068189D02*
X0139908Y0068189D01*
X0139835Y0067191D02*
X0131032Y0067191D01*
X0131028Y0067628D02*
X0133193Y0069793D01*
X0133193Y0071185D01*
X0133677Y0071185D02*
X0140127Y0071185D01*
X0139762Y0066192D02*
X0130979Y0066192D01*
X0130927Y0065194D02*
X0139689Y0065194D01*
X0139616Y0064195D02*
X0130748Y0064195D01*
X0130596Y0063197D02*
X0139543Y0063197D01*
X0139470Y0062198D02*
X0130444Y0062198D01*
X0130293Y0061200D02*
X0139370Y0061200D01*
X0139148Y0060201D02*
X0130153Y0060201D01*
X0129927Y0059203D02*
X0138925Y0059203D01*
X0138703Y0058204D02*
X0129673Y0058204D01*
X0129419Y0057206D02*
X0138481Y0057206D01*
X0138258Y0056207D02*
X0129165Y0056207D01*
X0128912Y0055209D02*
X0138036Y0055209D01*
X0137813Y0054210D02*
X0128658Y0054210D01*
X0128290Y0053211D02*
X0137591Y0053211D01*
X0137368Y0052213D02*
X0128105Y0052213D01*
X0129353Y0051214D02*
X0130401Y0051214D01*
X0130516Y0051214D02*
X0137056Y0051214D01*
X0136674Y0050216D02*
X0132404Y0050216D01*
X0132717Y0049217D02*
X0136292Y0049217D01*
X0135910Y0048219D02*
X0132391Y0048219D01*
X0131977Y0047220D02*
X0135529Y0047220D01*
X0135147Y0046222D02*
X0131563Y0046222D01*
X0131846Y0047220D02*
X0129315Y0047220D01*
X0128747Y0047220D02*
X0127699Y0047220D01*
X0127285Y0046222D02*
X0128333Y0046222D01*
X0127920Y0045223D02*
X0126871Y0045223D01*
X0125824Y0045223D02*
X0124977Y0045223D01*
X0124501Y0044225D02*
X0128234Y0044225D01*
X0130621Y0044225D02*
X0134383Y0044225D01*
X0134765Y0045223D02*
X0131150Y0045223D01*
X0134001Y0043226D02*
X0123960Y0043226D01*
X0123357Y0042228D02*
X0133554Y0042228D01*
X0132994Y0041229D02*
X0122754Y0041229D01*
X0122151Y0040231D02*
X0132434Y0040231D01*
X0131873Y0039232D02*
X0121548Y0039232D01*
X0120859Y0038234D02*
X0131313Y0038234D01*
X0130752Y0037235D02*
X0120113Y0037235D01*
X0119367Y0036237D02*
X0130192Y0036237D01*
X0129632Y0035238D02*
X0118621Y0035238D01*
X0117875Y0034240D02*
X0129071Y0034240D01*
X0128348Y0033241D02*
X0116962Y0033241D01*
X0116846Y0032243D02*
X0127577Y0032243D01*
X0126806Y0031244D02*
X0117615Y0031244D01*
X0118415Y0030674D02*
X0116165Y0028425D01*
X0118275Y0026315D01*
X0119604Y0027643D01*
X0119801Y0027985D01*
X0119904Y0028367D01*
X0119904Y0028762D01*
X0119801Y0029143D01*
X0119604Y0029485D01*
X0118415Y0030674D01*
X0118843Y0030246D02*
X0126035Y0030246D01*
X0125264Y0029247D02*
X0119741Y0029247D01*
X0119872Y0028249D02*
X0124493Y0028249D01*
X0123722Y0027250D02*
X0119211Y0027250D01*
X0117340Y0027250D02*
X0115970Y0027250D01*
X0114991Y0027250D02*
X0113621Y0027250D01*
X0113992Y0026252D02*
X0112622Y0026252D01*
X0112470Y0026252D02*
X0109847Y0026252D01*
X0110944Y0027250D02*
X0111472Y0027250D01*
X0113469Y0025253D02*
X0108491Y0025253D01*
X0107135Y0024255D02*
X0114502Y0024255D01*
X0116181Y0024255D02*
X0120885Y0024255D01*
X0121921Y0025253D02*
X0117214Y0025253D01*
X0116969Y0026252D02*
X0122951Y0026252D01*
X0119850Y0023256D02*
X0105779Y0023256D01*
X0104245Y0022258D02*
X0118814Y0022258D01*
X0117778Y0021259D02*
X0102566Y0021259D01*
X0100887Y0020261D02*
X0116743Y0020261D01*
X0115656Y0019262D02*
X0098926Y0019262D01*
X0098638Y0018264D02*
X0114260Y0018264D01*
X0112865Y0017265D02*
X0099052Y0017265D01*
X0099392Y0016267D02*
X0096861Y0016267D01*
X0096981Y0015268D02*
X0096436Y0015268D01*
X0095387Y0015268D02*
X0094450Y0015268D01*
X0094570Y0014270D02*
X0084522Y0014270D01*
X0088547Y0015268D02*
X0091944Y0015268D01*
X0092772Y0013271D02*
X0076561Y0013271D01*
X0076425Y0012273D02*
X0093185Y0012273D01*
X0094135Y0011274D02*
X0076425Y0011274D01*
X0076425Y0010268D02*
X0073244Y0010268D01*
X0073244Y0007283D01*
X0075123Y0007283D01*
X0075504Y0007386D01*
X0075846Y0007583D01*
X0076125Y0007862D01*
X0076323Y0008204D01*
X0076425Y0008586D01*
X0076425Y0010268D01*
X0076425Y0009277D02*
X0099290Y0009277D01*
X0101232Y0010275D02*
X0073244Y0010275D01*
X0072276Y0010268D02*
X0072276Y0007283D01*
X0070397Y0007283D01*
X0070016Y0007386D01*
X0069673Y0007583D01*
X0069394Y0007862D01*
X0069197Y0008204D01*
X0069094Y0008586D01*
X0069094Y0010268D01*
X0072276Y0010268D01*
X0072276Y0010275D02*
X0044302Y0010275D01*
X0046652Y0009277D02*
X0069094Y0009277D01*
X0069177Y0008278D02*
X0049001Y0008278D01*
X0051565Y0007280D02*
X0093528Y0007280D01*
X0096455Y0008278D02*
X0076343Y0008278D01*
X0073244Y0008278D02*
X0072276Y0008278D01*
X0072276Y0009277D02*
X0073244Y0009277D01*
X0069094Y0011274D02*
X0051377Y0011274D01*
X0051268Y0011229D02*
X0051632Y0011380D01*
X0051946Y0011620D01*
X0052186Y0011934D01*
X0052830Y0013487D01*
X0049891Y0014705D01*
X0048749Y0011948D01*
X0050484Y0011229D01*
X0050876Y0011177D01*
X0051268Y0011229D01*
X0050375Y0011274D02*
X0041953Y0011274D01*
X0040317Y0012273D02*
X0048883Y0012273D01*
X0047854Y0012318D02*
X0048996Y0015075D01*
X0046057Y0016293D01*
X0045414Y0014739D01*
X0045362Y0014347D01*
X0045414Y0013956D01*
X0045565Y0013591D01*
X0045805Y0013278D01*
X0046118Y0013037D01*
X0047854Y0012318D01*
X0048249Y0013271D02*
X0049297Y0013271D01*
X0049711Y0014270D02*
X0048662Y0014270D01*
X0048531Y0015268D02*
X0049076Y0015268D01*
X0050124Y0015268D02*
X0051062Y0015268D01*
X0050941Y0014270D02*
X0061064Y0014270D01*
X0057217Y0015268D02*
X0053567Y0015268D01*
X0053888Y0016267D02*
X0054031Y0016267D01*
X0052740Y0013271D02*
X0069189Y0013271D01*
X0069094Y0012273D02*
X0052327Y0012273D01*
X0048651Y0016267D02*
X0046120Y0016267D01*
X0046046Y0016267D02*
X0033773Y0016267D01*
X0032517Y0017265D02*
X0046460Y0017265D01*
X0046874Y0018264D02*
X0031317Y0018264D01*
X0030117Y0019262D02*
X0046845Y0019262D01*
X0044869Y0020261D02*
X0028917Y0020261D01*
X0027717Y0021259D02*
X0043204Y0021259D01*
X0045633Y0015268D02*
X0035409Y0015268D01*
X0037045Y0014270D02*
X0045372Y0014270D01*
X0045814Y0013271D02*
X0038681Y0013271D01*
X0055385Y0006281D02*
X0090601Y0006281D01*
X0085874Y0005283D02*
X0059204Y0005283D01*
X0066463Y0004284D02*
X0080468Y0004284D01*
X0095137Y0011274D02*
X0103174Y0011274D01*
X0105116Y0012273D02*
X0096628Y0012273D01*
X0096215Y0013271D02*
X0097263Y0013271D01*
X0096849Y0014270D02*
X0095801Y0014270D01*
X0099698Y0013271D02*
X0107058Y0013271D01*
X0108678Y0014270D02*
X0100139Y0014270D01*
X0099879Y0015268D02*
X0110073Y0015268D01*
X0111469Y0016267D02*
X0099465Y0016267D01*
X0086539Y0022760D02*
X0076697Y0032602D01*
X0076697Y0036146D01*
X0072366Y0036539D02*
X0072366Y0033193D01*
X0072760Y0032799D01*
X0072366Y0036539D02*
X0086047Y0049039D01*
X0086047Y0055929D01*
X0089689Y0055437D02*
X0090260Y0056008D01*
X0090260Y0060161D01*
X0090260Y0066244D01*
X0092839Y0068823D01*
X0095791Y0068823D01*
X0095988Y0068626D01*
X0096662Y0067887D01*
X0100713Y0064098D02*
X0100713Y0063996D01*
X0108221Y0056488D01*
X0116067Y0047169D02*
X0110161Y0041264D01*
X0110161Y0040083D01*
X0099885Y0044021D02*
X0096776Y0047130D01*
X0096776Y0060949D01*
X0094020Y0056224D02*
X0094020Y0042323D01*
X0087417Y0035720D01*
X0080240Y0049925D02*
X0066035Y0035720D01*
X0058063Y0035720D01*
X0062917Y0044807D02*
X0048976Y0044807D01*
X0037295Y0056488D01*
X0034965Y0063705D02*
X0034965Y0070594D01*
X0034374Y0071185D01*
X0038114Y0064492D02*
X0038114Y0085023D01*
X0037295Y0085842D01*
X0046776Y0080634D02*
X0047062Y0080687D01*
X0047062Y0095887D01*
X0049462Y0098287D01*
X0049462Y0099887D01*
X0034262Y0115087D01*
X0034184Y0115174D01*
X0034207Y0115119D02*
X0033970Y0115119D01*
X0035408Y0127101D02*
X0045617Y0127101D01*
X0045377Y0128100D02*
X0037044Y0128100D01*
X0038680Y0129098D02*
X0045864Y0129098D01*
X0048233Y0129098D02*
X0049281Y0129098D01*
X0049695Y0128100D02*
X0048646Y0128100D01*
X0048867Y0130097D02*
X0040316Y0130097D01*
X0041952Y0131095D02*
X0050468Y0131095D01*
X0055382Y0136088D02*
X0090603Y0136088D01*
X0085878Y0137086D02*
X0059201Y0137086D01*
X0066457Y0138085D02*
X0080472Y0138085D01*
X0072760Y0109571D02*
X0072760Y0100319D01*
X0083783Y0089295D01*
X0084965Y0088508D01*
X0085752Y0093626D02*
X0087417Y0095291D01*
X0087417Y0106646D01*
X0099885Y0098310D02*
X0099885Y0097522D01*
X0095594Y0093232D01*
X0095594Y0085752D01*
X0095988Y0085358D01*
X0099531Y0082996D02*
X0102378Y0085842D01*
X0108221Y0085842D01*
X0095988Y0075319D02*
X0095594Y0075713D01*
X0095594Y0076303D01*
X0095988Y0075319D02*
X0087524Y0075319D01*
X0084965Y0077878D01*
X0084965Y0081913D01*
X0085260Y0082209D01*
X0075260Y0082209D02*
X0075260Y0068685D01*
X0077878Y0066067D01*
X0077878Y0055437D01*
X0077484Y0055043D01*
X0080240Y0055437D02*
X0080260Y0055457D01*
X0080260Y0049945D01*
X0080240Y0049925D01*
X0075122Y0050713D02*
X0075122Y0058055D01*
X0075260Y0058193D01*
X0075260Y0060161D01*
X0080260Y0060161D02*
X0080260Y0055457D01*
X0075122Y0050713D02*
X0067761Y0042958D01*
X0045596Y0042958D01*
X0051106Y0047563D02*
X0034965Y0063705D01*
X0038114Y0064492D02*
X0052287Y0050319D01*
X0056224Y0050319D01*
X0060260Y0054354D01*
X0060260Y0055929D01*
X0060161Y0055831D01*
X0060260Y0055929D02*
X0060260Y0060161D01*
X0055260Y0060161D02*
X0045988Y0060161D01*
X0042839Y0063311D01*
X0042839Y0095553D01*
X0045596Y0098310D01*
X0058063Y0106646D02*
X0060260Y0104449D01*
X0060260Y0082209D01*
X0055260Y0082209D02*
X0055043Y0081992D01*
X0055043Y0075909D01*
X0053469Y0074335D01*
X0053469Y0069610D01*
X0065260Y0060161D02*
X0065260Y0055457D01*
X0065260Y0052268D01*
X0060555Y0047563D01*
X0051106Y0047563D01*
X0062917Y0044807D02*
X0070260Y0052150D01*
X0070260Y0060161D01*
X0070260Y0055969D01*
X0070398Y0055831D01*
X0065280Y0055437D02*
X0065260Y0055457D01*
X0065260Y0082209D02*
X0065260Y0086165D01*
X0065280Y0087327D01*
X0102287Y0071579D02*
X0102681Y0071185D01*
X0111146Y0071185D01*
X0131062Y0067887D02*
X0131028Y0067628D01*
X0132709Y0068189D02*
X0133677Y0068189D01*
X0133677Y0069188D02*
X0132709Y0069188D01*
X0132709Y0070186D02*
X0133677Y0070186D01*
X0133677Y0072183D02*
X0132709Y0072183D01*
X0132709Y0073182D02*
X0133677Y0073182D01*
X0133677Y0074180D02*
X0132709Y0074180D01*
X0130385Y0091155D02*
X0129337Y0091155D01*
X0128923Y0092153D02*
X0129972Y0092153D01*
X0129558Y0093152D02*
X0128510Y0093152D01*
X0129145Y0094150D02*
X0129529Y0094150D01*
X0129409Y0095149D02*
X0131939Y0095149D01*
X0128731Y0095149D02*
X0127683Y0095149D01*
X0127269Y0096147D02*
X0128317Y0096147D01*
X0127904Y0097146D02*
X0126855Y0097146D01*
X0125917Y0097146D02*
X0125213Y0097146D01*
X0124745Y0098144D02*
X0128328Y0098144D01*
X0128939Y0050216D02*
X0129988Y0050216D01*
X0129574Y0049217D02*
X0128526Y0049217D01*
X0129161Y0048219D02*
X0129435Y0048219D01*
X0117986Y0030246D02*
X0116616Y0030246D01*
X0116988Y0029247D02*
X0115618Y0029247D01*
X0115989Y0028249D02*
X0116342Y0028249D01*
X0114972Y0028249D02*
X0114619Y0028249D01*
X0021331Y0044225D02*
X0017246Y0044225D01*
X0017561Y0045223D02*
X0018609Y0045223D01*
X0019656Y0045223D02*
X0020859Y0045223D01*
X0018195Y0046222D02*
X0017147Y0046222D01*
X0016733Y0047220D02*
X0017782Y0047220D01*
X0016320Y0048219D02*
X0016045Y0048219D01*
X0016165Y0047220D02*
X0013634Y0047220D01*
X0015906Y0049217D02*
X0016954Y0049217D01*
X0016541Y0050216D02*
X0015493Y0050216D01*
X0015079Y0051214D02*
X0016127Y0051214D01*
X0012811Y0068189D02*
X0011842Y0068189D01*
X0011842Y0069188D02*
X0012811Y0069188D01*
X0012811Y0070186D02*
X0011842Y0070186D01*
X0008858Y0073182D02*
X0005572Y0073182D01*
X0005572Y0074180D02*
X0009105Y0074180D01*
X0015509Y0092153D02*
X0016557Y0092153D01*
X0016970Y0093152D02*
X0015922Y0093152D01*
X0015952Y0094150D02*
X0016336Y0094150D01*
D17*
X0023096Y0091715D02*
X0031839Y0088102D01*
X0041420Y0102486D02*
X0034732Y0109173D01*
X0052190Y0120810D02*
X0055803Y0112102D01*
X0066935Y0108930D02*
X0070692Y0112687D01*
X0075062Y0112687D01*
X0075862Y0111887D01*
X0075862Y0099887D01*
X0084662Y0091087D01*
X0089865Y0091087D01*
X0093232Y0087720D01*
X0093232Y0081028D01*
X0095594Y0078665D01*
X0095594Y0076303D01*
X0095988Y0068626D02*
X0102091Y0068626D01*
X0103469Y0067248D01*
X0117051Y0071185D02*
X0126500Y0071185D01*
X0122385Y0091715D02*
X0113677Y0088102D01*
X0103862Y0097957D02*
X0103862Y0098350D01*
X0099925Y0102287D01*
X0098350Y0102287D01*
X0096382Y0100319D01*
X0100319Y0094413D02*
X0103862Y0097957D01*
X0104060Y0102486D02*
X0110748Y0109173D01*
X0100319Y0094413D02*
X0100319Y0087720D01*
X0091657Y0091264D02*
X0091481Y0091087D01*
X0089865Y0091087D01*
X0088114Y0087327D02*
X0090476Y0086146D01*
X0090476Y0082425D01*
X0090260Y0082209D01*
X0085358Y0082307D02*
X0085260Y0082209D01*
X0080260Y0082209D02*
X0080260Y0066047D01*
X0082602Y0063705D01*
X0082602Y0055831D01*
X0082996Y0055437D01*
X0086047Y0055929D02*
X0086047Y0059374D01*
X0085260Y0060161D01*
X0072760Y0054650D02*
X0072760Y0077091D01*
X0075260Y0082209D02*
X0075654Y0082602D01*
X0075654Y0090732D01*
X0073941Y0092445D01*
X0069217Y0092445D01*
X0066935Y0092318D02*
X0066935Y0108930D01*
X0068823Y0114689D02*
X0069610Y0114886D01*
X0068429Y0116067D01*
X0068429Y0120791D01*
X0072760Y0124925D02*
X0072760Y0115476D01*
X0084177Y0114886D02*
X0084177Y0107799D01*
X0078272Y0101894D01*
X0074335Y0095594D02*
X0069217Y0095594D01*
X0066935Y0092318D02*
X0062731Y0088114D01*
X0062731Y0070020D01*
X0062322Y0069610D01*
X0053469Y0069610D01*
X0067642Y0057012D02*
X0068035Y0057406D01*
X0068035Y0088508D01*
X0068823Y0089295D01*
X0072760Y0089295D01*
X0073154Y0088902D01*
X0070398Y0086539D02*
X0070398Y0082346D01*
X0070260Y0082209D01*
X0080260Y0082209D02*
X0080260Y0089276D01*
X0074335Y0095594D01*
X0089677Y0112102D02*
X0093322Y0120810D01*
X0089689Y0120398D02*
X0089689Y0122366D01*
X0089689Y0120398D02*
X0084177Y0114886D01*
X0028469Y0071185D02*
X0019020Y0071185D01*
X0023096Y0050615D02*
X0031839Y0054228D01*
X0041420Y0038782D02*
X0034732Y0033158D01*
X0052190Y0021521D02*
X0055803Y0030264D01*
X0072760Y0026894D02*
X0072760Y0017445D01*
X0093322Y0021521D02*
X0089677Y0030264D01*
X0104060Y0039845D02*
X0110748Y0033158D01*
X0122385Y0050615D02*
X0113677Y0054228D01*
X0067642Y0055437D02*
X0067642Y0057012D01*
D18*
X0065280Y0087327D03*
X0091657Y0091264D03*
D19*
X0070398Y0086539D03*
M02*
