G75*
%MOIN*%
%OFA0B0*%
%FSLAX25Y25*%
%IPPOS*%
%LPD*%
%AMOC8*
5,1,8,0,0,1.08239X$1,22.5*
%
%ADD10C,0.08674*%
%ADD11R,0.05600X0.09600*%
%ADD12R,0.14973X0.09461*%
%ADD13R,0.06312X0.05524*%
%ADD14R,0.05131X0.04737*%
%ADD15R,0.04737X0.05131*%
%ADD16C,0.03778*%
D10*
X0016343Y0017327D03*
X0193508Y0017327D03*
X0193508Y0194492D03*
X0016343Y0194492D03*
D11*
X0169211Y0169182D03*
X0178311Y0169182D03*
X0187411Y0169182D03*
D12*
X0178311Y0193583D03*
D13*
X0169059Y0118587D03*
X0169059Y0106776D03*
X0169059Y0093587D03*
X0169059Y0081776D03*
X0169059Y0068587D03*
X0169059Y0056776D03*
X0169059Y0043587D03*
X0169059Y0031776D03*
X0191933Y0031776D03*
X0191933Y0043587D03*
X0191933Y0054807D03*
X0191933Y0066618D03*
X0191933Y0081776D03*
X0191933Y0093587D03*
X0191933Y0106776D03*
X0191933Y0118587D03*
X0144217Y0118587D03*
X0144217Y0106776D03*
X0144217Y0093587D03*
X0144217Y0081776D03*
X0144217Y0068587D03*
X0144217Y0056776D03*
X0144217Y0043587D03*
X0144217Y0031776D03*
X0119374Y0031776D03*
X0119374Y0043587D03*
X0119374Y0056776D03*
X0119374Y0068587D03*
X0119374Y0081776D03*
X0119374Y0093587D03*
X0119374Y0106776D03*
X0119374Y0118587D03*
X0092563Y0118587D03*
X0092563Y0106776D03*
X0092563Y0093587D03*
X0092563Y0081776D03*
X0092563Y0068587D03*
X0092563Y0056776D03*
X0092563Y0043587D03*
X0092563Y0031776D03*
X0065752Y0031776D03*
X0065752Y0043587D03*
X0065752Y0056776D03*
X0065752Y0068587D03*
X0065752Y0081776D03*
X0065752Y0093587D03*
X0065752Y0106776D03*
X0065752Y0118587D03*
X0040909Y0118587D03*
X0040909Y0106776D03*
X0040909Y0093587D03*
X0040909Y0081776D03*
X0040909Y0068587D03*
X0040909Y0056776D03*
X0040909Y0043587D03*
X0040909Y0031776D03*
X0018035Y0031776D03*
X0018035Y0043587D03*
X0018035Y0056776D03*
X0018035Y0068587D03*
X0018035Y0081776D03*
X0018035Y0093587D03*
X0018035Y0106776D03*
X0018035Y0118587D03*
D14*
X0169965Y0153508D03*
X0176657Y0153508D03*
X0176657Y0160043D03*
X0169965Y0160043D03*
X0188154Y0158980D03*
X0194846Y0158980D03*
D15*
X0195476Y0176382D03*
X0195476Y0183075D03*
D16*
X0150201Y0185629D03*
X0146133Y0195865D03*
X0105909Y0184650D03*
X0085503Y0196652D03*
X0091539Y0127957D03*
X0070476Y0126579D03*
X0059256Y0082287D03*
X0060043Y0072051D03*
X0083518Y0064325D03*
X0100004Y0054728D03*
X0100004Y0041933D03*
X0152071Y0083961D03*
X0162406Y0080713D03*
M02*
