G75*
%MOIN*%
%OFA0B0*%
%FSLAX25Y25*%
%IPPOS*%
%LPD*%
%AMOC8*
5,1,8,0,0,1.08239X$1,22.5*
%
%ADD10R,0.02600X0.06000*%
%ADD11R,0.04331X0.03937*%
%ADD12C,0.05000*%
%ADD13R,0.07098X0.06299*%
%ADD14R,0.03937X0.04331*%
%ADD15R,0.03543X0.03150*%
%ADD16R,0.02480X0.03268*%
%ADD17R,0.05512X0.01378*%
%ADD18R,0.07480X0.07087*%
%ADD19R,0.04331X0.02756*%
%ADD20R,0.02400X0.08700*%
%ADD21R,0.03150X0.03543*%
%ADD22R,0.05000X0.02200*%
%ADD23R,0.02200X0.05000*%
%ADD24R,0.09449X0.07874*%
%ADD25R,0.07087X0.06299*%
%ADD26C,0.01000*%
%ADD27C,0.02800*%
%ADD28C,0.00800*%
%ADD29C,0.00787*%
%ADD30C,0.02978*%
%ADD31C,0.01200*%
D10*
X0092898Y0153455D03*
X0097898Y0153455D03*
X0102898Y0153455D03*
X0107898Y0153455D03*
X0107898Y0176868D03*
X0102898Y0176868D03*
X0097898Y0176868D03*
X0092898Y0176868D03*
X0046874Y0179466D03*
X0041874Y0179466D03*
X0036874Y0179466D03*
X0031874Y0179466D03*
X0031874Y0156054D03*
X0036874Y0156054D03*
X0041874Y0156054D03*
X0046874Y0156054D03*
X0146047Y0153731D03*
X0151047Y0153731D03*
X0156047Y0153731D03*
X0161047Y0153731D03*
X0161047Y0177143D03*
X0156047Y0177143D03*
X0151047Y0177143D03*
X0146047Y0177143D03*
D11*
X0127957Y0181697D03*
X0121264Y0181697D03*
X0115398Y0181382D03*
X0115398Y0174689D03*
X0166579Y0176933D03*
X0166579Y0183626D03*
X0080746Y0112684D03*
X0074054Y0112684D03*
X0036343Y0112051D03*
X0036343Y0118744D03*
X0036028Y0091185D03*
X0036028Y0084492D03*
X0065254Y0079797D03*
X0071946Y0079797D03*
X0079335Y0031500D03*
X0079335Y0024807D03*
X0113783Y0026579D03*
X0113783Y0019886D03*
X0171185Y0070437D03*
X0171185Y0077130D03*
X0171500Y0098980D03*
X0171500Y0105673D03*
X0055122Y0189571D03*
X0054374Y0183980D03*
X0048429Y0189571D03*
X0054374Y0177287D03*
X0053429Y0164138D03*
X0053429Y0157445D03*
X0024217Y0177366D03*
X0016343Y0176185D03*
X0016343Y0169492D03*
X0024217Y0184059D03*
D12*
X0050240Y0070358D03*
X0030122Y0050791D03*
X0016343Y0050791D03*
X0016343Y0038980D03*
X0016343Y0029138D03*
X0030122Y0027169D03*
D13*
X0180752Y0174563D03*
X0180752Y0185760D03*
D14*
X0189807Y0183114D03*
X0189807Y0176421D03*
X0157878Y0188193D03*
X0157878Y0194886D03*
X0113390Y0190713D03*
X0106697Y0190713D03*
X0099138Y0190713D03*
X0092445Y0190713D03*
X0080519Y0078375D03*
X0080519Y0071682D03*
X0043902Y0051776D03*
X0037209Y0051776D03*
D15*
X0045870Y0056894D03*
X0045870Y0064374D03*
X0054138Y0060634D03*
X0029925Y0083626D03*
X0029925Y0091106D03*
X0036028Y0097248D03*
X0027760Y0100988D03*
X0036028Y0104728D03*
X0029925Y0111854D03*
X0021657Y0115594D03*
X0029925Y0119335D03*
X0036028Y0124807D03*
X0027760Y0128547D03*
X0036028Y0132287D03*
X0021657Y0087366D03*
X0171854Y0085437D03*
X0180122Y0089177D03*
X0171854Y0092917D03*
X0178941Y0098429D03*
X0178941Y0105909D03*
X0187209Y0102169D03*
X0178941Y0077681D03*
X0187209Y0073941D03*
X0178941Y0070201D03*
X0171854Y0063390D03*
X0180122Y0059650D03*
X0171854Y0055909D03*
D16*
X0167327Y0195476D03*
X0176382Y0195476D03*
D17*
X0183075Y0156303D03*
X0183075Y0153744D03*
X0183075Y0151185D03*
X0183075Y0148626D03*
X0183075Y0146067D03*
D18*
X0193508Y0135437D03*
X0193508Y0166933D03*
D19*
X0134453Y0036913D03*
X0120673Y0036913D03*
X0120673Y0019394D03*
X0134453Y0019394D03*
X0099020Y0019394D03*
X0085240Y0019394D03*
X0085240Y0036913D03*
X0099020Y0036913D03*
D20*
X0071087Y0046375D03*
X0066087Y0046375D03*
X0061087Y0046375D03*
X0056087Y0046375D03*
X0056087Y0019875D03*
X0061087Y0019875D03*
X0066087Y0019875D03*
X0071087Y0019875D03*
D21*
X0046854Y0037602D03*
X0043114Y0045870D03*
X0050594Y0045870D03*
D22*
X0088025Y0075201D03*
X0088025Y0078350D03*
X0088025Y0081500D03*
X0088025Y0084650D03*
X0088025Y0087799D03*
X0088025Y0090949D03*
X0088025Y0094098D03*
X0088025Y0097248D03*
X0121825Y0097248D03*
X0121825Y0094098D03*
X0121825Y0090949D03*
X0121825Y0087799D03*
X0121825Y0084650D03*
X0121825Y0081500D03*
X0121825Y0078350D03*
X0121825Y0075201D03*
D23*
X0115949Y0069324D03*
X0112799Y0069324D03*
X0109650Y0069324D03*
X0106500Y0069324D03*
X0103350Y0069324D03*
X0100201Y0069324D03*
X0097051Y0069324D03*
X0093902Y0069324D03*
X0093902Y0103124D03*
X0097051Y0103124D03*
X0100201Y0103124D03*
X0103350Y0103124D03*
X0106500Y0103124D03*
X0109650Y0103124D03*
X0112799Y0103124D03*
X0115949Y0103124D03*
D24*
X0073800Y0103258D03*
X0073800Y0087510D03*
D25*
X0044558Y0028149D03*
X0044558Y0017125D03*
D26*
X0037848Y0023257D02*
X0037370Y0022779D01*
X0037743Y0023679D01*
X0037743Y0024754D01*
X0037332Y0025746D01*
X0036573Y0026505D01*
X0035580Y0026917D01*
X0034747Y0026917D01*
X0033922Y0027742D01*
X0033922Y0027925D01*
X0033735Y0028378D01*
X0040669Y0035312D01*
X0043980Y0035312D01*
X0043980Y0035292D01*
X0044741Y0034531D01*
X0048968Y0034531D01*
X0049729Y0035292D01*
X0049729Y0039912D01*
X0048968Y0040674D01*
X0044741Y0040674D01*
X0043980Y0039912D01*
X0043980Y0038712D01*
X0039260Y0038712D01*
X0031330Y0030782D01*
X0030878Y0030969D01*
X0029366Y0030969D01*
X0028391Y0030565D01*
X0028393Y0030569D01*
X0028393Y0031402D01*
X0032829Y0035838D01*
X0032863Y0035804D01*
X0036240Y0035804D01*
X0037235Y0036800D01*
X0041172Y0040737D01*
X0041172Y0042798D01*
X0045227Y0042798D01*
X0045989Y0043560D01*
X0045989Y0048180D01*
X0045859Y0048310D01*
X0046409Y0048310D01*
X0047170Y0049072D01*
X0047170Y0050671D01*
X0047570Y0051071D01*
X0047570Y0054019D01*
X0048180Y0054019D01*
X0048942Y0054780D01*
X0048942Y0059007D01*
X0048180Y0059768D01*
X0045203Y0059768D01*
X0042649Y0062322D01*
X0042649Y0066819D01*
X0046440Y0070611D01*
X0046440Y0069602D01*
X0047019Y0068206D01*
X0047976Y0067249D01*
X0043560Y0067249D01*
X0042798Y0066487D01*
X0042798Y0062261D01*
X0043560Y0061499D01*
X0048180Y0061499D01*
X0048906Y0062225D01*
X0049762Y0061871D01*
X0050836Y0061871D01*
X0051066Y0061966D01*
X0051066Y0058521D01*
X0051828Y0057759D01*
X0056448Y0057759D01*
X0057209Y0058521D01*
X0057209Y0062747D01*
X0056448Y0063509D01*
X0055444Y0063509D01*
X0055444Y0069894D01*
X0055509Y0070504D01*
X0055444Y0070585D01*
X0055444Y0070688D01*
X0055010Y0071122D01*
X0054625Y0071600D01*
X0054522Y0071611D01*
X0054448Y0071684D01*
X0053835Y0071684D01*
X0053803Y0071688D01*
X0053462Y0072511D01*
X0053062Y0072911D01*
X0055930Y0075779D01*
X0055930Y0077640D01*
X0055936Y0077646D01*
X0055936Y0084044D01*
X0057905Y0086012D01*
X0057905Y0089072D01*
X0058612Y0088365D01*
X0059605Y0087954D01*
X0060679Y0087954D01*
X0061671Y0088365D01*
X0062431Y0089124D01*
X0062842Y0090116D01*
X0062842Y0091191D01*
X0062431Y0092183D01*
X0061803Y0092811D01*
X0061748Y0095817D01*
X0061810Y0096011D01*
X0062360Y0096239D01*
X0063120Y0096998D01*
X0063531Y0097990D01*
X0063531Y0099065D01*
X0063120Y0100057D01*
X0062360Y0100816D01*
X0061368Y0101228D01*
X0060294Y0101228D01*
X0059301Y0100816D01*
X0058542Y0100057D01*
X0058131Y0099065D01*
X0058131Y0098451D01*
X0057734Y0098848D01*
X0056742Y0099259D01*
X0055668Y0099259D01*
X0054675Y0098848D01*
X0053916Y0098088D01*
X0053505Y0097096D01*
X0053505Y0096022D01*
X0053916Y0095030D01*
X0054505Y0094441D01*
X0054505Y0087421D01*
X0053532Y0086448D01*
X0053476Y0086392D01*
X0053476Y0096279D01*
X0053469Y0096285D01*
X0053469Y0100705D01*
X0052321Y0101854D01*
X0053658Y0101854D01*
X0054650Y0102846D01*
X0060162Y0108357D01*
X0060162Y0114657D01*
X0069479Y0123973D01*
X0069922Y0123790D01*
X0071031Y0123790D01*
X0072056Y0124214D01*
X0072841Y0124999D01*
X0073265Y0126024D01*
X0073265Y0127134D01*
X0072841Y0128159D01*
X0072056Y0128943D01*
X0071031Y0129368D01*
X0069922Y0129368D01*
X0068897Y0128943D01*
X0068112Y0128159D01*
X0067687Y0127134D01*
X0067687Y0126972D01*
X0057767Y0117052D01*
X0056775Y0116060D01*
X0056775Y0109761D01*
X0052255Y0105241D01*
X0048934Y0105241D01*
X0048351Y0105824D01*
X0047359Y0106816D01*
X0042291Y0106816D01*
X0042637Y0107162D01*
X0043633Y0108158D01*
X0043633Y0127283D01*
X0039099Y0131817D01*
X0039099Y0134401D01*
X0038338Y0135162D01*
X0033717Y0135162D01*
X0032956Y0134401D01*
X0032956Y0130174D01*
X0033717Y0129413D01*
X0036695Y0129413D01*
X0040233Y0125875D01*
X0040233Y0109566D01*
X0038270Y0107603D01*
X0033717Y0107603D01*
X0032956Y0106842D01*
X0032956Y0102615D01*
X0033717Y0101854D01*
X0038338Y0101854D01*
X0039099Y0102615D01*
X0039099Y0103428D01*
X0045956Y0103428D01*
X0046539Y0102846D01*
X0050082Y0099302D01*
X0050082Y0096285D01*
X0050076Y0096279D01*
X0050076Y0079055D01*
X0039249Y0068228D01*
X0039249Y0065006D01*
X0038533Y0065302D01*
X0037459Y0065302D01*
X0036467Y0064891D01*
X0035707Y0064132D01*
X0035296Y0063139D01*
X0035296Y0062307D01*
X0028422Y0055433D01*
X0028422Y0054200D01*
X0027970Y0054013D01*
X0026901Y0052944D01*
X0026322Y0051547D01*
X0026322Y0050035D01*
X0026620Y0049315D01*
X0024440Y0051495D01*
X0023444Y0052491D01*
X0019751Y0052491D01*
X0019564Y0052944D01*
X0018495Y0054013D01*
X0017098Y0054591D01*
X0015587Y0054591D01*
X0014190Y0054013D01*
X0013121Y0052944D01*
X0012629Y0051756D01*
X0012629Y0069280D01*
X0026854Y0083505D01*
X0026854Y0081513D01*
X0027244Y0081122D01*
X0026930Y0080364D01*
X0026930Y0079290D01*
X0027341Y0078297D01*
X0028100Y0077538D01*
X0029093Y0077127D01*
X0030167Y0077127D01*
X0031159Y0077538D01*
X0031919Y0078297D01*
X0032330Y0079290D01*
X0032330Y0080364D01*
X0032169Y0080751D01*
X0032235Y0080751D01*
X0032874Y0081390D01*
X0032941Y0081323D01*
X0033283Y0081126D01*
X0033665Y0081024D01*
X0035543Y0081024D01*
X0035543Y0084008D01*
X0036512Y0084008D01*
X0036512Y0084976D01*
X0039693Y0084976D01*
X0039693Y0086658D01*
X0039591Y0087040D01*
X0039393Y0087382D01*
X0039114Y0087661D01*
X0038772Y0087858D01*
X0038555Y0087917D01*
X0038731Y0087917D01*
X0039493Y0088678D01*
X0039493Y0093692D01*
X0038731Y0094454D01*
X0038418Y0094454D01*
X0039099Y0095135D01*
X0039099Y0099361D01*
X0038338Y0100123D01*
X0033717Y0100123D01*
X0032956Y0099361D01*
X0032956Y0099243D01*
X0032303Y0099243D01*
X0030831Y0100714D01*
X0030831Y0103101D01*
X0030070Y0103863D01*
X0025450Y0103863D01*
X0024688Y0103101D01*
X0024688Y0098875D01*
X0025450Y0098113D01*
X0028624Y0098113D01*
X0029898Y0096839D01*
X0030894Y0095843D01*
X0032956Y0095843D01*
X0032956Y0095135D01*
X0033637Y0094454D01*
X0033324Y0094454D01*
X0032562Y0093692D01*
X0032562Y0093654D01*
X0032235Y0093981D01*
X0027615Y0093981D01*
X0026854Y0093220D01*
X0026854Y0088993D01*
X0027194Y0088653D01*
X0024729Y0086188D01*
X0024729Y0089479D01*
X0023968Y0090241D01*
X0023456Y0090241D01*
X0023456Y0105312D01*
X0023671Y0105097D01*
X0024664Y0104686D01*
X0025738Y0104686D01*
X0026730Y0105097D01*
X0027490Y0105856D01*
X0027901Y0106849D01*
X0027901Y0107682D01*
X0029199Y0108980D01*
X0032235Y0108980D01*
X0032775Y0109519D01*
X0032779Y0109504D01*
X0032977Y0109162D01*
X0033256Y0108882D01*
X0033598Y0108685D01*
X0033980Y0108583D01*
X0035858Y0108583D01*
X0035858Y0111567D01*
X0036827Y0111567D01*
X0036827Y0112535D01*
X0040008Y0112535D01*
X0040008Y0114217D01*
X0039906Y0114599D01*
X0039708Y0114941D01*
X0039429Y0115220D01*
X0039087Y0115417D01*
X0038870Y0115476D01*
X0039046Y0115476D01*
X0039808Y0116237D01*
X0039808Y0121251D01*
X0039046Y0122013D01*
X0038418Y0122013D01*
X0039099Y0122694D01*
X0039099Y0126920D01*
X0038338Y0127682D01*
X0033717Y0127682D01*
X0032956Y0126920D01*
X0032956Y0122694D01*
X0033638Y0122012D01*
X0032997Y0121371D01*
X0032997Y0121448D01*
X0032537Y0121908D01*
X0032822Y0122597D01*
X0032822Y0123671D01*
X0032411Y0124663D01*
X0031651Y0125423D01*
X0030659Y0125834D01*
X0030231Y0125834D01*
X0030831Y0126434D01*
X0030831Y0130661D01*
X0030070Y0131422D01*
X0025450Y0131422D01*
X0024688Y0130661D01*
X0024688Y0126434D01*
X0024796Y0126326D01*
X0024664Y0126326D01*
X0023671Y0125915D01*
X0022912Y0125155D01*
X0022501Y0124163D01*
X0022501Y0123330D01*
X0020056Y0120885D01*
X0020056Y0118469D01*
X0019347Y0118469D01*
X0018586Y0117708D01*
X0018586Y0113481D01*
X0019347Y0112720D01*
X0020056Y0112720D01*
X0020056Y0090241D01*
X0019347Y0090241D01*
X0018586Y0089479D01*
X0018586Y0085253D01*
X0019347Y0084491D01*
X0023032Y0084491D01*
X0011000Y0072459D01*
X0011000Y0187903D01*
X0011563Y0187340D01*
X0014664Y0186055D01*
X0018021Y0186055D01*
X0021122Y0187340D01*
X0023495Y0189713D01*
X0024780Y0192814D01*
X0024780Y0196170D01*
X0023495Y0199271D01*
X0022932Y0199835D01*
X0035208Y0199835D01*
X0034723Y0199350D01*
X0034312Y0198358D01*
X0034312Y0197283D01*
X0034723Y0196291D01*
X0035091Y0195923D01*
X0034983Y0186088D01*
X0034974Y0186080D01*
X0034974Y0185303D01*
X0034965Y0184527D01*
X0034974Y0184518D01*
X0034974Y0183705D01*
X0034374Y0183105D01*
X0033712Y0183766D01*
X0033006Y0183766D01*
X0033006Y0184452D01*
X0031893Y0185565D01*
X0031500Y0185959D01*
X0027682Y0185959D01*
X0027682Y0186566D01*
X0026920Y0187328D01*
X0021513Y0187328D01*
X0020751Y0186566D01*
X0020751Y0181552D01*
X0021513Y0180791D01*
X0026920Y0180791D01*
X0027682Y0181552D01*
X0027682Y0182159D01*
X0029206Y0182159D01*
X0029206Y0179447D01*
X0029274Y0179379D01*
X0029274Y0175928D01*
X0030036Y0175166D01*
X0033712Y0175166D01*
X0034374Y0175828D01*
X0035036Y0175166D01*
X0038712Y0175166D01*
X0039374Y0175828D01*
X0040033Y0175169D01*
X0040033Y0173036D01*
X0041146Y0171923D01*
X0041677Y0171392D01*
X0019808Y0171392D01*
X0019808Y0171999D01*
X0019046Y0172761D01*
X0013639Y0172761D01*
X0012877Y0171999D01*
X0012877Y0166985D01*
X0013639Y0166224D01*
X0019046Y0166224D01*
X0019808Y0166985D01*
X0019808Y0167592D01*
X0058506Y0167592D01*
X0057688Y0167254D01*
X0057299Y0166865D01*
X0056675Y0166865D01*
X0056133Y0167406D01*
X0050725Y0167406D01*
X0049964Y0166645D01*
X0049964Y0161631D01*
X0050725Y0160869D01*
X0056133Y0160869D01*
X0056894Y0161631D01*
X0056894Y0163065D01*
X0057299Y0163065D01*
X0057688Y0162676D01*
X0058681Y0162265D01*
X0059755Y0162265D01*
X0060747Y0162676D01*
X0061507Y0163435D01*
X0061918Y0164427D01*
X0061918Y0165502D01*
X0061507Y0166494D01*
X0060747Y0167254D01*
X0059930Y0167592D01*
X0097444Y0167592D01*
X0098822Y0168970D01*
X0099935Y0170083D01*
X0099935Y0172767D01*
X0100398Y0173229D01*
X0100998Y0172629D01*
X0100998Y0170142D01*
X0102041Y0169099D01*
X0103154Y0167986D01*
X0114570Y0167986D01*
X0115555Y0168970D01*
X0116668Y0170083D01*
X0116668Y0171420D01*
X0118101Y0171420D01*
X0118863Y0172182D01*
X0118863Y0177196D01*
X0118101Y0177957D01*
X0112694Y0177957D01*
X0111932Y0177196D01*
X0111932Y0172182D01*
X0112328Y0171786D01*
X0104798Y0171786D01*
X0104798Y0172629D01*
X0105398Y0173229D01*
X0106059Y0172568D01*
X0109736Y0172568D01*
X0110498Y0173329D01*
X0110498Y0179482D01*
X0111932Y0179482D01*
X0111932Y0178875D01*
X0112694Y0178113D01*
X0118101Y0178113D01*
X0118488Y0178500D01*
X0118560Y0178428D01*
X0118752Y0178428D01*
X0119396Y0177784D01*
X0132196Y0164984D01*
X0167204Y0164984D01*
X0168200Y0165980D01*
X0175400Y0173180D01*
X0175400Y0180988D01*
X0174404Y0181984D01*
X0173800Y0182588D01*
X0173800Y0182924D01*
X0174736Y0183860D01*
X0175903Y0183860D01*
X0175903Y0182072D01*
X0176664Y0181310D01*
X0179870Y0181310D01*
X0180196Y0180984D01*
X0180600Y0180580D01*
X0180600Y0179747D01*
X0180904Y0179013D01*
X0176664Y0179013D01*
X0175903Y0178251D01*
X0175903Y0170875D01*
X0176664Y0170113D01*
X0179867Y0170113D01*
X0180196Y0169784D01*
X0181600Y0168380D01*
X0181600Y0158292D01*
X0179780Y0158292D01*
X0179019Y0157531D01*
X0179019Y0155076D01*
X0179071Y0155024D01*
X0179019Y0154972D01*
X0179019Y0152517D01*
X0179071Y0152465D01*
X0179019Y0152412D01*
X0179019Y0149958D01*
X0179071Y0149906D01*
X0179019Y0149853D01*
X0179019Y0147504D01*
X0178921Y0147335D01*
X0178819Y0146953D01*
X0178819Y0146067D01*
X0183075Y0146067D01*
X0187331Y0146067D01*
X0187331Y0146953D01*
X0187228Y0147335D01*
X0187131Y0147504D01*
X0187131Y0149853D01*
X0187079Y0149906D01*
X0187131Y0149958D01*
X0187131Y0152412D01*
X0187079Y0152465D01*
X0187131Y0152517D01*
X0187131Y0154972D01*
X0187079Y0155024D01*
X0187131Y0155076D01*
X0187131Y0157531D01*
X0186369Y0158292D01*
X0185000Y0158292D01*
X0185000Y0169788D01*
X0184675Y0170113D01*
X0184840Y0170113D01*
X0185601Y0170875D01*
X0185601Y0178251D01*
X0185343Y0178509D01*
X0185589Y0178755D01*
X0186000Y0179747D01*
X0186000Y0180821D01*
X0185601Y0181784D01*
X0186539Y0181784D01*
X0186539Y0180410D01*
X0187073Y0179876D01*
X0186918Y0179787D01*
X0186638Y0179508D01*
X0186441Y0179166D01*
X0186339Y0178784D01*
X0186339Y0176906D01*
X0189323Y0176906D01*
X0189323Y0175937D01*
X0190291Y0175937D01*
X0190291Y0172756D01*
X0191973Y0172756D01*
X0192355Y0172858D01*
X0192697Y0173056D01*
X0192976Y0173335D01*
X0193173Y0173677D01*
X0193276Y0174058D01*
X0193276Y0175937D01*
X0190291Y0175937D01*
X0190291Y0176906D01*
X0193276Y0176906D01*
X0193276Y0178784D01*
X0193173Y0179166D01*
X0192976Y0179508D01*
X0192697Y0179787D01*
X0192542Y0179876D01*
X0193076Y0180410D01*
X0193076Y0185818D01*
X0192838Y0186055D01*
X0195186Y0186055D01*
X0198287Y0187340D01*
X0198850Y0187903D01*
X0198850Y0023916D01*
X0198287Y0024479D01*
X0195186Y0025764D01*
X0191830Y0025764D01*
X0188729Y0024479D01*
X0186355Y0022106D01*
X0185071Y0019005D01*
X0185071Y0015649D01*
X0186355Y0012548D01*
X0186919Y0011984D01*
X0085747Y0011984D01*
X0098247Y0024485D01*
X0110318Y0024485D01*
X0110318Y0024072D01*
X0111080Y0023310D01*
X0116487Y0023310D01*
X0117249Y0024072D01*
X0117249Y0024977D01*
X0119047Y0024977D01*
X0119636Y0024388D01*
X0120628Y0023977D01*
X0121702Y0023977D01*
X0122695Y0024388D01*
X0123454Y0025148D01*
X0123865Y0026140D01*
X0123865Y0027214D01*
X0123454Y0028207D01*
X0122695Y0028966D01*
X0121702Y0029377D01*
X0120628Y0029377D01*
X0119636Y0028966D01*
X0119047Y0028377D01*
X0117249Y0028377D01*
X0117249Y0029086D01*
X0116487Y0029847D01*
X0111080Y0029847D01*
X0110318Y0029086D01*
X0110318Y0027885D01*
X0096839Y0027885D01*
X0088705Y0019751D01*
X0088705Y0021310D01*
X0087944Y0022072D01*
X0082789Y0022072D01*
X0082898Y0022260D01*
X0083000Y0022641D01*
X0083000Y0024323D01*
X0079819Y0024323D01*
X0079819Y0025291D01*
X0083000Y0025291D01*
X0083000Y0026973D01*
X0082898Y0027355D01*
X0082700Y0027697D01*
X0082421Y0027976D01*
X0082079Y0028173D01*
X0081862Y0028231D01*
X0082038Y0028231D01*
X0082800Y0028993D01*
X0082800Y0030691D01*
X0085944Y0033835D01*
X0086344Y0034235D01*
X0087944Y0034235D01*
X0088705Y0034997D01*
X0088705Y0035355D01*
X0088857Y0034990D01*
X0089616Y0034231D01*
X0090609Y0033820D01*
X0091442Y0033820D01*
X0093875Y0031386D01*
X0094871Y0030391D01*
X0109566Y0030391D01*
X0110562Y0031386D01*
X0115456Y0036280D01*
X0116289Y0036280D01*
X0117208Y0036661D01*
X0117208Y0034997D01*
X0117969Y0034235D01*
X0123377Y0034235D01*
X0124139Y0034997D01*
X0124139Y0038830D01*
X0123377Y0039591D01*
X0118421Y0039591D01*
X0118041Y0040510D01*
X0117281Y0041269D01*
X0116289Y0041680D01*
X0115215Y0041680D01*
X0114223Y0041269D01*
X0113463Y0040510D01*
X0113052Y0039517D01*
X0113052Y0038684D01*
X0108158Y0033791D01*
X0096279Y0033791D01*
X0093846Y0036224D01*
X0093846Y0037057D01*
X0093435Y0038049D01*
X0092675Y0038809D01*
X0091683Y0039220D01*
X0090609Y0039220D01*
X0089616Y0038809D01*
X0088857Y0038049D01*
X0088705Y0037684D01*
X0088705Y0038830D01*
X0087944Y0039591D01*
X0082536Y0039591D01*
X0081775Y0038830D01*
X0081775Y0034997D01*
X0082003Y0034768D01*
X0077527Y0034768D01*
X0084972Y0042213D01*
X0084972Y0043305D01*
X0085329Y0043662D01*
X0086171Y0043662D01*
X0087163Y0044073D01*
X0087923Y0044833D01*
X0088334Y0045825D01*
X0088334Y0046899D01*
X0087923Y0047892D01*
X0087163Y0048651D01*
X0086171Y0049062D01*
X0085097Y0049062D01*
X0084104Y0048651D01*
X0083345Y0047892D01*
X0082934Y0046899D01*
X0082934Y0046057D01*
X0081578Y0044702D01*
X0081578Y0043628D01*
X0070264Y0032314D01*
X0070208Y0032258D01*
X0070208Y0039192D01*
X0068250Y0041150D01*
X0068510Y0041410D01*
X0068686Y0041104D01*
X0068966Y0040825D01*
X0069308Y0040627D01*
X0068773Y0040627D01*
X0069308Y0040627D02*
X0069689Y0040525D01*
X0070987Y0040525D01*
X0070987Y0046275D01*
X0071187Y0046275D01*
X0071187Y0040525D01*
X0071713Y0040525D01*
X0071713Y0039920D01*
X0072124Y0038927D01*
X0072884Y0038168D01*
X0073876Y0037757D01*
X0074950Y0037757D01*
X0075943Y0038168D01*
X0076702Y0038927D01*
X0077113Y0039920D01*
X0077113Y0040753D01*
X0077590Y0041229D01*
X0077590Y0044244D01*
X0078179Y0044833D01*
X0078590Y0045825D01*
X0078590Y0046899D01*
X0078179Y0047892D01*
X0077590Y0048481D01*
X0077590Y0068356D01*
X0077629Y0068316D01*
X0077971Y0068119D01*
X0078353Y0068017D01*
X0080035Y0068017D01*
X0080035Y0071198D01*
X0081003Y0071198D01*
X0081003Y0072166D01*
X0083987Y0072166D01*
X0083987Y0074045D01*
X0083885Y0074426D01*
X0083688Y0074768D01*
X0083408Y0075048D01*
X0083253Y0075137D01*
X0083787Y0075671D01*
X0083787Y0081079D01*
X0083026Y0081840D01*
X0082405Y0081840D01*
X0082405Y0082480D01*
X0084025Y0082503D01*
X0084025Y0081550D01*
X0087975Y0081550D01*
X0087975Y0081450D01*
X0084025Y0081450D01*
X0084025Y0080203D01*
X0084127Y0079821D01*
X0084225Y0079652D01*
X0084225Y0073562D01*
X0084987Y0072801D01*
X0089590Y0072801D01*
X0083903Y0067114D01*
X0082963Y0067114D01*
X0081938Y0066689D01*
X0081153Y0065905D01*
X0080729Y0064880D01*
X0080729Y0063770D01*
X0080909Y0063334D01*
X0080372Y0063334D01*
X0079380Y0062923D01*
X0078620Y0062163D01*
X0078209Y0061171D01*
X0078209Y0060097D01*
X0078620Y0059104D01*
X0079380Y0058345D01*
X0080372Y0057934D01*
X0081447Y0057934D01*
X0082439Y0058345D01*
X0083028Y0058934D01*
X0088473Y0058934D01*
X0097320Y0050087D01*
X0098316Y0049091D01*
X0117440Y0049091D01*
X0141595Y0073246D01*
X0141595Y0072892D01*
X0142006Y0071900D01*
X0142595Y0071311D01*
X0142595Y0050449D01*
X0142006Y0049860D01*
X0141595Y0048868D01*
X0141595Y0047794D01*
X0142006Y0046801D01*
X0142595Y0046212D01*
X0142595Y0041099D01*
X0142006Y0040510D01*
X0141595Y0039517D01*
X0141595Y0038443D01*
X0142006Y0037451D01*
X0142766Y0036691D01*
X0143758Y0036280D01*
X0144832Y0036280D01*
X0145825Y0036691D01*
X0146584Y0037451D01*
X0146995Y0038443D01*
X0146995Y0039517D01*
X0146584Y0040510D01*
X0145995Y0041099D01*
X0145995Y0046212D01*
X0146584Y0046801D01*
X0146995Y0047794D01*
X0146995Y0048868D01*
X0146584Y0049860D01*
X0145995Y0050449D01*
X0145995Y0071311D01*
X0146584Y0071900D01*
X0146995Y0072892D01*
X0146995Y0073966D01*
X0146699Y0074682D01*
X0157371Y0074682D01*
X0158076Y0073976D01*
X0157530Y0073750D01*
X0156770Y0072990D01*
X0156359Y0071998D01*
X0156359Y0070924D01*
X0156770Y0069931D01*
X0157359Y0069342D01*
X0157359Y0057469D01*
X0166202Y0048627D01*
X0166202Y0047794D01*
X0166613Y0046801D01*
X0167202Y0046212D01*
X0167202Y0041099D01*
X0166613Y0040510D01*
X0166202Y0039517D01*
X0166202Y0038443D01*
X0166613Y0037451D01*
X0167372Y0036691D01*
X0167919Y0036465D01*
X0150497Y0019043D01*
X0149664Y0019043D01*
X0148671Y0018631D01*
X0147912Y0017872D01*
X0147501Y0016880D01*
X0147501Y0015805D01*
X0147912Y0014813D01*
X0148671Y0014054D01*
X0149664Y0013643D01*
X0150738Y0013643D01*
X0151730Y0014054D01*
X0152490Y0014813D01*
X0152901Y0015805D01*
X0152901Y0016638D01*
X0195196Y0058934D01*
X0196192Y0059930D01*
X0196192Y0103661D01*
X0193239Y0106614D01*
X0192244Y0107609D01*
X0184930Y0107609D01*
X0182013Y0104692D01*
X0182013Y0108023D01*
X0181251Y0108784D01*
X0181227Y0108784D01*
X0181444Y0109309D01*
X0181444Y0110384D01*
X0181033Y0111376D01*
X0180274Y0112135D01*
X0179281Y0112546D01*
X0178207Y0112546D01*
X0177215Y0112135D01*
X0176455Y0111376D01*
X0176044Y0110384D01*
X0176044Y0109309D01*
X0176370Y0108523D01*
X0175869Y0108023D01*
X0175869Y0103796D01*
X0176631Y0103035D01*
X0180355Y0103035D01*
X0178624Y0101304D01*
X0176631Y0101304D01*
X0175869Y0100542D01*
X0175869Y0100228D01*
X0174965Y0100228D01*
X0174965Y0101487D01*
X0174204Y0102249D01*
X0174027Y0102249D01*
X0174244Y0102307D01*
X0174586Y0102504D01*
X0174866Y0102784D01*
X0175063Y0103126D01*
X0175165Y0103507D01*
X0175165Y0105189D01*
X0171984Y0105189D01*
X0171984Y0106157D01*
X0175165Y0106157D01*
X0175165Y0107839D01*
X0175063Y0108221D01*
X0174866Y0108563D01*
X0174586Y0108842D01*
X0174244Y0109039D01*
X0173863Y0109142D01*
X0171984Y0109142D01*
X0171984Y0106158D01*
X0171016Y0106158D01*
X0171016Y0109142D01*
X0169137Y0109142D01*
X0168756Y0109039D01*
X0168414Y0108842D01*
X0168134Y0108563D01*
X0167937Y0108221D01*
X0167835Y0107839D01*
X0167835Y0106157D01*
X0171016Y0106157D01*
X0171016Y0105189D01*
X0167835Y0105189D01*
X0167835Y0103507D01*
X0167937Y0103126D01*
X0168134Y0102784D01*
X0168414Y0102504D01*
X0168756Y0102307D01*
X0168973Y0102249D01*
X0168796Y0102249D01*
X0168382Y0101834D01*
X0167470Y0102212D01*
X0166396Y0102212D01*
X0165404Y0101801D01*
X0164644Y0101041D01*
X0164233Y0100049D01*
X0164233Y0098975D01*
X0164644Y0097982D01*
X0165404Y0097223D01*
X0166396Y0096812D01*
X0167470Y0096812D01*
X0168035Y0097046D01*
X0168035Y0096473D01*
X0168796Y0095712D01*
X0169464Y0095712D01*
X0168783Y0095031D01*
X0168783Y0090804D01*
X0169544Y0090043D01*
X0174164Y0090043D01*
X0174926Y0090804D01*
X0174926Y0095031D01*
X0174224Y0095732D01*
X0174965Y0096473D01*
X0174965Y0096828D01*
X0175869Y0096828D01*
X0175869Y0096316D01*
X0176631Y0095554D01*
X0178028Y0095554D01*
X0178028Y0092052D01*
X0177812Y0092052D01*
X0177050Y0091290D01*
X0177050Y0087064D01*
X0177812Y0086302D01*
X0182432Y0086302D01*
X0183194Y0087064D01*
X0183194Y0090906D01*
X0183442Y0090906D01*
X0183442Y0079055D01*
X0182013Y0077625D01*
X0182013Y0079794D01*
X0181251Y0080556D01*
X0181153Y0080556D01*
X0181444Y0081258D01*
X0181444Y0082332D01*
X0181033Y0083325D01*
X0180274Y0084084D01*
X0179281Y0084495D01*
X0178207Y0084495D01*
X0177215Y0084084D01*
X0176455Y0083325D01*
X0176044Y0082332D01*
X0176044Y0081258D01*
X0176422Y0080347D01*
X0175869Y0079794D01*
X0175869Y0075568D01*
X0176631Y0074806D01*
X0179193Y0074806D01*
X0177536Y0073149D01*
X0177536Y0073076D01*
X0176631Y0073076D01*
X0175869Y0072314D01*
X0175869Y0072176D01*
X0174650Y0072176D01*
X0174650Y0072944D01*
X0173889Y0073705D01*
X0173712Y0073705D01*
X0173929Y0073764D01*
X0174271Y0073961D01*
X0174551Y0074240D01*
X0174748Y0074582D01*
X0174850Y0074964D01*
X0174850Y0076646D01*
X0171669Y0076646D01*
X0171669Y0077614D01*
X0170701Y0077614D01*
X0170701Y0076646D01*
X0167520Y0076646D01*
X0167520Y0074964D01*
X0167622Y0074582D01*
X0167819Y0074240D01*
X0168099Y0073961D01*
X0168441Y0073764D01*
X0168658Y0073705D01*
X0168481Y0073705D01*
X0167720Y0072944D01*
X0167720Y0067930D01*
X0168481Y0067169D01*
X0170154Y0067169D01*
X0170154Y0066265D01*
X0169544Y0066265D01*
X0168783Y0065503D01*
X0168783Y0061276D01*
X0169544Y0060515D01*
X0174164Y0060515D01*
X0174926Y0061276D01*
X0174926Y0061394D01*
X0175579Y0061394D01*
X0177050Y0059923D01*
X0177050Y0058392D01*
X0174926Y0056267D01*
X0174926Y0058023D01*
X0174164Y0058784D01*
X0171187Y0058784D01*
X0167157Y0062814D01*
X0167157Y0079615D01*
X0167403Y0079861D01*
X0170104Y0082562D01*
X0174164Y0082562D01*
X0174926Y0083324D01*
X0174926Y0087550D01*
X0174164Y0088312D01*
X0169544Y0088312D01*
X0168783Y0087550D01*
X0168783Y0086049D01*
X0168678Y0085944D01*
X0165245Y0082511D01*
X0164753Y0082511D01*
X0164652Y0082410D01*
X0163985Y0083077D01*
X0162960Y0083502D01*
X0161851Y0083502D01*
X0160826Y0083077D01*
X0160041Y0082292D01*
X0159617Y0081267D01*
X0159617Y0080158D01*
X0160041Y0079133D01*
X0160826Y0078348D01*
X0161851Y0077924D01*
X0162960Y0077924D01*
X0163757Y0078254D01*
X0163757Y0061406D01*
X0164753Y0060410D01*
X0168783Y0056380D01*
X0168783Y0056267D01*
X0163712Y0061338D01*
X0163712Y0073149D01*
X0162716Y0074145D01*
X0158779Y0078082D01*
X0141623Y0078082D01*
X0140627Y0077086D01*
X0116032Y0052491D01*
X0101711Y0052491D01*
X0102368Y0053149D01*
X0102793Y0054174D01*
X0102793Y0055283D01*
X0102368Y0056308D01*
X0101584Y0057093D01*
X0100635Y0057486D01*
X0098203Y0059918D01*
X0114488Y0059918D01*
X0115456Y0060887D01*
X0116289Y0060887D01*
X0117281Y0061298D01*
X0118041Y0062057D01*
X0118452Y0063050D01*
X0118452Y0064124D01*
X0118041Y0065116D01*
X0117610Y0065547D01*
X0118349Y0066286D01*
X0118349Y0072363D01*
X0117587Y0073124D01*
X0108790Y0073124D01*
X0109102Y0073876D01*
X0109102Y0074950D01*
X0108691Y0075943D01*
X0108102Y0076532D01*
X0108102Y0083552D01*
X0118025Y0093475D01*
X0118025Y0086498D01*
X0117927Y0086329D01*
X0117825Y0085947D01*
X0117825Y0084700D01*
X0121775Y0084700D01*
X0121775Y0084600D01*
X0117825Y0084600D01*
X0117825Y0083352D01*
X0117927Y0082971D01*
X0118025Y0082801D01*
X0118025Y0073562D01*
X0118787Y0072801D01*
X0124864Y0072801D01*
X0125625Y0073562D01*
X0125625Y0082801D01*
X0125723Y0082971D01*
X0125825Y0083352D01*
X0125825Y0084600D01*
X0121875Y0084600D01*
X0121875Y0084700D01*
X0125825Y0084700D01*
X0125825Y0085947D01*
X0125723Y0086329D01*
X0125625Y0086498D01*
X0125625Y0088126D01*
X0126042Y0087954D01*
X0127116Y0087954D01*
X0128108Y0088365D01*
X0128868Y0089124D01*
X0129279Y0090116D01*
X0129279Y0091191D01*
X0128868Y0092183D01*
X0128279Y0092772D01*
X0128279Y0096409D01*
X0128868Y0096998D01*
X0129279Y0097990D01*
X0129279Y0098837D01*
X0144379Y0083737D01*
X0144387Y0083737D01*
X0145857Y0082267D01*
X0149820Y0082267D01*
X0150491Y0081596D01*
X0151516Y0081172D01*
X0152626Y0081172D01*
X0153651Y0081596D01*
X0154435Y0082381D01*
X0154860Y0083406D01*
X0154860Y0084515D01*
X0154435Y0085540D01*
X0153651Y0086325D01*
X0152626Y0086750D01*
X0151516Y0086750D01*
X0150491Y0086325D01*
X0149820Y0085654D01*
X0147261Y0085654D01*
X0146783Y0086132D01*
X0146783Y0086141D01*
X0104645Y0128279D01*
X0103237Y0128279D01*
X0103230Y0128272D01*
X0094406Y0128272D01*
X0094328Y0128350D01*
X0094328Y0128511D01*
X0093904Y0129537D01*
X0093119Y0130321D01*
X0092094Y0130746D01*
X0090985Y0130746D01*
X0089960Y0130321D01*
X0089175Y0129537D01*
X0088750Y0128511D01*
X0088750Y0127402D01*
X0089175Y0126377D01*
X0089960Y0125592D01*
X0090985Y0125168D01*
X0092094Y0125168D01*
X0092537Y0125351D01*
X0093003Y0124885D01*
X0103230Y0124885D01*
X0103282Y0124834D01*
X0090803Y0124834D01*
X0090214Y0125423D01*
X0089222Y0125834D01*
X0088148Y0125834D01*
X0087156Y0125423D01*
X0086396Y0124663D01*
X0085985Y0123671D01*
X0085985Y0122597D01*
X0086396Y0121604D01*
X0087156Y0120845D01*
X0088148Y0120434D01*
X0088954Y0120434D01*
X0088954Y0115902D01*
X0088365Y0115313D01*
X0087954Y0114321D01*
X0087954Y0113246D01*
X0088365Y0112254D01*
X0089124Y0111495D01*
X0090116Y0111083D01*
X0091191Y0111083D01*
X0092183Y0111495D01*
X0092942Y0112254D01*
X0093354Y0113246D01*
X0093354Y0114321D01*
X0092942Y0115313D01*
X0092354Y0115902D01*
X0092354Y0121434D01*
X0104221Y0121434D01*
X0106259Y0119396D01*
X0105364Y0119025D01*
X0104605Y0118266D01*
X0104194Y0117273D01*
X0104194Y0116199D01*
X0104605Y0115207D01*
X0105194Y0114618D01*
X0105194Y0106924D01*
X0092263Y0106924D01*
X0091502Y0106163D01*
X0091502Y0100086D01*
X0092263Y0099324D01*
X0111099Y0099324D01*
X0111099Y0096279D01*
X0102253Y0087432D01*
X0102253Y0087432D01*
X0101695Y0086875D01*
X0101533Y0087037D01*
X0100541Y0087448D01*
X0099708Y0087448D01*
X0098767Y0088389D01*
X0098767Y0089222D01*
X0098356Y0090214D01*
X0097596Y0090974D01*
X0096604Y0091385D01*
X0095530Y0091385D01*
X0094537Y0090974D01*
X0093778Y0090214D01*
X0093367Y0089222D01*
X0093367Y0088148D01*
X0093778Y0087156D01*
X0094537Y0086396D01*
X0095530Y0085985D01*
X0096363Y0085985D01*
X0097304Y0085044D01*
X0097304Y0084211D01*
X0097715Y0083219D01*
X0098475Y0082459D01*
X0099021Y0082233D01*
X0091825Y0075036D01*
X0091825Y0079652D01*
X0091923Y0079821D01*
X0092025Y0080203D01*
X0092025Y0081450D01*
X0088075Y0081450D01*
X0088075Y0081550D01*
X0092025Y0081550D01*
X0092025Y0082797D01*
X0091923Y0083179D01*
X0091825Y0083348D01*
X0091825Y0085951D01*
X0091923Y0086120D01*
X0092025Y0086502D01*
X0092025Y0087749D01*
X0088075Y0087749D01*
X0088075Y0087849D01*
X0092025Y0087849D01*
X0092025Y0089097D01*
X0091923Y0089478D01*
X0091825Y0089648D01*
X0091825Y0098887D01*
X0091064Y0099648D01*
X0084987Y0099648D01*
X0084609Y0099270D01*
X0079824Y0104055D01*
X0079824Y0107734D01*
X0079063Y0108495D01*
X0075494Y0108495D01*
X0075494Y0109416D01*
X0076757Y0109416D01*
X0077291Y0109950D01*
X0077381Y0109795D01*
X0077660Y0109515D01*
X0078002Y0109318D01*
X0078384Y0109216D01*
X0080262Y0109216D01*
X0080262Y0112200D01*
X0081231Y0112200D01*
X0081231Y0113169D01*
X0080262Y0113169D01*
X0080262Y0116153D01*
X0078384Y0116153D01*
X0078002Y0116051D01*
X0077660Y0115853D01*
X0077381Y0115574D01*
X0077291Y0115419D01*
X0076757Y0115953D01*
X0071350Y0115953D01*
X0070588Y0115191D01*
X0070588Y0110177D01*
X0071350Y0109416D01*
X0072106Y0109416D01*
X0072106Y0108495D01*
X0068537Y0108495D01*
X0067776Y0107734D01*
X0067776Y0098783D01*
X0068537Y0098021D01*
X0071112Y0098021D01*
X0070729Y0097096D01*
X0070729Y0096254D01*
X0070267Y0095792D01*
X0067216Y0095792D01*
X0066224Y0094800D01*
X0065436Y0094013D01*
X0065436Y0090863D01*
X0060523Y0085950D01*
X0060424Y0085950D01*
X0059551Y0085076D01*
X0058701Y0085076D01*
X0057676Y0084652D01*
X0056892Y0083867D01*
X0056467Y0082842D01*
X0056467Y0081733D01*
X0056892Y0080708D01*
X0057676Y0079923D01*
X0058701Y0079498D01*
X0059811Y0079498D01*
X0060836Y0079923D01*
X0061588Y0080675D01*
X0061588Y0080281D01*
X0064769Y0080281D01*
X0064769Y0079313D01*
X0061588Y0079313D01*
X0061588Y0077631D01*
X0061690Y0077249D01*
X0061888Y0076907D01*
X0062167Y0076628D01*
X0062509Y0076431D01*
X0062891Y0076328D01*
X0064769Y0076328D01*
X0064769Y0079313D01*
X0065738Y0079313D01*
X0065738Y0076328D01*
X0067616Y0076328D01*
X0067998Y0076431D01*
X0068340Y0076628D01*
X0068619Y0076907D01*
X0068709Y0077062D01*
X0069243Y0076528D01*
X0073549Y0076528D01*
X0071798Y0074778D01*
X0070806Y0073786D01*
X0070806Y0060886D01*
X0065698Y0055778D01*
X0064706Y0054786D01*
X0064706Y0052025D01*
X0064348Y0052025D01*
X0063587Y0051263D01*
X0062825Y0052025D01*
X0062524Y0052025D01*
X0062524Y0053855D01*
X0061737Y0054642D01*
X0061737Y0069801D01*
X0062408Y0070471D01*
X0062832Y0071496D01*
X0062832Y0072606D01*
X0062408Y0073631D01*
X0061623Y0074416D01*
X0060598Y0074840D01*
X0059489Y0074840D01*
X0058463Y0074416D01*
X0057679Y0073631D01*
X0057254Y0072606D01*
X0057254Y0071496D01*
X0057679Y0070471D01*
X0058350Y0069801D01*
X0058350Y0053239D01*
X0059137Y0052452D01*
X0059137Y0051814D01*
X0058587Y0051263D01*
X0058587Y0042158D01*
X0058587Y0042158D01*
X0058587Y0051263D01*
X0057825Y0052025D01*
X0054348Y0052025D01*
X0053587Y0051263D01*
X0053587Y0047570D01*
X0053469Y0047570D01*
X0053469Y0048180D01*
X0052708Y0048942D01*
X0048481Y0048942D01*
X0047720Y0048180D01*
X0047720Y0043560D01*
X0048481Y0042798D01*
X0052708Y0042798D01*
X0053469Y0043560D01*
X0053469Y0044170D01*
X0053587Y0044170D01*
X0053587Y0041486D01*
X0054348Y0040725D01*
X0056754Y0040725D01*
X0056457Y0040009D01*
X0056457Y0038935D01*
X0056869Y0037943D01*
X0057628Y0037183D01*
X0058620Y0036772D01*
X0059695Y0036772D01*
X0060687Y0037183D01*
X0061446Y0037943D01*
X0061857Y0038935D01*
X0061857Y0039768D01*
X0062814Y0040725D01*
X0062825Y0040725D01*
X0063587Y0041486D01*
X0064347Y0040726D01*
X0064347Y0040245D01*
X0065343Y0039249D01*
X0066808Y0037784D01*
X0066808Y0029081D01*
X0066092Y0029377D01*
X0065018Y0029377D01*
X0064145Y0029015D01*
X0063799Y0029361D01*
X0053793Y0029361D01*
X0053139Y0029399D01*
X0053097Y0029361D01*
X0053040Y0029361D01*
X0052577Y0028898D01*
X0049602Y0026249D01*
X0049602Y0027649D01*
X0045058Y0027649D01*
X0045058Y0028648D01*
X0049602Y0028648D01*
X0049602Y0031496D01*
X0049500Y0031877D01*
X0049302Y0032219D01*
X0049023Y0032498D01*
X0048681Y0032696D01*
X0048299Y0032798D01*
X0045058Y0032798D01*
X0045058Y0028649D01*
X0044058Y0028649D01*
X0044058Y0032798D01*
X0040818Y0032798D01*
X0040436Y0032696D01*
X0040094Y0032498D01*
X0039815Y0032219D01*
X0039617Y0031877D01*
X0039515Y0031496D01*
X0039515Y0028648D01*
X0044058Y0028648D01*
X0044058Y0027649D01*
X0039515Y0027649D01*
X0039515Y0024881D01*
X0039472Y0024881D01*
X0037848Y0023257D01*
X0037848Y0023257D01*
X0037732Y0023652D02*
X0038244Y0023652D01*
X0037743Y0024651D02*
X0039242Y0024651D01*
X0039515Y0025649D02*
X0037372Y0025649D01*
X0036229Y0026648D02*
X0039515Y0026648D01*
X0039515Y0027646D02*
X0034018Y0027646D01*
X0034002Y0028645D02*
X0044058Y0028645D01*
X0044058Y0029643D02*
X0045058Y0029643D01*
X0045058Y0028645D02*
X0052292Y0028645D01*
X0051171Y0027646D02*
X0049602Y0027646D01*
X0049602Y0026648D02*
X0050049Y0026648D01*
X0049602Y0029643D02*
X0066808Y0029643D01*
X0066808Y0030642D02*
X0049602Y0030642D01*
X0049563Y0031640D02*
X0066808Y0031640D01*
X0066808Y0032639D02*
X0048780Y0032639D01*
X0049073Y0034636D02*
X0066808Y0034636D01*
X0066808Y0035634D02*
X0049729Y0035634D01*
X0049729Y0036633D02*
X0066808Y0036633D01*
X0066808Y0037631D02*
X0061135Y0037631D01*
X0061731Y0038630D02*
X0065962Y0038630D01*
X0064963Y0039628D02*
X0061857Y0039628D01*
X0062716Y0040627D02*
X0064347Y0040627D01*
X0063587Y0041486D02*
X0063587Y0051263D01*
X0063587Y0041486D01*
X0063587Y0041625D02*
X0063587Y0041625D01*
X0063587Y0042624D02*
X0063587Y0042624D01*
X0063587Y0043622D02*
X0063587Y0043622D01*
X0063587Y0044621D02*
X0063587Y0044621D01*
X0063587Y0045620D02*
X0063587Y0045620D01*
X0063587Y0046618D02*
X0063587Y0046618D01*
X0063587Y0047617D02*
X0063587Y0047617D01*
X0063587Y0048615D02*
X0063587Y0048615D01*
X0063587Y0049614D02*
X0063587Y0049614D01*
X0063587Y0050612D02*
X0063587Y0050612D01*
X0063239Y0051611D02*
X0063934Y0051611D01*
X0064706Y0052609D02*
X0062524Y0052609D01*
X0062524Y0053608D02*
X0064706Y0053608D01*
X0064706Y0054606D02*
X0061773Y0054606D01*
X0061737Y0055605D02*
X0065525Y0055605D01*
X0066524Y0056603D02*
X0061737Y0056603D01*
X0061737Y0057602D02*
X0067522Y0057602D01*
X0068521Y0058600D02*
X0061737Y0058600D01*
X0061737Y0059599D02*
X0069519Y0059599D01*
X0070518Y0060597D02*
X0061737Y0060597D01*
X0061737Y0061596D02*
X0070806Y0061596D01*
X0070806Y0062594D02*
X0061737Y0062594D01*
X0061737Y0063593D02*
X0070806Y0063593D01*
X0070806Y0064591D02*
X0061737Y0064591D01*
X0061737Y0065590D02*
X0070806Y0065590D01*
X0070806Y0066588D02*
X0061737Y0066588D01*
X0061737Y0067587D02*
X0070806Y0067587D01*
X0070806Y0068585D02*
X0061737Y0068585D01*
X0061737Y0069584D02*
X0070806Y0069584D01*
X0070806Y0070582D02*
X0062454Y0070582D01*
X0062832Y0071581D02*
X0070806Y0071581D01*
X0070806Y0072579D02*
X0062832Y0072579D01*
X0062430Y0073578D02*
X0070806Y0073578D01*
X0071597Y0074576D02*
X0061235Y0074576D01*
X0062262Y0076573D02*
X0055930Y0076573D01*
X0055930Y0077572D02*
X0061604Y0077572D01*
X0061588Y0078570D02*
X0055936Y0078570D01*
X0055936Y0079569D02*
X0058531Y0079569D01*
X0059981Y0079569D02*
X0064769Y0079569D01*
X0064769Y0080281D02*
X0064769Y0083265D01*
X0062891Y0083265D01*
X0062533Y0083170D01*
X0062820Y0083456D01*
X0067776Y0088412D01*
X0067776Y0083223D01*
X0067616Y0083265D01*
X0065738Y0083265D01*
X0065738Y0080281D01*
X0064769Y0080281D01*
X0064769Y0080567D02*
X0065738Y0080567D01*
X0065738Y0081566D02*
X0064769Y0081566D01*
X0064769Y0082564D02*
X0065738Y0082564D01*
X0067776Y0083563D02*
X0062927Y0083563D01*
X0062820Y0083456D02*
X0062820Y0083456D01*
X0063925Y0084561D02*
X0067776Y0084561D01*
X0067776Y0085560D02*
X0064924Y0085560D01*
X0065922Y0086558D02*
X0067776Y0086558D01*
X0067776Y0087557D02*
X0066921Y0087557D01*
X0064127Y0089554D02*
X0062609Y0089554D01*
X0062842Y0090553D02*
X0065126Y0090553D01*
X0065436Y0091551D02*
X0062692Y0091551D01*
X0062064Y0092550D02*
X0065436Y0092550D01*
X0065436Y0093548D02*
X0061789Y0093548D01*
X0061771Y0094547D02*
X0065970Y0094547D01*
X0066969Y0095545D02*
X0061753Y0095545D01*
X0062665Y0096544D02*
X0070729Y0096544D01*
X0070914Y0097542D02*
X0063345Y0097542D01*
X0063531Y0098541D02*
X0068018Y0098541D01*
X0067776Y0099539D02*
X0063334Y0099539D01*
X0062639Y0100538D02*
X0067776Y0100538D01*
X0067776Y0101536D02*
X0052639Y0101536D01*
X0053469Y0100538D02*
X0059022Y0100538D01*
X0058327Y0099539D02*
X0053469Y0099539D01*
X0053469Y0098541D02*
X0054368Y0098541D01*
X0053689Y0097542D02*
X0053469Y0097542D01*
X0053469Y0096544D02*
X0053505Y0096544D01*
X0053476Y0095545D02*
X0053702Y0095545D01*
X0053476Y0094547D02*
X0054399Y0094547D01*
X0054505Y0093548D02*
X0053476Y0093548D01*
X0053476Y0092550D02*
X0054505Y0092550D01*
X0054505Y0091551D02*
X0053476Y0091551D01*
X0053476Y0090553D02*
X0054505Y0090553D01*
X0054505Y0089554D02*
X0053476Y0089554D01*
X0053476Y0088555D02*
X0054505Y0088555D01*
X0054505Y0087557D02*
X0053476Y0087557D01*
X0053476Y0086558D02*
X0053642Y0086558D01*
X0056454Y0084561D02*
X0057586Y0084561D01*
X0057452Y0085560D02*
X0060035Y0085560D01*
X0061132Y0086558D02*
X0057905Y0086558D01*
X0057905Y0087557D02*
X0062130Y0087557D01*
X0061862Y0088555D02*
X0063129Y0088555D01*
X0058421Y0088555D02*
X0057905Y0088555D01*
X0056765Y0083563D02*
X0055936Y0083563D01*
X0055936Y0082564D02*
X0056467Y0082564D01*
X0056536Y0081566D02*
X0055936Y0081566D01*
X0055936Y0080567D02*
X0057032Y0080567D01*
X0061480Y0080567D02*
X0061588Y0080567D01*
X0064769Y0078570D02*
X0065738Y0078570D01*
X0065738Y0077572D02*
X0064769Y0077572D01*
X0064769Y0076573D02*
X0065738Y0076573D01*
X0068245Y0076573D02*
X0069198Y0076573D01*
X0072595Y0075575D02*
X0055726Y0075575D01*
X0054727Y0074576D02*
X0058852Y0074576D01*
X0057657Y0073578D02*
X0053729Y0073578D01*
X0053393Y0072579D02*
X0057254Y0072579D01*
X0057254Y0071581D02*
X0054640Y0071581D01*
X0055446Y0070582D02*
X0057633Y0070582D01*
X0058350Y0069584D02*
X0055444Y0069584D01*
X0055444Y0068585D02*
X0058350Y0068585D01*
X0058350Y0067587D02*
X0055444Y0067587D01*
X0055444Y0066588D02*
X0058350Y0066588D01*
X0058350Y0065590D02*
X0055444Y0065590D01*
X0055444Y0064591D02*
X0058350Y0064591D01*
X0058350Y0063593D02*
X0055444Y0063593D01*
X0057209Y0062594D02*
X0058350Y0062594D01*
X0058350Y0061596D02*
X0057209Y0061596D01*
X0057209Y0060597D02*
X0058350Y0060597D01*
X0058350Y0059599D02*
X0057209Y0059599D01*
X0057209Y0058600D02*
X0058350Y0058600D01*
X0058350Y0057602D02*
X0048942Y0057602D01*
X0048942Y0058600D02*
X0051066Y0058600D01*
X0051066Y0059599D02*
X0048350Y0059599D01*
X0048277Y0061596D02*
X0051066Y0061596D01*
X0051066Y0060597D02*
X0044374Y0060597D01*
X0043463Y0061596D02*
X0043375Y0061596D01*
X0042798Y0062594D02*
X0042649Y0062594D01*
X0042649Y0063593D02*
X0042798Y0063593D01*
X0042798Y0064591D02*
X0042649Y0064591D01*
X0042649Y0065590D02*
X0042798Y0065590D01*
X0042899Y0066588D02*
X0042649Y0066588D01*
X0043416Y0067587D02*
X0047638Y0067587D01*
X0046861Y0068585D02*
X0044415Y0068585D01*
X0045413Y0069584D02*
X0046448Y0069584D01*
X0046412Y0070582D02*
X0046440Y0070582D01*
X0043600Y0072579D02*
X0035613Y0072579D01*
X0034615Y0071581D02*
X0042602Y0071581D01*
X0041603Y0070582D02*
X0033616Y0070582D01*
X0032795Y0069761D02*
X0046574Y0083540D01*
X0047570Y0084536D01*
X0047570Y0094441D01*
X0048159Y0095030D01*
X0048570Y0096022D01*
X0048570Y0097096D01*
X0048159Y0098088D01*
X0047399Y0098848D01*
X0046407Y0099259D01*
X0045333Y0099259D01*
X0044341Y0098848D01*
X0043581Y0098088D01*
X0043170Y0097096D01*
X0043170Y0096022D01*
X0043581Y0095030D01*
X0044170Y0094441D01*
X0044170Y0085944D01*
X0032025Y0073799D01*
X0031151Y0074161D01*
X0030077Y0074161D01*
X0029085Y0073750D01*
X0028325Y0072990D01*
X0027914Y0071998D01*
X0027914Y0070924D01*
X0028325Y0069931D01*
X0028914Y0069342D01*
X0028914Y0067673D01*
X0028325Y0067085D01*
X0027914Y0066092D01*
X0027914Y0065018D01*
X0028325Y0064026D01*
X0029085Y0063266D01*
X0030077Y0062855D01*
X0031151Y0062855D01*
X0032144Y0063266D01*
X0032903Y0064026D01*
X0033314Y0065018D01*
X0033314Y0066092D01*
X0032903Y0067085D01*
X0032314Y0067673D01*
X0032314Y0069342D01*
X0032733Y0069761D01*
X0032795Y0069761D01*
X0032556Y0069584D02*
X0040605Y0069584D01*
X0039606Y0068585D02*
X0032314Y0068585D01*
X0032401Y0067587D02*
X0039249Y0067587D01*
X0039249Y0066588D02*
X0033109Y0066588D01*
X0033314Y0065590D02*
X0039249Y0065590D01*
X0036167Y0064591D02*
X0033137Y0064591D01*
X0032470Y0063593D02*
X0035484Y0063593D01*
X0035296Y0062594D02*
X0012629Y0062594D01*
X0012629Y0061596D02*
X0034585Y0061596D01*
X0033587Y0060597D02*
X0012629Y0060597D01*
X0012629Y0059599D02*
X0032588Y0059599D01*
X0031590Y0058600D02*
X0012629Y0058600D01*
X0012629Y0057602D02*
X0030591Y0057602D01*
X0029593Y0056603D02*
X0012629Y0056603D01*
X0012629Y0055605D02*
X0028594Y0055605D01*
X0028422Y0054606D02*
X0012629Y0054606D01*
X0012629Y0053608D02*
X0013785Y0053608D01*
X0012982Y0052609D02*
X0012629Y0052609D01*
X0018900Y0053608D02*
X0027564Y0053608D01*
X0026762Y0052609D02*
X0019703Y0052609D01*
X0024325Y0051611D02*
X0026348Y0051611D01*
X0026322Y0050612D02*
X0025324Y0050612D01*
X0026322Y0049614D02*
X0026497Y0049614D01*
X0041172Y0042624D02*
X0053587Y0042624D01*
X0053587Y0043622D02*
X0053469Y0043622D01*
X0053587Y0041625D02*
X0041172Y0041625D01*
X0041063Y0040627D02*
X0044694Y0040627D01*
X0043980Y0039628D02*
X0040064Y0039628D01*
X0039179Y0038630D02*
X0039066Y0038630D01*
X0038180Y0037631D02*
X0038067Y0037631D01*
X0037182Y0036633D02*
X0037069Y0036633D01*
X0036183Y0035634D02*
X0032625Y0035634D01*
X0031627Y0034636D02*
X0035184Y0034636D01*
X0034186Y0033637D02*
X0030628Y0033637D01*
X0029630Y0032639D02*
X0033187Y0032639D01*
X0032189Y0031640D02*
X0028631Y0031640D01*
X0028576Y0030642D02*
X0028393Y0030642D01*
X0035000Y0029643D02*
X0039515Y0029643D01*
X0039515Y0030642D02*
X0035999Y0030642D01*
X0036997Y0031640D02*
X0039554Y0031640D01*
X0040337Y0032639D02*
X0037996Y0032639D01*
X0038994Y0033637D02*
X0066808Y0033637D01*
X0070208Y0033637D02*
X0071588Y0033637D01*
X0072586Y0034636D02*
X0070208Y0034636D01*
X0070208Y0035634D02*
X0073585Y0035634D01*
X0074583Y0036633D02*
X0070208Y0036633D01*
X0070208Y0037631D02*
X0075582Y0037631D01*
X0076405Y0038630D02*
X0076580Y0038630D01*
X0076993Y0039628D02*
X0077579Y0039628D01*
X0077113Y0040627D02*
X0078577Y0040627D01*
X0077590Y0041625D02*
X0079576Y0041625D01*
X0080574Y0042624D02*
X0077590Y0042624D01*
X0077590Y0043622D02*
X0081573Y0043622D01*
X0081578Y0044621D02*
X0077967Y0044621D01*
X0078505Y0045620D02*
X0082496Y0045620D01*
X0082934Y0046618D02*
X0078590Y0046618D01*
X0078293Y0047617D02*
X0083231Y0047617D01*
X0084068Y0048615D02*
X0077590Y0048615D01*
X0077590Y0049614D02*
X0097793Y0049614D01*
X0096795Y0050612D02*
X0077590Y0050612D01*
X0077590Y0051611D02*
X0095796Y0051611D01*
X0094798Y0052609D02*
X0077590Y0052609D01*
X0077590Y0053608D02*
X0093799Y0053608D01*
X0092801Y0054606D02*
X0077590Y0054606D01*
X0077590Y0055605D02*
X0091802Y0055605D01*
X0090804Y0056603D02*
X0077590Y0056603D01*
X0077590Y0057602D02*
X0089805Y0057602D01*
X0088807Y0058600D02*
X0082694Y0058600D01*
X0079125Y0058600D02*
X0077590Y0058600D01*
X0077590Y0059599D02*
X0078416Y0059599D01*
X0078209Y0060597D02*
X0077590Y0060597D01*
X0077590Y0061596D02*
X0078385Y0061596D01*
X0079051Y0062594D02*
X0077590Y0062594D01*
X0077590Y0063593D02*
X0080802Y0063593D01*
X0080729Y0064591D02*
X0077590Y0064591D01*
X0077590Y0065590D02*
X0081023Y0065590D01*
X0081837Y0066588D02*
X0077590Y0066588D01*
X0077590Y0067587D02*
X0084376Y0067587D01*
X0083408Y0068316D02*
X0083688Y0068596D01*
X0083885Y0068938D01*
X0083987Y0069319D01*
X0083987Y0071198D01*
X0081003Y0071198D01*
X0081003Y0068017D01*
X0082685Y0068017D01*
X0083066Y0068119D01*
X0083408Y0068316D01*
X0083677Y0068585D02*
X0085374Y0068585D01*
X0086373Y0069584D02*
X0083987Y0069584D01*
X0083987Y0070582D02*
X0087371Y0070582D01*
X0088370Y0071581D02*
X0081003Y0071581D01*
X0081003Y0070582D02*
X0080035Y0070582D01*
X0080035Y0069584D02*
X0081003Y0069584D01*
X0081003Y0068585D02*
X0080035Y0068585D01*
X0083987Y0072579D02*
X0089368Y0072579D01*
X0091825Y0075575D02*
X0092364Y0075575D01*
X0091825Y0076573D02*
X0093362Y0076573D01*
X0094361Y0077572D02*
X0091825Y0077572D01*
X0091825Y0078570D02*
X0095359Y0078570D01*
X0096358Y0079569D02*
X0091825Y0079569D01*
X0092025Y0080567D02*
X0097356Y0080567D01*
X0098355Y0081566D02*
X0092025Y0081566D01*
X0092025Y0082564D02*
X0098369Y0082564D01*
X0097572Y0083563D02*
X0091825Y0083563D01*
X0091825Y0084561D02*
X0097304Y0084561D01*
X0096788Y0085560D02*
X0091825Y0085560D01*
X0092025Y0086558D02*
X0094375Y0086558D01*
X0093612Y0087557D02*
X0092025Y0087557D01*
X0092025Y0088555D02*
X0093367Y0088555D01*
X0093504Y0089554D02*
X0091879Y0089554D01*
X0091825Y0090553D02*
X0094116Y0090553D01*
X0091825Y0091551D02*
X0106371Y0091551D01*
X0105373Y0090553D02*
X0098018Y0090553D01*
X0098629Y0089554D02*
X0104374Y0089554D01*
X0103376Y0088555D02*
X0098767Y0088555D01*
X0099599Y0087557D02*
X0102377Y0087557D01*
X0108113Y0083563D02*
X0117825Y0083563D01*
X0117825Y0084561D02*
X0109111Y0084561D01*
X0110110Y0085560D02*
X0117825Y0085560D01*
X0118025Y0086558D02*
X0111108Y0086558D01*
X0112107Y0087557D02*
X0118025Y0087557D01*
X0118025Y0088555D02*
X0113105Y0088555D01*
X0114104Y0089554D02*
X0118025Y0089554D01*
X0118025Y0090553D02*
X0115102Y0090553D01*
X0116101Y0091551D02*
X0118025Y0091551D01*
X0118025Y0092550D02*
X0117099Y0092550D01*
X0111099Y0096544D02*
X0091825Y0096544D01*
X0091825Y0097542D02*
X0111099Y0097542D01*
X0111099Y0098541D02*
X0091825Y0098541D01*
X0092048Y0099539D02*
X0091173Y0099539D01*
X0091502Y0100538D02*
X0083342Y0100538D01*
X0082343Y0101536D02*
X0091502Y0101536D01*
X0091502Y0102535D02*
X0081345Y0102535D01*
X0080346Y0103533D02*
X0091502Y0103533D01*
X0091502Y0104532D02*
X0079824Y0104532D01*
X0079824Y0105530D02*
X0091502Y0105530D01*
X0091867Y0106529D02*
X0079824Y0106529D01*
X0079824Y0107527D02*
X0105194Y0107527D01*
X0105194Y0108526D02*
X0075494Y0108526D01*
X0076866Y0109524D02*
X0077651Y0109524D01*
X0080262Y0109524D02*
X0081231Y0109524D01*
X0081231Y0109216D02*
X0083109Y0109216D01*
X0083491Y0109318D01*
X0083833Y0109515D01*
X0084112Y0109795D01*
X0084310Y0110137D01*
X0084412Y0110518D01*
X0084412Y0112200D01*
X0081231Y0112200D01*
X0081231Y0109216D01*
X0081231Y0110523D02*
X0080262Y0110523D01*
X0080262Y0111521D02*
X0081231Y0111521D01*
X0081231Y0112520D02*
X0088255Y0112520D01*
X0087954Y0113518D02*
X0084412Y0113518D01*
X0084412Y0113169D02*
X0084412Y0114850D01*
X0084310Y0115232D01*
X0084112Y0115574D01*
X0083833Y0115853D01*
X0083491Y0116051D01*
X0083109Y0116153D01*
X0081231Y0116153D01*
X0081231Y0113169D01*
X0084412Y0113169D01*
X0084412Y0114517D02*
X0088035Y0114517D01*
X0088567Y0115515D02*
X0084146Y0115515D01*
X0081231Y0115515D02*
X0080262Y0115515D01*
X0080262Y0114517D02*
X0081231Y0114517D01*
X0081231Y0113518D02*
X0080262Y0113518D01*
X0077347Y0115515D02*
X0077195Y0115515D01*
X0070912Y0115515D02*
X0061021Y0115515D01*
X0060162Y0114517D02*
X0070588Y0114517D01*
X0070588Y0113518D02*
X0060162Y0113518D01*
X0060162Y0112520D02*
X0070588Y0112520D01*
X0070588Y0111521D02*
X0060162Y0111521D01*
X0060162Y0110523D02*
X0070588Y0110523D01*
X0071241Y0109524D02*
X0060162Y0109524D01*
X0060162Y0108526D02*
X0072106Y0108526D01*
X0067776Y0107527D02*
X0059332Y0107527D01*
X0058333Y0106529D02*
X0067776Y0106529D01*
X0067776Y0105530D02*
X0057335Y0105530D01*
X0056336Y0104532D02*
X0067776Y0104532D01*
X0067776Y0103533D02*
X0055338Y0103533D01*
X0054339Y0102535D02*
X0067776Y0102535D01*
X0058131Y0098541D02*
X0058042Y0098541D01*
X0050082Y0098541D02*
X0047707Y0098541D01*
X0048385Y0097542D02*
X0050082Y0097542D01*
X0050082Y0096544D02*
X0048570Y0096544D01*
X0048373Y0095545D02*
X0050076Y0095545D01*
X0050076Y0094547D02*
X0047676Y0094547D01*
X0047570Y0093548D02*
X0050076Y0093548D01*
X0050076Y0092550D02*
X0047570Y0092550D01*
X0047570Y0091551D02*
X0050076Y0091551D01*
X0050076Y0090553D02*
X0047570Y0090553D01*
X0047570Y0089554D02*
X0050076Y0089554D01*
X0050076Y0088555D02*
X0047570Y0088555D01*
X0047570Y0087557D02*
X0050076Y0087557D01*
X0050076Y0086558D02*
X0047570Y0086558D01*
X0047570Y0085560D02*
X0050076Y0085560D01*
X0050076Y0084561D02*
X0047570Y0084561D01*
X0046597Y0083563D02*
X0050076Y0083563D01*
X0050076Y0082564D02*
X0045598Y0082564D01*
X0044600Y0081566D02*
X0050076Y0081566D01*
X0050076Y0080567D02*
X0043601Y0080567D01*
X0042603Y0079569D02*
X0050076Y0079569D01*
X0049591Y0078570D02*
X0041604Y0078570D01*
X0040606Y0077572D02*
X0048593Y0077572D01*
X0047594Y0076573D02*
X0039607Y0076573D01*
X0038609Y0075575D02*
X0046596Y0075575D01*
X0045597Y0074576D02*
X0037610Y0074576D01*
X0036612Y0073578D02*
X0044599Y0073578D01*
X0037795Y0079569D02*
X0032330Y0079569D01*
X0032246Y0080567D02*
X0038793Y0080567D01*
X0038772Y0081126D02*
X0039114Y0081323D01*
X0039393Y0081603D01*
X0039591Y0081945D01*
X0039693Y0082326D01*
X0039693Y0084008D01*
X0036512Y0084008D01*
X0036512Y0081024D01*
X0038390Y0081024D01*
X0038772Y0081126D01*
X0039357Y0081566D02*
X0039792Y0081566D01*
X0039693Y0082564D02*
X0040790Y0082564D01*
X0041789Y0083563D02*
X0039693Y0083563D01*
X0039693Y0085560D02*
X0043786Y0085560D01*
X0044170Y0086558D02*
X0039693Y0086558D01*
X0039218Y0087557D02*
X0044170Y0087557D01*
X0044170Y0088555D02*
X0039370Y0088555D01*
X0039493Y0089554D02*
X0044170Y0089554D01*
X0044170Y0090553D02*
X0039493Y0090553D01*
X0039493Y0091551D02*
X0044170Y0091551D01*
X0044170Y0092550D02*
X0039493Y0092550D01*
X0039493Y0093548D02*
X0044170Y0093548D01*
X0044064Y0094547D02*
X0038511Y0094547D01*
X0039099Y0095545D02*
X0043368Y0095545D01*
X0043170Y0096544D02*
X0039099Y0096544D01*
X0039099Y0097542D02*
X0043355Y0097542D01*
X0044033Y0098541D02*
X0039099Y0098541D01*
X0038921Y0099539D02*
X0049845Y0099539D01*
X0048847Y0100538D02*
X0031008Y0100538D01*
X0030831Y0101536D02*
X0047848Y0101536D01*
X0046850Y0102535D02*
X0039019Y0102535D01*
X0033036Y0102535D02*
X0030831Y0102535D01*
X0030400Y0103533D02*
X0032956Y0103533D01*
X0032956Y0104532D02*
X0023456Y0104532D01*
X0023456Y0103533D02*
X0025120Y0103533D01*
X0024688Y0102535D02*
X0023456Y0102535D01*
X0023456Y0101536D02*
X0024688Y0101536D01*
X0024688Y0100538D02*
X0023456Y0100538D01*
X0023456Y0099539D02*
X0024688Y0099539D01*
X0025022Y0098541D02*
X0023456Y0098541D01*
X0023456Y0097542D02*
X0029195Y0097542D01*
X0030194Y0096544D02*
X0023456Y0096544D01*
X0023456Y0095545D02*
X0032956Y0095545D01*
X0033544Y0094547D02*
X0023456Y0094547D01*
X0023456Y0093548D02*
X0027182Y0093548D01*
X0026854Y0092550D02*
X0023456Y0092550D01*
X0023456Y0091551D02*
X0026854Y0091551D01*
X0026854Y0090553D02*
X0023456Y0090553D01*
X0024655Y0089554D02*
X0026854Y0089554D01*
X0027096Y0088555D02*
X0024729Y0088555D01*
X0024729Y0087557D02*
X0026098Y0087557D01*
X0025099Y0086558D02*
X0024729Y0086558D01*
X0022104Y0083563D02*
X0011000Y0083563D01*
X0011000Y0084561D02*
X0019277Y0084561D01*
X0018586Y0085560D02*
X0011000Y0085560D01*
X0011000Y0086558D02*
X0018586Y0086558D01*
X0018586Y0087557D02*
X0011000Y0087557D01*
X0011000Y0088555D02*
X0018586Y0088555D01*
X0018660Y0089554D02*
X0011000Y0089554D01*
X0011000Y0090553D02*
X0020056Y0090553D01*
X0020056Y0091551D02*
X0011000Y0091551D01*
X0011000Y0092550D02*
X0020056Y0092550D01*
X0020056Y0093548D02*
X0011000Y0093548D01*
X0011000Y0094547D02*
X0020056Y0094547D01*
X0020056Y0095545D02*
X0011000Y0095545D01*
X0011000Y0096544D02*
X0020056Y0096544D01*
X0020056Y0097542D02*
X0011000Y0097542D01*
X0011000Y0098541D02*
X0020056Y0098541D01*
X0020056Y0099539D02*
X0011000Y0099539D01*
X0011000Y0100538D02*
X0020056Y0100538D01*
X0020056Y0101536D02*
X0011000Y0101536D01*
X0011000Y0102535D02*
X0020056Y0102535D01*
X0020056Y0103533D02*
X0011000Y0103533D01*
X0011000Y0104532D02*
X0020056Y0104532D01*
X0020056Y0105530D02*
X0011000Y0105530D01*
X0011000Y0106529D02*
X0020056Y0106529D01*
X0020056Y0107527D02*
X0011000Y0107527D01*
X0011000Y0108526D02*
X0020056Y0108526D01*
X0020056Y0109524D02*
X0011000Y0109524D01*
X0011000Y0110523D02*
X0020056Y0110523D01*
X0020056Y0111521D02*
X0011000Y0111521D01*
X0011000Y0112520D02*
X0020056Y0112520D01*
X0018586Y0113518D02*
X0011000Y0113518D01*
X0011000Y0114517D02*
X0018586Y0114517D01*
X0018586Y0115515D02*
X0011000Y0115515D01*
X0011000Y0116514D02*
X0018586Y0116514D01*
X0018586Y0117512D02*
X0011000Y0117512D01*
X0011000Y0118511D02*
X0020056Y0118511D01*
X0020056Y0119509D02*
X0011000Y0119509D01*
X0011000Y0120508D02*
X0020056Y0120508D01*
X0020677Y0121506D02*
X0011000Y0121506D01*
X0011000Y0122505D02*
X0021676Y0122505D01*
X0022501Y0123503D02*
X0011000Y0123503D01*
X0011000Y0124502D02*
X0022641Y0124502D01*
X0023257Y0125500D02*
X0011000Y0125500D01*
X0011000Y0126499D02*
X0024688Y0126499D01*
X0024688Y0127497D02*
X0011000Y0127497D01*
X0011000Y0128496D02*
X0024688Y0128496D01*
X0024688Y0129494D02*
X0011000Y0129494D01*
X0011000Y0130493D02*
X0024688Y0130493D01*
X0030831Y0130493D02*
X0032956Y0130493D01*
X0032956Y0131491D02*
X0011000Y0131491D01*
X0011000Y0132490D02*
X0032956Y0132490D01*
X0032956Y0133488D02*
X0011000Y0133488D01*
X0011000Y0134487D02*
X0033042Y0134487D01*
X0039013Y0134487D02*
X0045154Y0134487D01*
X0045154Y0133488D02*
X0039099Y0133488D01*
X0039099Y0132490D02*
X0045154Y0132490D01*
X0045154Y0131491D02*
X0039424Y0131491D01*
X0040423Y0130493D02*
X0045154Y0130493D01*
X0045154Y0129494D02*
X0041422Y0129494D01*
X0042420Y0128496D02*
X0045154Y0128496D01*
X0045154Y0127497D02*
X0043419Y0127497D01*
X0043633Y0126499D02*
X0045154Y0126499D01*
X0045154Y0125500D02*
X0043633Y0125500D01*
X0043633Y0124502D02*
X0045154Y0124502D01*
X0045154Y0123503D02*
X0043633Y0123503D01*
X0043633Y0122505D02*
X0045154Y0122505D01*
X0045154Y0121506D02*
X0043633Y0121506D01*
X0043633Y0120508D02*
X0045154Y0120508D01*
X0045154Y0119509D02*
X0043633Y0119509D01*
X0043633Y0118511D02*
X0045154Y0118511D01*
X0045154Y0117870D02*
X0044565Y0117281D01*
X0044154Y0116289D01*
X0044154Y0115215D01*
X0044565Y0114223D01*
X0045325Y0113463D01*
X0046317Y0113052D01*
X0047391Y0113052D01*
X0048384Y0113463D01*
X0049143Y0114223D01*
X0049554Y0115215D01*
X0049554Y0116289D01*
X0049143Y0117281D01*
X0048554Y0117870D01*
X0048554Y0151754D01*
X0048712Y0151754D01*
X0049474Y0152515D01*
X0049474Y0159592D01*
X0048712Y0160354D01*
X0045036Y0160354D01*
X0044374Y0159692D01*
X0043712Y0160354D01*
X0040036Y0160354D01*
X0039374Y0159692D01*
X0038712Y0160354D01*
X0035036Y0160354D01*
X0034478Y0159796D01*
X0034374Y0159975D01*
X0034095Y0160254D01*
X0033753Y0160451D01*
X0033371Y0160554D01*
X0032024Y0160554D01*
X0032024Y0156204D01*
X0031724Y0156204D01*
X0031724Y0160554D01*
X0030377Y0160554D01*
X0029995Y0160451D01*
X0029653Y0160254D01*
X0029374Y0159975D01*
X0029176Y0159633D01*
X0029074Y0159251D01*
X0029074Y0156204D01*
X0031724Y0156204D01*
X0031724Y0155904D01*
X0029074Y0155904D01*
X0029074Y0152856D01*
X0029176Y0152475D01*
X0029374Y0152133D01*
X0029653Y0151853D01*
X0029995Y0151656D01*
X0030377Y0151554D01*
X0031724Y0151554D01*
X0031724Y0155903D01*
X0032024Y0155903D01*
X0032024Y0151554D01*
X0033371Y0151554D01*
X0033753Y0151656D01*
X0034095Y0151853D01*
X0034374Y0152133D01*
X0034478Y0152311D01*
X0034820Y0151969D01*
X0034820Y0151827D01*
X0034231Y0151238D01*
X0033820Y0150246D01*
X0033820Y0149172D01*
X0034231Y0148179D01*
X0034990Y0147420D01*
X0035983Y0147009D01*
X0037057Y0147009D01*
X0038049Y0147420D01*
X0038809Y0148179D01*
X0039220Y0149172D01*
X0039220Y0150246D01*
X0038809Y0151238D01*
X0038293Y0151754D01*
X0038712Y0151754D01*
X0039374Y0152415D01*
X0040036Y0151754D01*
X0040233Y0151754D01*
X0040233Y0151268D01*
X0040217Y0151230D01*
X0040217Y0150156D01*
X0040628Y0149163D01*
X0041388Y0148404D01*
X0042380Y0147993D01*
X0043454Y0147993D01*
X0044447Y0148404D01*
X0045154Y0149112D01*
X0045154Y0117870D01*
X0044796Y0117512D02*
X0043633Y0117512D01*
X0043633Y0116514D02*
X0044247Y0116514D01*
X0044154Y0115515D02*
X0043633Y0115515D01*
X0043633Y0114517D02*
X0044443Y0114517D01*
X0043633Y0113518D02*
X0045270Y0113518D01*
X0043633Y0112520D02*
X0051044Y0112520D01*
X0051044Y0112262D02*
X0051455Y0111270D01*
X0052215Y0110510D01*
X0053207Y0110099D01*
X0054281Y0110099D01*
X0055274Y0110510D01*
X0056033Y0111270D01*
X0056444Y0112262D01*
X0056444Y0113336D01*
X0056033Y0114329D01*
X0055444Y0114918D01*
X0055444Y0154176D01*
X0056133Y0154176D01*
X0056894Y0154938D01*
X0056894Y0159952D01*
X0056133Y0160713D01*
X0050725Y0160713D01*
X0049964Y0159952D01*
X0049964Y0154938D01*
X0050725Y0154176D01*
X0052044Y0154176D01*
X0052044Y0114918D01*
X0051455Y0114329D01*
X0051044Y0113336D01*
X0051044Y0112262D01*
X0051351Y0111521D02*
X0043633Y0111521D01*
X0043633Y0110523D02*
X0052202Y0110523D01*
X0055286Y0110523D02*
X0056775Y0110523D01*
X0056775Y0111521D02*
X0056137Y0111521D01*
X0056444Y0112520D02*
X0056775Y0112520D01*
X0056775Y0113518D02*
X0056369Y0113518D01*
X0056775Y0114517D02*
X0055845Y0114517D01*
X0055444Y0115515D02*
X0056775Y0115515D01*
X0057229Y0116514D02*
X0055444Y0116514D01*
X0055444Y0117512D02*
X0058227Y0117512D01*
X0059226Y0118511D02*
X0055444Y0118511D01*
X0055444Y0119509D02*
X0060224Y0119509D01*
X0061223Y0120508D02*
X0055444Y0120508D01*
X0055444Y0121506D02*
X0062221Y0121506D01*
X0063220Y0122505D02*
X0055444Y0122505D01*
X0055444Y0123503D02*
X0064218Y0123503D01*
X0065217Y0124502D02*
X0055444Y0124502D01*
X0055444Y0125500D02*
X0066215Y0125500D01*
X0067214Y0126499D02*
X0055444Y0126499D01*
X0055444Y0127497D02*
X0067838Y0127497D01*
X0068449Y0128496D02*
X0055444Y0128496D01*
X0055444Y0129494D02*
X0089158Y0129494D01*
X0088750Y0128496D02*
X0072503Y0128496D01*
X0073115Y0127497D02*
X0088750Y0127497D01*
X0089124Y0126499D02*
X0073265Y0126499D01*
X0073048Y0125500D02*
X0087343Y0125500D01*
X0086329Y0124502D02*
X0072344Y0124502D01*
X0069009Y0123503D02*
X0085985Y0123503D01*
X0086023Y0122505D02*
X0068010Y0122505D01*
X0067012Y0121506D02*
X0086494Y0121506D01*
X0087969Y0120508D02*
X0066013Y0120508D01*
X0065015Y0119509D02*
X0088954Y0119509D01*
X0088954Y0118511D02*
X0064016Y0118511D01*
X0063018Y0117512D02*
X0088954Y0117512D01*
X0088954Y0116514D02*
X0062019Y0116514D01*
X0056538Y0109524D02*
X0043633Y0109524D01*
X0043633Y0108526D02*
X0055540Y0108526D01*
X0054541Y0107527D02*
X0043002Y0107527D01*
X0040191Y0109524D02*
X0039911Y0109524D01*
X0039906Y0109504D02*
X0040008Y0109885D01*
X0040008Y0111567D01*
X0036827Y0111567D01*
X0036827Y0108583D01*
X0038705Y0108583D01*
X0039087Y0108685D01*
X0039429Y0108882D01*
X0039708Y0109162D01*
X0039906Y0109504D01*
X0040008Y0110523D02*
X0040233Y0110523D01*
X0040233Y0111521D02*
X0040008Y0111521D01*
X0040233Y0112520D02*
X0036827Y0112520D01*
X0036827Y0111521D02*
X0035858Y0111521D01*
X0035858Y0110523D02*
X0036827Y0110523D01*
X0036827Y0109524D02*
X0035858Y0109524D01*
X0033641Y0107527D02*
X0027901Y0107527D01*
X0027768Y0106529D02*
X0032956Y0106529D01*
X0032956Y0105530D02*
X0027164Y0105530D01*
X0028745Y0108526D02*
X0039192Y0108526D01*
X0040008Y0113518D02*
X0040233Y0113518D01*
X0040233Y0114517D02*
X0039928Y0114517D01*
X0040233Y0115515D02*
X0039086Y0115515D01*
X0039808Y0116514D02*
X0040233Y0116514D01*
X0040233Y0117512D02*
X0039808Y0117512D01*
X0039808Y0118511D02*
X0040233Y0118511D01*
X0040233Y0119509D02*
X0039808Y0119509D01*
X0039808Y0120508D02*
X0040233Y0120508D01*
X0040233Y0121506D02*
X0039553Y0121506D01*
X0038910Y0122505D02*
X0040233Y0122505D01*
X0040233Y0123503D02*
X0039099Y0123503D01*
X0039099Y0124502D02*
X0040233Y0124502D01*
X0040233Y0125500D02*
X0039099Y0125500D01*
X0039099Y0126499D02*
X0039609Y0126499D01*
X0038610Y0127497D02*
X0038522Y0127497D01*
X0037612Y0128496D02*
X0030831Y0128496D01*
X0030831Y0129494D02*
X0033636Y0129494D01*
X0033533Y0127497D02*
X0030831Y0127497D01*
X0030831Y0126499D02*
X0032956Y0126499D01*
X0032956Y0125500D02*
X0031464Y0125500D01*
X0032478Y0124502D02*
X0032956Y0124502D01*
X0032956Y0123503D02*
X0032822Y0123503D01*
X0032784Y0122505D02*
X0033145Y0122505D01*
X0033132Y0121506D02*
X0032938Y0121506D01*
X0048554Y0121506D02*
X0052044Y0121506D01*
X0052044Y0120508D02*
X0048554Y0120508D01*
X0048554Y0119509D02*
X0052044Y0119509D01*
X0052044Y0118511D02*
X0048554Y0118511D01*
X0048912Y0117512D02*
X0052044Y0117512D01*
X0052044Y0116514D02*
X0049461Y0116514D01*
X0049554Y0115515D02*
X0052044Y0115515D01*
X0051643Y0114517D02*
X0049265Y0114517D01*
X0048439Y0113518D02*
X0051119Y0113518D01*
X0053543Y0106529D02*
X0047646Y0106529D01*
X0048645Y0105530D02*
X0052544Y0105530D01*
X0033134Y0099539D02*
X0032007Y0099539D01*
X0036512Y0084561D02*
X0042787Y0084561D01*
X0036512Y0083563D02*
X0035543Y0083563D01*
X0035543Y0082564D02*
X0036512Y0082564D01*
X0036512Y0081566D02*
X0035543Y0081566D01*
X0036796Y0078570D02*
X0032032Y0078570D01*
X0031193Y0077572D02*
X0035798Y0077572D01*
X0034799Y0076573D02*
X0019922Y0076573D01*
X0018924Y0075575D02*
X0033801Y0075575D01*
X0032802Y0074576D02*
X0017925Y0074576D01*
X0016927Y0073578D02*
X0028913Y0073578D01*
X0028155Y0072579D02*
X0015928Y0072579D01*
X0014930Y0071581D02*
X0027914Y0071581D01*
X0028056Y0070582D02*
X0013931Y0070582D01*
X0012933Y0069584D02*
X0028673Y0069584D01*
X0028914Y0068585D02*
X0012629Y0068585D01*
X0012629Y0067587D02*
X0028827Y0067587D01*
X0028120Y0066588D02*
X0012629Y0066588D01*
X0012629Y0065590D02*
X0027914Y0065590D01*
X0028091Y0064591D02*
X0012629Y0064591D01*
X0012629Y0063593D02*
X0028758Y0063593D01*
X0015114Y0076573D02*
X0011000Y0076573D01*
X0011000Y0075575D02*
X0014116Y0075575D01*
X0013117Y0074576D02*
X0011000Y0074576D01*
X0011000Y0073578D02*
X0012119Y0073578D01*
X0011120Y0072579D02*
X0011000Y0072579D01*
X0011000Y0077572D02*
X0016113Y0077572D01*
X0017111Y0078570D02*
X0011000Y0078570D01*
X0011000Y0079569D02*
X0018110Y0079569D01*
X0019108Y0080567D02*
X0011000Y0080567D01*
X0011000Y0081566D02*
X0020107Y0081566D01*
X0021105Y0082564D02*
X0011000Y0082564D01*
X0020921Y0077572D02*
X0028066Y0077572D01*
X0027228Y0078570D02*
X0021919Y0078570D01*
X0022918Y0079569D02*
X0026930Y0079569D01*
X0027014Y0080567D02*
X0023916Y0080567D01*
X0024915Y0081566D02*
X0026854Y0081566D01*
X0026854Y0082564D02*
X0025913Y0082564D01*
X0048942Y0056603D02*
X0058350Y0056603D01*
X0058350Y0055605D02*
X0048942Y0055605D01*
X0048767Y0054606D02*
X0058350Y0054606D01*
X0058350Y0053608D02*
X0047570Y0053608D01*
X0047570Y0052609D02*
X0058980Y0052609D01*
X0058934Y0051611D02*
X0058239Y0051611D01*
X0058587Y0050612D02*
X0058587Y0050612D01*
X0058587Y0049614D02*
X0058587Y0049614D01*
X0058587Y0048615D02*
X0058587Y0048615D01*
X0058587Y0047617D02*
X0058587Y0047617D01*
X0058587Y0046618D02*
X0058587Y0046618D01*
X0058587Y0045620D02*
X0058587Y0045620D01*
X0058587Y0044621D02*
X0058587Y0044621D01*
X0058587Y0043622D02*
X0058587Y0043622D01*
X0058587Y0042624D02*
X0058587Y0042624D01*
X0056713Y0040627D02*
X0049015Y0040627D01*
X0049729Y0039628D02*
X0056457Y0039628D01*
X0056584Y0038630D02*
X0049729Y0038630D01*
X0049729Y0037631D02*
X0057180Y0037631D01*
X0047720Y0043622D02*
X0045989Y0043622D01*
X0045989Y0044621D02*
X0047720Y0044621D01*
X0047720Y0045620D02*
X0045989Y0045620D01*
X0045989Y0046618D02*
X0047720Y0046618D01*
X0047720Y0047617D02*
X0045989Y0047617D01*
X0046713Y0048615D02*
X0048155Y0048615D01*
X0047170Y0049614D02*
X0053587Y0049614D01*
X0053587Y0050612D02*
X0047170Y0050612D01*
X0047570Y0051611D02*
X0053934Y0051611D01*
X0053587Y0048615D02*
X0053034Y0048615D01*
X0053469Y0047617D02*
X0053587Y0047617D01*
X0068094Y0051756D02*
X0068094Y0053383D01*
X0074190Y0059479D01*
X0074190Y0048481D01*
X0073787Y0048077D01*
X0073787Y0050922D01*
X0073684Y0051304D01*
X0073487Y0051646D01*
X0073208Y0051925D01*
X0072866Y0052123D01*
X0072484Y0052225D01*
X0071187Y0052225D01*
X0071187Y0046475D01*
X0070987Y0046475D01*
X0070987Y0052225D01*
X0069689Y0052225D01*
X0069308Y0052123D01*
X0068966Y0051925D01*
X0068686Y0051646D01*
X0068510Y0051340D01*
X0068094Y0051756D01*
X0068239Y0051611D02*
X0068666Y0051611D01*
X0068094Y0052609D02*
X0074190Y0052609D01*
X0074190Y0051611D02*
X0073507Y0051611D01*
X0073787Y0050612D02*
X0074190Y0050612D01*
X0074190Y0049614D02*
X0073787Y0049614D01*
X0073787Y0048615D02*
X0074190Y0048615D01*
X0071187Y0048615D02*
X0070987Y0048615D01*
X0070987Y0047617D02*
X0071187Y0047617D01*
X0071187Y0046618D02*
X0070987Y0046618D01*
X0070987Y0045620D02*
X0071187Y0045620D01*
X0071187Y0044621D02*
X0070987Y0044621D01*
X0070987Y0043622D02*
X0071187Y0043622D01*
X0071187Y0042624D02*
X0070987Y0042624D01*
X0070987Y0041625D02*
X0071187Y0041625D01*
X0071187Y0040627D02*
X0070987Y0040627D01*
X0071834Y0039628D02*
X0069772Y0039628D01*
X0070208Y0038630D02*
X0072422Y0038630D01*
X0078393Y0035634D02*
X0081775Y0035634D01*
X0081775Y0036633D02*
X0079391Y0036633D01*
X0080390Y0037631D02*
X0081775Y0037631D01*
X0081775Y0038630D02*
X0081388Y0038630D01*
X0082387Y0039628D02*
X0097326Y0039628D01*
X0097326Y0039591D02*
X0096316Y0039591D01*
X0095554Y0038830D01*
X0095554Y0034997D01*
X0096316Y0034235D01*
X0101724Y0034235D01*
X0102485Y0034997D01*
X0102485Y0038830D01*
X0101724Y0039591D01*
X0101698Y0039591D01*
X0101698Y0039683D01*
X0102368Y0040353D01*
X0102793Y0041378D01*
X0102793Y0042488D01*
X0102368Y0043513D01*
X0101584Y0044297D01*
X0100559Y0044722D01*
X0099449Y0044722D01*
X0098424Y0044297D01*
X0097640Y0043513D01*
X0097215Y0042488D01*
X0097215Y0041378D01*
X0097640Y0040353D01*
X0097818Y0040174D01*
X0097326Y0039682D01*
X0097326Y0039591D01*
X0097526Y0040627D02*
X0083385Y0040627D01*
X0084384Y0041625D02*
X0097215Y0041625D01*
X0097271Y0042624D02*
X0084972Y0042624D01*
X0085289Y0043622D02*
X0097749Y0043622D01*
X0099205Y0044621D02*
X0087711Y0044621D01*
X0088249Y0045620D02*
X0142595Y0045620D01*
X0142595Y0044621D02*
X0100803Y0044621D01*
X0102259Y0043622D02*
X0142595Y0043622D01*
X0142595Y0042624D02*
X0102737Y0042624D01*
X0102793Y0041625D02*
X0115082Y0041625D01*
X0116421Y0041625D02*
X0142595Y0041625D01*
X0142124Y0040627D02*
X0117924Y0040627D01*
X0118406Y0039628D02*
X0141641Y0039628D01*
X0141595Y0038630D02*
X0137918Y0038630D01*
X0137918Y0038830D02*
X0137157Y0039591D01*
X0131749Y0039591D01*
X0130987Y0038830D01*
X0130987Y0034997D01*
X0131749Y0034235D01*
X0137157Y0034235D01*
X0137918Y0034997D01*
X0137918Y0038830D01*
X0137918Y0037631D02*
X0141932Y0037631D01*
X0142907Y0036633D02*
X0137918Y0036633D01*
X0137918Y0035634D02*
X0167089Y0035634D01*
X0167513Y0036633D02*
X0145684Y0036633D01*
X0146659Y0037631D02*
X0166538Y0037631D01*
X0166202Y0038630D02*
X0146995Y0038630D01*
X0146949Y0039628D02*
X0166248Y0039628D01*
X0166730Y0040627D02*
X0146467Y0040627D01*
X0145995Y0041625D02*
X0167202Y0041625D01*
X0167202Y0042624D02*
X0145995Y0042624D01*
X0145995Y0043622D02*
X0167202Y0043622D01*
X0167202Y0044621D02*
X0145995Y0044621D01*
X0145995Y0045620D02*
X0167202Y0045620D01*
X0166796Y0046618D02*
X0146401Y0046618D01*
X0146922Y0047617D02*
X0166275Y0047617D01*
X0166202Y0048615D02*
X0146995Y0048615D01*
X0146686Y0049614D02*
X0165215Y0049614D01*
X0164216Y0050612D02*
X0145995Y0050612D01*
X0145995Y0051611D02*
X0163218Y0051611D01*
X0162219Y0052609D02*
X0145995Y0052609D01*
X0145995Y0053608D02*
X0161221Y0053608D01*
X0160222Y0054606D02*
X0145995Y0054606D01*
X0145995Y0055605D02*
X0159223Y0055605D01*
X0158225Y0056603D02*
X0145995Y0056603D01*
X0145995Y0057602D02*
X0157359Y0057602D01*
X0157359Y0058600D02*
X0145995Y0058600D01*
X0145995Y0059599D02*
X0157359Y0059599D01*
X0157359Y0060597D02*
X0145995Y0060597D01*
X0145995Y0061596D02*
X0157359Y0061596D01*
X0157359Y0062594D02*
X0145995Y0062594D01*
X0145995Y0063593D02*
X0157359Y0063593D01*
X0157359Y0064591D02*
X0145995Y0064591D01*
X0145995Y0065590D02*
X0157359Y0065590D01*
X0157359Y0066588D02*
X0145995Y0066588D01*
X0145995Y0067587D02*
X0157359Y0067587D01*
X0157359Y0068585D02*
X0145995Y0068585D01*
X0145995Y0069584D02*
X0157118Y0069584D01*
X0156500Y0070582D02*
X0145995Y0070582D01*
X0146265Y0071581D02*
X0156359Y0071581D01*
X0156600Y0072579D02*
X0146866Y0072579D01*
X0146995Y0073578D02*
X0157358Y0073578D01*
X0157476Y0074576D02*
X0146743Y0074576D01*
X0142325Y0071581D02*
X0139930Y0071581D01*
X0140928Y0072579D02*
X0141725Y0072579D01*
X0142595Y0070582D02*
X0138931Y0070582D01*
X0137933Y0069584D02*
X0142595Y0069584D01*
X0142595Y0068585D02*
X0136934Y0068585D01*
X0135936Y0067587D02*
X0142595Y0067587D01*
X0142595Y0066588D02*
X0134937Y0066588D01*
X0133939Y0065590D02*
X0142595Y0065590D01*
X0142595Y0064591D02*
X0132940Y0064591D01*
X0131942Y0063593D02*
X0142595Y0063593D01*
X0142595Y0062594D02*
X0130943Y0062594D01*
X0129945Y0061596D02*
X0142595Y0061596D01*
X0142595Y0060597D02*
X0128946Y0060597D01*
X0127948Y0059599D02*
X0142595Y0059599D01*
X0142595Y0058600D02*
X0126949Y0058600D01*
X0125951Y0057602D02*
X0142595Y0057602D01*
X0142595Y0056603D02*
X0124952Y0056603D01*
X0123954Y0055605D02*
X0142595Y0055605D01*
X0142595Y0054606D02*
X0122955Y0054606D01*
X0121957Y0053608D02*
X0142595Y0053608D01*
X0142595Y0052609D02*
X0120958Y0052609D01*
X0119960Y0051611D02*
X0142595Y0051611D01*
X0142595Y0050612D02*
X0118961Y0050612D01*
X0117963Y0049614D02*
X0141904Y0049614D01*
X0141595Y0048615D02*
X0087199Y0048615D01*
X0088037Y0047617D02*
X0141669Y0047617D01*
X0142190Y0046618D02*
X0088334Y0046618D01*
X0088705Y0038630D02*
X0089438Y0038630D01*
X0092854Y0038630D02*
X0095554Y0038630D01*
X0095554Y0037631D02*
X0093608Y0037631D01*
X0093846Y0036633D02*
X0095554Y0036633D01*
X0095554Y0035634D02*
X0094435Y0035634D01*
X0095434Y0034636D02*
X0095915Y0034636D01*
X0093621Y0031640D02*
X0083749Y0031640D01*
X0082800Y0030642D02*
X0094619Y0030642D01*
X0093875Y0031386D02*
X0093875Y0031386D01*
X0092622Y0032639D02*
X0084748Y0032639D01*
X0085746Y0033637D02*
X0091624Y0033637D01*
X0089211Y0034636D02*
X0088344Y0034636D01*
X0082800Y0029643D02*
X0110876Y0029643D01*
X0110318Y0028645D02*
X0082452Y0028645D01*
X0082729Y0027646D02*
X0096600Y0027646D01*
X0095602Y0026648D02*
X0083000Y0026648D01*
X0083000Y0025649D02*
X0094603Y0025649D01*
X0093605Y0024651D02*
X0079819Y0024651D01*
X0079819Y0024323D02*
X0079819Y0021339D01*
X0081697Y0021339D01*
X0081842Y0021377D01*
X0081775Y0021310D01*
X0081775Y0017477D01*
X0082536Y0016716D01*
X0085670Y0016716D01*
X0082567Y0013613D01*
X0070208Y0013613D01*
X0070208Y0014225D01*
X0072825Y0014225D01*
X0073587Y0014986D01*
X0073587Y0024763D01*
X0072825Y0025525D01*
X0072668Y0025525D01*
X0072668Y0029910D01*
X0075869Y0033111D01*
X0075869Y0028993D01*
X0076631Y0028231D01*
X0076807Y0028231D01*
X0076590Y0028173D01*
X0076248Y0027976D01*
X0075969Y0027697D01*
X0075772Y0027355D01*
X0075669Y0026973D01*
X0075669Y0025291D01*
X0078850Y0025291D01*
X0078850Y0024323D01*
X0075669Y0024323D01*
X0075669Y0022641D01*
X0075772Y0022260D01*
X0075969Y0021918D01*
X0076248Y0021638D01*
X0076590Y0021441D01*
X0076972Y0021339D01*
X0078850Y0021339D01*
X0078850Y0024323D01*
X0079819Y0024323D01*
X0079819Y0023652D02*
X0078850Y0023652D01*
X0078850Y0022654D02*
X0079819Y0022654D01*
X0079819Y0021655D02*
X0078850Y0021655D01*
X0076231Y0021655D02*
X0073587Y0021655D01*
X0073587Y0020657D02*
X0081775Y0020657D01*
X0081775Y0019658D02*
X0073587Y0019658D01*
X0073587Y0018660D02*
X0081775Y0018660D01*
X0081775Y0017661D02*
X0073587Y0017661D01*
X0073587Y0016663D02*
X0085617Y0016663D01*
X0084618Y0015664D02*
X0073587Y0015664D01*
X0073266Y0014666D02*
X0083620Y0014666D01*
X0082621Y0013667D02*
X0070208Y0013667D01*
X0073587Y0022654D02*
X0075669Y0022654D01*
X0075669Y0023652D02*
X0073587Y0023652D01*
X0073587Y0024651D02*
X0078850Y0024651D01*
X0075669Y0025649D02*
X0072668Y0025649D01*
X0072668Y0026648D02*
X0075669Y0026648D01*
X0075940Y0027646D02*
X0072668Y0027646D01*
X0072668Y0028645D02*
X0076217Y0028645D01*
X0075869Y0029643D02*
X0072668Y0029643D01*
X0073400Y0030642D02*
X0075869Y0030642D01*
X0075869Y0031640D02*
X0074399Y0031640D01*
X0075397Y0032639D02*
X0075869Y0032639D01*
X0070589Y0032639D02*
X0070208Y0032639D01*
X0083000Y0023652D02*
X0092606Y0023652D01*
X0091608Y0022654D02*
X0083000Y0022654D01*
X0088360Y0021655D02*
X0090609Y0021655D01*
X0089611Y0020657D02*
X0088705Y0020657D01*
X0091424Y0017661D02*
X0095554Y0017661D01*
X0095554Y0017477D02*
X0096316Y0016716D01*
X0101724Y0016716D01*
X0102485Y0017477D01*
X0102485Y0021310D01*
X0101724Y0022072D01*
X0096316Y0022072D01*
X0095554Y0021310D01*
X0095554Y0017477D01*
X0095554Y0018660D02*
X0092422Y0018660D01*
X0093421Y0019658D02*
X0095554Y0019658D01*
X0095554Y0020657D02*
X0094419Y0020657D01*
X0095418Y0021655D02*
X0095899Y0021655D01*
X0096416Y0022654D02*
X0110579Y0022654D01*
X0110318Y0022393D02*
X0110318Y0017379D01*
X0111080Y0016617D01*
X0116487Y0016617D01*
X0117249Y0017379D01*
X0117249Y0017436D01*
X0117969Y0016716D01*
X0123377Y0016716D01*
X0124139Y0017477D01*
X0124139Y0021310D01*
X0123377Y0022072D01*
X0117969Y0022072D01*
X0117385Y0021487D01*
X0117249Y0021487D01*
X0117249Y0022393D01*
X0116487Y0023154D01*
X0111080Y0023154D01*
X0110318Y0022393D01*
X0110318Y0021655D02*
X0102140Y0021655D01*
X0102485Y0020657D02*
X0110318Y0020657D01*
X0110318Y0019658D02*
X0102485Y0019658D01*
X0102485Y0018660D02*
X0110318Y0018660D01*
X0110318Y0017661D02*
X0102485Y0017661D01*
X0097415Y0023652D02*
X0110738Y0023652D01*
X0116829Y0023652D02*
X0155106Y0023652D01*
X0154108Y0022654D02*
X0116988Y0022654D01*
X0117249Y0021655D02*
X0117553Y0021655D01*
X0117249Y0024651D02*
X0119373Y0024651D01*
X0122957Y0024651D02*
X0156105Y0024651D01*
X0157103Y0025649D02*
X0123662Y0025649D01*
X0123865Y0026648D02*
X0158102Y0026648D01*
X0159100Y0027646D02*
X0123686Y0027646D01*
X0123016Y0028645D02*
X0160099Y0028645D01*
X0161097Y0029643D02*
X0116691Y0029643D01*
X0117249Y0028645D02*
X0119315Y0028645D01*
X0117569Y0034636D02*
X0113812Y0034636D01*
X0114810Y0035634D02*
X0117208Y0035634D01*
X0117208Y0036633D02*
X0117140Y0036633D01*
X0112997Y0038630D02*
X0102485Y0038630D01*
X0102485Y0037631D02*
X0111999Y0037631D01*
X0111000Y0036633D02*
X0102485Y0036633D01*
X0102485Y0035634D02*
X0110002Y0035634D01*
X0109003Y0034636D02*
X0102124Y0034636D01*
X0101698Y0039628D02*
X0113098Y0039628D01*
X0113580Y0040627D02*
X0102482Y0040627D01*
X0110816Y0031640D02*
X0163094Y0031640D01*
X0162096Y0030642D02*
X0109818Y0030642D01*
X0111815Y0032639D02*
X0164093Y0032639D01*
X0165091Y0033637D02*
X0112813Y0033637D01*
X0123777Y0034636D02*
X0131348Y0034636D01*
X0130987Y0035634D02*
X0124139Y0035634D01*
X0124139Y0036633D02*
X0130987Y0036633D01*
X0130987Y0037631D02*
X0124139Y0037631D01*
X0124139Y0038630D02*
X0130987Y0038630D01*
X0137557Y0034636D02*
X0166090Y0034636D01*
X0168901Y0032639D02*
X0198850Y0032639D01*
X0198850Y0033637D02*
X0169900Y0033637D01*
X0170898Y0034636D02*
X0198850Y0034636D01*
X0198850Y0035634D02*
X0171897Y0035634D01*
X0172895Y0036633D02*
X0198850Y0036633D01*
X0198850Y0037631D02*
X0173894Y0037631D01*
X0174892Y0038630D02*
X0198850Y0038630D01*
X0198850Y0039628D02*
X0175891Y0039628D01*
X0176889Y0040627D02*
X0198850Y0040627D01*
X0198850Y0041625D02*
X0177888Y0041625D01*
X0178886Y0042624D02*
X0198850Y0042624D01*
X0198850Y0043622D02*
X0179885Y0043622D01*
X0180883Y0044621D02*
X0198850Y0044621D01*
X0198850Y0045620D02*
X0181882Y0045620D01*
X0182880Y0046618D02*
X0198850Y0046618D01*
X0198850Y0047617D02*
X0183879Y0047617D01*
X0184877Y0048615D02*
X0198850Y0048615D01*
X0198850Y0049614D02*
X0185876Y0049614D01*
X0186874Y0050612D02*
X0198850Y0050612D01*
X0198850Y0051611D02*
X0187873Y0051611D01*
X0188872Y0052609D02*
X0198850Y0052609D01*
X0198850Y0053608D02*
X0189870Y0053608D01*
X0190869Y0054606D02*
X0198850Y0054606D01*
X0198850Y0055605D02*
X0191867Y0055605D01*
X0192866Y0056603D02*
X0198850Y0056603D01*
X0198850Y0057602D02*
X0193864Y0057602D01*
X0194863Y0058600D02*
X0198850Y0058600D01*
X0198850Y0059599D02*
X0195861Y0059599D01*
X0196192Y0060597D02*
X0198850Y0060597D01*
X0198850Y0061596D02*
X0196192Y0061596D01*
X0196192Y0062594D02*
X0198850Y0062594D01*
X0198850Y0063593D02*
X0196192Y0063593D01*
X0196192Y0064591D02*
X0198850Y0064591D01*
X0198850Y0065590D02*
X0196192Y0065590D01*
X0196192Y0066588D02*
X0198850Y0066588D01*
X0198850Y0067587D02*
X0196192Y0067587D01*
X0196192Y0068585D02*
X0198850Y0068585D01*
X0198850Y0069584D02*
X0196192Y0069584D01*
X0196192Y0070582D02*
X0198850Y0070582D01*
X0198850Y0071581D02*
X0196192Y0071581D01*
X0196192Y0072579D02*
X0198850Y0072579D01*
X0198850Y0073578D02*
X0196192Y0073578D01*
X0196192Y0074576D02*
X0198850Y0074576D01*
X0198850Y0075575D02*
X0196192Y0075575D01*
X0196192Y0076573D02*
X0198850Y0076573D01*
X0198850Y0077572D02*
X0196192Y0077572D01*
X0196192Y0078570D02*
X0198850Y0078570D01*
X0198850Y0079569D02*
X0196192Y0079569D01*
X0196192Y0080567D02*
X0198850Y0080567D01*
X0198850Y0081566D02*
X0196192Y0081566D01*
X0196192Y0082564D02*
X0198850Y0082564D01*
X0198850Y0083563D02*
X0196192Y0083563D01*
X0196192Y0084561D02*
X0198850Y0084561D01*
X0198850Y0085560D02*
X0196192Y0085560D01*
X0196192Y0086558D02*
X0198850Y0086558D01*
X0198850Y0087557D02*
X0196192Y0087557D01*
X0196192Y0088555D02*
X0198850Y0088555D01*
X0198850Y0089554D02*
X0196192Y0089554D01*
X0196192Y0090553D02*
X0198850Y0090553D01*
X0198850Y0091551D02*
X0196192Y0091551D01*
X0196192Y0092550D02*
X0198850Y0092550D01*
X0198850Y0093548D02*
X0196192Y0093548D01*
X0196192Y0094547D02*
X0198850Y0094547D01*
X0198850Y0095545D02*
X0196192Y0095545D01*
X0196192Y0096544D02*
X0198850Y0096544D01*
X0198850Y0097542D02*
X0196192Y0097542D01*
X0196192Y0098541D02*
X0198850Y0098541D01*
X0198850Y0099539D02*
X0196192Y0099539D01*
X0196192Y0100538D02*
X0198850Y0100538D01*
X0198850Y0101536D02*
X0196192Y0101536D01*
X0196192Y0102535D02*
X0198850Y0102535D01*
X0198850Y0103533D02*
X0196192Y0103533D01*
X0195321Y0104532D02*
X0198850Y0104532D01*
X0198850Y0105530D02*
X0194323Y0105530D01*
X0193324Y0106529D02*
X0198850Y0106529D01*
X0198850Y0107527D02*
X0192326Y0107527D01*
X0198850Y0108526D02*
X0181510Y0108526D01*
X0181444Y0109524D02*
X0198850Y0109524D01*
X0198850Y0110523D02*
X0181386Y0110523D01*
X0180888Y0111521D02*
X0198850Y0111521D01*
X0198850Y0112520D02*
X0179346Y0112520D01*
X0178143Y0112520D02*
X0161743Y0112520D01*
X0161743Y0113518D02*
X0198850Y0113518D01*
X0198850Y0114517D02*
X0162454Y0114517D01*
X0162332Y0114223D02*
X0162743Y0115215D01*
X0162743Y0116289D01*
X0162332Y0117281D01*
X0161743Y0117870D01*
X0161743Y0141062D01*
X0156772Y0146034D01*
X0163935Y0146034D01*
X0164026Y0145943D01*
X0165018Y0145532D01*
X0166092Y0145532D01*
X0167085Y0145943D01*
X0167844Y0146703D01*
X0168255Y0147695D01*
X0168255Y0148769D01*
X0167844Y0149762D01*
X0167085Y0150521D01*
X0166092Y0150932D01*
X0165018Y0150932D01*
X0164026Y0150521D01*
X0163266Y0149762D01*
X0163213Y0149634D01*
X0163089Y0149634D01*
X0163647Y0150192D01*
X0163647Y0157269D01*
X0162886Y0158031D01*
X0159209Y0158031D01*
X0158547Y0157369D01*
X0157886Y0158031D01*
X0154209Y0158031D01*
X0153547Y0157369D01*
X0152886Y0158031D01*
X0149209Y0158031D01*
X0148651Y0157473D01*
X0148548Y0157652D01*
X0148268Y0157931D01*
X0147926Y0158128D01*
X0147545Y0158231D01*
X0146197Y0158231D01*
X0146197Y0153881D01*
X0145897Y0153881D01*
X0145897Y0158231D01*
X0144550Y0158231D01*
X0144168Y0158128D01*
X0143826Y0157931D01*
X0143547Y0157652D01*
X0143349Y0157310D01*
X0143247Y0156928D01*
X0143247Y0153881D01*
X0145897Y0153881D01*
X0145897Y0153581D01*
X0143247Y0153581D01*
X0143247Y0150533D01*
X0143349Y0150152D01*
X0143547Y0149810D01*
X0143826Y0149530D01*
X0144168Y0149333D01*
X0144550Y0149231D01*
X0145897Y0149231D01*
X0145897Y0153581D01*
X0146197Y0153581D01*
X0146197Y0149231D01*
X0147545Y0149231D01*
X0147926Y0149333D01*
X0148268Y0149530D01*
X0148548Y0149810D01*
X0148651Y0149989D01*
X0149209Y0149431D01*
X0149485Y0149431D01*
X0149485Y0148512D01*
X0150481Y0147517D01*
X0158343Y0139654D01*
X0158343Y0117870D01*
X0157754Y0117281D01*
X0157343Y0116289D01*
X0157343Y0115215D01*
X0157754Y0114223D01*
X0158343Y0113634D01*
X0158343Y0092772D01*
X0157754Y0092183D01*
X0157343Y0091191D01*
X0157343Y0090116D01*
X0157754Y0089124D01*
X0158514Y0088365D01*
X0159506Y0087954D01*
X0160580Y0087954D01*
X0161573Y0088365D01*
X0162332Y0089124D01*
X0162743Y0090116D01*
X0162743Y0091191D01*
X0162332Y0092183D01*
X0161743Y0092772D01*
X0161743Y0113634D01*
X0162332Y0114223D01*
X0162743Y0115515D02*
X0198850Y0115515D01*
X0198850Y0116514D02*
X0162650Y0116514D01*
X0162101Y0117512D02*
X0198850Y0117512D01*
X0198850Y0118511D02*
X0161743Y0118511D01*
X0161743Y0119509D02*
X0198850Y0119509D01*
X0198850Y0120508D02*
X0161743Y0120508D01*
X0161743Y0121506D02*
X0198850Y0121506D01*
X0198850Y0122505D02*
X0161743Y0122505D01*
X0161743Y0123503D02*
X0198850Y0123503D01*
X0198850Y0124502D02*
X0161743Y0124502D01*
X0161743Y0125500D02*
X0198850Y0125500D01*
X0198850Y0126499D02*
X0161743Y0126499D01*
X0161743Y0127497D02*
X0198850Y0127497D01*
X0198850Y0128496D02*
X0161743Y0128496D01*
X0161743Y0129494D02*
X0198850Y0129494D01*
X0198850Y0130493D02*
X0161743Y0130493D01*
X0161743Y0131491D02*
X0188468Y0131491D01*
X0188468Y0131355D02*
X0189229Y0130594D01*
X0197787Y0130594D01*
X0198548Y0131355D01*
X0198548Y0139519D01*
X0197787Y0140280D01*
X0189229Y0140280D01*
X0188468Y0139519D01*
X0188468Y0131355D01*
X0188468Y0132490D02*
X0161743Y0132490D01*
X0161743Y0133488D02*
X0188468Y0133488D01*
X0188468Y0134487D02*
X0161743Y0134487D01*
X0161743Y0135486D02*
X0188468Y0135486D01*
X0188468Y0136484D02*
X0161743Y0136484D01*
X0161743Y0137483D02*
X0188468Y0137483D01*
X0188468Y0138481D02*
X0161743Y0138481D01*
X0161743Y0139480D02*
X0188468Y0139480D01*
X0186410Y0143980D02*
X0186752Y0144178D01*
X0187031Y0144457D01*
X0187228Y0144799D01*
X0187331Y0145180D01*
X0187331Y0146067D01*
X0183075Y0146067D01*
X0183075Y0146067D01*
X0183075Y0143878D01*
X0186028Y0143878D01*
X0186410Y0143980D01*
X0187040Y0144472D02*
X0198850Y0144472D01*
X0198850Y0143474D02*
X0159332Y0143474D01*
X0158334Y0144472D02*
X0179110Y0144472D01*
X0179119Y0144457D02*
X0179398Y0144178D01*
X0179740Y0143980D01*
X0180121Y0143878D01*
X0183075Y0143878D01*
X0183075Y0146067D01*
X0183075Y0146067D01*
X0183075Y0146067D01*
X0178819Y0146067D01*
X0178819Y0145180D01*
X0178921Y0144799D01*
X0179119Y0144457D01*
X0178819Y0145471D02*
X0157335Y0145471D01*
X0157157Y0147834D02*
X0165156Y0147834D01*
X0165555Y0148232D01*
X0167610Y0146469D02*
X0178819Y0146469D01*
X0178998Y0147468D02*
X0168161Y0147468D01*
X0168255Y0148466D02*
X0179019Y0148466D01*
X0179019Y0149465D02*
X0167967Y0149465D01*
X0167143Y0150463D02*
X0179019Y0150463D01*
X0179019Y0151462D02*
X0163647Y0151462D01*
X0163647Y0152460D02*
X0179067Y0152460D01*
X0179019Y0153459D02*
X0163647Y0153459D01*
X0163647Y0154457D02*
X0179019Y0154457D01*
X0179019Y0155456D02*
X0163647Y0155456D01*
X0163647Y0156454D02*
X0179019Y0156454D01*
X0179019Y0157453D02*
X0163464Y0157453D01*
X0158631Y0157453D02*
X0158464Y0157453D01*
X0156047Y0153731D02*
X0156047Y0148943D01*
X0157157Y0147834D01*
X0153525Y0144472D02*
X0110070Y0144472D01*
X0110070Y0143474D02*
X0154524Y0143474D01*
X0155522Y0142475D02*
X0110626Y0142475D01*
X0110070Y0143031D02*
X0110070Y0149489D01*
X0110498Y0149917D01*
X0110498Y0156994D01*
X0109736Y0157755D01*
X0106059Y0157755D01*
X0105398Y0157094D01*
X0104736Y0157755D01*
X0101059Y0157755D01*
X0100398Y0157094D01*
X0099736Y0157755D01*
X0096059Y0157755D01*
X0095501Y0157197D01*
X0095398Y0157376D01*
X0095119Y0157655D01*
X0094777Y0157853D01*
X0094395Y0157955D01*
X0093048Y0157955D01*
X0093048Y0153605D01*
X0092748Y0153605D01*
X0092748Y0157955D01*
X0091400Y0157955D01*
X0091019Y0157853D01*
X0090677Y0157655D01*
X0090397Y0157376D01*
X0090200Y0157034D01*
X0090098Y0156653D01*
X0090098Y0153605D01*
X0092748Y0153605D01*
X0092748Y0153305D01*
X0093048Y0153305D01*
X0093048Y0148955D01*
X0094395Y0148955D01*
X0094777Y0149057D01*
X0095119Y0149255D01*
X0095398Y0149534D01*
X0095501Y0149713D01*
X0095660Y0149554D01*
X0095335Y0148769D01*
X0095335Y0147695D01*
X0095746Y0146703D01*
X0096506Y0145943D01*
X0097498Y0145532D01*
X0098572Y0145532D01*
X0099565Y0145943D01*
X0100250Y0146628D01*
X0100935Y0145943D01*
X0101927Y0145532D01*
X0103002Y0145532D01*
X0103994Y0145943D01*
X0104754Y0146703D01*
X0105165Y0147695D01*
X0105165Y0148769D01*
X0104926Y0149345D01*
X0105398Y0149817D01*
X0106059Y0149155D01*
X0106670Y0149155D01*
X0106670Y0141623D01*
X0151438Y0096855D01*
X0151438Y0096022D01*
X0151849Y0095030D01*
X0152438Y0094441D01*
X0152438Y0092772D01*
X0151849Y0092183D01*
X0151438Y0091191D01*
X0151438Y0090116D01*
X0151849Y0089124D01*
X0152608Y0088365D01*
X0153601Y0087954D01*
X0154675Y0087954D01*
X0155667Y0088365D01*
X0156427Y0089124D01*
X0156838Y0090116D01*
X0156838Y0091191D01*
X0156427Y0092183D01*
X0155838Y0092772D01*
X0155838Y0094441D01*
X0156427Y0095030D01*
X0156838Y0096022D01*
X0156838Y0097096D01*
X0156427Y0098088D01*
X0155667Y0098848D01*
X0154675Y0099259D01*
X0153842Y0099259D01*
X0110070Y0143031D01*
X0111624Y0141477D02*
X0156521Y0141477D01*
X0157519Y0140478D02*
X0112623Y0140478D01*
X0113621Y0139480D02*
X0158343Y0139480D01*
X0158343Y0138481D02*
X0114620Y0138481D01*
X0115618Y0137483D02*
X0158343Y0137483D01*
X0158343Y0136484D02*
X0116617Y0136484D01*
X0117615Y0135486D02*
X0158343Y0135486D01*
X0158343Y0134487D02*
X0118614Y0134487D01*
X0119612Y0133488D02*
X0158343Y0133488D01*
X0158343Y0132490D02*
X0120611Y0132490D01*
X0121610Y0131491D02*
X0158343Y0131491D01*
X0158343Y0130493D02*
X0122608Y0130493D01*
X0123607Y0129494D02*
X0158343Y0129494D01*
X0158343Y0128496D02*
X0124605Y0128496D01*
X0125604Y0127497D02*
X0158343Y0127497D01*
X0158343Y0126499D02*
X0126602Y0126499D01*
X0127601Y0125500D02*
X0158343Y0125500D01*
X0158343Y0124502D02*
X0128599Y0124502D01*
X0129598Y0123503D02*
X0158343Y0123503D01*
X0158343Y0122505D02*
X0130596Y0122505D01*
X0131595Y0121506D02*
X0158343Y0121506D01*
X0158343Y0120508D02*
X0132593Y0120508D01*
X0133592Y0119509D02*
X0158343Y0119509D01*
X0158343Y0118511D02*
X0134590Y0118511D01*
X0135589Y0117512D02*
X0157985Y0117512D01*
X0157436Y0116514D02*
X0136587Y0116514D01*
X0137586Y0115515D02*
X0157343Y0115515D01*
X0157632Y0114517D02*
X0138584Y0114517D01*
X0139583Y0113518D02*
X0158343Y0113518D01*
X0158343Y0112520D02*
X0140581Y0112520D01*
X0141580Y0111521D02*
X0158343Y0111521D01*
X0158343Y0110523D02*
X0142578Y0110523D01*
X0143577Y0109524D02*
X0158343Y0109524D01*
X0158343Y0108526D02*
X0144575Y0108526D01*
X0145574Y0107527D02*
X0158343Y0107527D01*
X0158343Y0106529D02*
X0146572Y0106529D01*
X0147571Y0105530D02*
X0158343Y0105530D01*
X0158343Y0104532D02*
X0148569Y0104532D01*
X0149568Y0103533D02*
X0158343Y0103533D01*
X0158343Y0102535D02*
X0150566Y0102535D01*
X0151565Y0101536D02*
X0158343Y0101536D01*
X0158343Y0100538D02*
X0152563Y0100538D01*
X0153562Y0099539D02*
X0158343Y0099539D01*
X0158343Y0098541D02*
X0155975Y0098541D01*
X0156653Y0097542D02*
X0158343Y0097542D01*
X0158343Y0096544D02*
X0156838Y0096544D01*
X0156640Y0095545D02*
X0158343Y0095545D01*
X0158343Y0094547D02*
X0155944Y0094547D01*
X0155838Y0093548D02*
X0158343Y0093548D01*
X0158121Y0092550D02*
X0156060Y0092550D01*
X0156688Y0091551D02*
X0157493Y0091551D01*
X0157343Y0090553D02*
X0156838Y0090553D01*
X0156605Y0089554D02*
X0157576Y0089554D01*
X0158323Y0088555D02*
X0155858Y0088555D01*
X0153087Y0086558D02*
X0168783Y0086558D01*
X0168789Y0087557D02*
X0145367Y0087557D01*
X0146365Y0086558D02*
X0151055Y0086558D01*
X0152417Y0088555D02*
X0144368Y0088555D01*
X0143370Y0089554D02*
X0151671Y0089554D01*
X0151438Y0090553D02*
X0142371Y0090553D01*
X0141373Y0091551D02*
X0151587Y0091551D01*
X0152215Y0092550D02*
X0140374Y0092550D01*
X0139376Y0093548D02*
X0152438Y0093548D01*
X0152332Y0094547D02*
X0138377Y0094547D01*
X0137379Y0095545D02*
X0151635Y0095545D01*
X0151438Y0096544D02*
X0136380Y0096544D01*
X0135382Y0097542D02*
X0150751Y0097542D01*
X0149752Y0098541D02*
X0134383Y0098541D01*
X0133385Y0099539D02*
X0148754Y0099539D01*
X0147755Y0100538D02*
X0132386Y0100538D01*
X0131388Y0101536D02*
X0146757Y0101536D01*
X0145758Y0102535D02*
X0130389Y0102535D01*
X0129391Y0103533D02*
X0144760Y0103533D01*
X0143761Y0104532D02*
X0128392Y0104532D01*
X0127394Y0105530D02*
X0142763Y0105530D01*
X0141764Y0106529D02*
X0126395Y0106529D01*
X0125397Y0107527D02*
X0140765Y0107527D01*
X0139767Y0108526D02*
X0124398Y0108526D01*
X0123400Y0109524D02*
X0138768Y0109524D01*
X0137770Y0110523D02*
X0122401Y0110523D01*
X0121403Y0111521D02*
X0136771Y0111521D01*
X0135773Y0112520D02*
X0120404Y0112520D01*
X0119406Y0113518D02*
X0134774Y0113518D01*
X0133776Y0114517D02*
X0118407Y0114517D01*
X0117409Y0115515D02*
X0132777Y0115515D01*
X0131779Y0116514D02*
X0116410Y0116514D01*
X0115412Y0117512D02*
X0130780Y0117512D01*
X0129782Y0118511D02*
X0114413Y0118511D01*
X0113414Y0119509D02*
X0128783Y0119509D01*
X0127785Y0120508D02*
X0112416Y0120508D01*
X0111417Y0121506D02*
X0126786Y0121506D01*
X0125788Y0122505D02*
X0110419Y0122505D01*
X0109420Y0123503D02*
X0124789Y0123503D01*
X0123791Y0124502D02*
X0108422Y0124502D01*
X0107423Y0125500D02*
X0122792Y0125500D01*
X0121794Y0126499D02*
X0106425Y0126499D01*
X0105426Y0127497D02*
X0120795Y0127497D01*
X0119797Y0128496D02*
X0094328Y0128496D01*
X0093921Y0129494D02*
X0118798Y0129494D01*
X0117800Y0130493D02*
X0092704Y0130493D01*
X0090375Y0130493D02*
X0055444Y0130493D01*
X0055444Y0131491D02*
X0116801Y0131491D01*
X0115803Y0132490D02*
X0055444Y0132490D01*
X0055444Y0133488D02*
X0114804Y0133488D01*
X0113806Y0134487D02*
X0055444Y0134487D01*
X0055444Y0135486D02*
X0112807Y0135486D01*
X0111809Y0136484D02*
X0055444Y0136484D01*
X0055444Y0137483D02*
X0110810Y0137483D01*
X0109812Y0138481D02*
X0055444Y0138481D01*
X0055444Y0139480D02*
X0108813Y0139480D01*
X0107815Y0140478D02*
X0055444Y0140478D01*
X0055444Y0141477D02*
X0106816Y0141477D01*
X0106670Y0142475D02*
X0055444Y0142475D01*
X0055444Y0143474D02*
X0106670Y0143474D01*
X0106670Y0144472D02*
X0055444Y0144472D01*
X0055444Y0145471D02*
X0106670Y0145471D01*
X0106670Y0146469D02*
X0104520Y0146469D01*
X0105070Y0147468D02*
X0106670Y0147468D01*
X0106670Y0148466D02*
X0105165Y0148466D01*
X0105046Y0149465D02*
X0105750Y0149465D01*
X0100409Y0146469D02*
X0100091Y0146469D01*
X0095980Y0146469D02*
X0055444Y0146469D01*
X0055444Y0147468D02*
X0095430Y0147468D01*
X0095335Y0148466D02*
X0055444Y0148466D01*
X0055444Y0149465D02*
X0090467Y0149465D01*
X0090397Y0149534D02*
X0090677Y0149255D01*
X0091019Y0149057D01*
X0091400Y0148955D01*
X0092748Y0148955D01*
X0092748Y0153305D01*
X0090098Y0153305D01*
X0090098Y0150258D01*
X0090200Y0149876D01*
X0090397Y0149534D01*
X0090098Y0150463D02*
X0055444Y0150463D01*
X0055444Y0151462D02*
X0090098Y0151462D01*
X0090098Y0152460D02*
X0055444Y0152460D01*
X0055444Y0153459D02*
X0092748Y0153459D01*
X0092748Y0154457D02*
X0093048Y0154457D01*
X0093048Y0155456D02*
X0092748Y0155456D01*
X0092748Y0156454D02*
X0093048Y0156454D01*
X0093048Y0157453D02*
X0092748Y0157453D01*
X0090474Y0157453D02*
X0056894Y0157453D01*
X0056894Y0158451D02*
X0181600Y0158451D01*
X0181600Y0159450D02*
X0056894Y0159450D01*
X0056398Y0160448D02*
X0181600Y0160448D01*
X0181600Y0161447D02*
X0056710Y0161447D01*
X0056894Y0162445D02*
X0058244Y0162445D01*
X0060191Y0162445D02*
X0181600Y0162445D01*
X0181600Y0163444D02*
X0061510Y0163444D01*
X0061918Y0164442D02*
X0181600Y0164442D01*
X0181600Y0165441D02*
X0167661Y0165441D01*
X0168659Y0166439D02*
X0181600Y0166439D01*
X0181600Y0167438D02*
X0169658Y0167438D01*
X0170656Y0168436D02*
X0181544Y0168436D01*
X0180545Y0169435D02*
X0171655Y0169435D01*
X0172653Y0170433D02*
X0176344Y0170433D01*
X0175903Y0171432D02*
X0173652Y0171432D01*
X0174650Y0172430D02*
X0175903Y0172430D01*
X0175903Y0173429D02*
X0175400Y0173429D01*
X0175400Y0174427D02*
X0175903Y0174427D01*
X0175903Y0175426D02*
X0175400Y0175426D01*
X0175400Y0176424D02*
X0175903Y0176424D01*
X0175903Y0177423D02*
X0175400Y0177423D01*
X0175400Y0178422D02*
X0176073Y0178422D01*
X0175400Y0179420D02*
X0180736Y0179420D01*
X0180600Y0180419D02*
X0175400Y0180419D01*
X0174971Y0181417D02*
X0176557Y0181417D01*
X0175903Y0182416D02*
X0173973Y0182416D01*
X0174404Y0181984D02*
X0174404Y0181984D01*
X0174290Y0183414D02*
X0175903Y0183414D01*
X0175903Y0187660D02*
X0173162Y0187660D01*
X0171067Y0185565D01*
X0170044Y0185565D01*
X0170044Y0186133D01*
X0169283Y0186894D01*
X0165000Y0186894D01*
X0165000Y0188163D01*
X0164004Y0189159D01*
X0163192Y0189972D01*
X0161146Y0189972D01*
X0161146Y0190897D01*
X0160612Y0191431D01*
X0160767Y0191520D01*
X0161047Y0191799D01*
X0161244Y0192141D01*
X0161346Y0192523D01*
X0161346Y0194402D01*
X0158362Y0194402D01*
X0158362Y0195370D01*
X0157394Y0195370D01*
X0157394Y0198551D01*
X0155712Y0198551D01*
X0155330Y0198449D01*
X0154988Y0198251D01*
X0154709Y0197972D01*
X0154512Y0197630D01*
X0154409Y0197249D01*
X0154409Y0195370D01*
X0157394Y0195370D01*
X0157394Y0194402D01*
X0154409Y0194402D01*
X0154409Y0192523D01*
X0154512Y0192141D01*
X0154709Y0191799D01*
X0154988Y0191520D01*
X0155143Y0191431D01*
X0154609Y0190897D01*
X0154609Y0185489D01*
X0155371Y0184728D01*
X0160385Y0184728D01*
X0161146Y0185489D01*
X0161146Y0186572D01*
X0161600Y0186572D01*
X0161600Y0184956D01*
X0161096Y0184452D01*
X0159147Y0182504D01*
X0159147Y0181382D01*
X0158547Y0180782D01*
X0157886Y0181443D01*
X0154209Y0181443D01*
X0153547Y0180782D01*
X0152886Y0181443D01*
X0152101Y0181443D01*
X0152101Y0183585D01*
X0152565Y0184049D01*
X0152990Y0185074D01*
X0152990Y0186184D01*
X0152565Y0187209D01*
X0151781Y0187993D01*
X0150756Y0188418D01*
X0149646Y0188418D01*
X0148621Y0187993D01*
X0147836Y0187209D01*
X0147412Y0186184D01*
X0147412Y0185074D01*
X0147836Y0184049D01*
X0148301Y0183585D01*
X0148301Y0181028D01*
X0147886Y0181443D01*
X0144209Y0181443D01*
X0143447Y0180682D01*
X0143447Y0173605D01*
X0144209Y0172843D01*
X0147886Y0172843D01*
X0148547Y0173505D01*
X0149209Y0172843D01*
X0152886Y0172843D01*
X0153547Y0173505D01*
X0154206Y0172846D01*
X0154206Y0171067D01*
X0155319Y0169954D01*
X0156304Y0168970D01*
X0165752Y0168970D01*
X0166865Y0170083D01*
X0168479Y0171697D01*
X0168479Y0173665D01*
X0169283Y0173665D01*
X0170044Y0174426D01*
X0170044Y0179440D01*
X0169283Y0180202D01*
X0163875Y0180202D01*
X0163647Y0179974D01*
X0163647Y0180585D01*
X0163875Y0180357D01*
X0169283Y0180357D01*
X0170044Y0181119D01*
X0170044Y0181765D01*
X0170400Y0181765D01*
X0170400Y0181180D01*
X0171396Y0180184D01*
X0172000Y0179580D01*
X0172000Y0174588D01*
X0165796Y0168384D01*
X0133604Y0168384D01*
X0123560Y0178428D01*
X0123968Y0178428D01*
X0124502Y0178962D01*
X0124591Y0178807D01*
X0124870Y0178528D01*
X0125212Y0178331D01*
X0125594Y0178228D01*
X0127472Y0178228D01*
X0127472Y0181213D01*
X0128441Y0181213D01*
X0128441Y0182181D01*
X0131622Y0182181D01*
X0131622Y0183863D01*
X0131520Y0184244D01*
X0131322Y0184586D01*
X0131043Y0184866D01*
X0130701Y0185063D01*
X0130320Y0185165D01*
X0128441Y0185165D01*
X0128441Y0182181D01*
X0127472Y0182181D01*
X0127472Y0185165D01*
X0125594Y0185165D01*
X0125212Y0185063D01*
X0124870Y0184866D01*
X0124591Y0184586D01*
X0124502Y0184431D01*
X0123968Y0184965D01*
X0118560Y0184965D01*
X0118173Y0184579D01*
X0118101Y0184650D01*
X0112694Y0184650D01*
X0111932Y0183889D01*
X0111932Y0183282D01*
X0109798Y0183282D01*
X0109798Y0183448D01*
X0108698Y0184548D01*
X0108698Y0185204D01*
X0108274Y0186229D01*
X0107489Y0187014D01*
X0106926Y0187247D01*
X0109204Y0187247D01*
X0109965Y0188009D01*
X0109965Y0193416D01*
X0109204Y0194178D01*
X0104190Y0194178D01*
X0103428Y0193416D01*
X0103428Y0192613D01*
X0102406Y0192613D01*
X0102406Y0193416D01*
X0101645Y0194178D01*
X0096631Y0194178D01*
X0095869Y0193416D01*
X0095869Y0188009D01*
X0096631Y0187247D01*
X0101645Y0187247D01*
X0102406Y0188009D01*
X0102406Y0188813D01*
X0103428Y0188813D01*
X0103428Y0188009D01*
X0104190Y0187247D01*
X0104893Y0187247D01*
X0104330Y0187014D01*
X0103545Y0186229D01*
X0103120Y0185204D01*
X0103120Y0184095D01*
X0103545Y0183070D01*
X0104330Y0182285D01*
X0105355Y0181861D01*
X0105998Y0181861D01*
X0105998Y0181519D01*
X0105978Y0181500D01*
X0105978Y0181087D01*
X0105398Y0180506D01*
X0104736Y0181168D01*
X0101059Y0181168D01*
X0100398Y0180506D01*
X0099736Y0181168D01*
X0096059Y0181168D01*
X0095398Y0180506D01*
X0094736Y0181168D01*
X0094345Y0181168D01*
X0094345Y0187247D01*
X0094952Y0187247D01*
X0095713Y0188009D01*
X0095713Y0193416D01*
X0094952Y0194178D01*
X0089938Y0194178D01*
X0089176Y0193416D01*
X0089176Y0188009D01*
X0089938Y0187247D01*
X0090545Y0187247D01*
X0090545Y0180653D01*
X0090298Y0180406D01*
X0090298Y0173329D01*
X0091059Y0172568D01*
X0094736Y0172568D01*
X0095398Y0173229D01*
X0096059Y0172568D01*
X0096135Y0172568D01*
X0096135Y0171657D01*
X0095870Y0171392D01*
X0054000Y0171392D01*
X0054660Y0172052D01*
X0056274Y0173666D01*
X0056274Y0174019D01*
X0057078Y0174019D01*
X0057839Y0174780D01*
X0057839Y0179794D01*
X0057078Y0180556D01*
X0051670Y0180556D01*
X0050909Y0179794D01*
X0050909Y0174780D01*
X0050951Y0174739D01*
X0043833Y0174739D01*
X0043833Y0175287D01*
X0044374Y0175828D01*
X0045036Y0175166D01*
X0048712Y0175166D01*
X0049474Y0175928D01*
X0049474Y0181765D01*
X0050909Y0181765D01*
X0050909Y0181473D01*
X0051670Y0180712D01*
X0057078Y0180712D01*
X0057839Y0181473D01*
X0057839Y0182750D01*
X0086099Y0182750D01*
X0087078Y0183729D01*
X0088191Y0184842D01*
X0088191Y0195852D01*
X0088292Y0196098D01*
X0088292Y0197207D01*
X0087868Y0198232D01*
X0087083Y0199017D01*
X0086058Y0199441D01*
X0084949Y0199441D01*
X0083923Y0199017D01*
X0083139Y0198232D01*
X0082714Y0197207D01*
X0082714Y0196098D01*
X0083139Y0195073D01*
X0083923Y0194288D01*
X0084391Y0194095D01*
X0084391Y0186550D01*
X0058073Y0186550D01*
X0058587Y0187064D01*
X0058587Y0192078D01*
X0057826Y0192839D01*
X0052418Y0192839D01*
X0051884Y0192305D01*
X0051795Y0192460D01*
X0051516Y0192740D01*
X0051173Y0192937D01*
X0050792Y0193039D01*
X0048913Y0193039D01*
X0048913Y0190055D01*
X0047945Y0190055D01*
X0047945Y0189087D01*
X0044764Y0189087D01*
X0044764Y0187405D01*
X0044866Y0187023D01*
X0045063Y0186681D01*
X0045343Y0186402D01*
X0045685Y0186205D01*
X0046066Y0186102D01*
X0047945Y0186102D01*
X0047945Y0189087D01*
X0048913Y0189087D01*
X0048913Y0186102D01*
X0050792Y0186102D01*
X0050909Y0186134D01*
X0050909Y0185565D01*
X0047052Y0185565D01*
X0045939Y0184452D01*
X0045252Y0183766D01*
X0045036Y0183766D01*
X0044374Y0183105D01*
X0043712Y0183766D01*
X0040036Y0183766D01*
X0039374Y0183105D01*
X0038774Y0183705D01*
X0038774Y0185282D01*
X0038891Y0195881D01*
X0039301Y0196291D01*
X0039712Y0197283D01*
X0039712Y0198358D01*
X0039301Y0199350D01*
X0038816Y0199835D01*
X0186919Y0199835D01*
X0186355Y0199271D01*
X0185071Y0196170D01*
X0185071Y0192814D01*
X0186355Y0189713D01*
X0188729Y0187340D01*
X0190564Y0186580D01*
X0187300Y0186580D01*
X0186539Y0185818D01*
X0186539Y0185184D01*
X0186404Y0185184D01*
X0185800Y0185788D01*
X0185601Y0185987D01*
X0185601Y0189448D01*
X0184840Y0190209D01*
X0182652Y0190209D01*
X0182652Y0194255D01*
X0181265Y0195642D01*
X0181019Y0196093D01*
X0180729Y0196178D01*
X0180515Y0196392D01*
X0180002Y0196392D01*
X0178922Y0196710D01*
X0178922Y0197649D01*
X0178161Y0198410D01*
X0174603Y0198410D01*
X0173842Y0197649D01*
X0173842Y0193304D01*
X0174603Y0192543D01*
X0178161Y0192543D01*
X0178493Y0192875D01*
X0178727Y0192806D01*
X0178852Y0192681D01*
X0178852Y0190209D01*
X0176664Y0190209D01*
X0175903Y0189448D01*
X0175903Y0187660D01*
X0175903Y0188407D02*
X0164757Y0188407D01*
X0165000Y0187408D02*
X0172910Y0187408D01*
X0171912Y0186410D02*
X0169767Y0186410D01*
X0163758Y0189405D02*
X0175903Y0189405D01*
X0178852Y0190404D02*
X0161146Y0190404D01*
X0160641Y0191402D02*
X0178852Y0191402D01*
X0178852Y0192401D02*
X0168981Y0192401D01*
X0169146Y0192445D02*
X0169488Y0192642D01*
X0169767Y0192921D01*
X0169965Y0193264D01*
X0170067Y0193645D01*
X0170067Y0195356D01*
X0167447Y0195356D01*
X0167447Y0192343D01*
X0168764Y0192343D01*
X0169146Y0192445D01*
X0170001Y0193399D02*
X0173842Y0193399D01*
X0173842Y0194398D02*
X0170067Y0194398D01*
X0170067Y0195596D02*
X0170067Y0197308D01*
X0169965Y0197689D01*
X0169767Y0198031D01*
X0169488Y0198311D01*
X0169146Y0198508D01*
X0168764Y0198610D01*
X0167447Y0198610D01*
X0167447Y0195597D01*
X0167207Y0195597D01*
X0167207Y0198610D01*
X0165889Y0198610D01*
X0165508Y0198508D01*
X0165166Y0198311D01*
X0164886Y0198031D01*
X0164689Y0197689D01*
X0164587Y0197308D01*
X0164587Y0195596D01*
X0167207Y0195596D01*
X0167207Y0195356D01*
X0167447Y0195356D01*
X0167447Y0195596D01*
X0170067Y0195596D01*
X0170067Y0196395D02*
X0173842Y0196395D01*
X0173842Y0197393D02*
X0170044Y0197393D01*
X0169347Y0198392D02*
X0174585Y0198392D01*
X0173842Y0195396D02*
X0167447Y0195396D01*
X0167207Y0195396D02*
X0161346Y0195396D01*
X0161346Y0195370D02*
X0161346Y0197249D01*
X0161244Y0197630D01*
X0161047Y0197972D01*
X0160767Y0198251D01*
X0160425Y0198449D01*
X0160044Y0198551D01*
X0158362Y0198551D01*
X0158362Y0195370D01*
X0161346Y0195370D01*
X0161346Y0194398D02*
X0164587Y0194398D01*
X0164587Y0193645D02*
X0164587Y0195356D01*
X0167207Y0195356D01*
X0167207Y0192343D01*
X0165889Y0192343D01*
X0165508Y0192445D01*
X0165166Y0192642D01*
X0164886Y0192921D01*
X0164689Y0193264D01*
X0164587Y0193645D01*
X0164652Y0193399D02*
X0161346Y0193399D01*
X0161314Y0192401D02*
X0165672Y0192401D01*
X0167207Y0192401D02*
X0167447Y0192401D01*
X0167447Y0193399D02*
X0167207Y0193399D01*
X0167207Y0194398D02*
X0167447Y0194398D01*
X0167447Y0196395D02*
X0167207Y0196395D01*
X0167207Y0197393D02*
X0167447Y0197393D01*
X0167447Y0198392D02*
X0167207Y0198392D01*
X0165306Y0198392D02*
X0160525Y0198392D01*
X0161308Y0197393D02*
X0164610Y0197393D01*
X0164587Y0196395D02*
X0161346Y0196395D01*
X0158362Y0196395D02*
X0157394Y0196395D01*
X0157394Y0197393D02*
X0158362Y0197393D01*
X0158362Y0198392D02*
X0157394Y0198392D01*
X0155231Y0198392D02*
X0147321Y0198392D01*
X0147713Y0198229D02*
X0146688Y0198654D01*
X0145578Y0198654D01*
X0144553Y0198229D01*
X0144089Y0197765D01*
X0114638Y0197765D01*
X0113063Y0196190D01*
X0111950Y0195077D01*
X0111950Y0194178D01*
X0110883Y0194178D01*
X0110121Y0193416D01*
X0110121Y0188009D01*
X0110883Y0187247D01*
X0115897Y0187247D01*
X0116658Y0188009D01*
X0116658Y0193416D01*
X0116161Y0193914D01*
X0116212Y0193965D01*
X0144089Y0193965D01*
X0144553Y0193501D01*
X0145578Y0193076D01*
X0146688Y0193076D01*
X0147713Y0193501D01*
X0148498Y0194285D01*
X0148922Y0195310D01*
X0148922Y0196420D01*
X0148498Y0197445D01*
X0147713Y0198229D01*
X0148519Y0197393D02*
X0154448Y0197393D01*
X0154409Y0196395D02*
X0148922Y0196395D01*
X0148922Y0195396D02*
X0154409Y0195396D01*
X0154409Y0194398D02*
X0148544Y0194398D01*
X0147468Y0193399D02*
X0154409Y0193399D01*
X0154442Y0192401D02*
X0116658Y0192401D01*
X0116658Y0193399D02*
X0144798Y0193399D01*
X0144945Y0198392D02*
X0087708Y0198392D01*
X0088215Y0197393D02*
X0114266Y0197393D01*
X0113267Y0196395D02*
X0088292Y0196395D01*
X0088191Y0195396D02*
X0112269Y0195396D01*
X0111950Y0194398D02*
X0088191Y0194398D01*
X0088191Y0193399D02*
X0089176Y0193399D01*
X0089176Y0192401D02*
X0088191Y0192401D01*
X0088191Y0191402D02*
X0089176Y0191402D01*
X0089176Y0190404D02*
X0088191Y0190404D01*
X0088191Y0189405D02*
X0089176Y0189405D01*
X0089176Y0188407D02*
X0088191Y0188407D01*
X0088191Y0187408D02*
X0089777Y0187408D01*
X0090545Y0186410D02*
X0088191Y0186410D01*
X0088191Y0185411D02*
X0090545Y0185411D01*
X0090545Y0184413D02*
X0087761Y0184413D01*
X0086763Y0183414D02*
X0090545Y0183414D01*
X0090545Y0182416D02*
X0057839Y0182416D01*
X0057783Y0181417D02*
X0090545Y0181417D01*
X0090310Y0180419D02*
X0057215Y0180419D01*
X0057839Y0179420D02*
X0090298Y0179420D01*
X0090298Y0178422D02*
X0057839Y0178422D01*
X0057839Y0177423D02*
X0090298Y0177423D01*
X0090298Y0176424D02*
X0057839Y0176424D01*
X0057839Y0175426D02*
X0090298Y0175426D01*
X0090298Y0174427D02*
X0057486Y0174427D01*
X0056037Y0173429D02*
X0090298Y0173429D01*
X0096135Y0172430D02*
X0055039Y0172430D01*
X0054040Y0171432D02*
X0095910Y0171432D01*
X0099287Y0169435D02*
X0101705Y0169435D01*
X0100998Y0170433D02*
X0099935Y0170433D01*
X0099935Y0171432D02*
X0100998Y0171432D01*
X0100998Y0172430D02*
X0099935Y0172430D01*
X0098289Y0168436D02*
X0102703Y0168436D01*
X0104798Y0172430D02*
X0111932Y0172430D01*
X0111932Y0173429D02*
X0110498Y0173429D01*
X0110498Y0174427D02*
X0111932Y0174427D01*
X0111932Y0175426D02*
X0110498Y0175426D01*
X0110498Y0176424D02*
X0111932Y0176424D01*
X0112159Y0177423D02*
X0110498Y0177423D01*
X0110498Y0178422D02*
X0112386Y0178422D01*
X0111932Y0179420D02*
X0110498Y0179420D01*
X0109798Y0183414D02*
X0111932Y0183414D01*
X0112456Y0184413D02*
X0108833Y0184413D01*
X0108613Y0185411D02*
X0147412Y0185411D01*
X0147505Y0186410D02*
X0108094Y0186410D01*
X0109365Y0187408D02*
X0110722Y0187408D01*
X0110121Y0188407D02*
X0109965Y0188407D01*
X0109965Y0189405D02*
X0110121Y0189405D01*
X0110121Y0190404D02*
X0109965Y0190404D01*
X0109965Y0191402D02*
X0110121Y0191402D01*
X0110121Y0192401D02*
X0109965Y0192401D01*
X0109965Y0193399D02*
X0110121Y0193399D01*
X0103428Y0193399D02*
X0102406Y0193399D01*
X0102406Y0188407D02*
X0103428Y0188407D01*
X0104029Y0187408D02*
X0101806Y0187408D01*
X0103725Y0186410D02*
X0094345Y0186410D01*
X0094345Y0185411D02*
X0103206Y0185411D01*
X0103120Y0184413D02*
X0094345Y0184413D01*
X0094345Y0183414D02*
X0103402Y0183414D01*
X0104199Y0182416D02*
X0094345Y0182416D01*
X0094345Y0181417D02*
X0105978Y0181417D01*
X0096470Y0187408D02*
X0095113Y0187408D01*
X0095713Y0188407D02*
X0095869Y0188407D01*
X0095869Y0189405D02*
X0095713Y0189405D01*
X0095713Y0190404D02*
X0095869Y0190404D01*
X0095869Y0191402D02*
X0095713Y0191402D01*
X0095713Y0192401D02*
X0095869Y0192401D01*
X0095869Y0193399D02*
X0095713Y0193399D01*
X0086182Y0199390D02*
X0186474Y0199390D01*
X0185991Y0198392D02*
X0178179Y0198392D01*
X0178922Y0197393D02*
X0185577Y0197393D01*
X0185164Y0196395D02*
X0179993Y0196395D01*
X0181511Y0195396D02*
X0185071Y0195396D01*
X0185071Y0194398D02*
X0182510Y0194398D01*
X0182652Y0193399D02*
X0185071Y0193399D01*
X0185242Y0192401D02*
X0182652Y0192401D01*
X0182652Y0191402D02*
X0185656Y0191402D01*
X0186069Y0190404D02*
X0182652Y0190404D01*
X0185601Y0189405D02*
X0186663Y0189405D01*
X0187662Y0188407D02*
X0185601Y0188407D01*
X0185601Y0187408D02*
X0188660Y0187408D01*
X0187130Y0186410D02*
X0185601Y0186410D01*
X0186177Y0185411D02*
X0186539Y0185411D01*
X0186539Y0181417D02*
X0185753Y0181417D01*
X0186000Y0180419D02*
X0186539Y0180419D01*
X0186588Y0179420D02*
X0185864Y0179420D01*
X0185431Y0178422D02*
X0186339Y0178422D01*
X0186339Y0177423D02*
X0185601Y0177423D01*
X0185601Y0176424D02*
X0189323Y0176424D01*
X0189323Y0175937D02*
X0186339Y0175937D01*
X0186339Y0174058D01*
X0186441Y0173677D01*
X0186638Y0173335D01*
X0186918Y0173056D01*
X0187260Y0172858D01*
X0187641Y0172756D01*
X0189323Y0172756D01*
X0189323Y0175937D01*
X0189323Y0175426D02*
X0190291Y0175426D01*
X0190291Y0176424D02*
X0198850Y0176424D01*
X0198850Y0175426D02*
X0193276Y0175426D01*
X0193276Y0174427D02*
X0198850Y0174427D01*
X0198850Y0173429D02*
X0193030Y0173429D01*
X0190291Y0173429D02*
X0189323Y0173429D01*
X0189323Y0174427D02*
X0190291Y0174427D01*
X0189229Y0171776D02*
X0188468Y0171015D01*
X0188468Y0162851D01*
X0189229Y0162090D01*
X0197787Y0162090D01*
X0198548Y0162851D01*
X0198548Y0171015D01*
X0197787Y0171776D01*
X0189229Y0171776D01*
X0188885Y0171432D02*
X0185601Y0171432D01*
X0185601Y0172430D02*
X0198850Y0172430D01*
X0198850Y0171432D02*
X0198131Y0171432D01*
X0198548Y0170433D02*
X0198850Y0170433D01*
X0198850Y0169435D02*
X0198548Y0169435D01*
X0198548Y0168436D02*
X0198850Y0168436D01*
X0198850Y0167438D02*
X0198548Y0167438D01*
X0198548Y0166439D02*
X0198850Y0166439D01*
X0198850Y0165441D02*
X0198548Y0165441D01*
X0198548Y0164442D02*
X0198850Y0164442D01*
X0198850Y0163444D02*
X0198548Y0163444D01*
X0198850Y0162445D02*
X0198142Y0162445D01*
X0198850Y0161447D02*
X0185000Y0161447D01*
X0185000Y0162445D02*
X0188874Y0162445D01*
X0188468Y0163444D02*
X0185000Y0163444D01*
X0185000Y0164442D02*
X0188468Y0164442D01*
X0188468Y0165441D02*
X0185000Y0165441D01*
X0185000Y0166439D02*
X0188468Y0166439D01*
X0188468Y0167438D02*
X0185000Y0167438D01*
X0185000Y0168436D02*
X0188468Y0168436D01*
X0188468Y0169435D02*
X0185000Y0169435D01*
X0185160Y0170433D02*
X0188468Y0170433D01*
X0186584Y0173429D02*
X0185601Y0173429D01*
X0185601Y0174427D02*
X0186339Y0174427D01*
X0186339Y0175426D02*
X0185601Y0175426D01*
X0193276Y0177423D02*
X0198850Y0177423D01*
X0198850Y0178422D02*
X0193276Y0178422D01*
X0193026Y0179420D02*
X0198850Y0179420D01*
X0198850Y0180419D02*
X0193076Y0180419D01*
X0193076Y0181417D02*
X0198850Y0181417D01*
X0198850Y0182416D02*
X0193076Y0182416D01*
X0193076Y0183414D02*
X0198850Y0183414D01*
X0198850Y0184413D02*
X0193076Y0184413D01*
X0193076Y0185411D02*
X0198850Y0185411D01*
X0198850Y0186410D02*
X0196042Y0186410D01*
X0198356Y0187408D02*
X0198850Y0187408D01*
X0172000Y0179420D02*
X0170044Y0179420D01*
X0170044Y0178422D02*
X0172000Y0178422D01*
X0172000Y0177423D02*
X0170044Y0177423D01*
X0170044Y0176424D02*
X0172000Y0176424D01*
X0172000Y0175426D02*
X0170044Y0175426D01*
X0170044Y0174427D02*
X0171839Y0174427D01*
X0170841Y0173429D02*
X0168479Y0173429D01*
X0168479Y0172430D02*
X0169842Y0172430D01*
X0168844Y0171432D02*
X0168213Y0171432D01*
X0167845Y0170433D02*
X0167215Y0170433D01*
X0166846Y0169435D02*
X0166216Y0169435D01*
X0165848Y0168436D02*
X0133552Y0168436D01*
X0132553Y0169435D02*
X0155839Y0169435D01*
X0154840Y0170433D02*
X0131555Y0170433D01*
X0130556Y0171432D02*
X0154206Y0171432D01*
X0154206Y0172430D02*
X0129558Y0172430D01*
X0128559Y0173429D02*
X0143623Y0173429D01*
X0143447Y0174427D02*
X0127561Y0174427D01*
X0126562Y0175426D02*
X0143447Y0175426D01*
X0143447Y0176424D02*
X0125564Y0176424D01*
X0124565Y0177423D02*
X0143447Y0177423D01*
X0143447Y0178422D02*
X0130859Y0178422D01*
X0130701Y0178331D02*
X0131043Y0178528D01*
X0131322Y0178807D01*
X0131520Y0179149D01*
X0131622Y0179531D01*
X0131622Y0181213D01*
X0128441Y0181213D01*
X0128441Y0178228D01*
X0130320Y0178228D01*
X0130701Y0178331D01*
X0131592Y0179420D02*
X0143447Y0179420D01*
X0143447Y0180419D02*
X0131622Y0180419D01*
X0131622Y0182416D02*
X0148301Y0182416D01*
X0148301Y0183414D02*
X0131622Y0183414D01*
X0131423Y0184413D02*
X0147686Y0184413D01*
X0148036Y0187408D02*
X0116058Y0187408D01*
X0116658Y0188407D02*
X0149619Y0188407D01*
X0150783Y0188407D02*
X0154609Y0188407D01*
X0154609Y0189405D02*
X0116658Y0189405D01*
X0116658Y0190404D02*
X0154609Y0190404D01*
X0155115Y0191402D02*
X0116658Y0191402D01*
X0127472Y0184413D02*
X0128441Y0184413D01*
X0128441Y0183414D02*
X0127472Y0183414D01*
X0127472Y0182416D02*
X0128441Y0182416D01*
X0128441Y0181417D02*
X0144183Y0181417D01*
X0147912Y0181417D02*
X0148301Y0181417D01*
X0152101Y0182416D02*
X0159147Y0182416D01*
X0159147Y0181417D02*
X0157912Y0181417D01*
X0160058Y0183414D02*
X0152101Y0183414D01*
X0152716Y0184413D02*
X0161056Y0184413D01*
X0161068Y0185411D02*
X0161600Y0185411D01*
X0161600Y0186410D02*
X0161146Y0186410D01*
X0163647Y0180419D02*
X0163814Y0180419D01*
X0169344Y0180419D02*
X0171162Y0180419D01*
X0171396Y0180184D02*
X0171396Y0180184D01*
X0170400Y0181417D02*
X0170044Y0181417D01*
X0154183Y0181417D02*
X0152912Y0181417D01*
X0152990Y0185411D02*
X0154687Y0185411D01*
X0154609Y0186410D02*
X0152896Y0186410D01*
X0152366Y0187408D02*
X0154609Y0187408D01*
X0157394Y0195396D02*
X0158362Y0195396D01*
X0153623Y0173429D02*
X0153471Y0173429D01*
X0148623Y0173429D02*
X0148471Y0173429D01*
X0131739Y0165441D02*
X0061918Y0165441D01*
X0061529Y0166439D02*
X0130741Y0166439D01*
X0129742Y0167438D02*
X0060302Y0167438D01*
X0058133Y0167438D02*
X0019808Y0167438D01*
X0019262Y0166439D02*
X0049964Y0166439D01*
X0049964Y0165441D02*
X0011000Y0165441D01*
X0011000Y0166439D02*
X0013423Y0166439D01*
X0012877Y0167438D02*
X0011000Y0167438D01*
X0011000Y0168436D02*
X0012877Y0168436D01*
X0012877Y0169435D02*
X0011000Y0169435D01*
X0011000Y0170433D02*
X0012877Y0170433D01*
X0012877Y0171432D02*
X0011000Y0171432D01*
X0011000Y0172430D02*
X0013309Y0172430D01*
X0013639Y0172917D02*
X0019046Y0172917D01*
X0019808Y0173678D01*
X0019808Y0174285D01*
X0021325Y0174285D01*
X0021513Y0174098D01*
X0026920Y0174098D01*
X0027682Y0174859D01*
X0027682Y0179873D01*
X0026920Y0180635D01*
X0021513Y0180635D01*
X0020751Y0179873D01*
X0020751Y0178085D01*
X0019808Y0178085D01*
X0019808Y0178692D01*
X0019046Y0179454D01*
X0013639Y0179454D01*
X0012877Y0178692D01*
X0012877Y0173678D01*
X0013639Y0172917D01*
X0013126Y0173429D02*
X0011000Y0173429D01*
X0011000Y0174427D02*
X0012877Y0174427D01*
X0012877Y0175426D02*
X0011000Y0175426D01*
X0011000Y0176424D02*
X0012877Y0176424D01*
X0012877Y0177423D02*
X0011000Y0177423D01*
X0011000Y0178422D02*
X0012877Y0178422D01*
X0013605Y0179420D02*
X0011000Y0179420D01*
X0011000Y0180419D02*
X0021297Y0180419D01*
X0020886Y0181417D02*
X0011000Y0181417D01*
X0011000Y0182416D02*
X0020751Y0182416D01*
X0020751Y0183414D02*
X0011000Y0183414D01*
X0011000Y0184413D02*
X0020751Y0184413D01*
X0020751Y0185411D02*
X0011000Y0185411D01*
X0011000Y0186410D02*
X0013809Y0186410D01*
X0011495Y0187408D02*
X0011000Y0187408D01*
X0018877Y0186410D02*
X0020751Y0186410D01*
X0021190Y0187408D02*
X0034997Y0187408D01*
X0034986Y0186410D02*
X0027682Y0186410D01*
X0023187Y0189405D02*
X0035019Y0189405D01*
X0035008Y0188407D02*
X0022189Y0188407D01*
X0023781Y0190404D02*
X0035030Y0190404D01*
X0035041Y0191402D02*
X0024195Y0191402D01*
X0024608Y0192401D02*
X0035052Y0192401D01*
X0035063Y0193399D02*
X0024780Y0193399D01*
X0024780Y0194398D02*
X0035074Y0194398D01*
X0035085Y0195396D02*
X0024780Y0195396D01*
X0024687Y0196395D02*
X0034680Y0196395D01*
X0034312Y0197393D02*
X0024273Y0197393D01*
X0023859Y0198392D02*
X0034326Y0198392D01*
X0034763Y0199390D02*
X0023376Y0199390D01*
X0039260Y0199390D02*
X0084825Y0199390D01*
X0083298Y0198392D02*
X0039698Y0198392D01*
X0039712Y0197393D02*
X0082791Y0197393D01*
X0082714Y0196395D02*
X0039344Y0196395D01*
X0038885Y0195396D02*
X0083005Y0195396D01*
X0083814Y0194398D02*
X0038874Y0194398D01*
X0038863Y0193399D02*
X0084391Y0193399D01*
X0084391Y0192401D02*
X0058265Y0192401D01*
X0058587Y0191402D02*
X0084391Y0191402D01*
X0084391Y0190404D02*
X0058587Y0190404D01*
X0058587Y0189405D02*
X0084391Y0189405D01*
X0084391Y0188407D02*
X0058587Y0188407D01*
X0058587Y0187408D02*
X0084391Y0187408D01*
X0051980Y0192401D02*
X0051829Y0192401D01*
X0048913Y0192401D02*
X0047945Y0192401D01*
X0047945Y0193039D02*
X0046066Y0193039D01*
X0045685Y0192937D01*
X0045343Y0192740D01*
X0045063Y0192460D01*
X0044866Y0192118D01*
X0044764Y0191737D01*
X0044764Y0190055D01*
X0047945Y0190055D01*
X0047945Y0193039D01*
X0047945Y0191402D02*
X0048913Y0191402D01*
X0048913Y0190404D02*
X0047945Y0190404D01*
X0047945Y0189405D02*
X0038819Y0189405D01*
X0038808Y0188407D02*
X0044764Y0188407D01*
X0044764Y0187408D02*
X0038797Y0187408D01*
X0038786Y0186410D02*
X0045335Y0186410D01*
X0046897Y0185411D02*
X0038775Y0185411D01*
X0038774Y0184413D02*
X0045899Y0184413D01*
X0044683Y0183414D02*
X0044065Y0183414D01*
X0039683Y0183414D02*
X0039065Y0183414D01*
X0034974Y0184413D02*
X0033006Y0184413D01*
X0032048Y0185411D02*
X0034974Y0185411D01*
X0034683Y0183414D02*
X0034065Y0183414D01*
X0029206Y0181417D02*
X0027547Y0181417D01*
X0027136Y0180419D02*
X0029206Y0180419D01*
X0029233Y0179420D02*
X0027682Y0179420D01*
X0027682Y0178422D02*
X0029274Y0178422D01*
X0029274Y0177423D02*
X0027682Y0177423D01*
X0027682Y0176424D02*
X0029274Y0176424D01*
X0029776Y0175426D02*
X0027682Y0175426D01*
X0027250Y0174427D02*
X0040033Y0174427D01*
X0040033Y0173429D02*
X0019559Y0173429D01*
X0019377Y0172430D02*
X0040638Y0172430D01*
X0041637Y0171432D02*
X0019808Y0171432D01*
X0019808Y0178422D02*
X0020751Y0178422D01*
X0020751Y0179420D02*
X0019080Y0179420D01*
X0033972Y0175426D02*
X0034776Y0175426D01*
X0038972Y0175426D02*
X0039776Y0175426D01*
X0043972Y0175426D02*
X0044776Y0175426D01*
X0048972Y0175426D02*
X0050909Y0175426D01*
X0050909Y0176424D02*
X0049474Y0176424D01*
X0049474Y0177423D02*
X0050909Y0177423D01*
X0050909Y0178422D02*
X0049474Y0178422D01*
X0049474Y0179420D02*
X0050909Y0179420D01*
X0051533Y0180419D02*
X0049474Y0180419D01*
X0049474Y0181417D02*
X0050965Y0181417D01*
X0048913Y0186410D02*
X0047945Y0186410D01*
X0047945Y0187408D02*
X0048913Y0187408D01*
X0048913Y0188407D02*
X0047945Y0188407D01*
X0044764Y0190404D02*
X0038830Y0190404D01*
X0038841Y0191402D02*
X0044764Y0191402D01*
X0045029Y0192401D02*
X0038852Y0192401D01*
X0049964Y0164442D02*
X0011000Y0164442D01*
X0011000Y0163444D02*
X0049964Y0163444D01*
X0049964Y0162445D02*
X0011000Y0162445D01*
X0011000Y0161447D02*
X0050148Y0161447D01*
X0050460Y0160448D02*
X0033758Y0160448D01*
X0032024Y0160448D02*
X0031724Y0160448D01*
X0031724Y0159450D02*
X0032024Y0159450D01*
X0032024Y0158451D02*
X0031724Y0158451D01*
X0031724Y0157453D02*
X0032024Y0157453D01*
X0032024Y0156454D02*
X0031724Y0156454D01*
X0031724Y0155456D02*
X0032024Y0155456D01*
X0032024Y0154457D02*
X0031724Y0154457D01*
X0031724Y0153459D02*
X0032024Y0153459D01*
X0032024Y0152460D02*
X0031724Y0152460D01*
X0029185Y0152460D02*
X0011000Y0152460D01*
X0011000Y0151462D02*
X0034454Y0151462D01*
X0033910Y0150463D02*
X0011000Y0150463D01*
X0011000Y0149465D02*
X0033820Y0149465D01*
X0034112Y0148466D02*
X0011000Y0148466D01*
X0011000Y0147468D02*
X0034942Y0147468D01*
X0038097Y0147468D02*
X0045154Y0147468D01*
X0045154Y0148466D02*
X0044509Y0148466D01*
X0045154Y0146469D02*
X0011000Y0146469D01*
X0011000Y0145471D02*
X0045154Y0145471D01*
X0045154Y0144472D02*
X0011000Y0144472D01*
X0011000Y0143474D02*
X0045154Y0143474D01*
X0045154Y0142475D02*
X0011000Y0142475D01*
X0011000Y0141477D02*
X0045154Y0141477D01*
X0045154Y0140478D02*
X0011000Y0140478D01*
X0011000Y0139480D02*
X0045154Y0139480D01*
X0045154Y0138481D02*
X0011000Y0138481D01*
X0011000Y0137483D02*
X0045154Y0137483D01*
X0045154Y0136484D02*
X0011000Y0136484D01*
X0011000Y0135486D02*
X0045154Y0135486D01*
X0048554Y0135486D02*
X0052044Y0135486D01*
X0052044Y0136484D02*
X0048554Y0136484D01*
X0048554Y0137483D02*
X0052044Y0137483D01*
X0052044Y0138481D02*
X0048554Y0138481D01*
X0048554Y0139480D02*
X0052044Y0139480D01*
X0052044Y0140478D02*
X0048554Y0140478D01*
X0048554Y0141477D02*
X0052044Y0141477D01*
X0052044Y0142475D02*
X0048554Y0142475D01*
X0048554Y0143474D02*
X0052044Y0143474D01*
X0052044Y0144472D02*
X0048554Y0144472D01*
X0048554Y0145471D02*
X0052044Y0145471D01*
X0052044Y0146469D02*
X0048554Y0146469D01*
X0048554Y0147468D02*
X0052044Y0147468D01*
X0052044Y0148466D02*
X0048554Y0148466D01*
X0048554Y0149465D02*
X0052044Y0149465D01*
X0052044Y0150463D02*
X0048554Y0150463D01*
X0048554Y0151462D02*
X0052044Y0151462D01*
X0052044Y0152460D02*
X0049419Y0152460D01*
X0049474Y0153459D02*
X0052044Y0153459D01*
X0050444Y0154457D02*
X0049474Y0154457D01*
X0049474Y0155456D02*
X0049964Y0155456D01*
X0049964Y0156454D02*
X0049474Y0156454D01*
X0049474Y0157453D02*
X0049964Y0157453D01*
X0049964Y0158451D02*
X0049474Y0158451D01*
X0049474Y0159450D02*
X0049964Y0159450D01*
X0056894Y0156454D02*
X0090098Y0156454D01*
X0090098Y0155456D02*
X0056894Y0155456D01*
X0056414Y0154457D02*
X0090098Y0154457D01*
X0092748Y0152460D02*
X0093048Y0152460D01*
X0093048Y0151462D02*
X0092748Y0151462D01*
X0092748Y0150463D02*
X0093048Y0150463D01*
X0093048Y0149465D02*
X0092748Y0149465D01*
X0095329Y0149465D02*
X0095623Y0149465D01*
X0095757Y0157453D02*
X0095321Y0157453D01*
X0100038Y0157453D02*
X0100757Y0157453D01*
X0105038Y0157453D02*
X0105757Y0157453D01*
X0110038Y0157453D02*
X0143432Y0157453D01*
X0143247Y0156454D02*
X0110498Y0156454D01*
X0110498Y0155456D02*
X0143247Y0155456D01*
X0143247Y0154457D02*
X0110498Y0154457D01*
X0110498Y0153459D02*
X0143247Y0153459D01*
X0143247Y0152460D02*
X0110498Y0152460D01*
X0110498Y0151462D02*
X0143247Y0151462D01*
X0143266Y0150463D02*
X0110498Y0150463D01*
X0110070Y0149465D02*
X0143940Y0149465D01*
X0145897Y0149465D02*
X0146197Y0149465D01*
X0146197Y0150463D02*
X0145897Y0150463D01*
X0145897Y0151462D02*
X0146197Y0151462D01*
X0146197Y0152460D02*
X0145897Y0152460D01*
X0145897Y0153459D02*
X0146197Y0153459D01*
X0146197Y0154457D02*
X0145897Y0154457D01*
X0145897Y0155456D02*
X0146197Y0155456D01*
X0146197Y0156454D02*
X0145897Y0156454D01*
X0145897Y0157453D02*
X0146197Y0157453D01*
X0153464Y0157453D02*
X0153631Y0157453D01*
X0149175Y0149465D02*
X0148154Y0149465D01*
X0149531Y0148466D02*
X0110070Y0148466D01*
X0110070Y0147468D02*
X0150530Y0147468D01*
X0151528Y0146469D02*
X0110070Y0146469D01*
X0110070Y0145471D02*
X0152527Y0145471D01*
X0160331Y0142475D02*
X0198850Y0142475D01*
X0198850Y0141477D02*
X0161329Y0141477D01*
X0161743Y0140478D02*
X0198850Y0140478D01*
X0198850Y0139480D02*
X0198548Y0139480D01*
X0198548Y0138481D02*
X0198850Y0138481D01*
X0198850Y0137483D02*
X0198548Y0137483D01*
X0198548Y0136484D02*
X0198850Y0136484D01*
X0198850Y0135486D02*
X0198548Y0135486D01*
X0198548Y0134487D02*
X0198850Y0134487D01*
X0198850Y0133488D02*
X0198548Y0133488D01*
X0198548Y0132490D02*
X0198850Y0132490D01*
X0198850Y0131491D02*
X0198548Y0131491D01*
X0198850Y0145471D02*
X0187331Y0145471D01*
X0187331Y0146469D02*
X0198850Y0146469D01*
X0198850Y0147468D02*
X0187152Y0147468D01*
X0187131Y0148466D02*
X0198850Y0148466D01*
X0198850Y0149465D02*
X0187131Y0149465D01*
X0187131Y0150463D02*
X0198850Y0150463D01*
X0198850Y0151462D02*
X0187131Y0151462D01*
X0187083Y0152460D02*
X0198850Y0152460D01*
X0198850Y0153459D02*
X0187131Y0153459D01*
X0187131Y0154457D02*
X0198850Y0154457D01*
X0198850Y0155456D02*
X0187131Y0155456D01*
X0187131Y0156454D02*
X0198850Y0156454D01*
X0198850Y0157453D02*
X0187131Y0157453D01*
X0185000Y0158451D02*
X0198850Y0158451D01*
X0198850Y0159450D02*
X0185000Y0159450D01*
X0185000Y0160448D02*
X0198850Y0160448D01*
X0183075Y0145471D02*
X0183075Y0145471D01*
X0183075Y0144472D02*
X0183075Y0144472D01*
X0163968Y0150463D02*
X0163647Y0150463D01*
X0128744Y0168436D02*
X0115021Y0168436D01*
X0116020Y0169435D02*
X0127745Y0169435D01*
X0126747Y0170433D02*
X0116668Y0170433D01*
X0118113Y0171432D02*
X0125748Y0171432D01*
X0124750Y0172430D02*
X0118863Y0172430D01*
X0118863Y0173429D02*
X0123751Y0173429D01*
X0122753Y0174427D02*
X0118863Y0174427D01*
X0118863Y0175426D02*
X0121754Y0175426D01*
X0120756Y0176424D02*
X0118863Y0176424D01*
X0118636Y0177423D02*
X0119757Y0177423D01*
X0118759Y0178422D02*
X0118410Y0178422D01*
X0123567Y0178422D02*
X0125055Y0178422D01*
X0127472Y0178422D02*
X0128441Y0178422D01*
X0128441Y0179420D02*
X0127472Y0179420D01*
X0127472Y0180419D02*
X0128441Y0180419D01*
X0090181Y0125500D02*
X0090027Y0125500D01*
X0092354Y0120508D02*
X0105147Y0120508D01*
X0106146Y0119509D02*
X0092354Y0119509D01*
X0092354Y0118511D02*
X0104850Y0118511D01*
X0104293Y0117512D02*
X0092354Y0117512D01*
X0092354Y0116514D02*
X0104194Y0116514D01*
X0104477Y0115515D02*
X0092740Y0115515D01*
X0093272Y0114517D02*
X0105194Y0114517D01*
X0105194Y0113518D02*
X0093354Y0113518D01*
X0093053Y0112520D02*
X0105194Y0112520D01*
X0105194Y0111521D02*
X0092210Y0111521D01*
X0089097Y0111521D02*
X0084412Y0111521D01*
X0084412Y0110523D02*
X0105194Y0110523D01*
X0105194Y0109524D02*
X0083842Y0109524D01*
X0084340Y0099539D02*
X0084878Y0099539D01*
X0091825Y0095545D02*
X0110365Y0095545D01*
X0109367Y0094547D02*
X0091825Y0094547D01*
X0091825Y0093548D02*
X0108368Y0093548D01*
X0107370Y0092550D02*
X0091825Y0092550D01*
X0087975Y0087849D02*
X0087975Y0087749D01*
X0084025Y0087749D01*
X0084025Y0086502D01*
X0084127Y0086120D01*
X0084225Y0085951D01*
X0084225Y0085906D01*
X0082505Y0085882D01*
X0082505Y0086498D01*
X0082511Y0086504D01*
X0082511Y0087981D01*
X0083976Y0089446D01*
X0084119Y0089446D01*
X0084025Y0089097D01*
X0084025Y0087849D01*
X0087975Y0087849D01*
X0084025Y0087557D02*
X0082511Y0087557D01*
X0082511Y0086558D02*
X0084025Y0086558D01*
X0084025Y0088555D02*
X0083086Y0088555D01*
X0083300Y0081566D02*
X0084025Y0081566D01*
X0084025Y0080567D02*
X0083787Y0080567D01*
X0083787Y0079569D02*
X0084225Y0079569D01*
X0084225Y0078570D02*
X0083787Y0078570D01*
X0083787Y0077572D02*
X0084225Y0077572D01*
X0084225Y0076573D02*
X0083787Y0076573D01*
X0083691Y0075575D02*
X0084225Y0075575D01*
X0084225Y0074576D02*
X0083798Y0074576D01*
X0083987Y0073578D02*
X0084225Y0073578D01*
X0074190Y0058600D02*
X0073311Y0058600D01*
X0074190Y0057602D02*
X0072313Y0057602D01*
X0071314Y0056603D02*
X0074190Y0056603D01*
X0074190Y0055605D02*
X0070316Y0055605D01*
X0069317Y0054606D02*
X0074190Y0054606D01*
X0074190Y0053608D02*
X0068319Y0053608D01*
X0070987Y0051611D02*
X0071187Y0051611D01*
X0071187Y0050612D02*
X0070987Y0050612D01*
X0070987Y0049614D02*
X0071187Y0049614D01*
X0044636Y0034636D02*
X0039993Y0034636D01*
X0044058Y0032639D02*
X0045058Y0032639D01*
X0045058Y0031640D02*
X0044058Y0031640D01*
X0044058Y0030642D02*
X0045058Y0030642D01*
X0086431Y0012669D02*
X0186305Y0012669D01*
X0185892Y0013667D02*
X0150797Y0013667D01*
X0149604Y0013667D02*
X0087430Y0013667D01*
X0088428Y0014666D02*
X0148059Y0014666D01*
X0147559Y0015664D02*
X0089427Y0015664D01*
X0090425Y0016663D02*
X0111034Y0016663D01*
X0116533Y0016663D02*
X0147501Y0016663D01*
X0147825Y0017661D02*
X0137918Y0017661D01*
X0137918Y0017477D02*
X0137918Y0021310D01*
X0137157Y0022072D01*
X0131749Y0022072D01*
X0131165Y0021487D01*
X0131158Y0021487D01*
X0130569Y0022076D01*
X0129576Y0022487D01*
X0128502Y0022487D01*
X0127510Y0022076D01*
X0126750Y0021317D01*
X0126339Y0020324D01*
X0126339Y0019250D01*
X0126750Y0018258D01*
X0127510Y0017498D01*
X0128502Y0017087D01*
X0129576Y0017087D01*
X0130569Y0017498D01*
X0130987Y0017917D01*
X0130987Y0017477D01*
X0131749Y0016716D01*
X0137157Y0016716D01*
X0137918Y0017477D01*
X0137918Y0018660D02*
X0148740Y0018660D01*
X0151112Y0019658D02*
X0137918Y0019658D01*
X0137918Y0020657D02*
X0152111Y0020657D01*
X0153109Y0021655D02*
X0137573Y0021655D01*
X0131333Y0021655D02*
X0130990Y0021655D01*
X0127089Y0021655D02*
X0123793Y0021655D01*
X0124139Y0020657D02*
X0126477Y0020657D01*
X0126339Y0019658D02*
X0124139Y0019658D01*
X0124139Y0018660D02*
X0126584Y0018660D01*
X0127347Y0017661D02*
X0124139Y0017661D01*
X0130732Y0017661D02*
X0130987Y0017661D01*
X0152342Y0014666D02*
X0185478Y0014666D01*
X0185071Y0015664D02*
X0152842Y0015664D01*
X0152925Y0016663D02*
X0185071Y0016663D01*
X0185071Y0017661D02*
X0153924Y0017661D01*
X0154922Y0018660D02*
X0185071Y0018660D01*
X0185341Y0019658D02*
X0155921Y0019658D01*
X0156919Y0020657D02*
X0185755Y0020657D01*
X0186169Y0021655D02*
X0157918Y0021655D01*
X0158916Y0022654D02*
X0186903Y0022654D01*
X0187902Y0023652D02*
X0159915Y0023652D01*
X0160913Y0024651D02*
X0189143Y0024651D01*
X0191553Y0025649D02*
X0161912Y0025649D01*
X0162910Y0026648D02*
X0198850Y0026648D01*
X0198850Y0027646D02*
X0163909Y0027646D01*
X0164907Y0028645D02*
X0198850Y0028645D01*
X0198850Y0029643D02*
X0165906Y0029643D01*
X0166904Y0030642D02*
X0198850Y0030642D01*
X0198850Y0031640D02*
X0167903Y0031640D01*
X0195463Y0025649D02*
X0198850Y0025649D01*
X0198850Y0024651D02*
X0197873Y0024651D01*
X0175262Y0056603D02*
X0174926Y0056603D01*
X0174926Y0057602D02*
X0176260Y0057602D01*
X0177050Y0058600D02*
X0174349Y0058600D01*
X0174247Y0060597D02*
X0176377Y0060597D01*
X0177050Y0059599D02*
X0170372Y0059599D01*
X0169462Y0060597D02*
X0169374Y0060597D01*
X0168783Y0061596D02*
X0168375Y0061596D01*
X0168783Y0062594D02*
X0167377Y0062594D01*
X0167157Y0063593D02*
X0168783Y0063593D01*
X0168783Y0064591D02*
X0167157Y0064591D01*
X0167157Y0065590D02*
X0168869Y0065590D01*
X0170154Y0066588D02*
X0167157Y0066588D01*
X0167157Y0067587D02*
X0168063Y0067587D01*
X0167720Y0068585D02*
X0167157Y0068585D01*
X0167157Y0069584D02*
X0167720Y0069584D01*
X0167720Y0070582D02*
X0167157Y0070582D01*
X0167157Y0071581D02*
X0167720Y0071581D01*
X0167720Y0072579D02*
X0167157Y0072579D01*
X0167157Y0073578D02*
X0168354Y0073578D01*
X0167625Y0074576D02*
X0167157Y0074576D01*
X0167157Y0075575D02*
X0167520Y0075575D01*
X0167520Y0076573D02*
X0167157Y0076573D01*
X0167157Y0077572D02*
X0170701Y0077572D01*
X0170701Y0077614D02*
X0167520Y0077614D01*
X0167520Y0079296D01*
X0167622Y0079677D01*
X0167819Y0080019D01*
X0168099Y0080299D01*
X0168441Y0080496D01*
X0168822Y0080598D01*
X0170701Y0080598D01*
X0170701Y0077614D01*
X0170701Y0078570D02*
X0171669Y0078570D01*
X0171669Y0077614D02*
X0171669Y0080598D01*
X0173548Y0080598D01*
X0173929Y0080496D01*
X0174271Y0080299D01*
X0174551Y0080019D01*
X0174748Y0079677D01*
X0174850Y0079296D01*
X0174850Y0077614D01*
X0171669Y0077614D01*
X0171669Y0077572D02*
X0175869Y0077572D01*
X0175869Y0078570D02*
X0174850Y0078570D01*
X0174777Y0079569D02*
X0175869Y0079569D01*
X0176330Y0080567D02*
X0173664Y0080567D01*
X0171669Y0080567D02*
X0170701Y0080567D01*
X0170701Y0079569D02*
X0171669Y0079569D01*
X0168706Y0080567D02*
X0168109Y0080567D01*
X0167593Y0079569D02*
X0167157Y0079569D01*
X0167157Y0078570D02*
X0167520Y0078570D01*
X0163757Y0077572D02*
X0159289Y0077572D01*
X0160287Y0076573D02*
X0163757Y0076573D01*
X0163757Y0075575D02*
X0161286Y0075575D01*
X0162285Y0074576D02*
X0163757Y0074576D01*
X0163757Y0073578D02*
X0163283Y0073578D01*
X0163712Y0072579D02*
X0163757Y0072579D01*
X0163757Y0071581D02*
X0163712Y0071581D01*
X0163712Y0070582D02*
X0163757Y0070582D01*
X0163757Y0069584D02*
X0163712Y0069584D01*
X0163712Y0068585D02*
X0163757Y0068585D01*
X0163757Y0067587D02*
X0163712Y0067587D01*
X0163712Y0066588D02*
X0163757Y0066588D01*
X0163757Y0065590D02*
X0163712Y0065590D01*
X0163712Y0064591D02*
X0163757Y0064591D01*
X0163757Y0063593D02*
X0163712Y0063593D01*
X0163712Y0062594D02*
X0163757Y0062594D01*
X0163757Y0061596D02*
X0163712Y0061596D01*
X0164453Y0060597D02*
X0164566Y0060597D01*
X0165451Y0059599D02*
X0165564Y0059599D01*
X0166450Y0058600D02*
X0166563Y0058600D01*
X0167448Y0057602D02*
X0167561Y0057602D01*
X0168447Y0056603D02*
X0168560Y0056603D01*
X0174650Y0072579D02*
X0176135Y0072579D01*
X0177965Y0073578D02*
X0174017Y0073578D01*
X0174745Y0074576D02*
X0178964Y0074576D01*
X0175869Y0075575D02*
X0174850Y0075575D01*
X0174850Y0076573D02*
X0175869Y0076573D01*
X0182013Y0078570D02*
X0182958Y0078570D01*
X0183442Y0079569D02*
X0182013Y0079569D01*
X0181158Y0080567D02*
X0183442Y0080567D01*
X0183442Y0081566D02*
X0181444Y0081566D01*
X0181348Y0082564D02*
X0183442Y0082564D01*
X0183442Y0083563D02*
X0180795Y0083563D01*
X0183442Y0084561D02*
X0174926Y0084561D01*
X0174926Y0083563D02*
X0176693Y0083563D01*
X0176140Y0082564D02*
X0174167Y0082564D01*
X0176044Y0081566D02*
X0169108Y0081566D01*
X0166297Y0083563D02*
X0154860Y0083563D01*
X0154841Y0084561D02*
X0167295Y0084561D01*
X0168294Y0085560D02*
X0154416Y0085560D01*
X0154511Y0082564D02*
X0160313Y0082564D01*
X0159740Y0081566D02*
X0153577Y0081566D01*
X0150564Y0081566D02*
X0125625Y0081566D01*
X0125625Y0082564D02*
X0145560Y0082564D01*
X0144561Y0083563D02*
X0125825Y0083563D01*
X0125825Y0084561D02*
X0143554Y0084561D01*
X0142556Y0085560D02*
X0125825Y0085560D01*
X0125625Y0086558D02*
X0141557Y0086558D01*
X0140559Y0087557D02*
X0125625Y0087557D01*
X0128299Y0088555D02*
X0139560Y0088555D01*
X0138562Y0089554D02*
X0129046Y0089554D01*
X0129279Y0090553D02*
X0137563Y0090553D01*
X0136564Y0091551D02*
X0129129Y0091551D01*
X0128501Y0092550D02*
X0135566Y0092550D01*
X0134567Y0093548D02*
X0128279Y0093548D01*
X0128279Y0094547D02*
X0133569Y0094547D01*
X0132570Y0095545D02*
X0128279Y0095545D01*
X0128413Y0096544D02*
X0131572Y0096544D01*
X0130573Y0097542D02*
X0129093Y0097542D01*
X0129279Y0098541D02*
X0129575Y0098541D01*
X0118025Y0082564D02*
X0108102Y0082564D01*
X0108102Y0081566D02*
X0118025Y0081566D01*
X0118025Y0080567D02*
X0108102Y0080567D01*
X0108102Y0079569D02*
X0118025Y0079569D01*
X0118025Y0078570D02*
X0108102Y0078570D01*
X0108102Y0077572D02*
X0118025Y0077572D01*
X0118025Y0076573D02*
X0108102Y0076573D01*
X0108843Y0075575D02*
X0118025Y0075575D01*
X0118025Y0074576D02*
X0109102Y0074576D01*
X0108978Y0073578D02*
X0118025Y0073578D01*
X0118132Y0072579D02*
X0136120Y0072579D01*
X0135122Y0071581D02*
X0118349Y0071581D01*
X0118349Y0070582D02*
X0134123Y0070582D01*
X0133124Y0069584D02*
X0118349Y0069584D01*
X0118349Y0068585D02*
X0132126Y0068585D01*
X0131127Y0067587D02*
X0118349Y0067587D01*
X0118349Y0066588D02*
X0130129Y0066588D01*
X0129130Y0065590D02*
X0117653Y0065590D01*
X0118258Y0064591D02*
X0128132Y0064591D01*
X0127133Y0063593D02*
X0118452Y0063593D01*
X0118263Y0062594D02*
X0126135Y0062594D01*
X0125136Y0061596D02*
X0117579Y0061596D01*
X0115167Y0060597D02*
X0124138Y0060597D01*
X0123139Y0059599D02*
X0098522Y0059599D01*
X0099521Y0058600D02*
X0122141Y0058600D01*
X0121142Y0057602D02*
X0100519Y0057602D01*
X0102073Y0056603D02*
X0120144Y0056603D01*
X0119145Y0055605D02*
X0102660Y0055605D01*
X0102793Y0054606D02*
X0118147Y0054606D01*
X0117148Y0053608D02*
X0102558Y0053608D01*
X0101829Y0052609D02*
X0116150Y0052609D01*
X0125625Y0073578D02*
X0137119Y0073578D01*
X0138117Y0074576D02*
X0125625Y0074576D01*
X0125625Y0075575D02*
X0139116Y0075575D01*
X0140114Y0076573D02*
X0125625Y0076573D01*
X0125625Y0077572D02*
X0141113Y0077572D01*
X0125625Y0078570D02*
X0160604Y0078570D01*
X0159860Y0079569D02*
X0125625Y0079569D01*
X0125625Y0080567D02*
X0159617Y0080567D01*
X0164498Y0082564D02*
X0165298Y0082564D01*
X0161764Y0088555D02*
X0177050Y0088555D01*
X0177050Y0087557D02*
X0174919Y0087557D01*
X0174926Y0086558D02*
X0177556Y0086558D01*
X0174926Y0085560D02*
X0183442Y0085560D01*
X0183442Y0086558D02*
X0182688Y0086558D01*
X0183194Y0087557D02*
X0183442Y0087557D01*
X0183442Y0088555D02*
X0183194Y0088555D01*
X0183194Y0089554D02*
X0183442Y0089554D01*
X0183442Y0090553D02*
X0183194Y0090553D01*
X0178028Y0092550D02*
X0174926Y0092550D01*
X0174926Y0093548D02*
X0178028Y0093548D01*
X0178028Y0094547D02*
X0174926Y0094547D01*
X0174412Y0095545D02*
X0178028Y0095545D01*
X0175869Y0096544D02*
X0174965Y0096544D01*
X0174965Y0100538D02*
X0175869Y0100538D01*
X0174916Y0101536D02*
X0178856Y0101536D01*
X0179855Y0102535D02*
X0174617Y0102535D01*
X0175165Y0103533D02*
X0176132Y0103533D01*
X0175869Y0104532D02*
X0175165Y0104532D01*
X0175869Y0105530D02*
X0171984Y0105530D01*
X0171016Y0105530D02*
X0161743Y0105530D01*
X0161743Y0104532D02*
X0167835Y0104532D01*
X0167835Y0103533D02*
X0161743Y0103533D01*
X0161743Y0102535D02*
X0168383Y0102535D01*
X0165139Y0101536D02*
X0161743Y0101536D01*
X0161743Y0100538D02*
X0164436Y0100538D01*
X0164233Y0099539D02*
X0161743Y0099539D01*
X0161743Y0098541D02*
X0164413Y0098541D01*
X0165084Y0097542D02*
X0161743Y0097542D01*
X0161743Y0096544D02*
X0168035Y0096544D01*
X0169297Y0095545D02*
X0161743Y0095545D01*
X0161743Y0094547D02*
X0168783Y0094547D01*
X0168783Y0093548D02*
X0161743Y0093548D01*
X0161966Y0092550D02*
X0168783Y0092550D01*
X0168783Y0091551D02*
X0162594Y0091551D01*
X0162743Y0090553D02*
X0169034Y0090553D01*
X0174674Y0090553D02*
X0177050Y0090553D01*
X0177050Y0089554D02*
X0162510Y0089554D01*
X0174926Y0091551D02*
X0177311Y0091551D01*
X0182013Y0105530D02*
X0182850Y0105530D01*
X0182013Y0106529D02*
X0183849Y0106529D01*
X0184847Y0107527D02*
X0182013Y0107527D01*
X0176369Y0108526D02*
X0174887Y0108526D01*
X0175165Y0107527D02*
X0175869Y0107527D01*
X0175869Y0106529D02*
X0175165Y0106529D01*
X0176044Y0109524D02*
X0161743Y0109524D01*
X0161743Y0108526D02*
X0168113Y0108526D01*
X0167835Y0107527D02*
X0161743Y0107527D01*
X0161743Y0106529D02*
X0167835Y0106529D01*
X0171016Y0106529D02*
X0171984Y0106529D01*
X0171984Y0107527D02*
X0171016Y0107527D01*
X0171016Y0108526D02*
X0171984Y0108526D01*
X0176102Y0110523D02*
X0161743Y0110523D01*
X0161743Y0111521D02*
X0176601Y0111521D01*
X0052044Y0122505D02*
X0048554Y0122505D01*
X0048554Y0123503D02*
X0052044Y0123503D01*
X0052044Y0124502D02*
X0048554Y0124502D01*
X0048554Y0125500D02*
X0052044Y0125500D01*
X0052044Y0126499D02*
X0048554Y0126499D01*
X0048554Y0127497D02*
X0052044Y0127497D01*
X0052044Y0128496D02*
X0048554Y0128496D01*
X0048554Y0129494D02*
X0052044Y0129494D01*
X0052044Y0130493D02*
X0048554Y0130493D01*
X0048554Y0131491D02*
X0052044Y0131491D01*
X0052044Y0132490D02*
X0048554Y0132490D01*
X0048554Y0133488D02*
X0052044Y0133488D01*
X0052044Y0134487D02*
X0048554Y0134487D01*
X0041326Y0148466D02*
X0038927Y0148466D01*
X0039220Y0149465D02*
X0040504Y0149465D01*
X0040217Y0150463D02*
X0039130Y0150463D01*
X0038585Y0151462D02*
X0040233Y0151462D01*
X0029074Y0153459D02*
X0011000Y0153459D01*
X0011000Y0154457D02*
X0029074Y0154457D01*
X0029074Y0155456D02*
X0011000Y0155456D01*
X0011000Y0156454D02*
X0029074Y0156454D01*
X0029074Y0157453D02*
X0011000Y0157453D01*
X0011000Y0158451D02*
X0029074Y0158451D01*
X0029127Y0159450D02*
X0011000Y0159450D01*
X0011000Y0160448D02*
X0029990Y0160448D01*
D27*
X0042917Y0150693D03*
X0036520Y0149709D03*
X0059218Y0164965D03*
X0098035Y0148232D03*
X0102465Y0148232D03*
X0088685Y0123134D03*
X0090654Y0113783D03*
X0106894Y0116736D03*
X0113291Y0110339D03*
X0126579Y0098528D03*
X0126579Y0090654D03*
X0144295Y0073429D03*
X0159059Y0071461D03*
X0178744Y0081795D03*
X0183665Y0093606D03*
X0191539Y0101972D03*
X0178744Y0109846D03*
X0166933Y0099512D03*
X0160043Y0090654D03*
X0154138Y0090654D03*
X0154138Y0096559D03*
X0160043Y0115752D03*
X0165555Y0148232D03*
X0172740Y0148134D03*
X0195300Y0154684D03*
X0183300Y0180284D03*
X0135897Y0171456D03*
X0053744Y0112799D03*
X0046854Y0115752D03*
X0030122Y0123134D03*
X0025201Y0123626D03*
X0025201Y0107386D03*
X0045870Y0096559D03*
X0056205Y0096559D03*
X0060831Y0098528D03*
X0060142Y0090654D03*
X0073429Y0096559D03*
X0096067Y0088685D03*
X0100004Y0084748D03*
X0106402Y0074413D03*
X0105909Y0064571D03*
X0096067Y0063587D03*
X0080909Y0060634D03*
X0075890Y0071461D03*
X0050299Y0064571D03*
X0037996Y0062602D03*
X0030614Y0065555D03*
X0030614Y0071461D03*
X0029630Y0079827D03*
X0034551Y0046362D03*
X0034551Y0040457D03*
X0023232Y0040457D03*
X0023232Y0046362D03*
X0023232Y0034059D03*
X0025693Y0031106D03*
X0035043Y0024217D03*
X0059157Y0039472D03*
X0074413Y0040457D03*
X0075890Y0046362D03*
X0085634Y0046362D03*
X0091146Y0036520D03*
X0115752Y0038980D03*
X0121165Y0026677D03*
X0129039Y0019787D03*
X0150201Y0016343D03*
X0144295Y0038980D03*
X0144295Y0048331D03*
X0168902Y0048331D03*
X0168902Y0038980D03*
X0115752Y0063587D03*
X0065555Y0026677D03*
X0037012Y0197820D03*
D28*
X0027366Y0021264D02*
X0029143Y0019487D01*
X0036684Y0019487D01*
X0038552Y0021355D01*
X0038552Y0021557D01*
X0040176Y0023181D01*
X0048712Y0023181D01*
X0053744Y0027661D01*
X0063094Y0027661D01*
X0064817Y0025939D01*
X0065555Y0026677D01*
X0064817Y0025939D02*
X0066047Y0024709D01*
X0066047Y0020280D01*
X0066087Y0019875D01*
X0070969Y0020280D02*
X0071087Y0019875D01*
X0070969Y0020280D02*
X0070969Y0030614D01*
X0083272Y0042917D01*
X0085240Y0036913D02*
X0085240Y0035535D01*
X0081303Y0031598D01*
X0079335Y0031598D01*
X0079335Y0031500D01*
X0078850Y0025291D02*
X0079335Y0025201D01*
X0079335Y0024807D01*
X0079335Y0023232D01*
X0083272Y0011913D02*
X0068508Y0011913D01*
X0068508Y0038488D01*
X0066047Y0040949D01*
X0066047Y0042484D01*
X0066047Y0046362D01*
X0066087Y0046375D01*
X0066539Y0046854D01*
X0061126Y0046854D02*
X0061087Y0046375D01*
X0061126Y0046362D01*
X0061126Y0041441D01*
X0059157Y0039472D01*
X0055713Y0045870D02*
X0050594Y0045870D01*
X0055713Y0045870D02*
X0056205Y0046362D01*
X0056087Y0046375D01*
X0045870Y0051776D02*
X0044000Y0051776D01*
X0043902Y0051776D01*
X0044000Y0051776D02*
X0044000Y0049807D01*
X0043409Y0046854D01*
X0043409Y0045870D01*
X0043114Y0045870D01*
X0039472Y0041441D02*
X0035535Y0037504D01*
X0033567Y0037504D01*
X0032829Y0038242D01*
X0025693Y0031106D01*
X0020280Y0029138D02*
X0027366Y0021264D01*
X0030122Y0027169D02*
X0031106Y0028154D01*
X0035043Y0024217D01*
X0031106Y0028154D02*
X0039965Y0037012D01*
X0046854Y0037012D01*
X0046854Y0037602D01*
X0039472Y0041441D02*
X0039472Y0051776D01*
X0037209Y0051776D01*
X0034551Y0046362D02*
X0034551Y0040457D01*
X0032829Y0038242D02*
X0026185Y0044886D01*
X0026185Y0047346D01*
X0022740Y0050791D01*
X0016343Y0050791D01*
X0023232Y0046362D02*
X0023232Y0040457D01*
X0018311Y0038980D02*
X0023232Y0034059D01*
X0018311Y0038980D02*
X0016343Y0038980D01*
X0010929Y0036520D02*
X0018311Y0029138D01*
X0016343Y0029138D01*
X0018311Y0029138D02*
X0020280Y0029138D01*
X0010929Y0036520D02*
X0010929Y0069984D01*
X0029630Y0088685D01*
X0029630Y0090654D01*
X0029925Y0091106D01*
X0030122Y0091146D01*
X0036028Y0091146D01*
X0036028Y0091185D01*
X0036028Y0097248D01*
X0036028Y0097543D01*
X0031598Y0097543D01*
X0028154Y0100988D01*
X0027760Y0100988D01*
X0025201Y0107386D02*
X0029630Y0111815D01*
X0029925Y0111854D01*
X0021756Y0115260D02*
X0021657Y0115594D01*
X0021756Y0115752D01*
X0021756Y0120181D01*
X0025201Y0123626D01*
X0028154Y0123626D02*
X0029384Y0122396D01*
X0030122Y0123134D01*
X0029384Y0122396D02*
X0032583Y0119197D01*
X0030122Y0119197D01*
X0029925Y0119335D01*
X0032583Y0119197D02*
X0036028Y0119197D01*
X0036343Y0118744D01*
X0036028Y0119197D02*
X0036028Y0124807D01*
X0041933Y0126579D02*
X0036028Y0132484D01*
X0036028Y0132287D01*
X0041933Y0126579D02*
X0041933Y0108862D01*
X0037996Y0104925D01*
X0036028Y0104925D01*
X0036028Y0104728D01*
X0045870Y0096559D02*
X0045870Y0085240D01*
X0032091Y0071461D01*
X0030614Y0071461D01*
X0030614Y0065555D01*
X0037996Y0062602D02*
X0030122Y0054728D01*
X0030122Y0050791D01*
X0040949Y0061618D02*
X0040949Y0067524D01*
X0051776Y0078350D01*
X0051776Y0095575D01*
X0056205Y0096559D02*
X0056205Y0086717D01*
X0054236Y0084748D01*
X0054236Y0078350D01*
X0053744Y0069984D02*
X0050240Y0070358D01*
X0053744Y0069984D02*
X0053744Y0060634D01*
X0054138Y0060634D01*
X0050299Y0064571D02*
X0045870Y0064571D01*
X0045870Y0064374D01*
X0040949Y0061618D02*
X0045378Y0057189D01*
X0045870Y0057189D01*
X0045870Y0056894D01*
X0045870Y0051776D01*
X0074413Y0040457D02*
X0075890Y0041933D01*
X0075890Y0046362D01*
X0075890Y0071461D01*
X0083272Y0064079D02*
X0083518Y0064325D01*
X0102957Y0083764D01*
X0102957Y0085732D01*
X0112799Y0095575D01*
X0112799Y0103124D01*
X0109846Y0103449D02*
X0109650Y0103124D01*
X0109846Y0103449D02*
X0109846Y0106894D01*
X0113291Y0110339D01*
X0116244Y0111815D02*
X0104925Y0123134D01*
X0090654Y0123134D01*
X0090654Y0113783D01*
X0090654Y0123134D02*
X0088685Y0123134D01*
X0103941Y0126579D02*
X0145083Y0085437D01*
X0154138Y0090654D02*
X0154138Y0096559D01*
X0108370Y0142327D01*
X0108370Y0153154D01*
X0107898Y0153455D01*
X0108100Y0153084D01*
X0103449Y0153154D02*
X0102898Y0153455D01*
X0102465Y0153154D01*
X0102465Y0148232D01*
X0098035Y0148232D02*
X0098035Y0153154D01*
X0097898Y0153455D01*
X0097700Y0153084D01*
X0102898Y0153455D02*
X0103300Y0153084D01*
X0120100Y0179484D02*
X0132900Y0166684D01*
X0166500Y0166684D01*
X0173700Y0173884D01*
X0173700Y0180284D01*
X0172100Y0181884D01*
X0172100Y0183484D01*
X0171854Y0183665D01*
X0163300Y0183484D02*
X0162996Y0183665D01*
X0163300Y0183484D02*
X0163300Y0187459D01*
X0162487Y0188272D01*
X0159531Y0188272D01*
X0157878Y0188193D01*
X0180752Y0185760D02*
X0180900Y0185084D01*
X0180900Y0182684D01*
X0183300Y0180284D01*
X0185700Y0183484D02*
X0184100Y0185084D01*
X0180900Y0185084D01*
X0185700Y0183484D02*
X0189700Y0183484D01*
X0189807Y0183114D01*
X0180752Y0174563D02*
X0180900Y0173884D01*
X0180900Y0171484D01*
X0183300Y0169084D01*
X0183300Y0156284D01*
X0183075Y0156303D01*
X0160043Y0140358D02*
X0151185Y0149217D01*
X0151185Y0153154D01*
X0151047Y0153731D01*
X0151677Y0153154D01*
X0151300Y0153084D02*
X0151047Y0153731D01*
X0156047Y0153731D02*
X0156106Y0153646D01*
X0160043Y0140358D02*
X0160043Y0115752D01*
X0160043Y0090654D01*
X0166933Y0099512D02*
X0170870Y0099512D01*
X0171362Y0099020D01*
X0171500Y0098980D01*
X0171854Y0098528D01*
X0178744Y0098528D01*
X0178941Y0098429D01*
X0178744Y0099020D01*
X0185634Y0105909D01*
X0191539Y0105909D01*
X0194492Y0102957D01*
X0194492Y0060634D01*
X0150201Y0016343D01*
X0134453Y0019394D02*
X0134453Y0019787D01*
X0129039Y0019787D01*
X0120673Y0019787D02*
X0120673Y0019394D01*
X0120673Y0019787D02*
X0113783Y0019787D01*
X0113783Y0019886D01*
X0113783Y0026185D02*
X0113783Y0026579D01*
X0113783Y0026677D01*
X0121165Y0026677D01*
X0113783Y0026185D02*
X0097543Y0026185D01*
X0083272Y0011913D01*
X0068508Y0011913D02*
X0064079Y0011913D01*
X0061126Y0014866D01*
X0061126Y0019787D01*
X0061087Y0019875D01*
X0060634Y0019787D01*
X0056205Y0019787D01*
X0056087Y0019875D01*
X0047308Y0019875D01*
X0044558Y0017125D01*
X0091146Y0036520D02*
X0095575Y0032091D01*
X0108862Y0032091D01*
X0115752Y0038980D01*
X0116736Y0050791D02*
X0099020Y0050791D01*
X0089177Y0060634D01*
X0080909Y0060634D01*
X0093114Y0062602D02*
X0093114Y0068016D01*
X0094098Y0069000D01*
X0093902Y0069324D01*
X0096067Y0063587D02*
X0098035Y0061618D01*
X0113783Y0061618D01*
X0115752Y0063587D01*
X0105909Y0064571D02*
X0103449Y0067031D01*
X0103449Y0069000D01*
X0103350Y0069324D01*
X0106402Y0074413D02*
X0106402Y0084256D01*
X0119197Y0097051D01*
X0121657Y0097051D01*
X0121825Y0097248D01*
X0126579Y0098528D02*
X0126579Y0090654D01*
X0115949Y0103124D02*
X0116244Y0103449D01*
X0116244Y0111815D01*
X0106894Y0116736D02*
X0106894Y0103941D01*
X0106500Y0103124D01*
X0096067Y0088685D02*
X0100004Y0084748D01*
X0088025Y0084650D02*
X0087701Y0084256D01*
X0080711Y0084156D01*
X0080719Y0083856D01*
X0080811Y0087209D02*
X0080811Y0088685D01*
X0083272Y0091146D01*
X0087701Y0091146D01*
X0088025Y0090949D01*
X0060831Y0098528D02*
X0060043Y0096067D01*
X0060142Y0090654D01*
X0053744Y0112799D02*
X0053744Y0157091D01*
X0053429Y0157445D01*
X0046874Y0156054D02*
X0046854Y0155614D01*
X0046854Y0115752D01*
X0028154Y0123626D02*
X0028154Y0128547D01*
X0027760Y0128547D01*
X0021756Y0115260D02*
X0021756Y0087701D01*
X0021657Y0087366D01*
X0029630Y0083272D02*
X0029630Y0079827D01*
X0029630Y0083272D02*
X0029925Y0083626D01*
X0070118Y0125997D02*
X0070476Y0126579D01*
X0042917Y0150693D02*
X0041933Y0151677D01*
X0041933Y0155614D01*
X0041874Y0156054D01*
X0036874Y0156054D02*
X0036520Y0155614D01*
X0036520Y0149709D01*
X0054374Y0183980D02*
X0055300Y0185084D01*
X0055300Y0189084D01*
X0055122Y0189571D01*
X0115398Y0181382D02*
X0116100Y0181884D01*
X0120100Y0181884D01*
X0121264Y0181697D01*
X0120900Y0181884D01*
X0120100Y0181884D01*
X0120100Y0179484D01*
X0178744Y0109846D02*
X0178744Y0105909D01*
X0178941Y0105909D01*
X0178941Y0098429D02*
X0179236Y0098035D01*
X0179728Y0097543D01*
X0179728Y0089177D01*
X0180122Y0089177D01*
X0183665Y0093606D02*
X0185142Y0092130D01*
X0185142Y0078350D01*
X0179236Y0072445D01*
X0179236Y0070476D01*
X0178941Y0070201D01*
X0178744Y0070476D01*
X0171362Y0070476D01*
X0171185Y0070437D01*
X0171362Y0069984D01*
X0171854Y0069492D01*
X0171854Y0063390D01*
X0171854Y0063094D01*
X0176283Y0063094D01*
X0179728Y0059650D01*
X0180122Y0059650D01*
X0179728Y0058665D01*
X0173823Y0052760D01*
X0169886Y0052760D01*
X0162012Y0060634D01*
X0162012Y0072445D01*
X0158075Y0076382D01*
X0142327Y0076382D01*
X0116736Y0050791D01*
X0099020Y0056697D02*
X0093114Y0062602D01*
X0144295Y0073429D02*
X0144295Y0048331D01*
X0144295Y0038980D01*
X0159059Y0058173D02*
X0168902Y0048331D01*
X0168902Y0038980D01*
X0171854Y0055909D02*
X0171854Y0056205D01*
X0171362Y0056205D01*
X0165457Y0062110D01*
X0165457Y0080319D01*
X0165703Y0080565D01*
X0165457Y0080811D01*
X0165703Y0080565D02*
X0170378Y0085240D01*
X0171854Y0085240D01*
X0171854Y0085437D01*
X0178744Y0081795D02*
X0178744Y0077858D01*
X0178941Y0077681D01*
X0187110Y0074413D02*
X0187209Y0073941D01*
X0187110Y0074413D02*
X0187110Y0101972D01*
X0187209Y0102169D01*
X0187602Y0101972D01*
X0191539Y0101972D01*
X0171854Y0098528D02*
X0171854Y0092917D01*
X0159059Y0071461D02*
X0159059Y0058173D01*
D29*
X0162406Y0080713D02*
X0165063Y0080713D01*
X0165457Y0080319D01*
X0152071Y0083961D02*
X0146559Y0083961D01*
X0145083Y0085437D01*
X0100004Y0055713D02*
X0099020Y0056697D01*
X0100004Y0055713D02*
X0100004Y0054728D01*
X0085634Y0046362D02*
X0083272Y0044000D01*
X0083272Y0042917D01*
X0099020Y0038980D02*
X0099020Y0036913D01*
X0099020Y0038980D02*
X0100004Y0039965D01*
X0100004Y0041933D01*
X0072500Y0060184D02*
X0066400Y0054084D01*
X0066400Y0042837D01*
X0066047Y0042484D01*
X0061126Y0046854D02*
X0060831Y0047150D01*
X0060831Y0053154D01*
X0060043Y0053941D01*
X0060043Y0072051D01*
X0054236Y0076480D02*
X0050594Y0072839D01*
X0050594Y0070713D01*
X0050240Y0070358D01*
X0054236Y0076480D02*
X0054236Y0078350D01*
X0059256Y0082287D02*
X0061126Y0084157D01*
X0067130Y0090161D01*
X0067130Y0093311D01*
X0067917Y0094098D01*
X0070969Y0094098D01*
X0073429Y0096559D01*
X0078500Y0093984D02*
X0087911Y0093984D01*
X0088025Y0094098D01*
X0088025Y0097248D02*
X0087989Y0097284D01*
X0084200Y0097284D01*
X0078226Y0103258D01*
X0073800Y0103258D01*
X0073800Y0112431D01*
X0074054Y0112684D01*
X0069689Y0126579D02*
X0058469Y0115358D01*
X0058469Y0109059D01*
X0052957Y0103547D01*
X0048232Y0103547D01*
X0051776Y0100004D01*
X0051776Y0095575D01*
X0048232Y0103547D02*
X0046657Y0105122D01*
X0036421Y0105122D01*
X0036028Y0104728D01*
X0061126Y0084256D02*
X0061126Y0084157D01*
X0072300Y0084084D02*
X0072300Y0080938D01*
X0071946Y0079797D01*
X0072300Y0084084D02*
X0073800Y0085584D01*
X0073800Y0087510D01*
X0073800Y0089284D01*
X0078500Y0093984D01*
X0080811Y0087209D02*
X0080811Y0084256D01*
X0080711Y0084156D01*
X0080711Y0080142D01*
X0080519Y0078375D01*
X0080265Y0079950D01*
X0076300Y0075984D01*
X0075400Y0075984D01*
X0072500Y0073084D01*
X0072500Y0060184D01*
X0070476Y0126579D02*
X0069689Y0126579D01*
X0091539Y0127957D02*
X0092327Y0127957D01*
X0093705Y0126579D01*
X0103941Y0126579D01*
X0150201Y0185629D02*
X0150201Y0185634D01*
D30*
X0150201Y0185629D03*
X0146133Y0195865D03*
X0105909Y0184650D03*
X0085503Y0196652D03*
X0091539Y0127957D03*
X0070476Y0126579D03*
X0059256Y0082287D03*
X0060043Y0072051D03*
X0083518Y0064325D03*
X0100004Y0054728D03*
X0100004Y0041933D03*
X0152071Y0083961D03*
X0162406Y0080713D03*
D31*
X0059218Y0164965D02*
X0052602Y0164965D01*
X0053429Y0164138D01*
X0052760Y0172839D02*
X0042917Y0172839D01*
X0041933Y0173823D01*
X0041933Y0179407D01*
X0041874Y0179466D01*
X0036874Y0179466D02*
X0036874Y0185293D01*
X0037012Y0197820D01*
X0030713Y0184059D02*
X0024217Y0184059D01*
X0030713Y0184059D02*
X0031106Y0183665D01*
X0031106Y0180234D01*
X0031874Y0179466D01*
X0024217Y0177366D02*
X0023035Y0176185D01*
X0016343Y0176185D01*
X0016343Y0169492D02*
X0096657Y0169492D01*
X0098035Y0170870D01*
X0098035Y0176730D01*
X0097898Y0176868D01*
X0102898Y0176868D02*
X0102898Y0170929D01*
X0103941Y0169886D01*
X0113783Y0169886D01*
X0114768Y0170870D01*
X0114768Y0174059D01*
X0115398Y0174689D01*
X0115398Y0181382D02*
X0108547Y0181382D01*
X0107878Y0180713D01*
X0107878Y0176887D01*
X0107898Y0176868D01*
X0107898Y0182661D01*
X0105909Y0184650D01*
X0106697Y0190713D02*
X0099138Y0190713D01*
X0092445Y0190713D02*
X0092445Y0177320D01*
X0092898Y0176868D01*
X0085312Y0184650D02*
X0086291Y0185629D01*
X0086291Y0195865D01*
X0085503Y0196652D01*
X0085312Y0184650D02*
X0055043Y0184650D01*
X0054374Y0183980D01*
X0054059Y0183665D01*
X0047839Y0183665D01*
X0046874Y0182701D01*
X0046874Y0179466D01*
X0054374Y0177287D02*
X0054374Y0174453D01*
X0052760Y0172839D01*
X0113390Y0190713D02*
X0113850Y0191173D01*
X0113850Y0194290D01*
X0115425Y0195865D01*
X0146133Y0195865D01*
X0150201Y0185629D02*
X0150201Y0177990D01*
X0151047Y0177143D01*
X0156047Y0177143D02*
X0156106Y0177084D01*
X0156106Y0171854D01*
X0157091Y0170870D01*
X0164965Y0170870D01*
X0166579Y0172484D01*
X0166579Y0176933D01*
X0161047Y0177143D02*
X0161047Y0181717D01*
X0162996Y0183665D01*
X0166539Y0183665D01*
X0166579Y0183626D01*
X0166618Y0183665D01*
X0171854Y0183665D01*
X0173949Y0185760D01*
X0180752Y0185760D01*
X0180752Y0193469D01*
X0179728Y0194492D01*
X0176382Y0195476D01*
M02*
