%
M48
M72
T01C0.01200
%
T01
X18823Y41657
X53469Y69610
X61343Y67642
X67642Y55437
X77484Y55043
X82996Y55437
X89689Y55437
X94020Y56224
X96776Y60949
X100713Y64098
X103469Y67248
X102287Y71579
X99531Y82996
X95988Y85358
X88114Y87327
X84965Y88508
X85752Y93626
X72366Y93232
X69610Y90476
X73154Y88114
X63311Y87327
X56618Y87327
X46776Y80634
X70004Y99531
X42445Y124335
X24335Y110161
X13705Y77878
X76697Y36146
X86539Y22760
X110161Y40083
X116067Y47169
X126303Y43232
X136146Y87327
X108980Y120398
X58587Y13311
M30
