G75*
%MOIN*%
%OFA0B0*%
%FSLAX25Y25*%
%IPPOS*%
%LPD*%
%AMOC8*
5,1,8,0,0,1.08239X$1,22.5*
%
%ADD10C,0.00000*%
%ADD11C,0.00060*%
%ADD12R,0.00591X0.01181*%
%ADD13R,0.01181X0.01181*%
%ADD14C,0.00400*%
%ADD15R,0.01181X0.01181*%
%ADD16R,0.01181X0.00591*%
%ADD17C,0.00600*%
%ADD18C,0.00200*%
%ADD19C,0.00500*%
D10*
X0003862Y0002287D02*
X0003862Y0140083D01*
X0141657Y0140083D01*
X0141657Y0002287D01*
X0003862Y0002287D01*
D11*
X0003862Y0071185D02*
X0003883Y0072876D01*
X0003945Y0074566D01*
X0004049Y0076253D01*
X0004194Y0077938D01*
X0004380Y0079619D01*
X0004608Y0081294D01*
X0004876Y0082964D01*
X0005186Y0084626D01*
X0005536Y0086281D01*
X0005927Y0087926D01*
X0006358Y0089561D01*
X0006829Y0091185D01*
X0007339Y0092797D01*
X0007889Y0094396D01*
X0008479Y0095981D01*
X0009107Y0097551D01*
X0009773Y0099105D01*
X0010477Y0100643D01*
X0011219Y0102162D01*
X0011997Y0103663D01*
X0012813Y0105145D01*
X0013664Y0106606D01*
X0014551Y0108045D01*
X0015473Y0109463D01*
X0016430Y0110857D01*
X0017421Y0112227D01*
X0018445Y0113573D01*
X0019501Y0114893D01*
X0020590Y0116187D01*
X0021710Y0117454D01*
X0022861Y0118693D01*
X0024042Y0119903D01*
X0025252Y0121084D01*
X0026491Y0122235D01*
X0027758Y0123355D01*
X0029052Y0124444D01*
X0030372Y0125500D01*
X0031718Y0126524D01*
X0033088Y0127515D01*
X0034482Y0128472D01*
X0035900Y0129394D01*
X0037339Y0130281D01*
X0038800Y0131132D01*
X0040282Y0131948D01*
X0041783Y0132726D01*
X0043302Y0133468D01*
X0044840Y0134172D01*
X0046394Y0134838D01*
X0047964Y0135466D01*
X0049549Y0136056D01*
X0051148Y0136606D01*
X0052760Y0137116D01*
X0054384Y0137587D01*
X0056019Y0138018D01*
X0057664Y0138409D01*
X0059319Y0138759D01*
X0060981Y0139069D01*
X0062651Y0139337D01*
X0064326Y0139565D01*
X0066007Y0139751D01*
X0067692Y0139896D01*
X0069379Y0140000D01*
X0071069Y0140062D01*
X0072760Y0140083D01*
X0074451Y0140062D01*
X0076141Y0140000D01*
X0077828Y0139896D01*
X0079513Y0139751D01*
X0081194Y0139565D01*
X0082869Y0139337D01*
X0084539Y0139069D01*
X0086201Y0138759D01*
X0087856Y0138409D01*
X0089501Y0138018D01*
X0091136Y0137587D01*
X0092760Y0137116D01*
X0094372Y0136606D01*
X0095971Y0136056D01*
X0097556Y0135466D01*
X0099126Y0134838D01*
X0100680Y0134172D01*
X0102218Y0133468D01*
X0103737Y0132726D01*
X0105238Y0131948D01*
X0106720Y0131132D01*
X0108181Y0130281D01*
X0109620Y0129394D01*
X0111038Y0128472D01*
X0112432Y0127515D01*
X0113802Y0126524D01*
X0115148Y0125500D01*
X0116468Y0124444D01*
X0117762Y0123355D01*
X0119029Y0122235D01*
X0120268Y0121084D01*
X0121478Y0119903D01*
X0122659Y0118693D01*
X0123810Y0117454D01*
X0124930Y0116187D01*
X0126019Y0114893D01*
X0127075Y0113573D01*
X0128099Y0112227D01*
X0129090Y0110857D01*
X0130047Y0109463D01*
X0130969Y0108045D01*
X0131856Y0106606D01*
X0132707Y0105145D01*
X0133523Y0103663D01*
X0134301Y0102162D01*
X0135043Y0100643D01*
X0135747Y0099105D01*
X0136413Y0097551D01*
X0137041Y0095981D01*
X0137631Y0094396D01*
X0138181Y0092797D01*
X0138691Y0091185D01*
X0139162Y0089561D01*
X0139593Y0087926D01*
X0139984Y0086281D01*
X0140334Y0084626D01*
X0140644Y0082964D01*
X0140912Y0081294D01*
X0141140Y0079619D01*
X0141326Y0077938D01*
X0141471Y0076253D01*
X0141575Y0074566D01*
X0141637Y0072876D01*
X0141658Y0071185D01*
X0141637Y0069494D01*
X0141575Y0067804D01*
X0141471Y0066117D01*
X0141326Y0064432D01*
X0141140Y0062751D01*
X0140912Y0061076D01*
X0140644Y0059406D01*
X0140334Y0057744D01*
X0139984Y0056089D01*
X0139593Y0054444D01*
X0139162Y0052809D01*
X0138691Y0051185D01*
X0138181Y0049573D01*
X0137631Y0047974D01*
X0137041Y0046389D01*
X0136413Y0044819D01*
X0135747Y0043265D01*
X0135043Y0041727D01*
X0134301Y0040208D01*
X0133523Y0038707D01*
X0132707Y0037225D01*
X0131856Y0035764D01*
X0130969Y0034325D01*
X0130047Y0032907D01*
X0129090Y0031513D01*
X0128099Y0030143D01*
X0127075Y0028797D01*
X0126019Y0027477D01*
X0124930Y0026183D01*
X0123810Y0024916D01*
X0122659Y0023677D01*
X0121478Y0022467D01*
X0120268Y0021286D01*
X0119029Y0020135D01*
X0117762Y0019015D01*
X0116468Y0017926D01*
X0115148Y0016870D01*
X0113802Y0015846D01*
X0112432Y0014855D01*
X0111038Y0013898D01*
X0109620Y0012976D01*
X0108181Y0012089D01*
X0106720Y0011238D01*
X0105238Y0010422D01*
X0103737Y0009644D01*
X0102218Y0008902D01*
X0100680Y0008198D01*
X0099126Y0007532D01*
X0097556Y0006904D01*
X0095971Y0006314D01*
X0094372Y0005764D01*
X0092760Y0005254D01*
X0091136Y0004783D01*
X0089501Y0004352D01*
X0087856Y0003961D01*
X0086201Y0003611D01*
X0084539Y0003301D01*
X0082869Y0003033D01*
X0081194Y0002805D01*
X0079513Y0002619D01*
X0077828Y0002474D01*
X0076141Y0002370D01*
X0074451Y0002308D01*
X0072760Y0002287D01*
X0071069Y0002308D01*
X0069379Y0002370D01*
X0067692Y0002474D01*
X0066007Y0002619D01*
X0064326Y0002805D01*
X0062651Y0003033D01*
X0060981Y0003301D01*
X0059319Y0003611D01*
X0057664Y0003961D01*
X0056019Y0004352D01*
X0054384Y0004783D01*
X0052760Y0005254D01*
X0051148Y0005764D01*
X0049549Y0006314D01*
X0047964Y0006904D01*
X0046394Y0007532D01*
X0044840Y0008198D01*
X0043302Y0008902D01*
X0041783Y0009644D01*
X0040282Y0010422D01*
X0038800Y0011238D01*
X0037339Y0012089D01*
X0035900Y0012976D01*
X0034482Y0013898D01*
X0033088Y0014855D01*
X0031718Y0015846D01*
X0030372Y0016870D01*
X0029052Y0017926D01*
X0027758Y0019015D01*
X0026491Y0020135D01*
X0025252Y0021286D01*
X0024042Y0022467D01*
X0022861Y0023677D01*
X0021710Y0024916D01*
X0020590Y0026183D01*
X0019501Y0027477D01*
X0018445Y0028797D01*
X0017421Y0030143D01*
X0016430Y0031513D01*
X0015473Y0032907D01*
X0014551Y0034325D01*
X0013664Y0035764D01*
X0012813Y0037225D01*
X0011997Y0038707D01*
X0011219Y0040208D01*
X0010477Y0041727D01*
X0009773Y0043265D01*
X0009107Y0044819D01*
X0008479Y0046389D01*
X0007889Y0047974D01*
X0007339Y0049573D01*
X0006829Y0051185D01*
X0006358Y0052809D01*
X0005927Y0054444D01*
X0005536Y0056089D01*
X0005186Y0057744D01*
X0004876Y0059406D01*
X0004608Y0061076D01*
X0004380Y0062751D01*
X0004194Y0064432D01*
X0004049Y0066117D01*
X0003945Y0067804D01*
X0003883Y0069494D01*
X0003862Y0071185D01*
D12*
G36*
X0034113Y0085880D02*
X0033888Y0085336D01*
X0032799Y0085788D01*
X0033024Y0086332D01*
X0034113Y0085880D01*
G37*
G36*
X0035243Y0088608D02*
X0035018Y0088064D01*
X0033929Y0088516D01*
X0034154Y0089060D01*
X0035243Y0088608D01*
G37*
G36*
X0042671Y0099563D02*
X0042254Y0099146D01*
X0041421Y0099979D01*
X0041838Y0100396D01*
X0042671Y0099563D01*
G37*
G36*
X0044759Y0101651D02*
X0044342Y0101234D01*
X0043509Y0102067D01*
X0043926Y0102484D01*
X0044759Y0101651D01*
G37*
G36*
X0055841Y0108923D02*
X0055297Y0108698D01*
X0054845Y0109787D01*
X0055389Y0110012D01*
X0055841Y0108923D01*
G37*
G36*
X0058569Y0110053D02*
X0058025Y0109828D01*
X0057573Y0110917D01*
X0058117Y0111142D01*
X0058569Y0110053D01*
G37*
X0071283Y0113114D03*
X0074236Y0113114D03*
G36*
X0087455Y0109828D02*
X0086911Y0110053D01*
X0087363Y0111142D01*
X0087907Y0110917D01*
X0087455Y0109828D01*
G37*
G36*
X0090183Y0108698D02*
X0089639Y0108923D01*
X0090091Y0110012D01*
X0090635Y0109787D01*
X0090183Y0108698D01*
G37*
G36*
X0101138Y0101234D02*
X0100721Y0101651D01*
X0101554Y0102484D01*
X0101971Y0102067D01*
X0101138Y0101234D01*
G37*
G36*
X0103226Y0099146D02*
X0102809Y0099563D01*
X0103642Y0100396D01*
X0104059Y0099979D01*
X0103226Y0099146D01*
G37*
G36*
X0110497Y0088064D02*
X0110272Y0088608D01*
X0111361Y0089060D01*
X0111586Y0088516D01*
X0110497Y0088064D01*
G37*
G36*
X0111627Y0085336D02*
X0111402Y0085880D01*
X0112491Y0086332D01*
X0112716Y0085788D01*
X0111627Y0085336D01*
G37*
G36*
X0111402Y0056450D02*
X0111627Y0056994D01*
X0112716Y0056542D01*
X0112491Y0055998D01*
X0111402Y0056450D01*
G37*
G36*
X0110272Y0053722D02*
X0110497Y0054266D01*
X0111586Y0053814D01*
X0111361Y0053270D01*
X0110272Y0053722D01*
G37*
G36*
X0102809Y0042767D02*
X0103226Y0043184D01*
X0104059Y0042351D01*
X0103642Y0041934D01*
X0102809Y0042767D01*
G37*
G36*
X0100721Y0040680D02*
X0101138Y0041097D01*
X0101971Y0040264D01*
X0101554Y0039847D01*
X0100721Y0040680D01*
G37*
G36*
X0089639Y0033444D02*
X0090183Y0033669D01*
X0090635Y0032580D01*
X0090091Y0032355D01*
X0089639Y0033444D01*
G37*
G36*
X0086911Y0032314D02*
X0087455Y0032539D01*
X0087907Y0031450D01*
X0087363Y0031225D01*
X0086911Y0032314D01*
G37*
X0074236Y0029256D03*
X0071283Y0029256D03*
G36*
X0058025Y0032539D02*
X0058569Y0032314D01*
X0058117Y0031225D01*
X0057573Y0031450D01*
X0058025Y0032539D01*
G37*
G36*
X0055297Y0033669D02*
X0055841Y0033444D01*
X0055389Y0032355D01*
X0054845Y0032580D01*
X0055297Y0033669D01*
G37*
G36*
X0044342Y0040034D02*
X0044759Y0039617D01*
X0043926Y0038784D01*
X0043509Y0039201D01*
X0044342Y0040034D01*
G37*
G36*
X0042254Y0042121D02*
X0042671Y0041704D01*
X0041838Y0040871D01*
X0041421Y0041288D01*
X0042254Y0042121D01*
G37*
G36*
X0035018Y0054266D02*
X0035243Y0053722D01*
X0034154Y0053270D01*
X0033929Y0053814D01*
X0035018Y0054266D01*
G37*
G36*
X0033888Y0056994D02*
X0034113Y0056450D01*
X0033024Y0055998D01*
X0032799Y0056542D01*
X0033888Y0056994D01*
G37*
D13*
X0030831Y0071185D03*
X0072760Y0113114D03*
X0114689Y0071185D03*
X0072760Y0029256D03*
D14*
X0067879Y0018472D02*
X0067879Y0015402D01*
X0064809Y0018472D01*
X0064042Y0018472D01*
X0063275Y0017704D01*
X0063275Y0016170D01*
X0064042Y0015402D01*
X0064042Y0013868D02*
X0063275Y0013100D01*
X0063275Y0010798D01*
X0067879Y0010798D01*
X0066344Y0010798D02*
X0066344Y0013100D01*
X0065577Y0013868D01*
X0064042Y0013868D01*
X0066344Y0012333D02*
X0067879Y0013868D01*
X0083458Y0021839D02*
X0087712Y0023601D01*
X0088593Y0021474D01*
X0088177Y0020472D01*
X0086760Y0019884D01*
X0085757Y0020300D01*
X0084876Y0022426D01*
X0085463Y0021008D02*
X0084633Y0019003D01*
X0085220Y0017586D02*
X0089230Y0015924D01*
X0089939Y0016218D01*
X0090354Y0017221D01*
X0089767Y0018638D01*
X0088765Y0019054D01*
X0085220Y0017586D02*
X0086395Y0014750D01*
X0087691Y0013626D02*
X0091701Y0011965D01*
X0088865Y0010790D01*
X0087863Y0011205D01*
X0087276Y0012623D01*
X0087691Y0013626D01*
X0090526Y0014800D01*
X0091529Y0014385D01*
X0092116Y0012967D01*
X0091701Y0011965D01*
X0105223Y0025370D02*
X0108479Y0028625D01*
X0106308Y0028625D01*
X0105766Y0030253D02*
X0104680Y0029168D01*
X0103595Y0029168D01*
X0101968Y0030795D01*
X0103053Y0029710D02*
X0103053Y0027540D01*
X0104138Y0026455D02*
X0106308Y0024284D01*
X0107936Y0023742D02*
X0107936Y0022657D01*
X0109021Y0021572D01*
X0110106Y0021572D01*
X0112277Y0023742D01*
X0112277Y0024827D01*
X0111191Y0025912D01*
X0110106Y0025912D01*
X0109564Y0025370D01*
X0109564Y0024284D01*
X0111191Y0022657D01*
X0105766Y0030253D02*
X0105766Y0031338D01*
X0104138Y0032966D01*
X0100882Y0029710D01*
X0114533Y0043568D02*
X0116295Y0047821D01*
X0118421Y0046940D01*
X0118837Y0045938D01*
X0118249Y0044520D01*
X0117247Y0044104D01*
X0115120Y0044985D01*
X0116538Y0044398D02*
X0117368Y0042393D01*
X0118786Y0041806D02*
X0121622Y0040631D01*
X0120204Y0041218D02*
X0121966Y0045472D01*
X0119961Y0044641D01*
X0123627Y0041462D02*
X0124630Y0041877D01*
X0126047Y0041290D01*
X0126463Y0040287D01*
X0126169Y0039578D01*
X0125166Y0039163D01*
X0123749Y0039750D01*
X0123333Y0040753D01*
X0123627Y0041462D01*
X0124630Y0041877D02*
X0124214Y0042879D01*
X0124508Y0043588D01*
X0125510Y0044004D01*
X0126928Y0043416D01*
X0127344Y0042414D01*
X0127050Y0041705D01*
X0126047Y0041290D01*
X0126701Y0061704D02*
X0129770Y0061704D01*
X0128235Y0061704D02*
X0128235Y0066308D01*
X0126701Y0064773D01*
X0125166Y0064006D02*
X0124399Y0063239D01*
X0122097Y0063239D01*
X0123631Y0063239D02*
X0125166Y0061704D01*
X0125166Y0064006D02*
X0125166Y0065541D01*
X0124399Y0066308D01*
X0122097Y0066308D01*
X0122097Y0061704D01*
X0131305Y0061704D02*
X0131305Y0062471D01*
X0134374Y0065541D01*
X0134374Y0066308D01*
X0131305Y0066308D01*
X0122460Y0081852D02*
X0120698Y0086105D01*
X0122825Y0086986D01*
X0123828Y0086571D01*
X0124415Y0085153D01*
X0124000Y0084151D01*
X0121873Y0083270D01*
X0123291Y0083857D02*
X0125296Y0083026D01*
X0126714Y0083614D02*
X0129549Y0084788D01*
X0128131Y0084201D02*
X0126370Y0088455D01*
X0125539Y0086449D01*
X0130086Y0087502D02*
X0130673Y0086084D01*
X0131676Y0085669D01*
X0133094Y0086257D01*
X0133509Y0087259D01*
X0133215Y0087968D01*
X0132213Y0088383D01*
X0130086Y0087502D01*
X0130917Y0089507D01*
X0132041Y0090804D01*
X0118930Y0104042D02*
X0115674Y0107297D01*
X0115674Y0105127D01*
X0114046Y0104585D02*
X0115131Y0103499D01*
X0115131Y0102414D01*
X0113504Y0100786D01*
X0114589Y0099701D02*
X0111333Y0102957D01*
X0112961Y0104585D01*
X0114046Y0104585D01*
X0114589Y0101872D02*
X0116759Y0101872D01*
X0117844Y0102957D02*
X0120015Y0105127D01*
X0120557Y0106755D02*
X0121642Y0106755D01*
X0122728Y0107840D01*
X0122728Y0108925D01*
X0121642Y0110010D01*
X0120557Y0110010D01*
X0120015Y0109468D01*
X0119472Y0107840D01*
X0117844Y0109468D01*
X0120015Y0111638D01*
X0105168Y0124379D02*
X0100914Y0126141D01*
X0102160Y0123133D01*
X0103335Y0125969D01*
X0103700Y0120835D02*
X0102525Y0117999D01*
X0103112Y0119417D02*
X0098859Y0121179D01*
X0099689Y0119173D01*
X0098393Y0118049D02*
X0099811Y0117462D01*
X0100226Y0116459D01*
X0099345Y0114333D01*
X0099933Y0115750D02*
X0101938Y0116581D01*
X0100763Y0113745D02*
X0096510Y0115507D01*
X0097391Y0117634D01*
X0098393Y0118049D01*
X0082052Y0123003D02*
X0077448Y0123003D01*
X0077448Y0125305D01*
X0078215Y0126072D01*
X0079750Y0126072D01*
X0080517Y0125305D01*
X0080517Y0123003D01*
X0080517Y0124538D02*
X0082052Y0126072D01*
X0082052Y0127607D02*
X0082052Y0130676D01*
X0082052Y0129142D02*
X0077448Y0129142D01*
X0078983Y0127607D01*
X0078215Y0132211D02*
X0077448Y0132978D01*
X0077448Y0134513D01*
X0078215Y0135280D01*
X0078983Y0135280D01*
X0079750Y0134513D01*
X0080517Y0135280D01*
X0081285Y0135280D01*
X0082052Y0134513D01*
X0082052Y0132978D01*
X0081285Y0132211D01*
X0079750Y0133746D02*
X0079750Y0134513D01*
X0059961Y0126504D02*
X0059546Y0125501D01*
X0056710Y0124327D01*
X0055708Y0124742D01*
X0055120Y0126160D01*
X0055536Y0127162D01*
X0057247Y0127041D02*
X0058128Y0124914D01*
X0057247Y0127041D02*
X0057662Y0128043D01*
X0058371Y0128337D01*
X0059374Y0127922D01*
X0059961Y0126504D01*
X0057784Y0129755D02*
X0056366Y0129167D01*
X0055364Y0129583D01*
X0054483Y0131709D01*
X0055070Y0130292D02*
X0054239Y0128287D01*
X0053065Y0131122D02*
X0057318Y0132884D01*
X0058199Y0130757D01*
X0057784Y0129755D01*
X0040000Y0117617D02*
X0040000Y0116532D01*
X0039458Y0115990D01*
X0038372Y0115990D01*
X0037287Y0117075D01*
X0037287Y0118160D01*
X0037830Y0118702D01*
X0038915Y0118702D01*
X0040000Y0117617D01*
X0038372Y0115990D02*
X0038372Y0114904D01*
X0037830Y0114362D01*
X0036745Y0114362D01*
X0035660Y0115447D01*
X0035660Y0116532D01*
X0036202Y0117075D01*
X0037287Y0117075D01*
X0035660Y0118702D02*
X0034574Y0118702D01*
X0032947Y0120330D01*
X0034032Y0119245D02*
X0034032Y0117075D01*
X0035660Y0118702D02*
X0036745Y0119788D01*
X0036745Y0120873D01*
X0035117Y0122500D01*
X0031862Y0119245D01*
X0020291Y0103018D02*
X0018164Y0103899D01*
X0016403Y0099646D01*
X0016990Y0101064D02*
X0019117Y0100183D01*
X0020119Y0100598D01*
X0020706Y0102016D01*
X0020291Y0103018D01*
X0022418Y0102137D02*
X0025253Y0100963D01*
X0024960Y0100254D01*
X0020950Y0098593D01*
X0020656Y0097884D01*
X0019238Y0098471D02*
X0018408Y0100476D01*
X0018078Y0080670D02*
X0016543Y0079903D01*
X0015009Y0078368D01*
X0017311Y0078368D01*
X0018078Y0077601D01*
X0018078Y0076833D01*
X0017311Y0076066D01*
X0015776Y0076066D01*
X0015009Y0076833D01*
X0015009Y0078368D01*
X0013474Y0078368D02*
X0013474Y0079903D01*
X0012707Y0080670D01*
X0010405Y0080670D01*
X0010405Y0076066D01*
X0010405Y0077601D02*
X0012707Y0077601D01*
X0013474Y0078368D01*
X0011939Y0077601D02*
X0013474Y0076066D01*
X0018504Y0058680D02*
X0015669Y0057505D01*
X0016550Y0055379D01*
X0017674Y0056675D01*
X0018383Y0056969D01*
X0019385Y0056553D01*
X0019972Y0055135D01*
X0019557Y0054133D01*
X0018139Y0053546D01*
X0017137Y0053961D01*
X0016013Y0052665D02*
X0014008Y0053495D01*
X0014716Y0053789D02*
X0012590Y0052908D01*
X0013177Y0051490D02*
X0011415Y0055744D01*
X0013542Y0056625D01*
X0014544Y0056209D01*
X0015132Y0054791D01*
X0014716Y0053789D01*
X0027863Y0038819D02*
X0027863Y0035564D01*
X0030033Y0037734D01*
X0031118Y0035564D02*
X0027863Y0038819D01*
X0025693Y0035564D02*
X0024608Y0035564D01*
X0022980Y0033936D01*
X0026235Y0030680D01*
X0025150Y0031766D02*
X0026778Y0033393D01*
X0026778Y0034478D01*
X0025693Y0035564D01*
X0026235Y0032851D02*
X0028406Y0032851D01*
X0043043Y0024545D02*
X0042455Y0023127D01*
X0042871Y0022124D01*
X0042283Y0020706D02*
X0043701Y0020119D01*
X0044117Y0019117D01*
X0043236Y0016990D01*
X0043823Y0018408D02*
X0045828Y0019238D01*
X0045706Y0020950D02*
X0046709Y0021365D01*
X0047296Y0022783D01*
X0046881Y0023785D01*
X0046172Y0024079D01*
X0045169Y0023664D01*
X0044876Y0022955D01*
X0045169Y0023664D02*
X0044754Y0024666D01*
X0044045Y0024960D01*
X0043043Y0024545D01*
X0042283Y0020706D02*
X0041281Y0020291D01*
X0040400Y0018164D01*
X0044653Y0016403D01*
X0100542Y0074385D02*
X0102077Y0074385D01*
X0102844Y0075152D01*
X0104379Y0075152D02*
X0105146Y0074385D01*
X0106681Y0074385D01*
X0107448Y0075152D01*
X0107448Y0076687D01*
X0106681Y0077454D01*
X0105913Y0077454D01*
X0104379Y0076687D01*
X0104379Y0078989D01*
X0107448Y0078989D01*
X0102844Y0078222D02*
X0102077Y0078989D01*
X0100542Y0078989D01*
X0099775Y0078222D01*
X0099775Y0075152D01*
X0100542Y0074385D01*
D15*
G36*
X0111175Y0086428D02*
X0110724Y0087517D01*
X0111813Y0087968D01*
X0112264Y0086879D01*
X0111175Y0086428D01*
G37*
G36*
X0102390Y0099981D02*
X0101556Y0100815D01*
X0102390Y0101649D01*
X0103224Y0100815D01*
X0102390Y0099981D01*
G37*
G36*
X0089092Y0109150D02*
X0088003Y0109601D01*
X0088454Y0110690D01*
X0089543Y0110239D01*
X0089092Y0109150D01*
G37*
G36*
X0057477Y0109601D02*
X0056388Y0109150D01*
X0055937Y0110239D01*
X0057026Y0110690D01*
X0057477Y0109601D01*
G37*
G36*
X0043924Y0100815D02*
X0043090Y0099981D01*
X0042256Y0100815D01*
X0043090Y0101649D01*
X0043924Y0100815D01*
G37*
G36*
X0034791Y0087517D02*
X0034340Y0086428D01*
X0033251Y0086879D01*
X0033702Y0087968D01*
X0034791Y0087517D01*
G37*
G36*
X0034340Y0055902D02*
X0034791Y0054813D01*
X0033702Y0054362D01*
X0033251Y0055451D01*
X0034340Y0055902D01*
G37*
G36*
X0043090Y0041286D02*
X0043924Y0040452D01*
X0043090Y0039618D01*
X0042256Y0040452D01*
X0043090Y0041286D01*
G37*
G36*
X0056388Y0033217D02*
X0057477Y0032766D01*
X0057026Y0031677D01*
X0055937Y0032128D01*
X0056388Y0033217D01*
G37*
G36*
X0088003Y0032766D02*
X0089092Y0033217D01*
X0089543Y0032128D01*
X0088454Y0031677D01*
X0088003Y0032766D01*
G37*
G36*
X0101556Y0041515D02*
X0102390Y0042349D01*
X0103224Y0041515D01*
X0102390Y0040681D01*
X0101556Y0041515D01*
G37*
G36*
X0110724Y0054813D02*
X0111175Y0055902D01*
X0112264Y0055451D01*
X0111813Y0054362D01*
X0110724Y0054813D01*
G37*
D16*
X0114689Y0069709D03*
X0114689Y0072661D03*
X0030831Y0072661D03*
X0030831Y0069709D03*
D17*
X0052760Y0069185D02*
X0052760Y0064985D01*
X0052762Y0064909D01*
X0052768Y0064833D01*
X0052777Y0064758D01*
X0052791Y0064683D01*
X0052808Y0064609D01*
X0052829Y0064536D01*
X0052853Y0064464D01*
X0052882Y0064393D01*
X0052913Y0064324D01*
X0052948Y0064257D01*
X0052987Y0064192D01*
X0053029Y0064128D01*
X0053074Y0064067D01*
X0053122Y0064008D01*
X0053173Y0063952D01*
X0053227Y0063898D01*
X0053283Y0063847D01*
X0053342Y0063799D01*
X0053403Y0063754D01*
X0053467Y0063712D01*
X0053532Y0063673D01*
X0053599Y0063638D01*
X0053668Y0063607D01*
X0053739Y0063578D01*
X0053811Y0063554D01*
X0053884Y0063533D01*
X0053958Y0063516D01*
X0054033Y0063502D01*
X0054108Y0063493D01*
X0054184Y0063487D01*
X0054260Y0063485D01*
X0091260Y0063485D01*
X0091336Y0063487D01*
X0091412Y0063493D01*
X0091487Y0063502D01*
X0091562Y0063516D01*
X0091636Y0063533D01*
X0091709Y0063554D01*
X0091781Y0063578D01*
X0091852Y0063607D01*
X0091921Y0063638D01*
X0091988Y0063673D01*
X0092053Y0063712D01*
X0092117Y0063754D01*
X0092178Y0063799D01*
X0092237Y0063847D01*
X0092293Y0063898D01*
X0092347Y0063952D01*
X0092398Y0064008D01*
X0092446Y0064067D01*
X0092491Y0064128D01*
X0092533Y0064192D01*
X0092572Y0064257D01*
X0092607Y0064324D01*
X0092638Y0064393D01*
X0092667Y0064464D01*
X0092691Y0064536D01*
X0092712Y0064609D01*
X0092729Y0064683D01*
X0092743Y0064758D01*
X0092752Y0064833D01*
X0092758Y0064909D01*
X0092760Y0064985D01*
X0092760Y0077385D01*
X0092758Y0077461D01*
X0092752Y0077537D01*
X0092743Y0077612D01*
X0092729Y0077687D01*
X0092712Y0077761D01*
X0092691Y0077834D01*
X0092667Y0077906D01*
X0092638Y0077977D01*
X0092607Y0078046D01*
X0092572Y0078113D01*
X0092533Y0078178D01*
X0092491Y0078242D01*
X0092446Y0078303D01*
X0092398Y0078362D01*
X0092347Y0078418D01*
X0092293Y0078472D01*
X0092237Y0078523D01*
X0092178Y0078571D01*
X0092117Y0078616D01*
X0092053Y0078658D01*
X0091988Y0078697D01*
X0091921Y0078732D01*
X0091852Y0078763D01*
X0091781Y0078792D01*
X0091709Y0078816D01*
X0091636Y0078837D01*
X0091562Y0078854D01*
X0091487Y0078868D01*
X0091412Y0078877D01*
X0091336Y0078883D01*
X0091260Y0078885D01*
X0054260Y0078885D01*
X0054184Y0078883D01*
X0054108Y0078877D01*
X0054033Y0078868D01*
X0053958Y0078854D01*
X0053884Y0078837D01*
X0053811Y0078816D01*
X0053739Y0078792D01*
X0053668Y0078763D01*
X0053599Y0078732D01*
X0053532Y0078697D01*
X0053467Y0078658D01*
X0053403Y0078616D01*
X0053342Y0078571D01*
X0053283Y0078523D01*
X0053227Y0078472D01*
X0053173Y0078418D01*
X0053122Y0078362D01*
X0053074Y0078303D01*
X0053029Y0078242D01*
X0052987Y0078178D01*
X0052948Y0078113D01*
X0052913Y0078046D01*
X0052882Y0077977D01*
X0052853Y0077906D01*
X0052829Y0077834D01*
X0052808Y0077761D01*
X0052791Y0077687D01*
X0052777Y0077612D01*
X0052768Y0077537D01*
X0052762Y0077461D01*
X0052760Y0077385D01*
X0052760Y0073185D01*
X0052760Y0069185D01*
X0052848Y0069187D01*
X0052937Y0069193D01*
X0053025Y0069203D01*
X0053112Y0069216D01*
X0053199Y0069234D01*
X0053285Y0069255D01*
X0053370Y0069280D01*
X0053453Y0069309D01*
X0053536Y0069342D01*
X0053616Y0069378D01*
X0053695Y0069417D01*
X0053773Y0069460D01*
X0053848Y0069507D01*
X0053921Y0069557D01*
X0053992Y0069610D01*
X0054061Y0069666D01*
X0054127Y0069725D01*
X0054190Y0069787D01*
X0054250Y0069851D01*
X0054308Y0069918D01*
X0054362Y0069988D01*
X0054414Y0070060D01*
X0054462Y0070134D01*
X0054507Y0070211D01*
X0054548Y0070289D01*
X0054586Y0070369D01*
X0054620Y0070450D01*
X0054651Y0070533D01*
X0054678Y0070618D01*
X0054701Y0070703D01*
X0054720Y0070789D01*
X0054736Y0070877D01*
X0054748Y0070964D01*
X0054756Y0071052D01*
X0054760Y0071141D01*
X0054760Y0071229D01*
X0054756Y0071318D01*
X0054748Y0071406D01*
X0054736Y0071493D01*
X0054720Y0071581D01*
X0054701Y0071667D01*
X0054678Y0071752D01*
X0054651Y0071837D01*
X0054620Y0071920D01*
X0054586Y0072001D01*
X0054548Y0072081D01*
X0054507Y0072159D01*
X0054462Y0072236D01*
X0054414Y0072310D01*
X0054362Y0072382D01*
X0054308Y0072452D01*
X0054250Y0072519D01*
X0054190Y0072583D01*
X0054127Y0072645D01*
X0054061Y0072704D01*
X0053992Y0072760D01*
X0053921Y0072813D01*
X0053848Y0072863D01*
X0053773Y0072910D01*
X0053695Y0072953D01*
X0053616Y0072992D01*
X0053536Y0073028D01*
X0053453Y0073061D01*
X0053370Y0073090D01*
X0053285Y0073115D01*
X0053199Y0073136D01*
X0053112Y0073154D01*
X0053025Y0073167D01*
X0052937Y0073177D01*
X0052848Y0073183D01*
X0052760Y0073185D01*
D18*
X0052760Y0064885D02*
X0092760Y0064885D01*
D19*
X0076870Y0069344D02*
X0076870Y0073848D01*
X0074618Y0071596D01*
X0077621Y0071596D01*
X0073017Y0070095D02*
X0072266Y0069344D01*
X0070765Y0069344D01*
X0070015Y0070095D01*
X0070015Y0073098D01*
X0070765Y0073848D01*
X0072266Y0073848D01*
X0073017Y0073098D01*
X0068447Y0073848D02*
X0066945Y0073848D01*
X0067696Y0073848D02*
X0067696Y0069344D01*
X0066945Y0069344D02*
X0068447Y0069344D01*
M02*
