G75*
%MOIN*%
%OFA0B0*%
%FSLAX25Y25*%
%IPPOS*%
%LPD*%
%AMOC8*
5,1,8,0,0,1.08239X$1,22.5*
%
%ADD10C,0.00000*%
%ADD11C,0.00060*%
%ADD12C,0.00400*%
%ADD13C,0.00600*%
%ADD14C,0.00200*%
%ADD15C,0.00500*%
%ADD16C,0.00800*%
D10*
X0003862Y0002287D02*
X0003862Y0140083D01*
X0141657Y0140083D01*
X0141657Y0002287D01*
X0003862Y0002287D01*
D11*
X0003862Y0071185D02*
X0003883Y0072876D01*
X0003945Y0074566D01*
X0004049Y0076253D01*
X0004194Y0077938D01*
X0004380Y0079619D01*
X0004608Y0081294D01*
X0004876Y0082964D01*
X0005186Y0084626D01*
X0005536Y0086281D01*
X0005927Y0087926D01*
X0006358Y0089561D01*
X0006829Y0091185D01*
X0007339Y0092797D01*
X0007889Y0094396D01*
X0008479Y0095981D01*
X0009107Y0097551D01*
X0009773Y0099105D01*
X0010477Y0100643D01*
X0011219Y0102162D01*
X0011997Y0103663D01*
X0012813Y0105145D01*
X0013664Y0106606D01*
X0014551Y0108045D01*
X0015473Y0109463D01*
X0016430Y0110857D01*
X0017421Y0112227D01*
X0018445Y0113573D01*
X0019501Y0114893D01*
X0020590Y0116187D01*
X0021710Y0117454D01*
X0022861Y0118693D01*
X0024042Y0119903D01*
X0025252Y0121084D01*
X0026491Y0122235D01*
X0027758Y0123355D01*
X0029052Y0124444D01*
X0030372Y0125500D01*
X0031718Y0126524D01*
X0033088Y0127515D01*
X0034482Y0128472D01*
X0035900Y0129394D01*
X0037339Y0130281D01*
X0038800Y0131132D01*
X0040282Y0131948D01*
X0041783Y0132726D01*
X0043302Y0133468D01*
X0044840Y0134172D01*
X0046394Y0134838D01*
X0047964Y0135466D01*
X0049549Y0136056D01*
X0051148Y0136606D01*
X0052760Y0137116D01*
X0054384Y0137587D01*
X0056019Y0138018D01*
X0057664Y0138409D01*
X0059319Y0138759D01*
X0060981Y0139069D01*
X0062651Y0139337D01*
X0064326Y0139565D01*
X0066007Y0139751D01*
X0067692Y0139896D01*
X0069379Y0140000D01*
X0071069Y0140062D01*
X0072760Y0140083D01*
X0074451Y0140062D01*
X0076141Y0140000D01*
X0077828Y0139896D01*
X0079513Y0139751D01*
X0081194Y0139565D01*
X0082869Y0139337D01*
X0084539Y0139069D01*
X0086201Y0138759D01*
X0087856Y0138409D01*
X0089501Y0138018D01*
X0091136Y0137587D01*
X0092760Y0137116D01*
X0094372Y0136606D01*
X0095971Y0136056D01*
X0097556Y0135466D01*
X0099126Y0134838D01*
X0100680Y0134172D01*
X0102218Y0133468D01*
X0103737Y0132726D01*
X0105238Y0131948D01*
X0106720Y0131132D01*
X0108181Y0130281D01*
X0109620Y0129394D01*
X0111038Y0128472D01*
X0112432Y0127515D01*
X0113802Y0126524D01*
X0115148Y0125500D01*
X0116468Y0124444D01*
X0117762Y0123355D01*
X0119029Y0122235D01*
X0120268Y0121084D01*
X0121478Y0119903D01*
X0122659Y0118693D01*
X0123810Y0117454D01*
X0124930Y0116187D01*
X0126019Y0114893D01*
X0127075Y0113573D01*
X0128099Y0112227D01*
X0129090Y0110857D01*
X0130047Y0109463D01*
X0130969Y0108045D01*
X0131856Y0106606D01*
X0132707Y0105145D01*
X0133523Y0103663D01*
X0134301Y0102162D01*
X0135043Y0100643D01*
X0135747Y0099105D01*
X0136413Y0097551D01*
X0137041Y0095981D01*
X0137631Y0094396D01*
X0138181Y0092797D01*
X0138691Y0091185D01*
X0139162Y0089561D01*
X0139593Y0087926D01*
X0139984Y0086281D01*
X0140334Y0084626D01*
X0140644Y0082964D01*
X0140912Y0081294D01*
X0141140Y0079619D01*
X0141326Y0077938D01*
X0141471Y0076253D01*
X0141575Y0074566D01*
X0141637Y0072876D01*
X0141658Y0071185D01*
X0141637Y0069494D01*
X0141575Y0067804D01*
X0141471Y0066117D01*
X0141326Y0064432D01*
X0141140Y0062751D01*
X0140912Y0061076D01*
X0140644Y0059406D01*
X0140334Y0057744D01*
X0139984Y0056089D01*
X0139593Y0054444D01*
X0139162Y0052809D01*
X0138691Y0051185D01*
X0138181Y0049573D01*
X0137631Y0047974D01*
X0137041Y0046389D01*
X0136413Y0044819D01*
X0135747Y0043265D01*
X0135043Y0041727D01*
X0134301Y0040208D01*
X0133523Y0038707D01*
X0132707Y0037225D01*
X0131856Y0035764D01*
X0130969Y0034325D01*
X0130047Y0032907D01*
X0129090Y0031513D01*
X0128099Y0030143D01*
X0127075Y0028797D01*
X0126019Y0027477D01*
X0124930Y0026183D01*
X0123810Y0024916D01*
X0122659Y0023677D01*
X0121478Y0022467D01*
X0120268Y0021286D01*
X0119029Y0020135D01*
X0117762Y0019015D01*
X0116468Y0017926D01*
X0115148Y0016870D01*
X0113802Y0015846D01*
X0112432Y0014855D01*
X0111038Y0013898D01*
X0109620Y0012976D01*
X0108181Y0012089D01*
X0106720Y0011238D01*
X0105238Y0010422D01*
X0103737Y0009644D01*
X0102218Y0008902D01*
X0100680Y0008198D01*
X0099126Y0007532D01*
X0097556Y0006904D01*
X0095971Y0006314D01*
X0094372Y0005764D01*
X0092760Y0005254D01*
X0091136Y0004783D01*
X0089501Y0004352D01*
X0087856Y0003961D01*
X0086201Y0003611D01*
X0084539Y0003301D01*
X0082869Y0003033D01*
X0081194Y0002805D01*
X0079513Y0002619D01*
X0077828Y0002474D01*
X0076141Y0002370D01*
X0074451Y0002308D01*
X0072760Y0002287D01*
X0071069Y0002308D01*
X0069379Y0002370D01*
X0067692Y0002474D01*
X0066007Y0002619D01*
X0064326Y0002805D01*
X0062651Y0003033D01*
X0060981Y0003301D01*
X0059319Y0003611D01*
X0057664Y0003961D01*
X0056019Y0004352D01*
X0054384Y0004783D01*
X0052760Y0005254D01*
X0051148Y0005764D01*
X0049549Y0006314D01*
X0047964Y0006904D01*
X0046394Y0007532D01*
X0044840Y0008198D01*
X0043302Y0008902D01*
X0041783Y0009644D01*
X0040282Y0010422D01*
X0038800Y0011238D01*
X0037339Y0012089D01*
X0035900Y0012976D01*
X0034482Y0013898D01*
X0033088Y0014855D01*
X0031718Y0015846D01*
X0030372Y0016870D01*
X0029052Y0017926D01*
X0027758Y0019015D01*
X0026491Y0020135D01*
X0025252Y0021286D01*
X0024042Y0022467D01*
X0022861Y0023677D01*
X0021710Y0024916D01*
X0020590Y0026183D01*
X0019501Y0027477D01*
X0018445Y0028797D01*
X0017421Y0030143D01*
X0016430Y0031513D01*
X0015473Y0032907D01*
X0014551Y0034325D01*
X0013664Y0035764D01*
X0012813Y0037225D01*
X0011997Y0038707D01*
X0011219Y0040208D01*
X0010477Y0041727D01*
X0009773Y0043265D01*
X0009107Y0044819D01*
X0008479Y0046389D01*
X0007889Y0047974D01*
X0007339Y0049573D01*
X0006829Y0051185D01*
X0006358Y0052809D01*
X0005927Y0054444D01*
X0005536Y0056089D01*
X0005186Y0057744D01*
X0004876Y0059406D01*
X0004608Y0061076D01*
X0004380Y0062751D01*
X0004194Y0064432D01*
X0004049Y0066117D01*
X0003945Y0067804D01*
X0003883Y0069494D01*
X0003862Y0071185D01*
D12*
X0007456Y0067371D02*
X0008223Y0067371D01*
X0011293Y0070440D01*
X0012060Y0070440D01*
X0012060Y0067371D01*
X0011293Y0065836D02*
X0012060Y0065069D01*
X0012060Y0063534D01*
X0011293Y0062767D01*
X0008223Y0062767D01*
X0007456Y0063534D01*
X0007456Y0065069D01*
X0008223Y0065836D01*
X0010732Y0058040D02*
X0009965Y0057273D01*
X0009965Y0056505D01*
X0013034Y0053436D01*
X0009965Y0053436D01*
X0014569Y0053436D02*
X0017638Y0053436D01*
X0019172Y0053436D02*
X0020707Y0054971D01*
X0019940Y0054971D02*
X0022242Y0054971D01*
X0022242Y0053436D02*
X0022242Y0058040D01*
X0019940Y0058040D01*
X0019172Y0057273D01*
X0019172Y0055738D01*
X0019940Y0054971D01*
X0017638Y0056505D02*
X0016103Y0058040D01*
X0016103Y0053436D01*
X0013034Y0057273D02*
X0012267Y0058040D01*
X0010732Y0058040D01*
X0026500Y0057773D02*
X0026500Y0054704D01*
X0027267Y0053936D01*
X0028802Y0053936D01*
X0029569Y0054704D01*
X0031104Y0054704D02*
X0031871Y0053936D01*
X0033406Y0053936D01*
X0034173Y0054704D01*
X0034173Y0057773D01*
X0033406Y0058540D01*
X0031871Y0058540D01*
X0031104Y0057773D01*
X0029569Y0057773D02*
X0029569Y0057005D01*
X0028802Y0056238D01*
X0026500Y0056238D01*
X0026500Y0057773D02*
X0027267Y0058540D01*
X0028802Y0058540D01*
X0029569Y0057773D01*
X0045275Y0057783D02*
X0045275Y0059318D01*
X0046042Y0060085D01*
X0046042Y0061620D02*
X0046809Y0061620D01*
X0047577Y0062387D01*
X0047577Y0063922D01*
X0046809Y0064689D01*
X0046042Y0064689D01*
X0045275Y0063922D01*
X0045275Y0062387D01*
X0046042Y0061620D01*
X0047577Y0062387D02*
X0048344Y0061620D01*
X0049111Y0061620D01*
X0049879Y0062387D01*
X0049879Y0063922D01*
X0049111Y0064689D01*
X0048344Y0064689D01*
X0047577Y0063922D01*
X0049111Y0060085D02*
X0049879Y0059318D01*
X0049879Y0057783D01*
X0049111Y0057016D01*
X0046042Y0057016D01*
X0045275Y0057783D01*
X0044757Y0071428D02*
X0041688Y0071428D01*
X0040920Y0072196D01*
X0040920Y0073730D01*
X0041688Y0074498D01*
X0041688Y0076032D02*
X0040920Y0076800D01*
X0040920Y0078334D01*
X0041688Y0079102D01*
X0042455Y0079102D01*
X0043222Y0078334D01*
X0043222Y0076032D01*
X0041688Y0076032D01*
X0043222Y0076032D02*
X0044757Y0077567D01*
X0045524Y0079102D01*
X0044757Y0074498D02*
X0045524Y0073730D01*
X0045524Y0072196D01*
X0044757Y0071428D01*
X0021729Y0075279D02*
X0021729Y0079883D01*
X0019427Y0079883D01*
X0018660Y0079115D01*
X0018660Y0077581D01*
X0019427Y0076813D01*
X0021729Y0076813D01*
X0020195Y0076813D02*
X0018660Y0075279D01*
X0017125Y0075279D02*
X0014056Y0075279D01*
X0015591Y0075279D02*
X0015591Y0079883D01*
X0017125Y0078348D01*
X0012521Y0078348D02*
X0010987Y0079883D01*
X0010987Y0075279D01*
X0012521Y0075279D02*
X0009452Y0075279D01*
X0009034Y0083787D02*
X0008267Y0084555D01*
X0008267Y0086089D01*
X0009034Y0086857D01*
X0009034Y0088391D02*
X0008267Y0089159D01*
X0008267Y0090693D01*
X0009034Y0091461D01*
X0009802Y0091461D01*
X0010569Y0090693D01*
X0010569Y0089926D01*
X0010569Y0090693D02*
X0011336Y0091461D01*
X0012104Y0091461D01*
X0012871Y0090693D01*
X0012871Y0089159D01*
X0012104Y0088391D01*
X0012104Y0086857D02*
X0012871Y0086089D01*
X0012871Y0084555D01*
X0012104Y0083787D01*
X0009034Y0083787D01*
X0051180Y0104240D02*
X0051180Y0105774D01*
X0051948Y0106542D01*
X0053482Y0108076D02*
X0053482Y0111146D01*
X0051180Y0110378D02*
X0055784Y0110378D01*
X0053482Y0108076D01*
X0055017Y0106542D02*
X0055784Y0105774D01*
X0055784Y0104240D01*
X0055017Y0103472D01*
X0051948Y0103472D01*
X0051180Y0104240D01*
X0062821Y0117633D02*
X0065891Y0117633D01*
X0062821Y0120702D01*
X0062821Y0121470D01*
X0063589Y0122237D01*
X0065123Y0122237D01*
X0065891Y0121470D01*
X0067425Y0121470D02*
X0068193Y0122237D01*
X0069727Y0122237D01*
X0070495Y0121470D01*
X0070495Y0118400D01*
X0069727Y0117633D01*
X0068193Y0117633D01*
X0067425Y0118400D01*
X0072029Y0117633D02*
X0073564Y0117633D01*
X0072796Y0117633D02*
X0072796Y0122237D01*
X0072029Y0122237D02*
X0073564Y0122237D01*
X0087877Y0118765D02*
X0087877Y0117230D01*
X0088644Y0116463D01*
X0091714Y0119532D01*
X0088644Y0119532D01*
X0087877Y0118765D01*
X0088644Y0116463D02*
X0091714Y0116463D01*
X0092481Y0117230D01*
X0092481Y0118765D01*
X0091714Y0119532D01*
X0087877Y0114928D02*
X0087877Y0111859D01*
X0087877Y0113394D02*
X0092481Y0113394D01*
X0090946Y0111859D01*
X0090179Y0110324D02*
X0089412Y0109557D01*
X0089412Y0107255D01*
X0089412Y0108790D02*
X0087877Y0110324D01*
X0090179Y0110324D02*
X0091714Y0110324D01*
X0092481Y0109557D01*
X0092481Y0107255D01*
X0087877Y0107255D01*
X0087759Y0126822D02*
X0092363Y0126822D01*
X0092363Y0129124D01*
X0091596Y0129891D01*
X0090061Y0129891D01*
X0089294Y0129124D01*
X0089294Y0126822D01*
X0089294Y0128357D02*
X0087759Y0129891D01*
X0087759Y0131426D02*
X0087759Y0134495D01*
X0087759Y0132961D02*
X0092363Y0132961D01*
X0090828Y0131426D01*
X0096559Y0050272D02*
X0098093Y0050272D01*
X0098861Y0049505D01*
X0100395Y0049505D02*
X0101163Y0050272D01*
X0102697Y0050272D01*
X0103465Y0049505D01*
X0103465Y0046436D01*
X0102697Y0045669D01*
X0101163Y0045669D01*
X0100395Y0046436D01*
X0098861Y0045669D02*
X0095791Y0048738D01*
X0095791Y0049505D01*
X0096559Y0050272D01*
X0095791Y0045669D02*
X0098861Y0045669D01*
X0103937Y0039501D02*
X0103937Y0034897D01*
X0105472Y0034897D02*
X0102402Y0034897D01*
X0105472Y0037966D02*
X0103937Y0039501D01*
X0107006Y0038733D02*
X0107774Y0039501D01*
X0109308Y0039501D01*
X0110076Y0038733D01*
X0110076Y0035664D01*
X0109308Y0034897D01*
X0107774Y0034897D01*
X0107006Y0035664D01*
X0091249Y0024859D02*
X0091249Y0020255D01*
X0091249Y0022557D02*
X0089714Y0022557D01*
X0091249Y0024859D02*
X0088180Y0024859D01*
X0086645Y0023324D02*
X0085110Y0024859D01*
X0085110Y0020255D01*
X0083576Y0020255D02*
X0086645Y0020255D01*
X0086106Y0016540D02*
X0086106Y0011936D01*
X0084572Y0011936D02*
X0087641Y0011936D01*
X0089176Y0012704D02*
X0089176Y0015773D01*
X0089943Y0016540D01*
X0092245Y0016540D01*
X0092245Y0011936D01*
X0089943Y0011936D01*
X0089176Y0012704D01*
X0087641Y0015005D02*
X0086106Y0016540D01*
X0071576Y0033321D02*
X0067740Y0033321D01*
X0066972Y0034089D01*
X0066972Y0035623D01*
X0067740Y0036391D01*
X0071576Y0036391D01*
X0070809Y0037925D02*
X0070042Y0037925D01*
X0069274Y0038693D01*
X0069274Y0040227D01*
X0068507Y0040994D01*
X0067740Y0040994D01*
X0066972Y0040227D01*
X0066972Y0038693D01*
X0067740Y0037925D01*
X0066205Y0039460D02*
X0072344Y0039460D01*
X0071576Y0040227D02*
X0070809Y0040994D01*
X0071576Y0040227D02*
X0071576Y0038693D01*
X0070809Y0037925D01*
X0070042Y0042529D02*
X0071576Y0044064D01*
X0066972Y0044064D01*
X0066972Y0045598D02*
X0066972Y0042529D01*
X0057159Y0028745D02*
X0057159Y0025676D01*
X0055624Y0024141D01*
X0054090Y0025676D01*
X0054090Y0028745D01*
X0052555Y0027978D02*
X0052555Y0024908D01*
X0051788Y0024141D01*
X0050253Y0024141D01*
X0049486Y0024908D01*
X0047951Y0024908D02*
X0047184Y0024141D01*
X0045649Y0024141D01*
X0044882Y0024908D01*
X0047951Y0024908D02*
X0047951Y0027978D01*
X0047184Y0028745D01*
X0045649Y0028745D01*
X0044882Y0027978D01*
X0049486Y0027978D02*
X0050253Y0028745D01*
X0051788Y0028745D01*
X0052555Y0027978D01*
X0038387Y0028804D02*
X0038387Y0025735D01*
X0037619Y0024968D01*
X0036085Y0024968D01*
X0035317Y0025735D01*
X0035317Y0027270D01*
X0036852Y0027270D01*
X0038387Y0028804D02*
X0037619Y0029572D01*
X0036085Y0029572D01*
X0035317Y0028804D01*
X0033783Y0029572D02*
X0030713Y0024968D01*
X0030713Y0029572D01*
X0029179Y0029572D02*
X0026877Y0029572D01*
X0026109Y0028804D01*
X0026109Y0025735D01*
X0026877Y0024968D01*
X0029179Y0024968D01*
X0029179Y0029572D01*
X0033783Y0029572D02*
X0033783Y0024968D01*
D13*
X0054260Y0063485D02*
X0091260Y0063485D01*
X0091336Y0063487D01*
X0091412Y0063493D01*
X0091487Y0063502D01*
X0091562Y0063516D01*
X0091636Y0063533D01*
X0091709Y0063554D01*
X0091781Y0063578D01*
X0091852Y0063607D01*
X0091921Y0063638D01*
X0091988Y0063673D01*
X0092053Y0063712D01*
X0092117Y0063754D01*
X0092178Y0063799D01*
X0092237Y0063847D01*
X0092293Y0063898D01*
X0092347Y0063952D01*
X0092398Y0064008D01*
X0092446Y0064067D01*
X0092491Y0064128D01*
X0092533Y0064192D01*
X0092572Y0064257D01*
X0092607Y0064324D01*
X0092638Y0064393D01*
X0092667Y0064464D01*
X0092691Y0064536D01*
X0092712Y0064609D01*
X0092729Y0064683D01*
X0092743Y0064758D01*
X0092752Y0064833D01*
X0092758Y0064909D01*
X0092760Y0064985D01*
X0092760Y0077385D01*
X0092758Y0077461D01*
X0092752Y0077537D01*
X0092743Y0077612D01*
X0092729Y0077687D01*
X0092712Y0077761D01*
X0092691Y0077834D01*
X0092667Y0077906D01*
X0092638Y0077977D01*
X0092607Y0078046D01*
X0092572Y0078113D01*
X0092533Y0078178D01*
X0092491Y0078242D01*
X0092446Y0078303D01*
X0092398Y0078362D01*
X0092347Y0078418D01*
X0092293Y0078472D01*
X0092237Y0078523D01*
X0092178Y0078571D01*
X0092117Y0078616D01*
X0092053Y0078658D01*
X0091988Y0078697D01*
X0091921Y0078732D01*
X0091852Y0078763D01*
X0091781Y0078792D01*
X0091709Y0078816D01*
X0091636Y0078837D01*
X0091562Y0078854D01*
X0091487Y0078868D01*
X0091412Y0078877D01*
X0091336Y0078883D01*
X0091260Y0078885D01*
X0054260Y0078885D01*
X0054184Y0078883D01*
X0054108Y0078877D01*
X0054033Y0078868D01*
X0053958Y0078854D01*
X0053884Y0078837D01*
X0053811Y0078816D01*
X0053739Y0078792D01*
X0053668Y0078763D01*
X0053599Y0078732D01*
X0053532Y0078697D01*
X0053467Y0078658D01*
X0053403Y0078616D01*
X0053342Y0078571D01*
X0053283Y0078523D01*
X0053227Y0078472D01*
X0053173Y0078418D01*
X0053122Y0078362D01*
X0053074Y0078303D01*
X0053029Y0078242D01*
X0052987Y0078178D01*
X0052948Y0078113D01*
X0052913Y0078046D01*
X0052882Y0077977D01*
X0052853Y0077906D01*
X0052829Y0077834D01*
X0052808Y0077761D01*
X0052791Y0077687D01*
X0052777Y0077612D01*
X0052768Y0077537D01*
X0052762Y0077461D01*
X0052760Y0077385D01*
X0052760Y0073185D01*
X0052760Y0069185D01*
X0052760Y0064985D01*
X0052762Y0064909D01*
X0052768Y0064833D01*
X0052777Y0064758D01*
X0052791Y0064683D01*
X0052808Y0064609D01*
X0052829Y0064536D01*
X0052853Y0064464D01*
X0052882Y0064393D01*
X0052913Y0064324D01*
X0052948Y0064257D01*
X0052987Y0064192D01*
X0053029Y0064128D01*
X0053074Y0064067D01*
X0053122Y0064008D01*
X0053173Y0063952D01*
X0053227Y0063898D01*
X0053283Y0063847D01*
X0053342Y0063799D01*
X0053403Y0063754D01*
X0053467Y0063712D01*
X0053532Y0063673D01*
X0053599Y0063638D01*
X0053668Y0063607D01*
X0053739Y0063578D01*
X0053811Y0063554D01*
X0053884Y0063533D01*
X0053958Y0063516D01*
X0054033Y0063502D01*
X0054108Y0063493D01*
X0054184Y0063487D01*
X0054260Y0063485D01*
X0052760Y0069185D02*
X0052848Y0069187D01*
X0052937Y0069193D01*
X0053025Y0069203D01*
X0053112Y0069216D01*
X0053199Y0069234D01*
X0053285Y0069255D01*
X0053370Y0069280D01*
X0053453Y0069309D01*
X0053536Y0069342D01*
X0053616Y0069378D01*
X0053695Y0069417D01*
X0053773Y0069460D01*
X0053848Y0069507D01*
X0053921Y0069557D01*
X0053992Y0069610D01*
X0054061Y0069666D01*
X0054127Y0069725D01*
X0054190Y0069787D01*
X0054250Y0069851D01*
X0054308Y0069918D01*
X0054362Y0069988D01*
X0054414Y0070060D01*
X0054462Y0070134D01*
X0054507Y0070211D01*
X0054548Y0070289D01*
X0054586Y0070369D01*
X0054620Y0070450D01*
X0054651Y0070533D01*
X0054678Y0070618D01*
X0054701Y0070703D01*
X0054720Y0070789D01*
X0054736Y0070877D01*
X0054748Y0070964D01*
X0054756Y0071052D01*
X0054760Y0071141D01*
X0054760Y0071229D01*
X0054756Y0071318D01*
X0054748Y0071406D01*
X0054736Y0071493D01*
X0054720Y0071581D01*
X0054701Y0071667D01*
X0054678Y0071752D01*
X0054651Y0071837D01*
X0054620Y0071920D01*
X0054586Y0072001D01*
X0054548Y0072081D01*
X0054507Y0072159D01*
X0054462Y0072236D01*
X0054414Y0072310D01*
X0054362Y0072382D01*
X0054308Y0072452D01*
X0054250Y0072519D01*
X0054190Y0072583D01*
X0054127Y0072645D01*
X0054061Y0072704D01*
X0053992Y0072760D01*
X0053921Y0072813D01*
X0053848Y0072863D01*
X0053773Y0072910D01*
X0053695Y0072953D01*
X0053616Y0072992D01*
X0053536Y0073028D01*
X0053453Y0073061D01*
X0053370Y0073090D01*
X0053285Y0073115D01*
X0053199Y0073136D01*
X0053112Y0073154D01*
X0053025Y0073167D01*
X0052937Y0073177D01*
X0052848Y0073183D01*
X0052760Y0073185D01*
X0041657Y0084355D02*
X0041657Y0096755D01*
X0041655Y0096831D01*
X0041649Y0096907D01*
X0041640Y0096982D01*
X0041626Y0097057D01*
X0041609Y0097131D01*
X0041588Y0097204D01*
X0041564Y0097276D01*
X0041535Y0097347D01*
X0041504Y0097416D01*
X0041469Y0097483D01*
X0041430Y0097548D01*
X0041388Y0097612D01*
X0041343Y0097673D01*
X0041295Y0097732D01*
X0041244Y0097788D01*
X0041190Y0097842D01*
X0041134Y0097893D01*
X0041075Y0097941D01*
X0041014Y0097986D01*
X0040950Y0098028D01*
X0040885Y0098067D01*
X0040818Y0098102D01*
X0040749Y0098133D01*
X0040678Y0098162D01*
X0040606Y0098186D01*
X0040533Y0098207D01*
X0040459Y0098224D01*
X0040384Y0098238D01*
X0040309Y0098247D01*
X0040233Y0098253D01*
X0040157Y0098255D01*
X0023157Y0098255D01*
X0023081Y0098253D01*
X0023005Y0098247D01*
X0022930Y0098238D01*
X0022855Y0098224D01*
X0022781Y0098207D01*
X0022708Y0098186D01*
X0022636Y0098162D01*
X0022565Y0098133D01*
X0022496Y0098102D01*
X0022429Y0098067D01*
X0022364Y0098028D01*
X0022300Y0097986D01*
X0022239Y0097941D01*
X0022180Y0097893D01*
X0022124Y0097842D01*
X0022070Y0097788D01*
X0022019Y0097732D01*
X0021971Y0097673D01*
X0021926Y0097612D01*
X0021884Y0097548D01*
X0021845Y0097483D01*
X0021810Y0097416D01*
X0021779Y0097347D01*
X0021750Y0097276D01*
X0021726Y0097204D01*
X0021705Y0097131D01*
X0021688Y0097057D01*
X0021674Y0096982D01*
X0021665Y0096907D01*
X0021659Y0096831D01*
X0021657Y0096755D01*
X0021657Y0084355D01*
X0021659Y0084279D01*
X0021665Y0084203D01*
X0021674Y0084128D01*
X0021688Y0084053D01*
X0021705Y0083979D01*
X0021726Y0083906D01*
X0021750Y0083834D01*
X0021779Y0083763D01*
X0021810Y0083694D01*
X0021845Y0083627D01*
X0021884Y0083562D01*
X0021926Y0083498D01*
X0021971Y0083437D01*
X0022019Y0083378D01*
X0022070Y0083322D01*
X0022124Y0083268D01*
X0022180Y0083217D01*
X0022239Y0083169D01*
X0022300Y0083124D01*
X0022364Y0083082D01*
X0022429Y0083043D01*
X0022496Y0083008D01*
X0022565Y0082977D01*
X0022636Y0082948D01*
X0022708Y0082924D01*
X0022781Y0082903D01*
X0022855Y0082886D01*
X0022930Y0082872D01*
X0023005Y0082863D01*
X0023081Y0082857D01*
X0023157Y0082855D01*
X0040157Y0082855D01*
X0040233Y0082857D01*
X0040309Y0082863D01*
X0040384Y0082872D01*
X0040459Y0082886D01*
X0040533Y0082903D01*
X0040606Y0082924D01*
X0040678Y0082948D01*
X0040749Y0082977D01*
X0040818Y0083008D01*
X0040885Y0083043D01*
X0040950Y0083082D01*
X0041014Y0083124D01*
X0041075Y0083169D01*
X0041134Y0083217D01*
X0041190Y0083268D01*
X0041244Y0083322D01*
X0041295Y0083378D01*
X0041343Y0083437D01*
X0041388Y0083498D01*
X0041430Y0083562D01*
X0041469Y0083627D01*
X0041504Y0083694D01*
X0041535Y0083763D01*
X0041564Y0083834D01*
X0041588Y0083906D01*
X0041609Y0083979D01*
X0041626Y0084053D01*
X0041640Y0084128D01*
X0041649Y0084203D01*
X0041655Y0084279D01*
X0041657Y0084355D01*
X0021657Y0088555D02*
X0021745Y0088557D01*
X0021834Y0088563D01*
X0021922Y0088573D01*
X0022009Y0088586D01*
X0022096Y0088604D01*
X0022182Y0088625D01*
X0022267Y0088650D01*
X0022350Y0088679D01*
X0022433Y0088712D01*
X0022513Y0088748D01*
X0022592Y0088787D01*
X0022670Y0088830D01*
X0022745Y0088877D01*
X0022818Y0088927D01*
X0022889Y0088980D01*
X0022958Y0089036D01*
X0023024Y0089095D01*
X0023087Y0089157D01*
X0023147Y0089221D01*
X0023205Y0089288D01*
X0023259Y0089358D01*
X0023311Y0089430D01*
X0023359Y0089504D01*
X0023404Y0089581D01*
X0023445Y0089659D01*
X0023483Y0089739D01*
X0023517Y0089820D01*
X0023548Y0089903D01*
X0023575Y0089988D01*
X0023598Y0090073D01*
X0023617Y0090159D01*
X0023633Y0090247D01*
X0023645Y0090334D01*
X0023653Y0090422D01*
X0023657Y0090511D01*
X0023657Y0090599D01*
X0023653Y0090688D01*
X0023645Y0090776D01*
X0023633Y0090863D01*
X0023617Y0090951D01*
X0023598Y0091037D01*
X0023575Y0091122D01*
X0023548Y0091207D01*
X0023517Y0091290D01*
X0023483Y0091371D01*
X0023445Y0091451D01*
X0023404Y0091529D01*
X0023359Y0091606D01*
X0023311Y0091680D01*
X0023259Y0091752D01*
X0023205Y0091822D01*
X0023147Y0091889D01*
X0023087Y0091953D01*
X0023024Y0092015D01*
X0022958Y0092074D01*
X0022889Y0092130D01*
X0022818Y0092183D01*
X0022745Y0092233D01*
X0022670Y0092280D01*
X0022592Y0092323D01*
X0022513Y0092362D01*
X0022433Y0092398D01*
X0022350Y0092431D01*
X0022267Y0092460D01*
X0022182Y0092485D01*
X0022096Y0092506D01*
X0022009Y0092524D01*
X0021922Y0092537D01*
X0021834Y0092547D01*
X0021745Y0092553D01*
X0021657Y0092555D01*
D14*
X0021657Y0096855D02*
X0041657Y0096855D01*
X0052760Y0077485D02*
X0092760Y0077485D01*
X0128324Y0076690D02*
X0128324Y0074822D01*
X0128324Y0075756D02*
X0131127Y0075756D01*
X0130193Y0074822D01*
X0131127Y0073928D02*
X0131127Y0072994D01*
X0131127Y0073461D02*
X0128791Y0073461D01*
X0128324Y0072994D01*
X0128324Y0072527D01*
X0128791Y0072060D01*
D15*
X0081724Y0073848D02*
X0080223Y0073848D01*
X0080973Y0073848D02*
X0080973Y0069344D01*
X0080223Y0069344D02*
X0081724Y0069344D01*
X0078655Y0070095D02*
X0077904Y0069344D01*
X0076403Y0069344D01*
X0075652Y0070095D01*
X0074051Y0070095D02*
X0073300Y0069344D01*
X0071799Y0069344D01*
X0071048Y0070095D01*
X0071048Y0070846D01*
X0071799Y0071596D01*
X0072550Y0071596D01*
X0071799Y0071596D02*
X0071048Y0072347D01*
X0071048Y0073098D01*
X0071799Y0073848D01*
X0073300Y0073848D01*
X0074051Y0073098D01*
X0075652Y0073098D02*
X0076403Y0073848D01*
X0077904Y0073848D01*
X0078655Y0073098D01*
X0078655Y0070095D01*
X0039413Y0088242D02*
X0037912Y0088242D01*
X0038662Y0088242D02*
X0038662Y0092746D01*
X0037912Y0092746D02*
X0039413Y0092746D01*
X0036344Y0091995D02*
X0036344Y0088993D01*
X0035593Y0088242D01*
X0034092Y0088242D01*
X0033341Y0088993D01*
X0031740Y0088242D02*
X0028737Y0088242D01*
X0030238Y0088242D02*
X0030238Y0092746D01*
X0031740Y0091245D01*
X0033341Y0091995D02*
X0034092Y0092746D01*
X0035593Y0092746D01*
X0036344Y0091995D01*
D16*
X0062217Y0053770D02*
X0062217Y0027970D01*
X0076217Y0027970D01*
X0076217Y0053770D01*
X0062217Y0053770D01*
X0118626Y0057799D02*
X0124925Y0057799D01*
X0124138Y0062524D02*
X0118626Y0062524D01*
X0118626Y0057799D01*
X0124138Y0062524D02*
X0124138Y0079846D01*
X0118626Y0079846D01*
X0118626Y0084571D01*
X0124925Y0084571D01*
X0135555Y0084571D02*
X0135555Y0057799D01*
M02*
