G75*
%MOIN*%
%OFA0B0*%
%FSLAX25Y25*%
%IPPOS*%
%LPD*%
%AMOC8*
5,1,8,0,0,1.08239X$1,22.5*
%
%ADD10C,0.07493*%
%ADD11R,0.10800X0.05800*%
%ADD12R,0.05131X0.04737*%
%ADD13R,0.07898X0.07099*%
%ADD14R,0.07099X0.03162*%
%ADD15R,0.05918X0.03556*%
%ADD16R,0.03950X0.03950*%
%ADD17R,0.04737X0.05131*%
%ADD18OC8,0.06800*%
%ADD19R,0.04737X0.06312*%
%ADD20R,0.01981X0.03753*%
%ADD21R,0.02375X0.02965*%
%ADD22R,0.02965X0.02965*%
%ADD23R,0.07099X0.07898*%
%ADD24C,0.07400*%
%ADD25R,0.03950X0.04737*%
%ADD26R,0.06706X0.03556*%
%ADD27C,0.04343*%
%ADD28R,0.06312X0.02178*%
%ADD29R,0.08280X0.07887*%
%ADD30R,0.04737X0.04343*%
D10*
X0015580Y0014595D03*
X0096288Y0014595D03*
X0096288Y0137430D03*
X0015580Y0137430D03*
D11*
X0090304Y0065580D03*
X0090461Y0053296D03*
X0092154Y0092942D03*
X0092469Y0109635D03*
D12*
X0081524Y0095698D03*
X0081524Y0089005D03*
X0062627Y0085068D03*
X0062627Y0078375D03*
X0058532Y0094162D03*
X0051839Y0094162D03*
X0038414Y0092745D03*
X0038414Y0086052D03*
X0038020Y0059280D03*
X0044713Y0059280D03*
X0045894Y0033887D03*
X0052509Y0033769D03*
X0059202Y0033769D03*
X0039202Y0033887D03*
D13*
X0053808Y0101556D03*
X0053808Y0112753D03*
D14*
X0055674Y0079339D03*
X0055674Y0074339D03*
X0055674Y0069339D03*
X0055674Y0064379D03*
X0034776Y0064379D03*
X0034776Y0069379D03*
X0034776Y0074379D03*
X0034776Y0079379D03*
D15*
X0033847Y0054221D03*
X0033847Y0049221D03*
X0033847Y0044221D03*
X0033847Y0039221D03*
X0055501Y0039221D03*
X0055501Y0044221D03*
X0055501Y0049221D03*
X0055501Y0054221D03*
D16*
X0074320Y0054398D03*
X0080225Y0054398D03*
X0080343Y0046879D03*
X0074438Y0046879D03*
D17*
X0068926Y0044517D03*
X0068690Y0050225D03*
X0061997Y0050225D03*
X0062233Y0044517D03*
X0086839Y0039595D03*
X0086839Y0032902D03*
X0095107Y0032902D03*
X0095107Y0039595D03*
X0062036Y0109083D03*
X0062036Y0115776D03*
X0021879Y0032548D03*
X0015186Y0032548D03*
D18*
X0068257Y0036524D03*
X0068257Y0026524D03*
X0078257Y0026524D03*
X0078257Y0036524D03*
D19*
X0077981Y0065580D03*
X0074241Y0074241D03*
X0081721Y0074241D03*
D20*
X0076505Y0084379D03*
X0073946Y0084379D03*
X0071387Y0084379D03*
X0068828Y0084379D03*
X0068828Y0107410D03*
X0071387Y0107410D03*
X0073946Y0107410D03*
X0076505Y0107410D03*
D21*
X0076406Y0113217D03*
X0072666Y0113217D03*
X0068926Y0113217D03*
D22*
X0068926Y0122272D03*
X0072666Y0122272D03*
X0076406Y0122272D03*
D23*
X0078855Y0016170D03*
X0067658Y0016170D03*
D24*
X0059635Y0134280D03*
X0049635Y0134280D03*
X0039635Y0134280D03*
D25*
X0022076Y0073257D03*
X0013414Y0073257D03*
X0013414Y0044123D03*
X0022076Y0044123D03*
D26*
X0025127Y0049831D03*
X0025127Y0055737D03*
X0025127Y0067548D03*
D27*
X0017745Y0064595D03*
X0017745Y0052784D03*
D28*
X0026406Y0100816D03*
X0026406Y0103375D03*
X0026406Y0105934D03*
X0026406Y0108493D03*
X0026406Y0111052D03*
D29*
X0015973Y0121682D03*
X0015973Y0090186D03*
D30*
X0038808Y0098454D03*
X0045107Y0098454D03*
X0045107Y0114595D03*
X0038808Y0114595D03*
M02*
