%
M48
M72
T01C0.01200
T02C0.03346
T03C0.04000
%
T01
X129457Y24622
X166346Y36000
X171346Y36000
X156346Y40016
X151110Y41354
X129457Y41354
X151110Y52181
X146268Y56079
X171346Y51000
X191346Y51000
X191962Y46807
X200323Y58087
X188512Y59071
X182606Y63992
X175717Y63992
X197370Y73835
X241346Y66000
X247567Y68913
X266268Y72850
X308591Y84661
X251346Y46000
X226346Y31000
X307606Y42929
X151110Y74819
X90346Y51000
X66346Y56000
X51346Y51000
X40874Y50213
X46346Y76000
T02
X30008Y57693
X30008Y42732
T03
X143236Y20685
X153236Y20685
X163236Y20685
X173236Y20685
X183236Y20685
X193236Y20685
X193236Y81000
X183236Y81000
X173236Y81000
X163236Y81000
X153236Y81000
X143236Y81000
M30
