G75*
%MOIN*%
%OFA0B0*%
%FSLAX25Y25*%
%IPPOS*%
%LPD*%
%AMOC8*
5,1,8,0,0,1.08239X$1,22.5*
%
%ADD10R,0.03937X0.04331*%
%ADD11R,0.06299X0.07098*%
%ADD12R,0.02600X0.08000*%
%ADD13R,0.02362X0.08661*%
%ADD14R,0.10000X0.20000*%
%ADD15R,0.04331X0.03937*%
%ADD16R,0.05512X0.05512*%
%ADD17R,0.08800X0.04800*%
%ADD18R,0.08661X0.14173*%
%ADD19R,0.02362X0.04724*%
%ADD20R,0.05512X0.01378*%
%ADD21R,0.07480X0.07087*%
%ADD22R,0.07480X0.07480*%
%ADD23C,0.01000*%
%ADD24C,0.01600*%
%ADD25C,0.02400*%
%ADD26C,0.01200*%
%ADD27C,0.00800*%
%ADD28C,0.00819*%
D10*
X0022563Y0062130D03*
X0029256Y0062130D03*
X0029256Y0070398D03*
X0022563Y0070398D03*
X0015673Y0069807D03*
X0015673Y0063114D03*
X0039295Y0063508D03*
X0039295Y0070201D03*
X0047957Y0069020D03*
X0047957Y0075713D03*
X0016854Y0087130D03*
X0016854Y0093823D03*
X0054256Y0117051D03*
X0054256Y0123744D03*
X0090476Y0048941D03*
X0090476Y0042248D03*
X0098626Y0040516D03*
X0098626Y0033823D03*
D11*
X0078555Y0022248D03*
X0067358Y0022248D03*
D12*
X0039157Y0078455D03*
X0034157Y0078455D03*
X0029157Y0078455D03*
X0024157Y0078455D03*
X0024157Y0102655D03*
X0029157Y0102655D03*
X0034157Y0102655D03*
X0039157Y0102655D03*
D13*
X0060457Y0109177D03*
X0065457Y0109177D03*
X0070457Y0109177D03*
X0075457Y0109177D03*
X0075457Y0129650D03*
X0070457Y0129650D03*
X0065457Y0129650D03*
X0060457Y0129650D03*
D14*
X0042957Y0041579D03*
X0026736Y0042366D03*
D15*
X0037130Y0057799D03*
X0043823Y0057799D03*
X0083390Y0109571D03*
X0083390Y0116264D03*
X0083272Y0124413D03*
X0083272Y0131106D03*
D16*
X0080240Y0013311D03*
X0065280Y0013311D03*
D17*
X0081417Y0031770D03*
X0081417Y0040870D03*
X0081417Y0049970D03*
D18*
X0057016Y0040870D03*
D19*
X0055260Y0060161D03*
X0060260Y0060161D03*
X0065260Y0060161D03*
X0070260Y0060161D03*
X0075260Y0060161D03*
X0080260Y0060161D03*
X0085260Y0060161D03*
X0090260Y0060161D03*
X0090260Y0082209D03*
X0085260Y0082209D03*
X0080260Y0082209D03*
X0075260Y0082209D03*
X0070260Y0082209D03*
X0065260Y0082209D03*
X0060260Y0082209D03*
X0055260Y0082209D03*
D20*
X0119413Y0076303D03*
X0119413Y0073744D03*
X0119413Y0071185D03*
X0119413Y0068626D03*
X0119413Y0066067D03*
D21*
X0129846Y0055437D03*
X0129846Y0086933D03*
D22*
X0129846Y0076185D03*
X0129846Y0066185D03*
D23*
X0124335Y0062130D02*
X0116067Y0053862D01*
X0116067Y0047169D01*
X0114886Y0043232D02*
X0103862Y0054256D01*
X0103862Y0066461D01*
X0103469Y0066854D01*
X0103469Y0066067D01*
X0103469Y0066854D02*
X0103469Y0067248D01*
X0106618Y0067248D01*
X0107799Y0066067D01*
X0119413Y0066067D01*
X0124335Y0062130D02*
X0124335Y0075516D01*
X0123547Y0076303D01*
X0119413Y0076303D01*
X0129846Y0086933D02*
X0135752Y0086933D01*
X0136146Y0087327D01*
X0129846Y0055437D02*
X0129846Y0046776D01*
X0126303Y0043232D01*
X0114886Y0043232D01*
X0110161Y0040083D02*
X0104650Y0034571D01*
X0104650Y0026697D01*
X0090870Y0026697D01*
X0086539Y0022366D01*
X0086539Y0022760D01*
X0078555Y0022248D02*
X0078555Y0014996D01*
X0080240Y0013311D01*
X0078555Y0022248D02*
X0078555Y0028909D01*
X0081417Y0031770D01*
X0081461Y0031815D01*
X0088508Y0031815D01*
X0090516Y0033823D01*
X0098626Y0033823D01*
X0098626Y0040516D02*
X0098626Y0046106D01*
X0095594Y0049138D01*
X0090673Y0049138D01*
X0090476Y0048941D01*
X0090476Y0054650D01*
X0089689Y0055437D01*
X0093232Y0057012D02*
X0094020Y0056224D01*
X0089447Y0049970D02*
X0090476Y0048941D01*
X0089447Y0049970D02*
X0081417Y0049970D01*
X0090476Y0042248D02*
X0089098Y0040870D01*
X0081417Y0040870D01*
X0057016Y0040870D01*
X0053862Y0040870D01*
X0066850Y0033780D02*
X0066850Y0022756D01*
X0066850Y0033780D02*
X0069217Y0036146D01*
X0076697Y0036146D01*
X0085260Y0060161D02*
X0085462Y0060687D01*
X0096776Y0071579D02*
X0102287Y0071579D01*
X0096776Y0071579D02*
X0095988Y0072366D01*
X0071185Y0072366D01*
X0065280Y0077878D01*
X0065260Y0077878D01*
X0065260Y0082209D01*
X0070260Y0082209D02*
X0070260Y0076047D01*
X0072366Y0074335D01*
X0094807Y0074335D01*
X0099531Y0079059D01*
X0099531Y0082996D01*
X0095988Y0085358D02*
X0095988Y0085752D01*
X0095988Y0079059D02*
X0093232Y0076303D01*
X0076303Y0076303D01*
X0075260Y0076953D01*
X0075260Y0082209D01*
X0080260Y0082209D02*
X0080260Y0088528D01*
X0085752Y0093626D01*
X0084965Y0088902D02*
X0084965Y0088508D01*
X0084965Y0088114D01*
X0085260Y0087819D01*
X0085260Y0082209D01*
X0069610Y0090476D02*
X0067248Y0090476D01*
X0064492Y0093232D01*
X0049138Y0093232D01*
X0047169Y0091264D01*
X0047169Y0081028D01*
X0046776Y0080634D01*
X0047957Y0079453D01*
X0047957Y0075713D01*
X0047862Y0075087D01*
X0044662Y0071887D01*
X0044662Y0068687D01*
X0039862Y0063887D01*
X0039295Y0063508D01*
X0034177Y0060752D02*
X0034177Y0059374D01*
X0032602Y0057799D01*
X0023547Y0057799D01*
X0022563Y0058783D01*
X0022563Y0062130D01*
X0016657Y0062130D01*
X0015673Y0063114D01*
X0022563Y0070398D02*
X0022760Y0070594D01*
X0022760Y0073941D01*
X0024157Y0075339D01*
X0024157Y0078455D01*
X0023974Y0078272D01*
X0018823Y0078272D01*
X0016854Y0080240D01*
X0016854Y0087130D01*
X0013857Y0086692D02*
X0013462Y0087087D01*
X0013462Y0096687D01*
X0014262Y0097487D01*
X0014262Y0103887D01*
X0023062Y0112687D01*
X0039862Y0112687D01*
X0039862Y0103087D01*
X0039157Y0102655D01*
X0034236Y0102734D02*
X0034157Y0102655D01*
X0029157Y0102655D02*
X0029059Y0102557D01*
X0029059Y0093232D01*
X0034157Y0088134D01*
X0034157Y0078455D01*
X0034177Y0078435D01*
X0034177Y0060752D01*
X0037130Y0057799D01*
X0029256Y0062130D02*
X0029256Y0070398D01*
X0029256Y0078357D01*
X0029157Y0078455D01*
X0039157Y0078455D02*
X0039309Y0078455D01*
X0039295Y0070201D01*
X0047957Y0069020D02*
X0052878Y0069020D01*
X0053469Y0069610D01*
X0055260Y0078843D02*
X0055260Y0082209D01*
X0060260Y0082209D02*
X0060260Y0078961D01*
X0060378Y0109098D02*
X0060457Y0109177D01*
X0057209Y0109177D01*
X0055043Y0111343D01*
X0055043Y0116264D01*
X0054256Y0117051D01*
X0054256Y0123744D02*
X0053462Y0123887D01*
X0050262Y0127087D01*
X0041462Y0127087D01*
X0039862Y0125487D01*
X0039862Y0112687D01*
X0054256Y0123744D02*
X0074925Y0123744D01*
X0075122Y0123941D01*
X0075122Y0129315D01*
X0075457Y0129650D01*
X0081815Y0129650D01*
X0083272Y0131106D01*
X0083587Y0131421D01*
X0083272Y0124413D02*
X0083390Y0124295D01*
X0083390Y0116264D01*
X0066264Y0116264D01*
X0065280Y0115280D01*
X0065280Y0109354D01*
X0065457Y0109177D01*
X0024157Y0102655D02*
X0023738Y0103075D01*
X0020004Y0103075D01*
X0016854Y0099925D01*
X0016854Y0093823D01*
D24*
X0026303Y0041933D02*
X0026303Y0030240D01*
X0035752Y0020791D01*
X0051106Y0020791D01*
X0058587Y0013311D01*
X0065280Y0013311D01*
X0067358Y0022248D02*
X0066850Y0022756D01*
X0065665Y0023941D01*
X0047169Y0023941D01*
X0042957Y0028154D01*
X0042957Y0041579D01*
X0026736Y0042366D02*
X0026303Y0041933D01*
D25*
X0018823Y0041657D03*
X0053469Y0069610D03*
X0061343Y0067642D03*
X0067642Y0055437D03*
X0077484Y0055043D03*
X0082996Y0055437D03*
X0089689Y0055437D03*
X0094020Y0056224D03*
X0096776Y0060949D03*
X0100713Y0064098D03*
X0103469Y0067248D03*
X0102287Y0071579D03*
X0099531Y0082996D03*
X0095988Y0085358D03*
X0088114Y0087327D03*
X0084965Y0088508D03*
X0085752Y0093626D03*
X0072366Y0093232D03*
X0069610Y0090476D03*
X0073154Y0088114D03*
X0063311Y0087327D03*
X0056618Y0087327D03*
X0046776Y0080634D03*
X0070004Y0099531D03*
X0042445Y0124335D03*
X0024335Y0110161D03*
X0013705Y0077878D03*
X0076697Y0036146D03*
X0086539Y0022760D03*
X0110161Y0040083D03*
X0116067Y0047169D03*
X0126303Y0043232D03*
X0136146Y0087327D03*
X0108980Y0120398D03*
X0058587Y0013311D03*
D26*
X0057016Y0040870D02*
X0057016Y0051496D01*
X0055437Y0053075D01*
X0055437Y0056687D01*
X0055437Y0059945D01*
X0055260Y0059768D01*
X0050929Y0054256D01*
X0013311Y0054256D01*
X0010555Y0058193D01*
X0010555Y0063705D01*
X0008980Y0065280D01*
X0008980Y0073941D01*
X0010161Y0075122D01*
X0010161Y0082996D01*
X0013857Y0086692D01*
X0014295Y0087130D01*
X0016854Y0087130D01*
X0013705Y0077878D02*
X0015673Y0075909D01*
X0015673Y0069807D01*
X0019531Y0042366D02*
X0018823Y0041657D01*
X0019531Y0042366D02*
X0026736Y0042366D01*
X0052287Y0059768D02*
X0047957Y0065280D01*
X0047957Y0069020D01*
X0052287Y0059768D02*
X0055260Y0059768D01*
X0055437Y0059945D02*
X0055260Y0060161D01*
X0024157Y0102655D02*
X0024157Y0109984D01*
X0024335Y0110161D01*
X0042445Y0124335D02*
X0049728Y0117051D01*
X0054256Y0117051D01*
X0083390Y0109571D02*
X0098154Y0109571D01*
X0108980Y0120398D01*
D27*
X0090654Y0098173D02*
X0083390Y0105437D01*
X0083390Y0109571D01*
X0075457Y0109177D02*
X0075457Y0100654D01*
X0072366Y0097563D01*
X0072366Y0093232D01*
X0073154Y0088114D02*
X0076697Y0088114D01*
X0085752Y0097169D01*
X0087327Y0097169D01*
X0088508Y0095988D01*
X0088508Y0086539D01*
X0088114Y0087327D01*
X0090654Y0082602D02*
X0090260Y0082209D01*
X0090654Y0082602D02*
X0090654Y0098173D01*
X0095988Y0085358D02*
X0095988Y0079059D01*
X0094413Y0070398D02*
X0100713Y0064098D01*
X0096776Y0064886D02*
X0096776Y0060949D01*
X0094413Y0063311D02*
X0093232Y0062130D01*
X0093232Y0057012D01*
X0090260Y0060161D02*
X0090260Y0064709D01*
X0089295Y0065673D01*
X0062524Y0065673D01*
X0061343Y0067642D01*
X0058980Y0065378D02*
X0058980Y0070398D01*
X0059768Y0071185D01*
X0061736Y0071185D01*
X0065673Y0067248D01*
X0092051Y0067248D01*
X0094413Y0064492D01*
X0094413Y0063311D01*
X0096776Y0064886D02*
X0093232Y0068823D01*
X0066854Y0068823D01*
X0055260Y0078843D01*
X0056618Y0087327D02*
X0063311Y0087327D01*
X0063705Y0086933D01*
X0065280Y0094807D02*
X0070004Y0099531D01*
X0070457Y0099984D01*
X0070457Y0109177D01*
X0065280Y0094807D02*
X0045201Y0094807D01*
X0044807Y0094413D01*
X0035752Y0094413D01*
X0034157Y0096008D01*
X0034157Y0102655D01*
X0069610Y0070398D02*
X0094413Y0070398D01*
X0085462Y0060687D02*
X0082262Y0063887D01*
X0063862Y0063887D01*
X0063062Y0063087D01*
X0063062Y0056687D01*
X0055437Y0056687D01*
X0060260Y0060161D02*
X0060260Y0064098D01*
X0058980Y0065378D01*
X0065260Y0060161D02*
X0065260Y0056638D01*
X0067642Y0055437D01*
X0070260Y0060161D02*
X0070654Y0050457D01*
X0071185Y0049925D01*
X0081372Y0049925D01*
X0081417Y0049970D01*
X0077484Y0055043D02*
X0075260Y0056480D01*
X0075260Y0060161D01*
X0080260Y0060161D02*
X0080634Y0060142D01*
X0080634Y0057012D01*
X0082209Y0055437D01*
X0082996Y0055437D01*
X0043823Y0057799D02*
X0042445Y0058390D01*
X0042445Y0062130D01*
X0041067Y0063508D01*
X0039295Y0063508D01*
D28*
X0060260Y0078961D02*
X0069610Y0070398D01*
M02*
