%
M48
M72
T01C0.01192
T02C0.01200
T03C0.01378
T04C0.03543
T05C0.04000
T06C0.06693
%
T01
X23650Y39792
T02
X34280Y33887
X46682Y13217
X57312Y28572
X76957Y42784
X90383Y48060
X87430Y71091
X86839Y75225
X67942Y75225
X67942Y71091
X62627Y63414
X50225Y69320
X43729Y70107
X40580Y73257
X41367Y77391
X46091Y79556
X47272Y85855
X59083Y89989
X39005Y104162
X40186Y118926
X33099Y85855
X17745Y79359
X27194Y61052
X32509Y60461
X49635Y57509
X85658Y16761
X91564Y103572
X85658Y104162
X81524Y117154
T03
X30737Y95304
T04
X17745Y64595
X17745Y52784
T05
X68257Y36524
X68257Y26524
X78257Y26524
X78257Y36524
X59635Y134280
X49635Y134280
X39635Y134280
T06
X15580Y14595
X96288Y14595
X96288Y137430
X15580Y137430
M30
