G75*
%MOIN*%
%OFA0B0*%
%FSLAX25Y25*%
%IPPOS*%
%LPD*%
%AMOC8*
5,1,8,0,0,1.08239X$1,22.5*
%
%ADD10R,0.03937X0.04331*%
%ADD11R,0.02362X0.04724*%
%ADD12R,0.03150X0.03346*%
%ADD13R,0.03346X0.03150*%
%ADD14R,0.08000X0.05000*%
%ADD15R,0.02756X0.04724*%
%ADD16C,0.07400*%
%ADD17R,0.05709X0.01575*%
%ADD18R,0.05906X0.07087*%
%ADD19R,0.05906X0.09843*%
%ADD20R,0.06299X0.07098*%
%ADD21R,0.03268X0.02480*%
%ADD22R,0.05000X0.09000*%
%ADD23R,0.14000X0.08500*%
%ADD24C,0.01000*%
%ADD25C,0.01200*%
%ADD26C,0.02800*%
%ADD27C,0.00600*%
%ADD28C,0.00800*%
D10*
X0126346Y0067654D03*
X0136346Y0067654D03*
X0136346Y0074346D03*
X0126346Y0074346D03*
X0231346Y0072654D03*
X0231346Y0079346D03*
X0231346Y0029346D03*
X0231346Y0022654D03*
D11*
X0230382Y0039189D03*
X0235382Y0039189D03*
X0225382Y0039189D03*
X0220382Y0039189D03*
X0220382Y0061236D03*
X0225382Y0061236D03*
X0230382Y0061236D03*
X0235382Y0061236D03*
D12*
X0244614Y0053756D03*
X0244614Y0048244D03*
X0201346Y0038756D03*
X0201346Y0033244D03*
X0101346Y0068244D03*
X0101346Y0073756D03*
D13*
X0079102Y0051000D03*
X0073591Y0051000D03*
X0073591Y0041000D03*
X0079102Y0041000D03*
D14*
X0136346Y0034500D03*
X0136346Y0047500D03*
D15*
X0146327Y0030823D03*
X0151327Y0030823D03*
X0156327Y0030823D03*
X0161327Y0030823D03*
X0166327Y0030823D03*
X0171327Y0030823D03*
X0176327Y0030823D03*
X0181327Y0030823D03*
X0186327Y0030823D03*
X0191327Y0030823D03*
X0191327Y0069602D03*
X0186327Y0069602D03*
X0181327Y0069602D03*
X0176327Y0069602D03*
X0171327Y0069602D03*
X0166327Y0069602D03*
X0161327Y0069602D03*
X0156327Y0069602D03*
X0151327Y0069602D03*
X0146327Y0069602D03*
D16*
X0143236Y0081000D03*
X0153236Y0081000D03*
X0163236Y0081000D03*
X0173236Y0081000D03*
X0183236Y0081000D03*
X0193236Y0081000D03*
X0193236Y0020685D03*
X0183236Y0020685D03*
X0173236Y0020685D03*
X0163236Y0020685D03*
X0153236Y0020685D03*
X0143236Y0020685D03*
D17*
X0032075Y0045094D03*
X0032075Y0047654D03*
X0032075Y0050213D03*
X0032075Y0052772D03*
X0032075Y0055331D03*
D18*
X0021346Y0064720D03*
X0021346Y0035705D03*
D19*
X0021346Y0050213D03*
D20*
X0045748Y0041000D03*
X0056945Y0041000D03*
D21*
X0056346Y0051472D03*
X0056346Y0060528D03*
D22*
X0072346Y0063500D03*
X0081346Y0063500D03*
X0090346Y0063500D03*
D23*
X0081346Y0088500D03*
D24*
X0081346Y0076000D02*
X0046346Y0076000D01*
X0081346Y0076000D02*
X0099102Y0076000D01*
X0101346Y0073756D01*
X0101346Y0068244D02*
X0096602Y0063500D01*
X0090346Y0063500D01*
X0121583Y0059071D02*
X0122567Y0058087D01*
X0135362Y0058087D01*
X0143236Y0050213D01*
X0143236Y0043323D01*
X0136346Y0036433D01*
X0136346Y0034500D01*
X0151327Y0030823D02*
X0151327Y0026020D01*
X0151346Y0026000D01*
X0157921Y0026000D01*
X0163236Y0020685D01*
X0173236Y0020685D02*
X0176327Y0023776D01*
X0176327Y0030823D01*
X0171346Y0030843D02*
X0171327Y0030823D01*
X0171346Y0030843D02*
X0171346Y0036000D01*
X0166346Y0036000D02*
X0166346Y0030843D01*
X0166327Y0030823D01*
X0161327Y0030823D02*
X0161327Y0040980D01*
X0171346Y0051000D01*
X0176346Y0056000D02*
X0181327Y0051020D01*
X0181327Y0030823D01*
X0186327Y0030823D02*
X0186346Y0030843D01*
X0186346Y0046000D01*
X0191346Y0051000D01*
X0191962Y0046807D02*
X0191465Y0045336D01*
X0191465Y0046276D01*
X0191327Y0045154D01*
X0191327Y0030823D01*
X0198925Y0030823D01*
X0201346Y0033244D01*
X0201307Y0033205D01*
X0201307Y0016748D01*
X0198354Y0013795D01*
X0136346Y0013795D01*
X0129457Y0020685D01*
X0129457Y0024622D01*
X0156327Y0030823D02*
X0156346Y0030843D01*
X0156346Y0040016D01*
X0151110Y0041354D02*
X0151110Y0052181D01*
X0146346Y0056000D02*
X0146268Y0056079D01*
X0146346Y0056000D02*
X0176346Y0056000D01*
X0188512Y0059071D02*
X0140815Y0059071D01*
X0138846Y0061039D01*
X0132961Y0061039D01*
X0126346Y0067654D01*
X0121583Y0069898D02*
X0121583Y0059071D01*
X0136346Y0067654D02*
X0140992Y0063008D01*
X0175717Y0063008D01*
X0175717Y0063992D01*
X0176327Y0064602D01*
X0176327Y0069602D01*
X0172764Y0071039D02*
X0171327Y0069602D01*
X0168805Y0067080D01*
X0168805Y0066785D01*
X0168160Y0066140D01*
X0146369Y0066140D01*
X0143057Y0066140D01*
X0140283Y0068913D01*
X0140283Y0073835D01*
X0139772Y0074346D01*
X0136346Y0074346D01*
X0126346Y0074346D02*
X0126031Y0074346D01*
X0121583Y0069898D01*
X0146189Y0065961D02*
X0146369Y0066140D01*
X0151110Y0069819D02*
X0151327Y0069602D01*
X0151110Y0069819D02*
X0151110Y0074819D01*
X0156327Y0077909D02*
X0153236Y0081000D01*
X0156327Y0077909D02*
X0156327Y0069602D01*
X0161327Y0069602D02*
X0161327Y0079091D01*
X0163236Y0081000D01*
X0168849Y0072420D02*
X0172629Y0076200D01*
X0185224Y0076200D01*
X0190024Y0081000D01*
X0193236Y0081000D01*
X0197370Y0073835D02*
X0174732Y0073835D01*
X0172764Y0071866D01*
X0172764Y0071039D01*
X0168849Y0072124D02*
X0168849Y0072420D01*
X0168849Y0072124D02*
X0166327Y0069602D01*
X0181327Y0069602D02*
X0181327Y0065272D01*
X0182606Y0063992D01*
X0217626Y0063992D01*
X0220382Y0061236D01*
X0225382Y0061236D02*
X0225913Y0060705D01*
X0225913Y0056118D01*
X0224929Y0055134D01*
X0218039Y0055134D01*
X0211150Y0062024D01*
X0186543Y0062024D01*
X0185559Y0061039D01*
X0175717Y0061039D01*
X0175717Y0063008D01*
X0200323Y0058087D02*
X0200323Y0039780D01*
X0201346Y0038756D01*
X0201346Y0033244D02*
X0214437Y0033244D01*
X0220382Y0039189D01*
X0220382Y0047634D01*
X0220992Y0048244D01*
X0244614Y0048244D01*
X0249102Y0048244D01*
X0251346Y0046000D01*
X0252382Y0043500D02*
X0247744Y0043500D01*
X0247567Y0043323D01*
X0226898Y0043323D01*
X0225382Y0041807D01*
X0225382Y0039189D01*
X0230382Y0039189D02*
X0231346Y0038224D01*
X0231346Y0031000D01*
X0226346Y0031000D01*
X0231346Y0031000D02*
X0231346Y0029346D01*
X0252382Y0043500D02*
X0266268Y0057386D01*
X0266268Y0072850D01*
X0241346Y0066000D02*
X0231346Y0066000D01*
X0231346Y0072654D01*
X0231346Y0066000D02*
X0231346Y0062201D01*
X0230382Y0061236D01*
X0307606Y0042929D02*
X0307606Y0083677D01*
X0308591Y0084661D01*
X0136346Y0047500D02*
X0135602Y0047500D01*
X0129457Y0041354D01*
X0056346Y0051472D02*
X0051819Y0051472D01*
X0051346Y0051000D01*
X0040874Y0051197D02*
X0036937Y0055134D01*
X0036740Y0055331D01*
X0032075Y0055331D01*
X0037272Y0060528D01*
X0056346Y0060528D01*
X0036937Y0055134D02*
X0036179Y0055134D01*
X0040874Y0051197D02*
X0040874Y0050213D01*
D25*
X0056346Y0051472D02*
X0056945Y0050874D01*
X0056945Y0041000D01*
X0056945Y0040402D01*
X0061346Y0036000D01*
X0134846Y0036000D01*
X0136346Y0034500D01*
X0136346Y0047500D02*
X0132846Y0051000D01*
X0090346Y0051000D01*
X0090346Y0045000D01*
X0086346Y0041000D01*
X0079102Y0041000D01*
X0079102Y0051000D01*
X0073591Y0051000D02*
X0071346Y0051000D01*
X0071346Y0046000D01*
X0066346Y0041000D01*
X0073591Y0041000D01*
X0066346Y0041000D02*
X0056945Y0041000D01*
X0045748Y0041000D02*
X0041654Y0045094D01*
X0032075Y0045094D01*
X0061819Y0060528D02*
X0066346Y0056000D01*
X0061819Y0060528D02*
X0056346Y0060528D01*
X0071346Y0062500D02*
X0071346Y0051000D01*
X0090346Y0051000D02*
X0090346Y0063500D01*
X0081346Y0063500D02*
X0081346Y0076000D01*
X0081346Y0086000D01*
X0126346Y0074346D02*
X0136346Y0074346D01*
X0072346Y0063500D02*
X0071346Y0062500D01*
D26*
X0066346Y0056000D03*
X0051346Y0051000D03*
X0040874Y0050213D03*
X0090346Y0051000D03*
X0129457Y0041354D03*
X0151110Y0041354D03*
X0156346Y0040016D03*
X0166346Y0036000D03*
X0171346Y0036000D03*
X0191962Y0046807D03*
X0191346Y0051000D03*
X0171346Y0051000D03*
X0151110Y0052181D03*
X0146268Y0056079D03*
X0175717Y0063992D03*
X0182606Y0063992D03*
X0188512Y0059071D03*
X0200323Y0058087D03*
X0241346Y0066000D03*
X0247567Y0068913D03*
X0266268Y0072850D03*
X0308591Y0084661D03*
X0197370Y0073835D03*
X0151110Y0074819D03*
X0251346Y0046000D03*
X0226346Y0031000D03*
X0307606Y0042929D03*
X0129457Y0024622D03*
X0046346Y0076000D03*
D27*
X0231346Y0079346D02*
X0231346Y0079740D01*
X0231346Y0085646D01*
X0231346Y0086118D01*
D28*
X0082213Y0008874D02*
X0056622Y0034465D01*
X0056622Y0040079D01*
X0056945Y0040402D01*
X0082213Y0008874D02*
X0217567Y0008874D01*
X0231346Y0022654D01*
X0239693Y0053165D02*
X0244024Y0053165D01*
X0244614Y0053756D01*
X0244614Y0065961D01*
X0247567Y0068913D01*
X0247567Y0071866D01*
X0240677Y0078756D01*
X0232331Y0078756D01*
X0231346Y0079740D01*
X0231346Y0079346D02*
X0231346Y0085646D01*
X0231346Y0086118D01*
X0226898Y0090567D01*
X0132409Y0090567D01*
X0126346Y0084504D01*
X0126346Y0074346D01*
X0235382Y0061236D02*
X0235382Y0057476D01*
X0239693Y0053165D01*
M02*
