G75*
%MOIN*%
%OFA0B0*%
%FSLAX25Y25*%
%IPPOS*%
%LPD*%
%AMOC8*
5,1,8,0,0,1.08239X$1,22.5*
%
%ADD10C,0.00000*%
%ADD11C,0.00500*%
%ADD12C,0.00800*%
%ADD13C,0.00400*%
%ADD14C,0.00600*%
%ADD15C,0.03000*%
%ADD16C,0.00300*%
%ADD17C,0.01200*%
D10*
X0011346Y0001000D02*
X0011346Y0099425D01*
X0326307Y0099425D01*
X0326307Y0001000D01*
X0011346Y0001000D01*
X0028335Y0042732D02*
X0028337Y0042813D01*
X0028343Y0042895D01*
X0028353Y0042976D01*
X0028367Y0043056D01*
X0028384Y0043135D01*
X0028406Y0043214D01*
X0028431Y0043291D01*
X0028460Y0043368D01*
X0028493Y0043442D01*
X0028530Y0043515D01*
X0028569Y0043586D01*
X0028613Y0043655D01*
X0028659Y0043722D01*
X0028709Y0043786D01*
X0028762Y0043848D01*
X0028818Y0043908D01*
X0028876Y0043964D01*
X0028938Y0044018D01*
X0029002Y0044069D01*
X0029068Y0044116D01*
X0029136Y0044160D01*
X0029207Y0044201D01*
X0029279Y0044238D01*
X0029354Y0044272D01*
X0029429Y0044302D01*
X0029507Y0044328D01*
X0029585Y0044351D01*
X0029664Y0044369D01*
X0029744Y0044384D01*
X0029825Y0044395D01*
X0029906Y0044402D01*
X0029988Y0044405D01*
X0030069Y0044404D01*
X0030150Y0044399D01*
X0030231Y0044390D01*
X0030312Y0044377D01*
X0030392Y0044360D01*
X0030470Y0044340D01*
X0030548Y0044315D01*
X0030625Y0044287D01*
X0030700Y0044255D01*
X0030773Y0044220D01*
X0030844Y0044181D01*
X0030914Y0044138D01*
X0030981Y0044093D01*
X0031047Y0044044D01*
X0031109Y0043992D01*
X0031169Y0043936D01*
X0031226Y0043878D01*
X0031281Y0043818D01*
X0031332Y0043754D01*
X0031380Y0043689D01*
X0031425Y0043621D01*
X0031467Y0043551D01*
X0031505Y0043479D01*
X0031540Y0043405D01*
X0031571Y0043330D01*
X0031598Y0043253D01*
X0031621Y0043175D01*
X0031641Y0043096D01*
X0031657Y0043016D01*
X0031669Y0042935D01*
X0031677Y0042854D01*
X0031681Y0042773D01*
X0031681Y0042691D01*
X0031677Y0042610D01*
X0031669Y0042529D01*
X0031657Y0042448D01*
X0031641Y0042368D01*
X0031621Y0042289D01*
X0031598Y0042211D01*
X0031571Y0042134D01*
X0031540Y0042059D01*
X0031505Y0041985D01*
X0031467Y0041913D01*
X0031425Y0041843D01*
X0031380Y0041775D01*
X0031332Y0041710D01*
X0031281Y0041646D01*
X0031226Y0041586D01*
X0031169Y0041528D01*
X0031109Y0041472D01*
X0031047Y0041420D01*
X0030981Y0041371D01*
X0030914Y0041326D01*
X0030845Y0041283D01*
X0030773Y0041244D01*
X0030700Y0041209D01*
X0030625Y0041177D01*
X0030548Y0041149D01*
X0030470Y0041124D01*
X0030392Y0041104D01*
X0030312Y0041087D01*
X0030231Y0041074D01*
X0030150Y0041065D01*
X0030069Y0041060D01*
X0029988Y0041059D01*
X0029906Y0041062D01*
X0029825Y0041069D01*
X0029744Y0041080D01*
X0029664Y0041095D01*
X0029585Y0041113D01*
X0029507Y0041136D01*
X0029429Y0041162D01*
X0029354Y0041192D01*
X0029279Y0041226D01*
X0029207Y0041263D01*
X0029136Y0041304D01*
X0029068Y0041348D01*
X0029002Y0041395D01*
X0028938Y0041446D01*
X0028876Y0041500D01*
X0028818Y0041556D01*
X0028762Y0041616D01*
X0028709Y0041678D01*
X0028659Y0041742D01*
X0028613Y0041809D01*
X0028569Y0041878D01*
X0028530Y0041949D01*
X0028493Y0042022D01*
X0028460Y0042096D01*
X0028431Y0042173D01*
X0028406Y0042250D01*
X0028384Y0042329D01*
X0028367Y0042408D01*
X0028353Y0042488D01*
X0028343Y0042569D01*
X0028337Y0042651D01*
X0028335Y0042732D01*
X0028335Y0057693D02*
X0028337Y0057774D01*
X0028343Y0057856D01*
X0028353Y0057937D01*
X0028367Y0058017D01*
X0028384Y0058096D01*
X0028406Y0058175D01*
X0028431Y0058252D01*
X0028460Y0058329D01*
X0028493Y0058403D01*
X0028530Y0058476D01*
X0028569Y0058547D01*
X0028613Y0058616D01*
X0028659Y0058683D01*
X0028709Y0058747D01*
X0028762Y0058809D01*
X0028818Y0058869D01*
X0028876Y0058925D01*
X0028938Y0058979D01*
X0029002Y0059030D01*
X0029068Y0059077D01*
X0029136Y0059121D01*
X0029207Y0059162D01*
X0029279Y0059199D01*
X0029354Y0059233D01*
X0029429Y0059263D01*
X0029507Y0059289D01*
X0029585Y0059312D01*
X0029664Y0059330D01*
X0029744Y0059345D01*
X0029825Y0059356D01*
X0029906Y0059363D01*
X0029988Y0059366D01*
X0030069Y0059365D01*
X0030150Y0059360D01*
X0030231Y0059351D01*
X0030312Y0059338D01*
X0030392Y0059321D01*
X0030470Y0059301D01*
X0030548Y0059276D01*
X0030625Y0059248D01*
X0030700Y0059216D01*
X0030773Y0059181D01*
X0030844Y0059142D01*
X0030914Y0059099D01*
X0030981Y0059054D01*
X0031047Y0059005D01*
X0031109Y0058953D01*
X0031169Y0058897D01*
X0031226Y0058839D01*
X0031281Y0058779D01*
X0031332Y0058715D01*
X0031380Y0058650D01*
X0031425Y0058582D01*
X0031467Y0058512D01*
X0031505Y0058440D01*
X0031540Y0058366D01*
X0031571Y0058291D01*
X0031598Y0058214D01*
X0031621Y0058136D01*
X0031641Y0058057D01*
X0031657Y0057977D01*
X0031669Y0057896D01*
X0031677Y0057815D01*
X0031681Y0057734D01*
X0031681Y0057652D01*
X0031677Y0057571D01*
X0031669Y0057490D01*
X0031657Y0057409D01*
X0031641Y0057329D01*
X0031621Y0057250D01*
X0031598Y0057172D01*
X0031571Y0057095D01*
X0031540Y0057020D01*
X0031505Y0056946D01*
X0031467Y0056874D01*
X0031425Y0056804D01*
X0031380Y0056736D01*
X0031332Y0056671D01*
X0031281Y0056607D01*
X0031226Y0056547D01*
X0031169Y0056489D01*
X0031109Y0056433D01*
X0031047Y0056381D01*
X0030981Y0056332D01*
X0030914Y0056287D01*
X0030845Y0056244D01*
X0030773Y0056205D01*
X0030700Y0056170D01*
X0030625Y0056138D01*
X0030548Y0056110D01*
X0030470Y0056085D01*
X0030392Y0056065D01*
X0030312Y0056048D01*
X0030231Y0056035D01*
X0030150Y0056026D01*
X0030069Y0056021D01*
X0029988Y0056020D01*
X0029906Y0056023D01*
X0029825Y0056030D01*
X0029744Y0056041D01*
X0029664Y0056056D01*
X0029585Y0056074D01*
X0029507Y0056097D01*
X0029429Y0056123D01*
X0029354Y0056153D01*
X0029279Y0056187D01*
X0029207Y0056224D01*
X0029136Y0056265D01*
X0029068Y0056309D01*
X0029002Y0056356D01*
X0028938Y0056407D01*
X0028876Y0056461D01*
X0028818Y0056517D01*
X0028762Y0056577D01*
X0028709Y0056639D01*
X0028659Y0056703D01*
X0028613Y0056770D01*
X0028569Y0056839D01*
X0028530Y0056910D01*
X0028493Y0056983D01*
X0028460Y0057057D01*
X0028431Y0057134D01*
X0028406Y0057211D01*
X0028384Y0057290D01*
X0028367Y0057369D01*
X0028353Y0057449D01*
X0028343Y0057530D01*
X0028337Y0057612D01*
X0028335Y0057693D01*
D11*
X0060581Y0056533D02*
X0060581Y0055266D01*
X0060581Y0055900D02*
X0062482Y0055900D01*
X0061848Y0055266D01*
X0062165Y0054324D02*
X0062482Y0054007D01*
X0062482Y0053056D01*
X0060581Y0053056D01*
X0060581Y0054007D01*
X0060898Y0054324D01*
X0062165Y0054324D01*
X0131546Y0050700D02*
X0141146Y0050700D01*
X0141146Y0031300D01*
X0131546Y0031300D01*
X0131546Y0050700D01*
X0213569Y0060010D02*
X0214837Y0060010D01*
X0213569Y0061278D01*
X0213569Y0061595D01*
X0213886Y0061911D01*
X0214520Y0061911D01*
X0214837Y0061595D01*
X0215779Y0061911D02*
X0215779Y0060327D01*
X0216096Y0060010D01*
X0216730Y0060010D01*
X0217046Y0060327D01*
X0217046Y0061911D01*
X0234596Y0074040D02*
X0236498Y0074040D01*
X0236498Y0074991D01*
X0236181Y0075308D01*
X0235547Y0075308D01*
X0235230Y0074991D01*
X0235230Y0074040D01*
X0235230Y0074674D02*
X0234596Y0075308D01*
X0235547Y0076250D02*
X0235547Y0077518D01*
X0234596Y0077201D02*
X0236498Y0077201D01*
X0235547Y0076250D01*
X0137561Y0078883D02*
X0137561Y0079833D01*
X0137244Y0080150D01*
X0136610Y0080150D01*
X0136293Y0079833D01*
X0136293Y0078883D01*
X0136293Y0079517D02*
X0135659Y0080150D01*
X0135976Y0081093D02*
X0135659Y0081409D01*
X0135659Y0082043D01*
X0135976Y0082360D01*
X0136610Y0082360D01*
X0136927Y0082043D01*
X0136927Y0081726D01*
X0136610Y0081093D01*
X0137561Y0081093D01*
X0137561Y0082360D01*
X0137561Y0078883D02*
X0135659Y0078883D01*
X0127561Y0078883D02*
X0127561Y0079833D01*
X0127244Y0080150D01*
X0126610Y0080150D01*
X0126293Y0079833D01*
X0126293Y0078883D01*
X0126293Y0079517D02*
X0125659Y0080150D01*
X0125976Y0081093D02*
X0125659Y0081409D01*
X0125659Y0082043D01*
X0125976Y0082360D01*
X0126293Y0082360D01*
X0126610Y0082043D01*
X0126610Y0081093D01*
X0125976Y0081093D01*
X0126610Y0081093D02*
X0127244Y0081726D01*
X0127561Y0082360D01*
X0127561Y0078883D02*
X0125659Y0078883D01*
X0225212Y0027201D02*
X0225212Y0026567D01*
X0225529Y0026250D01*
X0226163Y0026884D02*
X0226163Y0027201D01*
X0225846Y0027518D01*
X0225529Y0027518D01*
X0225212Y0027201D01*
X0226163Y0027201D02*
X0226480Y0027518D01*
X0226797Y0027518D01*
X0227114Y0027201D01*
X0227114Y0026567D01*
X0226797Y0026250D01*
X0226797Y0025308D02*
X0226163Y0025308D01*
X0225846Y0024991D01*
X0225846Y0024040D01*
X0225212Y0024040D02*
X0227114Y0024040D01*
X0227114Y0024991D01*
X0226797Y0025308D01*
X0225846Y0024674D02*
X0225212Y0025308D01*
D12*
X0238757Y0040838D02*
X0238759Y0040901D01*
X0238765Y0040963D01*
X0238775Y0041025D01*
X0238788Y0041087D01*
X0238806Y0041147D01*
X0238827Y0041206D01*
X0238852Y0041264D01*
X0238881Y0041320D01*
X0238913Y0041374D01*
X0238948Y0041426D01*
X0238986Y0041475D01*
X0239028Y0041523D01*
X0239072Y0041567D01*
X0239120Y0041609D01*
X0239169Y0041647D01*
X0239221Y0041682D01*
X0239275Y0041714D01*
X0239331Y0041743D01*
X0239389Y0041768D01*
X0239448Y0041789D01*
X0239508Y0041807D01*
X0239570Y0041820D01*
X0239632Y0041830D01*
X0239694Y0041836D01*
X0239757Y0041838D01*
X0239820Y0041836D01*
X0239882Y0041830D01*
X0239944Y0041820D01*
X0240006Y0041807D01*
X0240066Y0041789D01*
X0240125Y0041768D01*
X0240183Y0041743D01*
X0240239Y0041714D01*
X0240293Y0041682D01*
X0240345Y0041647D01*
X0240394Y0041609D01*
X0240442Y0041567D01*
X0240486Y0041523D01*
X0240528Y0041475D01*
X0240566Y0041426D01*
X0240601Y0041374D01*
X0240633Y0041320D01*
X0240662Y0041264D01*
X0240687Y0041206D01*
X0240708Y0041147D01*
X0240726Y0041087D01*
X0240739Y0041025D01*
X0240749Y0040963D01*
X0240755Y0040901D01*
X0240757Y0040838D01*
X0240755Y0040775D01*
X0240749Y0040713D01*
X0240739Y0040651D01*
X0240726Y0040589D01*
X0240708Y0040529D01*
X0240687Y0040470D01*
X0240662Y0040412D01*
X0240633Y0040356D01*
X0240601Y0040302D01*
X0240566Y0040250D01*
X0240528Y0040201D01*
X0240486Y0040153D01*
X0240442Y0040109D01*
X0240394Y0040067D01*
X0240345Y0040029D01*
X0240293Y0039994D01*
X0240239Y0039962D01*
X0240183Y0039933D01*
X0240125Y0039908D01*
X0240066Y0039887D01*
X0240006Y0039869D01*
X0239944Y0039856D01*
X0239882Y0039846D01*
X0239820Y0039840D01*
X0239757Y0039838D01*
X0239694Y0039840D01*
X0239632Y0039846D01*
X0239570Y0039856D01*
X0239508Y0039869D01*
X0239448Y0039887D01*
X0239389Y0039908D01*
X0239331Y0039933D01*
X0239275Y0039962D01*
X0239221Y0039994D01*
X0239169Y0040029D01*
X0239120Y0040067D01*
X0239072Y0040109D01*
X0239028Y0040153D01*
X0238986Y0040201D01*
X0238948Y0040250D01*
X0238913Y0040302D01*
X0238881Y0040356D01*
X0238852Y0040412D01*
X0238827Y0040470D01*
X0238806Y0040529D01*
X0238788Y0040589D01*
X0238775Y0040651D01*
X0238765Y0040713D01*
X0238759Y0040775D01*
X0238757Y0040838D01*
X0237082Y0042550D02*
X0218288Y0042550D01*
X0218218Y0042562D01*
X0218148Y0042579D01*
X0218080Y0042599D01*
X0218013Y0042623D01*
X0217947Y0042650D01*
X0217882Y0042681D01*
X0217820Y0042715D01*
X0217759Y0042753D01*
X0217701Y0042794D01*
X0217644Y0042838D01*
X0217591Y0042885D01*
X0217540Y0042935D01*
X0217491Y0042987D01*
X0217446Y0043042D01*
X0217403Y0043100D01*
X0217364Y0043159D01*
X0217328Y0043221D01*
X0217296Y0043285D01*
X0217267Y0043350D01*
X0217241Y0043416D01*
X0217220Y0043484D01*
X0217201Y0043554D01*
X0217187Y0043623D01*
X0217177Y0043694D01*
X0217170Y0043765D01*
X0217167Y0043836D01*
X0217168Y0043908D01*
X0217173Y0043979D01*
X0217182Y0044050D01*
X0217182Y0056375D01*
X0217181Y0056376D02*
X0217183Y0056452D01*
X0217189Y0056527D01*
X0217198Y0056603D01*
X0217212Y0056678D01*
X0217229Y0056752D01*
X0217250Y0056825D01*
X0217274Y0056897D01*
X0217302Y0056967D01*
X0217334Y0057036D01*
X0217369Y0057104D01*
X0217408Y0057169D01*
X0217450Y0057233D01*
X0217495Y0057294D01*
X0217543Y0057353D01*
X0217594Y0057409D01*
X0217648Y0057463D01*
X0217704Y0057514D01*
X0217763Y0057562D01*
X0217824Y0057607D01*
X0217888Y0057649D01*
X0217953Y0057688D01*
X0218021Y0057723D01*
X0218090Y0057755D01*
X0218160Y0057783D01*
X0218232Y0057807D01*
X0218305Y0057828D01*
X0218379Y0057845D01*
X0218454Y0057859D01*
X0218530Y0057868D01*
X0218605Y0057874D01*
X0218681Y0057876D01*
X0218682Y0057875D02*
X0237082Y0057875D01*
X0237081Y0057876D02*
X0237162Y0057864D01*
X0237242Y0057849D01*
X0237321Y0057830D01*
X0237399Y0057808D01*
X0237476Y0057781D01*
X0237552Y0057752D01*
X0237626Y0057718D01*
X0237698Y0057681D01*
X0237769Y0057641D01*
X0237837Y0057597D01*
X0237904Y0057550D01*
X0237968Y0057500D01*
X0238029Y0057447D01*
X0238088Y0057391D01*
X0238145Y0057332D01*
X0238198Y0057271D01*
X0238249Y0057207D01*
X0238296Y0057141D01*
X0238340Y0057073D01*
X0238381Y0057003D01*
X0238419Y0056931D01*
X0238453Y0056857D01*
X0238483Y0056781D01*
X0238510Y0056705D01*
X0238533Y0056627D01*
X0238553Y0056548D01*
X0238568Y0056468D01*
X0238580Y0056387D01*
X0238588Y0056307D01*
X0238592Y0056225D01*
X0238593Y0056144D01*
X0238589Y0056063D01*
X0238582Y0055982D01*
X0238582Y0055931D02*
X0238582Y0052613D01*
X0238382Y0052613D02*
X0238284Y0052611D01*
X0238186Y0052605D01*
X0238088Y0052596D01*
X0237991Y0052582D01*
X0237894Y0052565D01*
X0237798Y0052544D01*
X0237703Y0052519D01*
X0237609Y0052491D01*
X0237517Y0052458D01*
X0237425Y0052423D01*
X0237335Y0052383D01*
X0237247Y0052341D01*
X0237160Y0052294D01*
X0237076Y0052245D01*
X0236993Y0052192D01*
X0236913Y0052136D01*
X0236834Y0052076D01*
X0236758Y0052014D01*
X0236685Y0051949D01*
X0236614Y0051881D01*
X0236546Y0051810D01*
X0236481Y0051737D01*
X0236419Y0051661D01*
X0236359Y0051582D01*
X0236303Y0051502D01*
X0236250Y0051419D01*
X0236201Y0051335D01*
X0236154Y0051248D01*
X0236112Y0051160D01*
X0236072Y0051070D01*
X0236037Y0050978D01*
X0236004Y0050886D01*
X0235976Y0050792D01*
X0235951Y0050697D01*
X0235930Y0050601D01*
X0235913Y0050504D01*
X0235899Y0050407D01*
X0235890Y0050309D01*
X0235884Y0050211D01*
X0235882Y0050113D01*
X0235884Y0050015D01*
X0235890Y0049917D01*
X0235899Y0049819D01*
X0235913Y0049722D01*
X0235930Y0049625D01*
X0235951Y0049529D01*
X0235976Y0049434D01*
X0236004Y0049340D01*
X0236037Y0049248D01*
X0236072Y0049156D01*
X0236112Y0049066D01*
X0236154Y0048978D01*
X0236201Y0048891D01*
X0236250Y0048807D01*
X0236303Y0048724D01*
X0236359Y0048644D01*
X0236419Y0048565D01*
X0236481Y0048489D01*
X0236546Y0048416D01*
X0236614Y0048345D01*
X0236685Y0048277D01*
X0236758Y0048212D01*
X0236834Y0048150D01*
X0236913Y0048090D01*
X0236993Y0048034D01*
X0237076Y0047981D01*
X0237160Y0047932D01*
X0237247Y0047885D01*
X0237335Y0047843D01*
X0237425Y0047803D01*
X0237517Y0047768D01*
X0237609Y0047735D01*
X0237703Y0047707D01*
X0237798Y0047682D01*
X0237894Y0047661D01*
X0237991Y0047644D01*
X0238088Y0047630D01*
X0238186Y0047621D01*
X0238284Y0047615D01*
X0238382Y0047613D01*
X0238582Y0047613D02*
X0238582Y0043656D01*
X0238581Y0043656D02*
X0238569Y0043586D01*
X0238552Y0043516D01*
X0238532Y0043448D01*
X0238509Y0043380D01*
X0238481Y0043314D01*
X0238450Y0043250D01*
X0238416Y0043188D01*
X0238378Y0043127D01*
X0238338Y0043068D01*
X0238294Y0043012D01*
X0238247Y0042959D01*
X0238197Y0042907D01*
X0238144Y0042859D01*
X0238089Y0042814D01*
X0238032Y0042771D01*
X0237972Y0042732D01*
X0237910Y0042696D01*
X0237847Y0042664D01*
X0237782Y0042635D01*
X0237715Y0042609D01*
X0237647Y0042587D01*
X0237578Y0042569D01*
X0237508Y0042555D01*
X0237437Y0042545D01*
X0237366Y0042538D01*
X0237295Y0042535D01*
X0237224Y0042536D01*
X0237152Y0042541D01*
X0237082Y0042550D01*
X0094248Y0069000D02*
X0094248Y0083000D01*
X0068445Y0083000D01*
X0068445Y0069000D01*
X0094248Y0069000D01*
X0058807Y0059543D02*
X0058807Y0052457D01*
X0053886Y0052457D02*
X0053886Y0059543D01*
X0053886Y0049031D02*
X0058807Y0049031D01*
D13*
X0083237Y0049231D02*
X0086306Y0049231D01*
X0084772Y0049231D02*
X0084772Y0053835D01*
X0086306Y0052301D01*
X0087841Y0053068D02*
X0088608Y0053835D01*
X0090143Y0053835D01*
X0090910Y0053068D01*
X0090910Y0049999D01*
X0090143Y0049231D01*
X0088608Y0049231D01*
X0087841Y0049999D01*
X0086523Y0044820D02*
X0084989Y0044820D01*
X0084221Y0044052D01*
X0084221Y0043285D01*
X0087291Y0040216D01*
X0084221Y0040216D01*
X0088825Y0040983D02*
X0089593Y0040216D01*
X0091127Y0040216D01*
X0091894Y0040983D01*
X0091894Y0044052D01*
X0091127Y0044820D01*
X0089593Y0044820D01*
X0088825Y0044052D01*
X0087291Y0044052D02*
X0086523Y0044820D01*
X0054678Y0034556D02*
X0051609Y0034556D01*
X0050074Y0033789D02*
X0049307Y0034556D01*
X0047772Y0034556D01*
X0047005Y0033789D01*
X0047005Y0033021D01*
X0050074Y0029952D01*
X0047005Y0029952D01*
X0054678Y0029952D02*
X0054678Y0034556D01*
X0054678Y0032254D02*
X0053143Y0032254D01*
X0098633Y0057602D02*
X0099400Y0056835D01*
X0102470Y0056835D01*
X0103237Y0057602D01*
X0103237Y0059137D01*
X0102470Y0059904D01*
X0099400Y0059904D02*
X0098633Y0059137D01*
X0098633Y0057602D01*
X0099400Y0061439D02*
X0098633Y0062206D01*
X0098633Y0063741D01*
X0099400Y0064508D01*
X0100168Y0064508D01*
X0100935Y0063741D01*
X0100935Y0062973D01*
X0100935Y0063741D02*
X0101702Y0064508D01*
X0102470Y0064508D01*
X0103237Y0063741D01*
X0103237Y0062206D01*
X0102470Y0061439D01*
X0134920Y0056418D02*
X0134920Y0055384D01*
X0135438Y0054867D01*
X0136472Y0054867D02*
X0136989Y0055901D01*
X0136989Y0056418D01*
X0136472Y0056935D01*
X0135438Y0056935D01*
X0134920Y0056418D01*
X0138023Y0056935D02*
X0138023Y0054867D01*
X0136472Y0054867D01*
X0137506Y0053713D02*
X0138023Y0053196D01*
X0138023Y0052161D01*
X0137506Y0051644D01*
X0135438Y0051644D01*
X0134920Y0052161D01*
X0134920Y0053196D01*
X0135438Y0053713D01*
X0194458Y0063149D02*
X0196526Y0063149D01*
X0195492Y0063149D02*
X0195492Y0066251D01*
X0196526Y0065217D01*
X0197680Y0066251D02*
X0197680Y0063666D01*
X0198198Y0063149D01*
X0199232Y0063149D01*
X0199749Y0063666D01*
X0199749Y0066251D01*
X0242846Y0065980D02*
X0247450Y0065980D01*
X0245148Y0063678D01*
X0245148Y0066747D01*
X0246682Y0062143D02*
X0247450Y0061376D01*
X0247450Y0059841D01*
X0246682Y0059074D01*
X0243613Y0059074D01*
X0242846Y0059841D01*
X0242846Y0061376D01*
X0243613Y0062143D01*
X0204103Y0050413D02*
X0203336Y0048879D01*
X0201801Y0047344D01*
X0201801Y0049646D01*
X0201034Y0050413D01*
X0200267Y0050413D01*
X0199499Y0049646D01*
X0199499Y0048111D01*
X0200267Y0047344D01*
X0201801Y0047344D01*
X0200267Y0045809D02*
X0199499Y0045042D01*
X0199499Y0043507D01*
X0200267Y0042740D01*
X0203336Y0042740D01*
X0204103Y0043507D01*
X0204103Y0045042D01*
X0203336Y0045809D01*
X0096816Y0085733D02*
X0096299Y0085216D01*
X0095264Y0085216D01*
X0094747Y0085733D01*
X0094747Y0088318D01*
X0093593Y0087801D02*
X0093076Y0088318D01*
X0092042Y0088318D01*
X0091525Y0087801D01*
X0091525Y0087284D01*
X0092042Y0086767D01*
X0091525Y0086250D01*
X0091525Y0085733D01*
X0092042Y0085216D01*
X0093076Y0085216D01*
X0093593Y0085733D01*
X0092559Y0086767D02*
X0092042Y0086767D01*
X0096816Y0085733D02*
X0096816Y0088318D01*
D14*
X0143827Y0065272D02*
X0193827Y0065272D01*
X0193827Y0037713D01*
X0191268Y0035154D01*
X0143827Y0035154D01*
X0143827Y0065272D01*
D15*
X0195343Y0033776D03*
D16*
X0144320Y0034091D02*
X0144320Y0033124D01*
X0143836Y0032640D01*
X0141901Y0032640D01*
X0143836Y0034575D01*
X0141901Y0034575D01*
X0141418Y0034091D01*
X0141418Y0033124D01*
X0141901Y0032640D01*
X0141418Y0031628D02*
X0141418Y0029693D01*
X0141418Y0030661D02*
X0144320Y0030661D01*
X0143353Y0029693D01*
X0144320Y0034091D02*
X0143836Y0034575D01*
X0143353Y0066111D02*
X0144320Y0067078D01*
X0141418Y0067078D01*
X0141418Y0066111D02*
X0141418Y0068046D01*
X0141418Y0069057D02*
X0141418Y0070992D01*
X0141418Y0070025D02*
X0144320Y0070025D01*
X0143353Y0069057D01*
X0194567Y0069541D02*
X0195051Y0069057D01*
X0196986Y0070992D01*
X0195051Y0070992D01*
X0194567Y0070508D01*
X0194567Y0069541D01*
X0195051Y0069057D02*
X0196986Y0069057D01*
X0197470Y0069541D01*
X0197470Y0070508D01*
X0196986Y0070992D01*
X0196986Y0068046D02*
X0197470Y0067562D01*
X0197470Y0066594D01*
X0196986Y0066111D01*
X0196502Y0068046D02*
X0194567Y0066111D01*
X0194567Y0068046D01*
X0196502Y0068046D02*
X0196986Y0068046D01*
D17*
X0033157Y0065961D02*
X0033157Y0062024D01*
X0033157Y0065961D02*
X0029220Y0065961D01*
X0017409Y0065961D02*
X0013472Y0065961D01*
X0033157Y0038402D02*
X0033157Y0034465D01*
X0033086Y0034493D02*
X0029220Y0034493D01*
X0029220Y0034465D01*
X0017409Y0034465D02*
X0013472Y0034465D01*
M02*
